<svg width="40" height="40" viewBox="0 0 40 40" fill="none" xmlns="http://www.w3.org/2000/svg">
<path d="M20 40C17.3004 40 14.6796 39.4712 12.2145 38.4284C9.83261 37.4219 7.69378 35.9782 5.85777 34.1422C4.02175 32.3062 2.5781 30.1674 1.5716 27.7855C0.528841 25.3183 0 22.6996 0 20C0 17.3004 0.528841 14.6796 1.5716 12.2145C2.5781 9.8326 4.02175 7.69378 5.85777 5.85777C7.69378 4.02175 9.83261 2.5781 12.2145 1.5716C14.6817 0.528841 17.3004 0 20 0C22.6996 0 25.3204 0.528841 27.7855 1.5716C30.1674 2.5781 32.3062 4.02175 34.1422 5.85777C35.9782 7.69378 37.4219 9.8326 38.4284 12.2145C39.4712 14.6817 40 17.3004 40 20C40 22.6996 39.4712 25.3204 38.4284 27.7855C37.4219 30.1674 35.9782 32.3062 34.1422 34.1422C32.3062 35.9782 30.1674 37.4219 27.7855 38.4284C25.3183 39.4712 22.6996 40 20 40ZM20 2.12816C17.5861 2.12816 15.2468 2.59942 13.044 3.53129C10.9159 4.43118 9.00522 5.71916 7.36326 7.36113C5.72129 9.00309 4.43331 10.9137 3.53343 13.0419C2.60156 15.2447 2.13029 17.584 2.13029 19.9979C2.13029 22.4118 2.60156 24.751 3.53343 26.9538C4.43331 29.082 5.72129 30.9926 7.36326 32.6346C9.00522 34.2766 10.9159 35.5646 13.044 36.4644C15.2468 37.3963 17.5861 37.8676 20 37.8676C22.4139 37.8676 24.7532 37.3963 26.956 36.4644C29.0841 35.5646 30.9948 34.2766 32.6367 32.6346C34.2787 30.9926 35.5667 29.082 36.4666 26.9538C37.3984 24.751 37.8697 22.4118 37.8697 19.9979C37.8697 17.584 37.3984 15.2447 36.4666 13.0419C35.5667 10.9137 34.2787 9.00309 32.6367 7.36113C30.9948 5.71916 29.0841 4.43118 26.956 3.53129C24.7532 2.59942 22.4139 2.12816 20 2.12816Z" fill="#146A36"/>
<path d="M19.9999 37.2341C17.6734 37.2341 15.4152 36.7778 13.2913 35.88C11.2377 35.0121 9.39533 33.7689 7.81307 32.1867C6.23081 30.6044 4.98761 28.7599 4.11971 26.7085C3.21983 24.5824 2.76562 22.3263 2.76562 19.9999C2.76562 17.6734 3.22196 15.4152 4.11971 13.2913C4.98761 11.2377 6.23081 9.39533 7.81307 7.81307C9.39533 6.23081 11.2399 4.98761 13.2913 4.11971C15.4173 3.21983 17.6734 2.76562 19.9999 2.76562C22.3263 2.76562 24.5846 3.22196 26.7085 4.11971C28.762 4.98761 30.6044 6.23081 32.1867 7.81307C33.7689 9.39533 35.0121 11.2399 35.88 13.2913C36.7799 15.4173 37.2341 17.6734 37.2341 19.9999C37.2341 22.3263 36.7778 24.5846 35.88 26.7085C35.0121 28.762 33.7689 30.6044 32.1867 32.1867C30.6044 33.7689 28.7599 35.0121 26.7085 35.88C24.5824 36.7799 22.3263 37.2341 19.9999 37.2341ZM19.9999 3.41388C17.7608 3.41388 15.59 3.85316 13.545 4.71679C11.5704 5.5527 9.79622 6.74686 8.27367 8.27154C6.75112 9.79409 5.55483 11.5683 4.71892 13.5429C3.85529 15.5879 3.41601 17.7587 3.41601 19.9977C3.41601 22.2368 3.85529 24.4076 4.71892 26.4526C5.55483 28.4272 6.74899 30.2014 8.27367 31.7239C9.79836 33.2465 11.5704 34.4428 13.545 35.2787C15.59 36.1423 17.7608 36.5816 19.9999 36.5816C22.2389 36.5816 24.4097 36.1423 26.4547 35.2787C28.4293 34.4428 30.2035 33.2486 31.7261 31.7239C33.2486 30.1992 34.4449 28.4272 35.2808 26.4526C36.1444 24.4076 36.5837 22.2368 36.5837 19.9977C36.5837 17.7587 36.1444 15.5879 35.2808 13.5429C34.4449 11.5683 33.2507 9.79409 31.7261 8.27154C30.2035 6.74899 28.4293 5.5527 26.4547 4.71679C24.4097 3.85316 22.2389 3.41388 19.9999 3.41388Z" fill="#146A36"/>
<path d="M27.701 7.9689C26.8651 9.94565 27.0932 12.528 25.7455 15.1125C25.0269 16.4901 23.4958 17.4006 21.9456 17.4667C21.2653 17.4944 20.5787 17.3409 19.9667 17.0402C20.0157 16.9528 20.0626 16.8632 20.1053 16.7737C20.5083 15.9079 20.5979 14.8588 20.359 13.8608C22.1247 11.9309 23.7752 10.8093 23.7752 10.8093C23.7752 10.8093 22.0607 11.4128 20.1778 13.2701C19.8643 12.4321 19.3227 11.6452 18.5977 10.9756C18.8791 10.5406 19.2203 10.1418 19.5999 9.78998C21.3336 8.18853 23.5769 7.78977 27.701 7.97103V7.9689Z" fill="#146A36"/>
<path d="M10.3793 9.46798C11.2002 11.4106 10.9763 13.9461 12.2984 16.4858C13.0043 17.8399 14.5076 18.7334 16.0323 18.7973C17.0772 18.84 18.1349 18.4476 18.9068 17.7503C19.4207 18.3495 19.6937 19.1854 19.6937 19.1854L20.1756 18.8208C19.8984 18.3111 19.5935 17.8228 19.2757 17.3622C19.2246 17.2876 19.1734 17.2151 19.1222 17.1426C16.9621 14.106 14.2326 12.2529 14.2326 12.2529C14.2326 12.2529 17.2115 13.2999 19.5999 16.9037C19.6574 16.8078 19.7086 16.7097 19.7555 16.6095C20.1735 15.7138 20.2033 14.6604 19.9219 13.7136C19.6404 12.7668 19.0604 11.9224 18.3332 11.2528C16.6294 9.67909 14.4266 9.28886 10.375 9.46585L10.3793 9.46798Z" fill="#146A36"/>
<path d="M9.92888 26.3825H9.90968L8.51934 22.1582H7.66211L9.48107 27.2675H10.3596L12.1786 22.1582H11.3192L9.92888 26.3825Z" fill="#146A36"/>
<path d="M12.7412 27.2675H15.9846V26.5808H13.5345V24.9986H15.8545V24.3333H13.5345V22.8448H15.9846V22.1582H12.7412V27.2675Z" fill="#146A36"/>
<path d="M19.0786 25.2669H20.4178V25.3522C20.4157 25.6103 20.3538 25.8363 20.2365 26.0304C20.1171 26.2244 19.9529 26.3758 19.7418 26.4846C19.5307 26.5933 19.2876 26.6466 19.0104 26.6466C18.7332 26.6466 18.4069 26.5677 18.1723 26.4121C17.9356 26.2543 17.7544 26.0304 17.6243 25.7361C17.4964 25.4418 17.4324 25.0921 17.4324 24.6869V24.6827C17.4324 24.2839 17.4942 23.9427 17.62 23.657C17.7459 23.3734 17.925 23.1558 18.1595 23.0044C18.3941 22.853 18.6735 22.7784 18.9976 22.7784C19.3217 22.7784 19.6096 22.8594 19.8378 23.0236C20.0659 23.1857 20.2323 23.416 20.3389 23.7103L20.3538 23.7487H21.1727L21.1577 23.689C21.0874 23.3797 20.9573 23.1047 20.7675 22.8616C20.5777 22.6185 20.3346 22.4266 20.0382 22.2858C19.7418 22.1451 19.3942 22.0747 18.9976 22.0747C18.601 22.0747 18.0934 22.1813 17.7373 22.3924C17.3812 22.6057 17.1061 22.9064 16.9121 23.2945C16.718 23.6847 16.6221 24.1474 16.6221 24.6848V24.6891C16.6221 25.2371 16.7202 25.7084 16.9142 26.1071C17.1083 26.5059 17.3855 26.8108 17.7416 27.0283C18.0977 27.2437 18.5199 27.3525 19.0061 27.3525C19.4923 27.3525 19.8634 27.265 20.1917 27.088C20.5201 26.9132 20.7718 26.6594 20.9466 26.3289C21.1215 25.9984 21.2089 25.6039 21.2089 25.1433V24.6187H19.085V25.2669H19.0786Z" fill="#146A36"/>
<path d="M24.0494 22.1582H23.4054L21.5459 27.2675H22.3818L22.8488 25.8878H24.817L25.284 27.2675H26.1199L24.2647 22.1582H24.0494ZM23.0663 25.2502L23.8276 23.0048H23.8447L24.6038 25.2502H23.0663Z" fill="#146A36"/>
<path d="M30.0646 22.1582V25.9305H30.0412L27.4162 22.1582H26.6826V27.2675H27.4737V23.4867H27.4908L30.1201 27.2675H30.8536V22.1582H30.0646Z" fill="#146A36"/>
<path d="M15.6415 29.5319H15.6351L14.9229 30.0288V29.6918L15.6393 29.1758H15.9677V31.869H15.6436V29.5319H15.6415Z" fill="#146A36"/>
<path d="M17.0574 31.7452C16.9103 31.6322 16.7973 31.4723 16.7184 31.2633C16.6395 31.0564 16.6011 30.8091 16.6011 30.5233V30.5191C16.6011 30.2333 16.6395 29.9881 16.7184 29.7791C16.7973 29.5723 16.9103 29.4102 17.0574 29.2993C17.2046 29.1863 17.3815 29.1309 17.5884 29.1309C17.7952 29.1309 17.9722 29.1863 18.1194 29.2993C18.2665 29.4123 18.3816 29.5723 18.4605 29.7791C18.5394 29.986 18.58 30.2333 18.58 30.5191V30.5233C18.58 30.8091 18.5394 31.0543 18.4605 31.2633C18.3816 31.4701 18.2686 31.6322 18.1194 31.7452C17.9722 31.8582 17.7931 31.9158 17.5884 31.9158C17.3837 31.9158 17.2046 31.8582 17.0574 31.7452ZM17.9402 31.4872C18.0383 31.3976 18.113 31.2718 18.1641 31.1076C18.2153 30.9434 18.2409 30.7494 18.2409 30.5233V30.5191C18.2409 30.293 18.2153 30.099 18.1641 29.9348C18.113 29.7706 18.0383 29.6448 17.9402 29.5573C17.8421 29.4699 17.7249 29.4251 17.5884 29.4251C17.4519 29.4251 17.3346 29.4699 17.2365 29.5573C17.1384 29.6448 17.0659 29.7727 17.0148 29.9348C16.9636 30.099 16.938 30.293 16.938 30.5191V30.5233C16.938 30.7494 16.9636 30.9434 17.0148 31.1076C17.0659 31.2718 17.1406 31.3976 17.2365 31.4872C17.3346 31.5767 17.4498 31.6215 17.5884 31.6215C17.727 31.6215 17.8421 31.5767 17.9402 31.4872Z" fill="#146A36"/>
<path d="M19.3753 31.7452C19.2281 31.6322 19.1151 31.4723 19.0362 31.2633C18.9573 31.0564 18.9189 30.8091 18.9189 30.5233V30.5191C18.9189 30.2333 18.9573 29.9881 19.0362 29.7791C19.1151 29.5723 19.2281 29.4102 19.3753 29.2993C19.5224 29.1863 19.6994 29.1309 19.9063 29.1309C20.1131 29.1309 20.2901 29.1863 20.4372 29.2993C20.5844 29.4123 20.6995 29.5723 20.7784 29.7791C20.8573 29.986 20.8978 30.2333 20.8978 30.5191V30.5233C20.8978 30.8091 20.8573 31.0543 20.7784 31.2633C20.6995 31.4701 20.5865 31.6322 20.4372 31.7452C20.2901 31.8582 20.111 31.9158 19.9063 31.9158C19.7015 31.9158 19.5224 31.8582 19.3753 31.7452ZM20.2581 31.4872C20.3562 31.3976 20.4308 31.2718 20.482 31.1076C20.5332 30.9434 20.5588 30.7494 20.5588 30.5233V30.5191C20.5588 30.293 20.5332 30.099 20.482 29.9348C20.4308 29.7706 20.3562 29.6448 20.2581 29.5573C20.16 29.4699 20.0427 29.4251 19.9063 29.4251C19.7698 29.4251 19.6525 29.4699 19.5544 29.5573C19.4563 29.6448 19.3838 29.7727 19.3326 29.9348C19.2815 30.099 19.2559 30.293 19.2559 30.5191V30.5233C19.2559 30.7494 19.2815 30.9434 19.3326 31.1076C19.3838 31.2718 19.4584 31.3976 19.5544 31.4872C19.6525 31.5767 19.7676 31.6215 19.9063 31.6215C20.0449 31.6215 20.16 31.5767 20.2581 31.4872Z" fill="#146A36"/>
<path d="M21.3818 30.323C21.2837 30.2015 21.2368 30.0373 21.2368 29.8283C21.2368 29.6193 21.2859 29.4551 21.3818 29.3336C21.4799 29.2121 21.6121 29.1523 21.7806 29.1523C21.949 29.1523 22.0855 29.2121 22.1815 29.3336C22.2774 29.4551 22.3265 29.6193 22.3265 29.8262C22.3265 30.0352 22.2774 30.2015 22.1815 30.3209C22.0855 30.4425 21.9512 30.5022 21.7806 30.5022C21.61 30.5022 21.4778 30.4425 21.3818 30.3209V30.323ZM21.9917 30.161C22.0407 30.0821 22.0663 29.9712 22.0663 29.8283C22.0663 29.6854 22.0407 29.5746 21.9917 29.4957C21.9426 29.4168 21.8723 29.3762 21.7806 29.3762C21.6889 29.3762 21.6185 29.4168 21.5695 29.4957C21.5204 29.5746 21.4948 29.6854 21.4948 29.8262C21.4948 29.9691 21.5204 30.0799 21.5695 30.161C21.6185 30.2399 21.6889 30.2804 21.7806 30.2804C21.8723 30.2804 21.9426 30.2399 21.9917 30.161ZM21.5972 31.869L23.3266 29.1758H23.6294L21.9043 31.869H21.5972ZM23.0408 31.7091C22.9428 31.5876 22.8958 31.4234 22.8958 31.2144C22.8958 31.0054 22.9449 30.8412 23.0408 30.7197C23.1368 30.5981 23.2711 30.5384 23.4396 30.5384C23.6081 30.5384 23.7445 30.5981 23.8405 30.7197C23.9365 30.8412 23.9855 31.0054 23.9855 31.2123C23.9855 31.4212 23.9365 31.5854 23.8405 31.707C23.7445 31.8285 23.6102 31.8882 23.4396 31.8882C23.269 31.8882 23.1368 31.8285 23.0408 31.707V31.7091ZM23.6529 31.5492C23.7019 31.4703 23.7275 31.3594 23.7275 31.2165C23.7275 31.0737 23.7019 30.9628 23.6529 30.8839C23.6038 30.805 23.5334 30.7645 23.4417 30.7645C23.35 30.7645 23.2797 30.805 23.2306 30.8839C23.1816 30.9628 23.156 31.0737 23.156 31.2144C23.156 31.3573 23.1816 31.4682 23.2306 31.5492C23.2797 31.6281 23.35 31.6686 23.4417 31.6686C23.5334 31.6686 23.6038 31.6281 23.6529 31.5492Z" fill="#146A36"/>
<path d="M12.818 30.5532H10.6558V30.7025H12.818V30.5532Z" fill="#146A36"/>
<path d="M28.2355 30.5532H26.0732V30.7025H28.2355V30.5532Z" fill="#146A36"/>
</svg>
