<svg width="40" height="37" viewBox="0 0 40 37" fill="none" xmlns="http://www.w3.org/2000/svg">
<path d="M38.8849 22.7166H1.11511C0.499264 22.7166 0 22.2173 0 21.6015V14.8436C0 14.2278 0.499242 13.7285 1.11511 13.7285H38.8849C39.5008 13.7285 40 14.2278 40 14.8436V21.6015C40 22.2173 39.5008 22.7166 38.8849 22.7166Z" fill="#146A36"/>
<path d="M38.3745 22.1831C38.2168 22.1919 38.2735 22.2158 38.2495 22.223C38.5208 22.1983 38.3651 22.1718 38.3745 22.1831Z" fill="white"/>
<path d="M39.2557 20.2281L39.2677 20.267L39.2383 19.9426L39.2557 20.2281Z" fill="white"/>
<path d="M39.2565 18.1699C39.2064 18.3645 39.2646 18.9156 39.2468 19.2823L39.2354 19.3427L39.2757 19.5082C39.2693 19.0625 39.2425 18.4838 39.2565 18.1699Z" fill="white"/>
<path d="M39.364 17.0727C39.3445 17.1404 39.3472 16.8353 39.3579 17.3285C39.3605 17.3044 39.3613 17.2967 39.3629 17.2822C39.3631 17.2378 39.3634 17.1768 39.364 17.0727Z" fill="white"/>
<path d="M39.3623 17.2823C39.3787 17.1405 39.3637 17.499 39.3623 17.2823Z" fill="white"/>
<path d="M39.3525 16.2813L39.3699 16.5668C39.3815 16.5071 39.3841 16.253 39.3924 16.3474C39.3829 16.0546 39.3715 16.1148 39.3525 16.2813Z" fill="white"/>
<path d="M39.3159 16.0107L39.3233 16.1587C39.3281 16.1328 39.3298 16.0937 39.3159 16.0107Z" fill="white"/>
<path d="M39.3378 16.4724L39.3223 16.1587C39.3142 16.2001 39.2979 16.2044 39.3279 16.3027C39.3131 16.2771 39.3273 16.3391 39.3378 16.4724Z" fill="white"/>
<path d="M39.331 16.6499C39.3201 16.8101 39.3133 17.0169 39.2959 16.7304C39.3028 17.2766 39.338 17.1961 39.331 16.6499Z" fill="white"/>
<path d="M39.2046 18.0649L39.1899 18.279L39.2067 18.4641C39.1984 18.3716 39.2203 18.0516 39.2046 18.0649Z" fill="white"/>
<path d="M38.9661 14.4272C38.9428 14.4215 39.0378 14.5263 39.0417 14.5567C39.1034 14.6149 39.1565 14.6822 39.2031 14.7541C39.1515 14.6294 38.9734 14.4476 38.9661 14.4272Z" fill="white"/>
<path d="M39.0415 14.5569C38.9504 14.4689 38.8448 14.3976 38.731 14.3467C39.0195 14.5149 39.0408 14.5895 39.0415 14.5569Z" fill="white"/>
<path d="M39.2613 15.9598L39.2997 16.478L39.2607 15.8599L39.2613 15.9598Z" fill="white"/>
<path d="M37.6651 14.1695L37.844 14.1448L37.5254 14.1821L37.6651 14.1695Z" fill="white"/>
<path d="M36.8648 14.1736C36.9972 14.1532 36.6834 14.1391 36.8233 14.1265C36.6062 14.1301 36.4208 14.1477 36.2539 14.1634C36.4313 14.1546 36.6203 14.1569 36.8648 14.1736Z" fill="white"/>
<path d="M35.9741 14.1866C36.0603 14.1795 36.1531 14.1719 36.2544 14.1636C36.1602 14.1683 36.0675 14.1751 35.9741 14.1866Z" fill="white"/>
<path d="M38.1331 14.2257C38.1087 14.2193 38.0617 14.2024 37.8848 14.1953L38.0088 14.2253C38.0467 14.2254 38.0896 14.2256 38.1331 14.2257Z" fill="white"/>
<path d="M38.0142 14.2263L38.0098 14.2253C37.8751 14.2244 37.7817 14.2239 37.7417 14.2236C37.7761 14.224 37.8581 14.2248 38.0142 14.2263Z" fill="white"/>
<path d="M38.1659 14.2257C38.1544 14.2257 38.146 14.2256 38.1348 14.2256C38.1466 14.2285 38.1538 14.2295 38.1659 14.2257Z" fill="white"/>
<path d="M39.2691 15.1088C39.224 14.8896 38.9664 14.5466 39.1482 14.9148C39.2131 15.0474 39.1617 14.8086 39.2691 15.1088Z" fill="white"/>
<path d="M38.3296 14.2673C38.4571 14.2795 38.5823 14.3156 38.696 14.3731C38.6931 14.3629 38.6339 14.3215 38.7343 14.3607C38.6062 14.3023 38.4673 14.2708 38.3296 14.2673Z" fill="white"/>
<path d="M38.1543 14.2728C38.208 14.2694 38.2626 14.2659 38.3285 14.2672C38.2801 14.2634 38.2333 14.2608 38.1942 14.2607L38.1543 14.2728Z" fill="white"/>
<path d="M36.5484 14.2144C36.4037 14.2275 36.2453 14.2286 36.0664 14.2307C36.2581 14.2365 36.4563 14.2397 36.6446 14.2397C36.6711 14.2302 36.7538 14.2133 36.5484 14.2144Z" fill="white"/>
<path d="M37.2615 14.2231C37.2514 14.2237 37.239 14.2243 37.2295 14.2249C37.2492 14.2274 37.2649 14.2282 37.2615 14.2231Z" fill="white"/>
<path d="M34.3057 14.2307L34.3338 14.2361L34.3403 14.231L34.3057 14.2307Z" fill="white"/>
<path d="M36.6762 14.2454C36.8203 14.2512 36.9064 14.2439 36.9885 14.2346C36.8803 14.2363 36.7663 14.238 36.644 14.2398C36.6321 14.2441 36.6299 14.2469 36.6762 14.2454Z" fill="white"/>
<path d="M35.4824 14.2004C35.5589 14.2055 35.6435 14.2111 35.732 14.2169C35.6586 14.2074 35.509 14.1926 35.4824 14.2004Z" fill="white"/>
<path d="M37.1796 14.2164C37.1868 14.2159 37.1934 14.2155 37.2011 14.215C37.1541 14.2086 37.16 14.2118 37.1796 14.2164Z" fill="white"/>
<path d="M37.1798 14.2163C37.1056 14.2206 37.0473 14.228 36.9888 14.2346C37.0758 14.231 37.1566 14.2276 37.2283 14.2246C37.2105 14.2225 37.1926 14.2193 37.1798 14.2163Z" fill="white"/>
<path d="M33.7721 14.4234C33.7975 14.3956 34.1764 14.3699 34.5034 14.3997C34.8253 14.3789 34.6148 14.2875 34.3339 14.2363C34.3239 14.2484 34.3239 14.2597 33.9927 14.2761C34.1087 14.2913 34.7276 14.3116 34.4482 14.3367C34.0095 14.3511 34.0887 14.3269 33.8754 14.3122C34.0567 14.3469 33.3173 14.3626 33.4129 14.4136L33.7975 14.3956C33.8048 14.4036 33.6653 14.4162 33.7721 14.4234Z" fill="white"/>
<path d="M34.9643 14.2389L35.1005 14.2355C34.9452 14.2306 34.834 14.2195 34.6292 14.1978C34.4025 14.2113 34.3554 14.2216 34.3398 14.2309L35.0109 14.2348L34.9643 14.2389Z" fill="white"/>
<path d="M35.7125 14.2354C35.606 14.2657 35.2788 14.2785 35.4792 14.3113C35.8791 14.3092 35.7594 14.286 35.9984 14.2729C35.353 14.2804 36.1837 14.256 35.7174 14.2389C35.8454 14.2359 35.9587 14.2333 36.066 14.2309C35.9504 14.2261 35.8386 14.2215 35.7322 14.217C35.738 14.2178 35.7421 14.2183 35.747 14.2189L35.7501 14.2188L35.7494 14.2193C35.7772 14.2231 35.7864 14.2254 35.755 14.2232C35.7525 14.2233 35.745 14.2236 35.7416 14.2238C35.7372 14.228 35.7253 14.2317 35.7125 14.2352C35.5255 14.2289 35.683 14.2273 35.7416 14.2238C35.7437 14.2223 35.7488 14.2209 35.7494 14.2193L35.747 14.2189L35.1006 14.2355C35.2374 14.2397 35.4087 14.2389 35.7125 14.2354Z" fill="white"/>
<path d="M38.8936 14.6532C38.8806 14.6377 38.8827 14.6367 38.8831 14.6341C38.8492 14.6083 38.8359 14.5997 38.8936 14.6532Z" fill="white"/>
<path d="M38.6864 14.4782C38.7288 14.5001 38.7771 14.503 38.8947 14.6123C38.9852 14.7169 38.8854 14.6204 38.8828 14.6344C38.9559 14.6909 39.1142 14.8781 38.9333 14.6328C38.9219 14.6213 38.908 14.6126 38.8955 14.6024C38.7996 14.5041 38.6654 14.4144 38.5536 14.3682C38.4424 14.3213 38.3619 14.3059 38.3876 14.3062C38.4659 14.3449 38.5372 14.3763 38.6864 14.4782Z" fill="white"/>
<path d="M37.1829 14.3098L36.6445 14.3247L36.9187 14.3508L36.9048 14.3351C37.2109 14.3413 37.1448 14.3219 37.1829 14.3098Z" fill="white"/>
<path d="M34.2435 14.2155L34.3149 14.1836L34.0039 14.2287L34.2435 14.2155Z" fill="white"/>
<path d="M33.5441 14.2194L33.5699 14.1917L33.3853 14.2084L33.5441 14.2194Z" fill="white"/>
<path d="M1.104 21.4688C1.12814 21.5046 1.15306 21.5393 1.18188 21.5709C1.14225 21.525 1.12195 21.4916 1.104 21.4688Z" fill="white"/>
<path d="M1.01701 20.421L1.00342 20.3931C1.0109 20.4458 1.01644 20.4674 1.01701 20.421Z" fill="white"/>
<path d="M16.3634 14.2226C16.133 14.1966 15.8756 14.1564 15.9034 14.1877L15.9742 14.2181C16.1352 14.2126 16.2586 14.216 16.3634 14.2226Z" fill="white"/>
<path d="M4.59619 14.4044C4.61803 14.4074 4.64092 14.4105 4.66358 14.4136C4.71944 14.4032 4.77172 14.3934 4.8192 14.3845C4.75183 14.3905 4.6759 14.3973 4.59619 14.4044Z" fill="white"/>
<path d="M4.43363 14.5304L4.12988 14.5107C4.19815 14.5176 4.29583 14.5241 4.43363 14.5304Z" fill="white"/>
<path d="M7.03652 21.8211L7.22111 21.79C6.93233 21.7902 7.05942 21.8058 7.03652 21.8211Z" fill="white"/>
<path d="M26.3789 14.2308C26.18 14.2189 26.0218 14.2139 25.8828 14.2124C26.1224 14.2299 26.3156 14.2561 26.3789 14.2308Z" fill="white"/>
<path d="M0.691406 21.1157C0.699686 21.2284 0.716158 21.2749 0.722229 21.2705C0.701519 21.1569 0.700061 21.092 0.691406 21.1157Z" fill="white"/>
<path d="M25.3086 14.2125C25.3444 14.2149 25.3779 14.2172 25.4137 14.2196C25.559 14.2145 25.7053 14.2104 25.8828 14.2124C25.7059 14.1994 25.5033 14.1914 25.3086 14.2125Z" fill="white"/>
<path d="M29.7197 21.846C29.7363 21.8472 29.7552 21.8485 29.7707 21.8496C29.7757 21.8455 29.7531 21.8453 29.7197 21.846Z" fill="white"/>
<path d="M36.3289 22.1533C36.2634 22.1539 36.1577 22.1548 36.0576 22.1556C36.1064 22.1577 36.1882 22.1575 36.3289 22.1533Z" fill="white"/>
<path d="M30.7295 14.2061C30.877 14.2041 30.7529 14.2028 30.7295 14.2061Z" fill="white"/>
<path d="M31.4515 14.3267C31.4201 14.3301 31.3963 14.3344 31.3926 14.3414C31.4047 14.3341 31.4253 14.3295 31.4515 14.3267Z" fill="white"/>
<path d="M23.8306 14.402C23.8263 14.4019 23.8228 14.4019 23.8179 14.4019C23.8617 14.4078 23.8542 14.4067 23.8306 14.402Z" fill="white"/>
<path d="M30.9515 14.22C30.8948 14.2173 30.8309 14.2142 30.7617 14.2109C30.7932 14.2124 30.8508 14.2152 30.9515 14.22Z" fill="white"/>
<path d="M30.9219 14.2056C30.9731 14.2068 31.0132 14.2077 31.0516 14.2086C31.0703 14.2035 31.0537 14.2003 30.9219 14.2056Z" fill="white"/>
<path d="M30.5215 14.2077C30.6062 14.2088 30.6851 14.2099 30.7617 14.2108C30.7325 14.2088 30.7203 14.2071 30.7282 14.2061C30.6847 14.2064 30.6232 14.2069 30.5215 14.2077Z" fill="white"/>
<path d="M17.5654 21.9276C17.5753 21.9285 17.5861 21.9295 17.5972 21.9305C17.7469 21.9178 17.6812 21.9198 17.5654 21.9276Z" fill="white"/>
<path d="M12.5011 14.5387C12.5077 14.5381 12.5118 14.5377 12.5179 14.5372C12.511 14.5369 12.5023 14.5364 12.4961 14.5361L12.5011 14.5387Z" fill="white"/>
<path d="M11.9688 14.5615C12.1957 14.5236 12.3247 14.5283 12.4967 14.5363L12.3204 14.4485L11.9688 14.5615Z" fill="white"/>
<path d="M3.52462 21.8443L3.15037 21.817C3.60208 21.7719 3.9289 21.7874 3.57755 21.749C3.52462 21.8443 2.12292 21.7587 2.07088 21.854L1.82419 21.8339C1.8944 21.8322 1.90663 21.8319 1.97605 21.8302C1.72419 21.8084 1.67248 21.8248 1.58264 21.8255C1.50143 21.821 1.36782 21.8298 1.18434 21.6348C1.06586 21.4913 1.04745 21.3615 1.10408 21.4686C1.03681 21.3547 0.995253 21.2319 0.991587 21.0863C0.993486 20.9465 1.00989 20.9811 1.00828 21.1195L1.00057 20.3876L1.00338 20.3931C0.988408 20.2886 0.965291 20.0519 0.955465 19.9363C0.969132 19.7503 0.965577 20.0296 0.977478 19.982L0.954383 19.5766C0.97909 19.4115 1.00305 19.7475 0.999514 20.0275C1.0947 19.6489 0.975513 19.6911 1.03111 18.874L1.04321 19.2568C1.09728 19.0101 1.0777 18.7113 1.11141 18.2785C1.09379 18.3812 1.02645 19.145 1.00269 18.705C1.00989 18.581 1.01331 18.4175 0.994126 18.1802C1.02802 18.178 1.01969 17.9462 1.01777 17.6562L1.06266 17.676C1.0497 17.3625 1.02685 17.3872 1.00662 17.2028C1.01104 16.8533 1.04584 16.7808 1.07514 16.6986C1.08227 16.1389 1.01939 17.085 1.01091 16.4227C1.0195 16.1899 1.01921 15.9919 1.0134 15.7824C1.00947 15.6782 1.00541 15.5706 1.00099 15.4538C0.99682 15.3304 0.983727 15.2231 1.00768 15.1093C1.10883 14.8549 1.01541 15.1614 1.05968 15.0729C1.07127 14.9951 1.09947 14.9189 1.13773 14.8462C1.17425 14.7987 1.17092 14.8214 1.16961 14.8325C1.22987 14.7516 1.22943 14.7435 1.23546 14.7218C1.24413 14.7036 1.25542 14.6605 1.40381 14.5763C1.43647 14.5326 1.60332 14.4755 1.83777 14.5072C2.08038 14.5244 2.36929 14.5408 2.606 14.5128C2.72269 14.5255 2.54968 14.5403 2.58534 14.5577C3.2349 14.5208 3.14221 14.5309 3.67554 14.4813L4.12991 14.5108C3.79605 14.4771 4.2226 14.4372 4.59621 14.4044C4.47625 14.3889 4.37361 14.3755 4.30869 14.3671L4.90495 14.343C4.97695 14.3504 4.91687 14.3658 4.81919 14.3846C4.85945 14.3806 4.8978 14.3768 4.92847 14.3738C5.14164 14.3904 5.03114 14.4163 4.87837 14.4414C4.80654 14.4321 4.73421 14.4228 4.66356 14.4137C4.51633 14.441 4.37855 14.4712 4.4092 14.4975C4.44797 14.4923 4.52256 14.4878 4.60465 14.4853C4.56616 14.4927 4.54154 14.4994 4.55936 14.5038C4.57961 14.5086 4.64181 14.4986 4.73931 14.4872L4.87488 14.5372L4.90776 14.5174L5.68778 14.5487C6.24591 14.4983 6.73135 14.4241 7.61721 14.4035C7.39741 14.4402 7.56996 14.4634 7.55801 14.5069C7.31631 14.4609 6.87191 14.5265 6.41283 14.5171C6.6524 14.522 6.59971 14.5427 6.53877 14.5499L7.35757 14.508C7.33914 14.5436 7.53145 14.5347 7.74538 14.5494C7.58369 14.4791 8.3557 14.5026 8.68886 14.481C8.70955 14.5047 8.62969 14.5288 8.22318 14.5231C8.67168 14.576 8.80268 14.4405 9.24288 14.4855C9.14359 14.486 9.09012 14.4824 9.0509 14.4944C9.28272 14.4734 9.84948 14.49 9.71614 14.5106L9.61713 14.5111C10.2761 14.5194 11.6229 14.5116 11.7212 14.4519C11.7278 14.4596 11.6349 14.5239 11.595 14.5359L12.7707 14.3351C12.6671 14.3863 13.0648 14.5084 12.5183 14.5374C12.6752 14.5447 12.8693 14.5532 13.2 14.5351C13.093 14.5278 12.9333 14.461 13.0795 14.4563C13.481 14.5134 13.3582 14.4868 13.8531 14.5355C13.6926 14.5245 13.8709 14.4441 14.1244 14.4467C14.0848 14.4587 14.1455 14.5261 14.0528 14.5344L14.6838 14.4555C14.5263 14.4697 14.656 14.5224 14.7972 14.5447C14.7317 14.5293 15.3427 14.5462 15.5109 14.5383L15.2434 14.52C15.9559 14.532 15.9472 14.409 16.654 14.4132C16.5684 14.4295 16.4426 14.5135 16.8021 14.5235C16.9668 14.483 17.5315 14.329 18.1568 14.2979L18.2768 14.321L18.7566 14.2946C18.4578 14.3555 17.6194 14.4835 17.1616 14.5333C17.4281 14.5516 17.2358 14.5605 17.6351 14.5584C17.7761 14.5801 17.4174 14.5913 17.3 14.5926L18.2296 14.6065C18.1882 14.5593 18.9405 14.5592 18.905 14.5199L17.8953 14.5688C17.8544 14.5217 18.4791 14.4349 19.1378 14.4432C19.3053 14.462 19.0125 14.5272 19.0262 14.5429C19.1117 14.5267 19.6513 14.5119 19.7119 14.5234L19.4324 14.5487C19.7991 14.5664 20.0308 14.4861 20.4715 14.5312C20.6235 14.5342 20.9256 14.5919 20.9519 14.564C20.7038 14.5101 20.6554 14.3436 20.8207 14.3031C20.874 14.3068 21.6193 14.3546 21.7929 14.3812C22.0433 14.4234 21.4169 14.4818 21.6301 14.5181C21.6393 14.5052 21.7776 14.4893 21.8353 14.4842C21.995 14.4952 21.7692 14.5241 22.1162 14.5183C22.1741 14.4705 22.8221 14.5224 22.2803 14.4779C22.6198 14.4642 22.6411 14.4877 23.0397 14.4856C22.9128 14.4547 23.3977 14.3804 23.7378 14.3668C23.7177 14.3789 23.7941 14.3948 23.8311 14.402C24.527 14.4063 24.9005 14.428 25.5495 14.4284C25.6093 14.44 25.9224 14.454 25.789 14.4746C25.8824 14.4662 25.9681 14.45 26.1683 14.4488C26.5556 14.4902 25.722 14.4553 26.0173 14.505C26.0425 14.4772 26.5349 14.4666 26.82 14.4492C26.7323 14.4063 26.1613 14.441 25.8758 14.4583C25.8745 14.3991 26.3715 14.3371 27.0497 14.3097C27.5888 14.295 27.2834 14.348 27.377 14.3396C28.3895 14.3499 28.2396 14.2361 29.0803 14.2789C29.4139 14.3166 29.0954 14.354 29.1694 14.3812C28.7302 14.3954 28.4952 14.3572 28.1976 14.3587L28.564 14.3766C28.4243 14.3891 28.1312 14.3986 27.9715 14.3877C28.2511 14.4216 29.682 14.3942 30.4632 14.4255C30.602 14.4129 30.8416 14.3998 30.7282 14.3846L30.481 14.3899C30.2539 14.3594 30.9462 14.3478 30.6333 14.3336C30.9649 14.3122 31.3366 14.2786 31.8033 14.2958L31.891 14.3388C31.881 14.3262 31.5859 14.3132 31.4548 14.3263C31.6493 14.3072 32.1704 14.3845 32.3836 14.3282L32.0564 14.2984C32.3893 14.2767 32.8008 14.231 33.2145 14.2446C33.0262 14.2021 33.1191 14.2495 32.8251 14.1997C33.08 14.2616 31.7669 14.1971 32.1763 14.2622C31.8747 14.2044 31.6543 14.2377 31.26 14.1885C31.2722 14.2027 31.3997 14.2156 31.0524 14.2086C31.0367 14.2128 30.9998 14.2181 30.9762 14.2212C30.9657 14.2207 30.9619 14.2205 30.9528 14.2201C30.9597 14.2207 30.965 14.2212 30.972 14.2218C30.9569 14.2239 30.9556 14.2243 30.9791 14.2224C31.0618 14.2286 31.1288 14.236 31.156 14.2439C30.9836 14.2765 30.4314 14.2755 30.2447 14.2924C30.0386 14.2856 30.3309 14.2761 30.2184 14.261L29.9394 14.2862C29.9118 14.2546 29.392 14.2338 29.8774 14.2153L29.4405 14.2139C29.1833 14.1962 28.8294 14.1892 28.6113 14.2025C28.4052 14.1957 28.0907 14.2374 28.2703 14.2127L27.585 14.2322L27.5787 14.2244C26.9027 14.2204 26.187 14.2766 25.4141 14.2197C25.1865 14.2276 24.9513 14.2373 24.5705 14.2284L24.4963 14.2011C24.2041 14.2107 23.6187 14.1738 23.4932 14.2022C23.1779 14.1289 22.0749 14.1862 21.561 14.1732L21.5415 14.2088C21.1878 14.2068 20.8486 14.2169 20.4095 14.2312L20.4365 14.2627C20.0579 14.2885 19.4631 14.2403 18.8643 14.2435C18.905 14.2315 19.0569 14.2346 19.1643 14.2419C18.4489 14.1708 17.6549 14.2936 17.006 14.2418C16.8444 14.2533 16.7272 14.2494 16.6139 14.2415C16.6287 14.2408 16.6419 14.2403 16.654 14.2398C16.6373 14.2397 16.6128 14.2396 16.5876 14.2394C16.5161 14.2341 16.4417 14.2285 16.363 14.2227C16.4307 14.2303 16.4955 14.2366 16.5519 14.2395C16.4273 14.2402 16.2381 14.2441 16.0527 14.252L15.9738 14.2182C15.9587 14.2185 15.9467 14.2188 15.9309 14.2191C15.749 14.2067 15.7846 14.2351 15.8817 14.2606C15.7884 14.2661 15.7028 14.2728 15.6365 14.281C15.4887 14.2264 15.1502 14.2993 14.9485 14.2411C14.8235 14.2695 14.0165 14.2625 13.9177 14.3222C13.9114 14.3144 13.8567 14.3107 13.9569 14.3102C13.7502 14.3034 13.5437 14.2966 13.3583 14.3135L13.2706 14.2705L12.8193 14.3283C12.5452 14.3021 12.4315 14.2869 12.7037 14.2538C12.0464 14.3047 12.1704 14.273 11.6114 14.3234L11.6387 14.2956C11.4388 14.2966 11.1194 14.3339 10.9989 14.3109C10.5519 14.2581 8.78723 14.3036 7.63991 14.2545C7.86245 14.3363 7.10657 14.2179 7.06111 14.2813C6.99425 14.2619 6.83435 14.251 7.0202 14.2342C6.43465 14.2532 6.14044 14.2035 5.73616 14.257C5.66915 14.2375 5.86146 14.2286 5.80185 14.2171C5.75488 14.2213 5.61585 14.2339 5.55489 14.2224C5.49527 14.2109 5.64062 14.2061 5.73331 14.1977C5.1352 14.2009 5.07468 14.2606 5.03118 14.3165C4.72807 14.2901 4.57683 14.2938 4.35793 14.3305C4.25241 14.3122 4.07637 14.293 4.44804 14.2865C4.23896 14.2838 3.17078 14.2596 3.14947 14.3045C3.08396 14.2931 2.85722 14.3011 2.80216 14.3063C2.33299 14.3037 2.29172 14.2996 1.83103 14.3039L1.95876 14.3112C1.86609 14.34 1.77647 14.3368 1.64647 14.3441C1.52119 14.3551 1.36343 14.3875 1.19867 14.5026L1.20472 14.4912C1.01002 14.6171 0.929831 14.7433 0.882271 14.8248C0.837008 14.9097 0.82376 14.9586 0.808945 15.0057C0.798258 15.0542 0.785651 15.1014 0.772492 15.1945C0.762247 15.2928 0.761474 15.4154 0.749396 15.6264L0.783046 15.5807C0.855467 15.659 0.740344 16.3251 0.768032 16.8127L0.787263 16.6367C0.812036 16.903 0.688788 17.381 0.679757 17.6485C0.673442 17.7068 0.669645 17.5565 0.664986 17.4751C0.622284 18.1753 0.709101 17.5658 0.719346 18.0876C0.695566 18.1838 0.658848 17.9636 0.654432 18.3148C0.635179 18.4897 0.731644 19.3334 0.686028 19.8125C0.704354 19.7069 0.722658 19.6021 0.736436 19.8444C0.744627 20.2199 0.663485 20.8399 0.728597 21.1931C0.725992 21.2471 0.728266 21.2678 0.722901 21.2708C0.747608 21.432 0.856173 21.6861 1.04252 21.8487C1.22362 22.0178 1.45294 22.079 1.5455 22.0801C1.69756 22.1772 2.13297 22.1389 2.5414 22.1306C2.94914 22.1153 3.32328 22.0989 3.32012 22.1525L4.19355 22.1467L4.17074 22.1577C4.72902 22.1648 4.92643 22.1391 5.1227 22.1134C5.25176 22.1207 5.15754 22.1307 5.14686 22.1363C5.96265 22.1579 6.04375 22.1533 6.72771 22.0999L6.79883 22.1347C6.98421 22.1145 7.97825 22.1892 8.77833 22.1487C8.77049 22.1526 8.75391 22.1594 8.69036 22.1643C9.59055 22.1234 10.8454 22.2608 11.1753 22.1341L11.7693 22.1028C11.0008 22.093 11.8838 22.0479 11.5676 22.0268C11.8698 22.0194 12.349 22.065 11.9776 22.0716L11.9195 22.0652C11.7831 22.1313 12.8745 22.0886 12.8538 22.1336C14.3661 22.1304 15.8401 22.1669 17.2567 22.1697L17.0935 22.1184L17.5876 22.1213C17.7173 22.1333 17.7617 22.1615 17.4092 22.1594C17.5946 22.1885 18.0004 22.135 18.0104 22.1238C18.7006 22.1446 17.7408 22.1837 17.9525 22.1849L18.2399 22.1811L18.1751 22.1751C18.4081 22.1541 18.4288 22.1319 18.8525 22.1344C19.1206 22.1447 18.99 22.1661 19.0955 22.1681C19.0949 22.1717 19.1306 22.1734 19.2574 22.1696L19.88 22.1739L19.631 22.1334C19.907 22.1134 20.2164 22.1355 19.9291 22.0896C20.3508 22.1604 22.2513 22.115 22.5103 22.137C22.8967 22.1075 23.2782 22.108 23.7507 22.1115C23.6333 22.1031 23.5629 22.0575 23.9705 22.0631C23.8215 22.1572 24.7169 22.104 25.0463 22.1716C24.7519 22.1267 26.205 22.1605 25.7431 22.0968C26.0832 22.1044 25.7638 22.132 26.0218 22.1542C26.8312 22.1177 27.8056 22.1779 28.8062 22.1655C28.8218 22.1532 28.6542 22.1343 28.8688 22.1159L29.3971 22.1777C29.5947 22.1716 29.579 22.1064 29.94 22.1493C29.8891 22.1389 29.813 22.1232 29.9455 22.1193C31.9055 22.1794 33.9507 22.07 35.9413 22.183C35.6717 22.1591 35.8514 22.1567 36.0573 22.1558C35.9234 22.1501 36.0603 22.1253 36.034 22.1086L36.8673 22.1551C37.0192 22.1087 37.7608 22.1519 37.8478 22.1076L37.5839 22.1155C37.9349 22.0631 37.0928 21.9991 37.1442 21.9318C36.7512 21.9914 36.108 21.8436 35.4632 21.9289C35.3209 21.9152 35.5846 21.9072 35.5085 21.8917C35.3451 21.9205 35.1477 21.9265 34.782 21.9136L34.8233 21.9064C33.7958 21.9134 33.3552 21.885 32.2009 21.8661L32.2863 21.8994C32.0383 21.8949 31.9861 21.8845 31.8699 21.8762C31.5853 21.9266 32.5666 21.879 32.3073 21.9346C31.9782 21.867 30.558 21.9336 30.3356 21.8567C29.954 21.8563 30.4475 21.8952 30.066 21.8948L29.9648 21.874L29.8684 21.9008C29.6182 21.8964 29.492 21.8704 29.4827 21.8527C29.5434 21.8548 29.6552 21.8478 29.7203 21.8463C29.3959 21.8218 28.8055 21.8547 28.6941 21.8467L29.0608 21.8595C28.0193 21.8789 26.7477 21.8516 25.7416 21.8939L25.818 21.9096C25.0496 21.9386 25.2025 21.8924 24.359 21.9058L24.3896 21.9021C24.2208 21.9177 23.9953 21.9256 23.7645 21.9238C23.9775 21.9054 23.3637 21.8881 23.6431 21.8678C22.8099 21.8989 23.231 21.8922 22.6807 21.9505L22.5538 21.9245C22.3663 21.9481 22.3506 21.9605 21.9293 21.9672C22.2748 21.9449 21.6604 21.9276 22.0475 21.898C21.1634 21.8411 20.7347 21.9555 20.3291 21.8723C19.9231 21.9443 21.0942 21.9123 20.8668 21.9277C21.0572 21.9512 20.5317 21.9815 20.2542 21.9743C19.9718 21.9727 19.774 21.8821 19.0636 21.8835C19.1334 21.8812 19.1399 21.881 19.2096 21.8787C18.9437 21.8603 18.6886 21.9036 18.3625 21.8738C18.1797 21.9173 17.9391 21.8713 17.8864 21.9268L18.5381 21.914C18.1687 21.9285 17.8222 21.9935 17.2136 21.962C17.261 21.9508 17.4421 21.936 17.5665 21.9278C17.3885 21.9114 17.2238 21.9387 17.0393 21.9218C17.0919 21.8662 17.8313 21.9097 18.2271 21.8673C18.0361 21.8439 17.4784 21.9076 17.6773 21.8474C17.3914 21.924 16.9773 21.8377 16.4962 21.8962L16.5279 21.8629C16.4518 21.8681 16.294 21.8839 16.154 21.883L16.4076 21.8398C16.0181 21.8767 15.6567 21.8076 15.2831 21.8276C16.0654 21.8266 15.4587 21.8678 15.7894 21.8921C14.8246 21.9367 15.2346 21.8049 14.1544 21.8209C14.3006 21.8162 14.7034 21.8409 14.4747 21.8564C14.2691 21.8495 13.9975 21.8367 13.8713 21.8193C13.1556 21.8262 13.9812 21.8535 13.6766 21.874C13.4329 21.8334 13.3251 21.8905 13.0114 21.9035L13.0092 21.8696C12.1937 21.8479 12.793 21.9402 12.0588 21.914L12.3691 21.867L11.9863 21.8791L12.0653 21.8406C11.6489 21.8692 11.5192 21.8618 11.1111 21.851C11.206 21.8748 11.0578 21.9124 10.6966 21.9135C10.4503 21.8934 10.8346 21.8813 10.3226 21.8861C10.4382 21.865 10.5648 21.8384 10.7876 21.8696C10.8104 21.8585 10.9016 21.8483 10.9251 21.8374C10.6598 21.8143 10.2584 21.8321 10.073 21.8324C10.1444 21.8337 10.2297 21.8355 10.2734 21.8404L9.53118 21.8873C9.41433 21.8746 9.50702 21.8644 9.59881 21.8543C9.44845 21.858 9.34445 21.8736 9.12341 21.8765C9.18064 21.849 9.16691 21.8206 9.47984 21.8076L8.77261 21.8381C8.72538 21.8262 8.40969 21.8053 8.5015 21.7951C8.10943 21.7789 7.53973 21.8485 7.01993 21.8272C6.99293 21.8325 6.93875 21.8376 6.82822 21.8416C6.33971 21.8353 5.9069 21.8015 5.32784 21.8393L4.99934 21.79C4.54585 21.8012 5.44407 21.8521 4.68899 21.8707C4.1544 21.8865 4.48944 21.8287 4.30191 21.8149C4.03603 21.8398 3.57384 21.8904 3.08275 21.8502C3.24529 21.8407 3.37274 21.848 3.52462 21.8443ZM1.00207 18.7156C1.00916 18.824 1.03111 19.0401 1.01113 19.1193C0.972312 18.9959 0.990903 18.9004 1.00207 18.7156ZM5.41956 14.4694C5.33899 14.4806 5.21438 14.4751 5.07375 14.4623C5.1758 14.4595 5.29141 14.4607 5.41956 14.4694ZM29.1032 14.2337C29.0987 14.2343 29.0957 14.2347 29.0916 14.2353C28.8499 14.2221 28.9356 14.2273 29.1032 14.2337ZM29.6052 14.2484C29.6556 14.2436 29.6521 14.2389 29.6308 14.2342C29.5958 14.2428 29.4831 14.2434 29.3547 14.241C29.3904 14.2498 29.4553 14.256 29.6052 14.2484ZM19.1512 22.1554L19.0535 22.1466C19.2741 22.1369 19.2123 22.1457 19.1512 22.1554Z" fill="white"/>
<path d="M4.45476 14.5159C4.42426 14.5102 4.41586 14.5039 4.40868 14.4976C4.36633 14.5032 4.36545 14.5098 4.45476 14.5159Z" fill="white"/>
<path d="M7.00195 21.8265L7.01888 21.8269C7.02819 21.8248 7.03315 21.8228 7.03589 21.8208L7.00195 21.8265Z" fill="white"/>
<path d="M21.8286 14.5356C21.7253 14.5307 21.6677 14.5245 21.6293 14.5181C21.6237 14.5264 21.6707 14.5333 21.8286 14.5356Z" fill="white"/>
<path d="M32.2649 14.1909L31.9434 14.1997C32.0989 14.198 32.1544 14.2054 32.2329 14.2108C32.2258 14.2029 32.1644 14.1915 32.2649 14.1909Z" fill="white"/>
<path d="M35.0557 14.4003C35.105 14.3987 35.153 14.3971 35.2017 14.3956L35.1889 14.3799C34.9887 14.3809 34.8488 14.3936 35.0557 14.4003Z" fill="white"/>
<path d="M32.5625 14.3034C32.588 14.3319 32.7897 14.3222 33.0149 14.3169H32.9751C33.0415 14.2771 32.8015 14.2903 32.5625 14.3034Z" fill="white"/>
<path d="M33.0664 14.3162C33.136 14.316 33.2065 14.3157 33.2746 14.3155C33.301 14.2995 33.1902 14.3122 33.0664 14.3162Z" fill="white"/>
<path d="M30.2418 14.2297C30.3486 14.237 30.3088 14.1932 30.3692 14.2049C30.4885 14.1686 29.6571 14.2487 30.2418 14.2297Z" fill="white"/>
<path d="M32.745 14.3975L32.6643 14.3623L32.5381 14.3907L32.745 14.3975Z" fill="white"/>
<path d="M30.9665 14.3714L31.3264 14.3811C31.321 14.3752 31.3667 14.3717 31.4228 14.3691C31.2011 14.3679 30.958 14.3609 30.9665 14.3714Z" fill="white"/>
<path d="M31.4229 14.3691C31.5383 14.3698 31.6482 14.369 31.7125 14.3633C31.6502 14.3646 31.5168 14.3672 31.4229 14.3691Z" fill="white"/>
<path d="M32.2531 14.4079L32.1467 14.4005L31.8926 14.3979L32.2531 14.4079Z" fill="white"/>
<path d="M27.098 14.3647L26.7052 14.3748C26.6652 14.3869 26.7723 14.3942 26.9185 14.3895C27.0125 14.3811 27.1583 14.3764 27.098 14.3647Z" fill="white"/>
<path d="M28.2848 14.4608C28.1786 14.4535 28.1714 14.4457 28.1116 14.4341L28.0996 14.4777L28.2848 14.4608Z" fill="white"/>
<path d="M27.1394 14.4712C27.1003 14.4833 26.5694 14.5059 27.0672 14.5032C27.1071 14.4912 27.5005 14.4811 27.1394 14.4712Z" fill="white"/>
<path d="M21.2217 14.416L21.3216 14.4155L21.3072 14.344L21.2217 14.416Z" fill="white"/>
<path d="M16.0052 14.587C16.4706 14.6041 16.1157 14.5429 16.5363 14.5643C16.6456 14.5474 16.1925 14.5468 16.3046 14.5322C16.0236 14.55 15.8761 14.54 16.0052 14.587Z" fill="white"/>
<path d="M16.3047 14.5323C16.3491 14.529 16.3964 14.5254 16.4481 14.5215C16.3667 14.5259 16.3284 14.5294 16.3047 14.5323Z" fill="white"/>
<path d="M37.4248 22.1917L37.7242 22.2066L37.5309 22.1826L37.4248 22.1917Z" fill="white"/>
<path d="M37.999 22.1387L38.0695 22.1842L38.2493 22.143C38.1816 22.145 38.0504 22.149 37.999 22.1387Z" fill="white"/>
<path d="M1.09344 17.8842L1.08247 17.8613C1.07061 17.9077 1.06973 17.9778 1.06787 18.1181L1.09344 17.8842Z" fill="white"/>
<path d="M1.33 21.6648C1.31534 21.6546 1.30227 21.6424 1.28955 21.6299C1.3039 21.6639 1.32464 21.6933 1.34501 21.7261L1.33 21.6648Z" fill="white"/>
<path d="M4.56619 21.7559C4.42715 21.7577 4.26368 21.7598 4.12402 21.7616C4.42715 21.7542 4.60379 21.8072 4.56619 21.7559Z" fill="white"/>
<path d="M8.97212 16.1689H10.1708L8.71847 20.3761H7.47938L6.00977 16.1689H7.21421L8.10185 18.9064L8.97212 16.1689Z" fill="white"/>
<path d="M10.4878 20.3761V16.1689H13.7498V17.1486H11.6232V17.7652H13.5424V18.7336H11.6232V19.3905H13.8478V20.3761H10.4878Z" fill="white"/>
<path d="M17.8815 19.8515C17.8815 19.9708 17.8931 20.0706 17.9162 20.1513C17.9392 20.2321 17.9833 20.3069 18.0487 20.3761H16.8441C16.7942 20.3069 16.7577 20.2321 16.7347 20.1513C16.7116 20.0706 16.7001 19.9708 16.7001 19.8515V19.3214C16.7001 19.2139 16.6876 19.1292 16.6626 19.0677C16.6376 19.0064 16.5982 18.9621 16.5444 18.9351C16.4907 18.9084 16.4195 18.8949 16.3313 18.8949H15.4436V20.3761H14.3198V16.1689H16.4695C16.8038 16.1689 17.0863 16.2187 17.3168 16.3187C17.5473 16.4187 17.7192 16.556 17.8325 16.7308C17.9459 16.9056 18.0025 17.1063 18.0025 17.3331C18.0025 17.5519 17.9594 17.7375 17.8729 17.8892C17.7865 18.041 17.677 18.16 17.5443 18.2465C17.4118 18.3331 17.2726 18.3916 17.1265 18.4223V18.4338C17.2917 18.4608 17.4301 18.5108 17.5415 18.5836C17.6529 18.6566 17.7375 18.7556 17.7952 18.8804C17.8528 19.0054 17.8815 19.1582 17.8815 19.3387V19.8515ZM16.4062 17.9555C16.556 17.9555 16.6694 17.921 16.7462 17.8517C16.823 17.7824 16.8615 17.6827 16.8615 17.5519C16.8615 17.4214 16.824 17.3214 16.7491 17.2523C16.6741 17.1831 16.5598 17.1486 16.4062 17.1486H15.4437V17.9554L16.4062 17.9555Z" fill="white"/>
<path d="M19.7552 20.3761H18.6025V16.1689H19.7552V20.3761Z" fill="white"/>
<path d="M23.6738 17.1486H21.6048V17.8172H23.4664V18.7969H21.6048V20.3761H20.4521V16.1689H23.6738V17.1486Z" fill="white"/>
<path d="M25.305 20.3761H24.1523V16.1689H25.305V20.3761Z" fill="white"/>
<path d="M26.0024 20.3761V16.1689H29.2645V17.1486H27.1379V17.7652H29.057V18.7336H27.1379V19.3905H29.3625V20.3761H26.0024Z" fill="white"/>
<path d="M31.662 16.1689C32.0961 16.1689 32.4764 16.2535 32.8032 16.4225C33.1295 16.5915 33.3813 16.8251 33.5581 17.1226C33.7348 17.4204 33.8231 17.7595 33.8231 18.1398V18.4051C33.8231 18.7854 33.7349 19.1244 33.5581 19.4222C33.3813 19.72 33.1295 19.9536 32.8032 20.1226C32.4764 20.2916 32.0961 20.3761 31.662 20.3761H29.835V16.1689H31.662ZM32.6532 18.1688C32.6532 17.9727 32.6089 17.7999 32.5206 17.6499C32.4321 17.5002 32.3026 17.3839 32.1316 17.3014C31.9605 17.2189 31.758 17.1774 31.5237 17.1774H30.9876V19.3675H31.5237C31.758 19.3675 31.9605 19.3262 32.1316 19.2434C32.3026 19.1609 32.4321 19.0447 32.5206 18.8949C32.6089 18.7451 32.6532 18.5721 32.6532 18.3763V18.1688Z" fill="white"/>
<path d="M11.7223 22.7163H11.7579C11.7253 22.6677 11.7012 22.666 11.7223 22.7163Z" fill="#146A36"/>
<path d="M37.4189 13.5643C37.3251 13.2782 37.2448 13.0106 37.2013 12.8181C37.18 13.003 37.3288 13.3679 37.4389 13.7283H37.4696C37.4531 13.6731 37.4363 13.6181 37.4189 13.5643Z" fill="#146A36"/>
<path d="M37.0331 11.691C37.0129 11.6384 36.9851 11.5661 36.9377 11.4427C36.933 11.5372 36.7961 11.1751 37.0454 11.7492C37.0389 11.7187 37.0369 11.7092 37.0331 11.691Z" fill="#146A36"/>
<path d="M37.0333 11.6912C37.1368 11.9463 36.9979 11.512 37.0333 11.6912Z" fill="#146A36"/>
<path d="M36.6987 10.847C36.6887 10.7687 36.5602 10.4719 36.6248 10.5744C36.4538 10.2426 36.4651 10.3231 36.5178 10.5313L36.6987 10.847Z" fill="#146A36"/>
<path d="M36.3062 10.2529C36.3395 10.3059 36.3717 10.3595 36.4009 10.4146C36.396 10.3807 36.3799 10.3334 36.3062 10.2529Z" fill="#146A36"/>
<path d="M36.4861 10.5756C36.4458 10.5586 36.5039 10.6178 36.5926 10.763L36.4009 10.4146C36.4079 10.4692 36.3806 10.4877 36.4861 10.5756Z" fill="#146A36"/>
<path d="M36.6484 11.0942C36.9167 11.7275 36.9521 11.6056 36.6711 10.9739C36.7373 11.1661 36.8175 11.4147 36.6484 11.0942Z" fill="#146A36"/>
<path d="M37.0605 12.7249C37.0799 12.8122 37.0999 12.899 37.1131 12.9879L37.2084 13.2002C37.1644 13.0931 37.09 12.6983 37.0605 12.7249Z" fill="#146A36"/>
<path d="M35.6528 8.91054C35.6006 8.78179 35.4683 8.55726 35.4857 8.52472C35.4555 8.51703 35.5033 8.65742 35.4945 8.69431C35.5509 8.76404 35.6014 8.83748 35.6528 8.91054Z" fill="#146A36"/>
<path d="M35.4952 8.69415L35.249 8.37793C35.4374 8.67976 35.4872 8.72544 35.4952 8.69415Z" fill="#146A36"/>
<path d="M36.5225 10.8024C36.3918 10.5765 36.2649 10.35 36.1191 10.1338L36.1772 10.2449C36.3036 10.4242 36.4064 10.6161 36.5225 10.8024Z" fill="#146A36"/>
<path d="M34.7974 7.41414C34.7005 7.31727 34.5998 7.22392 34.4951 7.13428L34.6248 7.25867L34.7974 7.41414Z" fill="#146A36"/>
<path d="M33.9847 6.47049C34.1263 6.57171 33.8863 6.25113 34.0222 6.36972C33.8341 6.16562 33.6558 6.00722 33.4893 5.87207C33.6543 6.02665 33.8059 6.21486 33.9847 6.47049Z" fill="#146A36"/>
<path d="M33.21 5.64551C33.2946 5.72009 33.3878 5.79247 33.4892 5.87189C33.3996 5.79152 33.3084 5.71543 33.21 5.64551Z" fill="#146A36"/>
<path d="M34.7884 7.68055C34.8159 7.71972 34.8471 7.76403 34.8786 7.80898C34.8713 7.77646 34.8646 7.70872 34.7461 7.51758L34.7884 7.68055Z" fill="#146A36"/>
<path d="M34.7905 7.68593L34.7889 7.68032C34.6916 7.54069 34.6241 7.44383 34.5952 7.40234C34.6199 7.43816 34.6786 7.52349 34.7905 7.68593Z" fill="#146A36"/>
<path d="M34.9015 7.84102C34.8932 7.82919 34.8871 7.8205 34.8789 7.80884C34.8828 7.82442 34.8864 7.83294 34.9015 7.84102Z" fill="#146A36"/>
<path d="M35.5091 9.14728C35.6277 9.27108 35.5188 9.02324 35.7373 9.30217C35.5916 9.11593 35.3198 8.71556 35.5091 9.14728Z" fill="#146A36"/>
<path d="M35.235 8.39858C35.1404 8.27961 35.0511 8.15747 34.9526 8.04199C35.0302 8.15915 35.0983 8.28262 35.1715 8.40249C35.1803 8.38696 35.1586 8.31022 35.235 8.39858Z" fill="#146A36"/>
<path d="M34.8174 7.88477L34.9526 8.04213L34.8662 7.91184L34.8174 7.88477Z" fill="#146A36"/>
<path d="M33.659 6.21947C33.5211 6.0969 33.3871 5.94886 33.2256 5.79053C33.3874 5.97074 33.5457 6.16442 33.7005 6.3445C33.7366 6.35742 33.8308 6.4145 33.659 6.21947Z" fill="#146A36"/>
<path d="M34.2239 6.92126C34.2153 6.91197 34.2044 6.90034 34.1963 6.8916C34.2077 6.9143 34.2187 6.93096 34.2239 6.92126Z" fill="#146A36"/>
<path d="M31.6113 4.26465L31.6312 4.2962L31.6441 4.29369L31.6113 4.26465Z" fill="#146A36"/>
<path d="M33.7191 6.38272C33.8292 6.52756 33.9113 6.6 33.9934 6.66657C33.8998 6.56759 33.8025 6.46125 33.701 6.34474C33.6847 6.33893 33.6786 6.34048 33.7191 6.38272Z" fill="#146A36"/>
<path d="M32.7539 5.21997C32.8146 5.2938 32.8844 5.37634 32.9541 5.46634C32.9057 5.38398 32.79 5.23134 32.7539 5.21997Z" fill="#146A36"/>
<path d="M34.1707 6.8328C34.1771 6.83941 34.1828 6.8454 34.1896 6.85247C34.1629 6.79774 34.1625 6.80749 34.1707 6.8328Z" fill="#146A36"/>
<path d="M34.1709 6.8329C34.1061 6.76467 34.0494 6.7159 33.9932 6.6665C34.0656 6.75019 34.1338 6.82711 34.1959 6.89154C34.1853 6.87118 34.1763 6.84937 34.1709 6.8329Z" fill="#146A36"/>
<path d="M30.9076 4.12484C30.9049 4.14279 30.7538 4.05626 30.8489 4.14937C30.9033 4.12844 31.3183 4.36542 31.5802 4.68414C31.9088 4.91364 31.8343 4.60711 31.6312 4.29596C31.6047 4.3083 31.5963 4.3172 31.247 4.08746C31.3502 4.19329 31.9071 4.73384 31.6101 4.54332C31.1776 4.20755 31.2746 4.24566 31.0865 4.05324C31.2225 4.24518 30.4763 3.7044 30.5068 3.8653C30.6451 3.94494 30.7749 4.03663 30.9076 4.12484Z" fill="#146A36"/>
<path d="M32.2279 4.82363L32.3571 4.93719C32.2237 4.79255 32.1321 4.68517 31.9643 4.48301C31.7294 4.31541 31.6713 4.29253 31.6445 4.29375C31.8548 4.48226 32.0715 4.66358 32.2761 4.85806L32.2279 4.82363Z" fill="#146A36"/>
<path d="M32.9113 5.47383C32.779 5.41501 32.4582 5.15637 32.5962 5.37474C32.9558 5.72271 32.8773 5.58986 33.1059 5.78648C32.5351 5.20967 33.2914 5.93216 32.9107 5.48324C33.0284 5.5918 33.1301 5.69388 33.2258 5.79052C33.1299 5.67928 33.0388 5.57056 32.9546 5.46617C32.9586 5.47251 32.9615 5.47699 32.9648 5.48233L32.9676 5.48498L32.9664 5.48509C32.9853 5.51581 32.99 5.5274 32.9658 5.49565C32.9635 5.49359 32.9564 5.48715 32.9531 5.48421C32.9433 5.48611 32.9277 5.48035 32.9115 5.47359C32.7575 5.29413 32.897 5.43564 32.9531 5.48421C32.9571 5.4841 32.9635 5.48677 32.9664 5.48509L32.9648 5.48236C32.7711 5.29084 32.5583 5.11899 32.3564 4.93701C32.4739 5.06408 32.6373 5.20579 32.9113 5.47383Z" fill="#146A36"/>
<path d="M35.1775 8.84492C35.1687 8.8213 35.1729 8.81996 35.1756 8.8161C35.1415 8.77652 35.1267 8.76273 35.1775 8.84492Z" fill="#146A36"/>
<path d="M35.2602 8.81313L35.2224 8.76945C35.0993 8.5472 34.9725 8.25697 34.9414 8.1626C34.9485 8.26174 34.965 8.35531 35.0303 8.54771C35.0689 8.59238 35.1157 8.6204 35.2131 8.78394C35.2866 8.93238 35.188 8.79849 35.1758 8.81633C35.2522 8.90315 35.4248 9.13423 35.2602 8.81313Z" fill="#146A36"/>
<path d="M34.9408 8.16233C34.9401 8.15316 34.9395 8.14394 34.939 8.13456C34.9309 8.12532 34.9322 8.13645 34.9408 8.16233Z" fill="#146A36"/>
<path d="M33.7573 6.74856L33.7701 6.71529C34.0047 7.01683 33.978 6.93238 34.0281 6.95315C33.8851 6.77985 33.727 6.61947 33.5732 6.45605L33.7573 6.74856Z" fill="#146A36"/>
<path d="M31.6803 4.2004C31.5635 4.13507 31.4374 4.08206 31.3169 4.02319L31.5711 4.19036L31.6803 4.2004Z" fill="#146A36"/>
<path d="M30.9308 3.62511C30.8624 3.58628 30.7909 3.55183 30.7212 3.51514L30.8717 3.6494L30.9308 3.62511Z" fill="#146A36"/>
<path d="M4.95898 27.1143L5.0687 27.2727C5.01842 27.1968 4.98533 27.1484 4.95898 27.1143Z" fill="#146A36"/>
<path d="M4.29921 25.8879L4.25928 25.8696C4.30204 25.9202 4.32391 25.9386 4.29921 25.8879Z" fill="#146A36"/>
<path d="M9.91559 3.0188L10.0246 3.02116C10.19 2.90215 10.3253 2.82351 10.4437 2.76318C10.1715 2.8759 9.85118 2.98583 9.91559 3.0188Z" fill="#146A36"/>
<path d="M10.1523 32.572C10.2247 32.5984 10.2966 32.6249 10.3715 32.6466C10.0824 32.4518 10.1932 32.5613 10.1523 32.572Z" fill="#146A36"/>
<path d="M22.5833 0.247801C22.3376 0.192535 22.14 0.157362 21.9658 0.132324C22.263 0.205209 22.4969 0.287919 22.5833 0.247801Z" fill="#146A36"/>
<path d="M4.12012 26.9513C4.1906 27.0519 4.22736 27.0909 4.23738 27.0811C4.1658 26.9775 4.12021 26.9215 4.12012 26.9513Z" fill="#146A36"/>
<path d="M21.2417 0.0720523C21.2861 0.0802659 21.3285 0.0881041 21.3732 0.096406C21.5569 0.102522 21.743 0.100734 21.9655 0.132418C21.7464 0.0787423 21.4901 0.050878 21.2417 0.0720523Z" fill="#146A36"/>
<path d="M34.4805 27.9771C34.4933 27.9615 34.5082 27.9435 34.5201 27.929C34.5165 27.9193 34.5015 27.9424 34.4805 27.9771Z" fill="#146A36"/>
<path d="M27.8428 1.78613C28.0137 1.86414 27.8733 1.79137 27.8428 1.78613Z" fill="#146A36"/>
<path d="M28.5423 2.41233C28.504 2.40038 28.4732 2.3944 28.4624 2.40466C28.4829 2.39868 28.5103 2.40226 28.5423 2.41233Z" fill="#146A36"/>
<path d="M19.3869 0.419434C19.3815 0.419499 19.3772 0.419543 19.3711 0.419631C19.4258 0.430125 19.4164 0.428083 19.3869 0.419434Z" fill="#146A36"/>
<path d="M28.0838 1.93776C28.0244 1.89912 27.9551 1.85604 27.8779 1.8125C27.9118 1.8331 27.9742 1.87112 28.0838 1.93776Z" fill="#146A36"/>
<path d="M28.0625 1.89453C28.1192 1.92617 28.1636 1.95097 28.206 1.97464C28.2317 1.97638 28.2159 1.96108 28.0625 1.89453Z" fill="#146A36"/>
<path d="M27.8433 1.7863C27.7929 1.76422 27.7216 1.73306 27.6035 1.6814C27.7018 1.72478 27.7919 1.76872 27.8778 1.81246C27.846 1.79356 27.8334 1.78407 27.8433 1.7863Z" fill="#146A36"/>
<path d="M22.3135 35.6817C22.3257 35.682 22.3393 35.6822 22.353 35.6825C22.5316 35.6343 22.4522 35.6485 22.3135 35.6817Z" fill="#146A36"/>
<path d="M7.15192 6.28639C7.15673 6.27967 7.15954 6.2757 7.16395 6.26953C7.15765 6.27517 7.14973 6.28226 7.14404 6.28734L7.15192 6.28639Z" fill="#146A36"/>
<path d="M6.75391 6.8017C6.87894 6.54454 6.98442 6.4256 7.14381 6.2876C7.05196 6.30018 6.95726 6.31113 6.86636 6.32652L6.75391 6.8017Z" fill="#146A36"/>
<path d="M33.7573 28.9648L33.7422 28.9821C33.7464 28.9774 33.7516 28.9715 33.7573 28.9648Z" fill="#146A36"/>
<path d="M29.0044 2.70068L29.0068 2.70677C29.0069 2.70528 29.006 2.70315 29.0044 2.70068Z" fill="#146A36"/>
<path d="M8.12162 4.70581C8.11969 4.70724 8.11781 4.70873 8.11591 4.71018C8.11569 4.71061 8.11544 4.71106 8.11523 4.71149C8.11741 4.70957 8.11924 4.70789 8.12162 4.70581Z" fill="#146A36"/>
<path d="M8.97656 4.37723C8.98444 4.36818 8.99202 4.35885 8.99994 4.34985C8.99055 4.35978 8.98291 4.36884 8.97656 4.37723Z" fill="#146A36"/>
<path d="M8.51434 4.95557C8.51169 4.95905 8.509 4.96254 8.50635 4.96602C8.5094 4.96249 8.51198 4.95901 8.51434 4.95557Z" fill="#146A36"/>
<path d="M3.14245 13.471C3.16239 13.3007 3.18193 13.1339 3.20189 12.9635C3.2302 12.794 3.25908 12.621 3.2897 12.4377C3.3506 12.0661 3.46791 11.6563 3.65936 11.1416C3.61482 11.4183 3.74562 11.2418 3.81932 11.2898C3.62509 11.5299 3.52907 12.0797 3.3426 12.607C3.44565 12.3326 3.46402 12.4076 3.45393 12.4826C3.52688 12.1559 3.63394 11.8399 3.72794 11.5175C3.78446 11.5651 3.85317 11.3393 3.99152 11.1153C3.78 11.2381 4.20907 10.3943 4.37043 10.0171C4.42371 10.0167 4.42196 10.126 4.1854 10.5627C4.53219 10.1262 4.35197 9.84964 4.70668 9.42611C4.64696 9.53231 4.6079 9.58567 4.60485 9.63906C4.65738 9.50568 4.7778 9.29188 4.87897 9.13229C4.98157 8.97345 5.07367 8.87447 5.0456 8.95316L4.98102 9.05568C5.09113 8.88668 5.22979 8.67381 5.37704 8.4478C5.52862 8.22476 5.68891 7.98888 5.83749 7.77025C6.14318 7.34009 6.3927 6.9713 6.38826 6.88856C6.405 6.89221 6.42929 7.0605 6.41946 7.11488C6.62398 6.66461 6.83774 6.20719 7.0849 5.76584C7.07154 5.92843 7.58255 5.74643 7.16379 6.26956C7.30975 6.14384 7.47489 5.97537 7.74128 5.67094C7.636 5.74928 7.40158 5.79291 7.52364 5.66061C7.96263 5.40444 7.81017 5.46178 8.32352 5.12692C8.16055 5.23893 8.21756 4.97693 8.45796 4.77546C8.43776 4.82353 8.56961 4.87468 8.51413 4.9555C8.66292 4.75945 8.81452 4.56358 8.97663 4.37734C8.98299 4.36891 8.99067 4.35979 9.00015 4.34981C8.99217 4.35886 8.98456 4.36822 8.97663 4.37734C8.8924 4.48913 9.06875 4.47005 9.21984 4.4041C9.17888 4.41662 9.31019 4.31435 9.4706 4.19156C9.63392 4.07267 9.83228 3.94162 9.91069 3.87488L9.62312 4.03442C10.344 3.549 10.2024 3.35382 10.9525 2.90099C10.8767 2.98222 10.8312 3.20218 11.2218 3.00057C11.3509 2.82917 11.8105 2.21204 12.5034 1.83055L12.6594 1.81077C12.8344 1.71262 13.0087 1.61088 13.1902 1.52484C12.872 1.78175 12.044 2.45015 11.612 2.79887C11.9175 2.68028 11.718 2.80497 12.1484 2.57911C12.3202 2.53979 11.9428 2.75829 11.8175 2.82524C12.1563 2.66242 12.492 2.49444 12.8409 2.35551C12.7985 2.32286 12.9853 2.21246 13.1747 2.10292C13.3674 2.00162 13.5641 1.90443 13.5293 1.87539C13.155 2.04806 12.7994 2.25903 12.4396 2.45403C12.3541 2.39892 12.9684 1.89579 13.7399 1.62751C13.9446 1.58712 13.656 1.84117 13.6838 1.86402C13.7653 1.78668 14.3795 1.54376 14.458 1.54462L14.1514 1.70156C14.5837 1.59057 14.8042 1.34425 15.3499 1.28997C15.5295 1.23893 15.9152 1.26893 15.9332 1.2087C15.6151 1.17152 15.4694 0.863397 15.6521 0.738206C15.6854 0.734298 15.9341 0.705065 16.2032 0.673447C16.4701 0.638936 16.761 0.638362 16.8708 0.641586C17.1892 0.67051 16.4502 0.921113 16.7226 0.946129C16.7288 0.918861 16.8899 0.857767 16.9579 0.835246C17.1544 0.822506 16.8919 0.928223 17.3077 0.842002C17.3635 0.736926 18.1669 0.740635 17.4953 0.735888C17.9061 0.661369 17.9363 0.688019 18.4232 0.645185C18.2611 0.599767 18.8447 0.392528 19.2684 0.3521C19.2445 0.377028 19.3406 0.406284 19.3868 0.419576C19.6022 0.418494 19.7926 0.417522 19.9699 0.416639C20.1467 0.426774 20.3102 0.436157 20.472 0.445431C20.6334 0.455631 20.793 0.465722 20.9621 0.476386C21.131 0.491533 21.3094 0.507518 21.509 0.525425C21.5812 0.552605 21.9625 0.613787 21.7948 0.639775C21.9103 0.636331 22.0186 0.618203 22.2637 0.646774C22.7256 0.788879 21.7177 0.590383 22.0661 0.734828C22.1023 0.687114 22.7074 0.728027 23.0575 0.767042C23.0113 0.718003 22.8128 0.669185 22.5791 0.651279C22.3454 0.632644 22.0803 0.625203 21.9042 0.620279C21.9096 0.561282 22.0677 0.520259 22.3321 0.500762C22.5973 0.474841 22.9659 0.491754 23.3885 0.542691C24.0569 0.64216 23.659 0.676847 23.7776 0.68144C24.0842 0.757482 24.3057 0.79802 24.4822 0.821248C24.6566 0.852556 24.7861 0.864855 24.9091 0.877021C25.1549 0.901087 25.3775 0.921489 25.8626 1.13688C26.2339 1.34222 25.8309 1.28468 25.9009 1.36584C25.6377 1.29285 25.4445 1.21168 25.2701 1.14103C25.0943 1.07532 24.9399 1.01237 24.7612 0.963219L25.1897 1.12202C25.0153 1.09857 24.661 1.01778 24.4759 0.942464C24.5551 0.982583 24.7218 1.03957 24.9416 1.10755C25.0517 1.14083 25.1747 1.17799 25.3065 1.21782C25.4367 1.26273 25.5756 1.31062 25.7191 1.36012C26.0082 1.45325 26.3094 1.56966 26.5925 1.6899C26.879 1.80169 27.1406 1.9322 27.3538 2.04644C27.5203 2.09396 27.8024 2.19274 27.6874 2.10747L27.4035 1.99069C27.1709 1.81869 27.9666 2.15293 27.6236 1.96663C27.8235 2.02794 28.0271 2.11231 28.2515 2.20394C28.363 2.25117 28.4786 2.30257 28.5972 2.36165C28.7132 2.42579 28.8326 2.49702 28.9551 2.57741L29.0047 2.70068C29.0063 2.70311 29.0072 2.70517 29.0071 2.70662L29.0047 2.70068C28.9769 2.65741 28.694 2.46838 28.5468 2.41389C28.7759 2.50546 29.2678 2.94937 29.5443 3.00653C29.4396 2.91709 29.3374 2.82278 29.2275 2.74012C29.6036 2.92133 30.0976 3.11653 30.5028 3.44861C30.3576 3.24194 30.4008 3.38597 30.1519 3.09114C30.3553 3.36647 29.0268 2.36664 29.3949 2.75407C29.123 2.46847 28.8564 2.37285 28.4584 2.05892C28.459 2.09113 28.5905 2.18758 28.2058 1.97482C28.1843 1.97316 28.1379 1.96126 28.1087 1.95322C28.0973 1.94629 28.0932 1.94382 28.0833 1.93783C28.0905 1.94289 28.0961 1.94675 28.1033 1.95188C28.0845 1.94702 28.0826 1.94702 28.1108 1.95702C28.1984 2.01575 28.2669 2.06764 28.2901 2.09734C28.1777 2.07828 27.9702 1.98356 27.7571 1.89646C27.5425 1.81238 27.3279 1.72406 27.2145 1.69127C26.9841 1.5724 27.3261 1.70602 27.2095 1.62007C27.0967 1.58597 26.9829 1.55495 26.8672 1.52954C26.8599 1.45886 26.2638 1.179 26.8482 1.36975L26.3349 1.16443C26.0418 1.01999 25.6193 0.863927 25.3484 0.80524C25.1006 0.720564 24.6955 0.692325 24.9273 0.706831C24.647 0.63547 24.3633 0.579697 24.0786 0.530658L24.0744 0.513502C23.6607 0.404098 23.2204 0.364266 22.7721 0.294892C22.3193 0.251528 21.8571 0.180034 21.3735 0.0963746C21.2295 0.0924886 21.083 0.0885363 20.9132 0.0839437C20.7427 0.0841866 20.5486 0.0796382 20.3085 0.0646241L20.2154 0.00772505C19.8466 0.0169764 19.1018 -0.0306934 18.9459 0.0371792C18.7434 -0.0140454 18.2897 -0.010557 17.8127 0.0650435C17.3331 0.1234 16.8316 0.236734 16.5083 0.283808L16.4976 0.358062C16.2757 0.39032 16.0651 0.455079 15.8395 0.51178C15.614 0.569518 15.3778 0.639002 15.116 0.732863L15.1656 0.784176C14.9441 0.876292 14.6443 0.939307 14.318 1.03911C14.1537 1.08609 13.9809 1.13551 13.8042 1.18602C13.6295 1.24348 13.4532 1.31029 13.2779 1.38039C13.3167 1.33919 13.4976 1.27465 13.6288 1.23857C12.7225 1.41742 11.9214 2.08228 11.1629 2.38488C10.9973 2.50643 10.8658 2.57306 10.7337 2.63078C10.7501 2.62118 10.7642 2.61173 10.7759 2.60272C10.7576 2.61303 10.7306 2.62822 10.7029 2.64385C10.6184 2.67807 10.5334 2.71689 10.4437 2.7633C10.5245 2.7278 10.5999 2.69461 10.664 2.66644C10.5285 2.74628 10.3343 2.88609 10.1455 3.02402L10.0246 3.02126C10.0089 3.03212 9.99642 3.04078 9.98004 3.05212C9.77242 3.1557 9.84257 3.17835 9.97368 3.15466C9.87964 3.22532 9.80181 3.30211 9.74262 3.36287C9.53054 3.38495 9.26106 3.73876 8.99588 3.80802C8.95113 3.87925 8.72698 4.06891 8.51172 4.26173C8.3354 4.43446 8.16666 4.60946 8.11595 4.71013C8.11782 4.70871 8.11963 4.70728 8.12151 4.70586C8.11921 4.70789 8.1174 4.70951 8.11528 4.71141C8.10683 4.72843 8.1014 4.74353 8.10038 4.75585C8.08451 4.74954 8.03065 4.78641 8.11528 4.71141C8.11548 4.71099 8.11572 4.71055 8.11595 4.71013C7.91021 4.86429 7.71803 5.03467 7.57455 5.21736L7.43534 5.23134C7.32344 5.38764 7.21684 5.54756 7.11702 5.71254C6.84319 5.92384 6.72118 6.00774 6.90965 5.7142C6.65633 6.04897 6.5568 6.18047 6.46556 6.30105C6.37433 6.42271 6.28851 6.5299 6.10297 6.82972L6.08111 6.76761C5.92746 6.96644 5.73961 7.326 5.61005 7.4166C5.40263 7.61041 4.99029 8.17046 4.56508 8.85338C4.15182 9.54379 3.72511 10.3516 3.39767 10.9973C3.53132 10.9031 3.44205 11.0467 3.33958 11.2308C3.2415 11.4169 3.12318 11.6419 3.17186 11.6913C3.10509 11.7553 3.01059 11.9355 3.06511 11.7053C2.94076 12.0534 2.85219 12.3161 2.76167 12.5486C2.67114 12.781 2.61508 12.9953 2.59722 13.255C2.5367 13.3258 2.58585 13.0873 2.54321 13.1533C2.535 13.2129 2.5114 13.3885 2.4681 13.4565C2.42526 13.5231 2.46631 13.3437 2.48221 13.2261C2.41999 13.4432 2.38841 13.6054 2.37695 13.7284H3.05082C3.07986 13.6421 3.11011 13.5562 3.14245 13.471ZM26.5443 1.2907C26.5659 1.30938 26.5665 1.31974 26.504 1.30521C26.3227 1.25052 26.2515 1.20797 26.2151 1.17642C26.3647 1.23864 26.4968 1.29084 26.5443 1.2907ZM25.9193 1.06088C25.9135 1.06026 25.9095 1.05984 25.9044 1.05931C25.6237 0.936459 25.723 0.981037 25.9193 1.06088Z" fill="#146A36"/>
<path d="M36.8715 23.1664C36.8042 23.4067 36.7213 23.6209 36.6378 23.8397C36.5554 24.0588 36.4713 24.2822 36.3586 24.5261C36.2501 24.7715 36.1368 25.0465 35.9773 25.3604L36.081 25.2923C35.9479 25.5651 35.9028 25.6144 35.8295 25.7363C35.7772 26.0966 36.1851 24.9632 36.1561 25.2973C36.0835 25.3758 35.9921 25.5366 35.8919 25.7366C35.788 25.9354 35.6663 26.1684 35.5463 26.3981C35.3014 26.8546 35.0394 27.2845 34.9024 27.3585C34.6508 27.7493 35.0416 27.2842 34.7894 27.6758L34.6878 27.7571L34.6691 27.8857C34.4984 28.1399 34.3562 28.2287 34.324 28.2198C34.3702 28.162 34.4375 28.0431 34.4809 27.9771C34.3463 28.1239 34.189 28.3522 34.0535 28.5572C33.9301 28.7427 33.8131 28.8999 33.758 28.9648L34.0375 28.6461C33.3147 29.6943 32.2038 30.7822 31.3171 31.6327L31.408 31.5955C31.0744 31.9297 30.9073 32.0245 30.7465 32.1428C30.5841 32.26 30.4031 32.3697 29.9893 32.6784L30.0156 32.6505C29.8683 32.8005 29.6411 32.9587 29.4014 33.1091C29.6008 32.9376 28.951 33.3131 29.217 33.0942C28.3742 33.6648 28.8137 33.3968 28.2786 33.8247L28.1156 33.8497C27.9303 33.9918 27.9313 34.0377 27.4653 34.2661C27.8332 34.0508 27.1313 34.33 27.5385 34.0811C27.2801 34.1666 27.0636 34.2568 26.8747 34.3454C26.6839 34.4293 26.5179 34.5042 26.3698 34.5758C26.0749 34.722 25.8355 34.8153 25.5745 34.8154C25.1508 35.1155 26.4862 34.5863 26.2314 34.7006C26.3484 34.6798 26.2626 34.7426 26.1062 34.825C25.9477 34.9012 25.7161 34.99 25.552 35.0384C25.3867 35.0934 25.2328 35.0983 25.0142 35.1098C24.7947 35.1181 24.5218 35.1715 24.0981 35.2627C24.1823 35.244 24.1854 35.2321 24.2693 35.2134C23.9443 35.2442 23.6632 35.4187 23.258 35.4223C23.0538 35.5472 22.7489 35.5082 22.7028 35.6293L23.4845 35.4635C23.2648 35.5175 23.0559 35.5952 22.8073 35.6683C22.5587 35.7402 22.2666 35.7856 21.8917 35.8041C21.9473 35.7745 22.1648 35.7171 22.3139 35.6816C22.0932 35.6736 21.9 35.7628 21.6706 35.7446C21.6981 35.6906 21.9376 35.657 22.2289 35.6154C22.3746 35.5952 22.5337 35.5755 22.685 35.5494C22.8353 35.5169 22.9783 35.4807 23.0933 35.4386C22.9745 35.4342 22.7546 35.4999 22.5888 35.5325C22.4229 35.5645 22.3147 35.5801 22.4266 35.5052C22.2647 35.6029 22.0512 35.6251 21.8092 35.6466C21.5656 35.6573 21.2934 35.6628 21.0038 35.744L21.0386 35.6745C20.9471 35.6955 20.7561 35.731 20.5849 35.7332L20.8901 35.6391C20.4186 35.7231 19.9772 35.6065 19.5251 35.6252C19.9994 35.6375 20.0528 35.6562 20.0376 35.6818C20.0225 35.7086 19.9381 35.7435 20.1402 35.7626C18.959 35.8303 19.4655 35.598 18.1606 35.5266C18.3371 35.5364 18.8211 35.6184 18.5415 35.6295C18.2925 35.6029 17.9678 35.5353 17.8207 35.4799C16.9578 35.3843 17.9441 35.5646 17.5716 35.5585C17.2881 35.4455 17.1443 35.5256 16.7606 35.4861L16.7704 35.419C15.8052 35.1831 16.4825 35.506 15.6169 35.2595L16.0086 35.2535C15.8557 35.2248 15.7009 35.2028 15.549 35.1687L15.661 35.1192C15.1612 35.0326 15.006 34.9921 14.5437 34.8106C14.6383 34.893 14.4442 34.9066 14.0239 34.7667C13.7546 34.6258 14.2019 34.7701 13.6163 34.5514C13.7646 34.5603 13.9212 34.5783 14.1587 34.7195C14.1925 34.7076 14.3042 34.7239 14.3383 34.7124C14.0454 34.5745 13.5844 34.4206 13.3737 34.3403C13.4533 34.3744 13.5483 34.4157 13.5942 34.4442L13.1571 34.3207L12.7259 34.1771C12.6065 34.0952 12.7184 34.1233 12.8282 34.1511C12.6599 34.0798 12.5272 34.0644 12.2846 33.9469C12.3663 33.9293 12.3778 33.8817 12.6787 33.9863C12.4279 33.8964 12.1853 33.7876 11.9393 33.6839C11.898 33.6381 11.5801 33.423 11.6885 33.4566C11.4915 33.3236 11.2256 33.2047 10.945 33.0684C10.6726 32.9197 10.3743 32.7703 10.1294 32.57C10.0966 32.5599 10.0373 32.5301 9.92328 32.4588C9.80595 32.3685 9.69171 32.2806 9.57765 32.1928C9.46833 32.0993 9.35932 32.006 9.248 31.9108C9.13608 31.8162 9.01784 31.7241 8.89375 31.6277C8.7724 31.5279 8.64178 31.4278 8.49643 31.3269C8.41895 31.2136 8.33624 31.1072 8.26459 30.9897C7.85157 30.6267 8.57172 31.4544 7.88156 30.8476C7.38879 30.4194 7.7637 30.6211 7.62296 30.4401C7.49428 30.3411 7.3146 30.2073 7.12215 30.0368C6.93209 29.8643 6.74243 29.6429 6.57606 29.3928C6.71973 29.5302 6.80999 29.6567 6.93637 29.7914L6.68045 29.4125C7.10575 29.7687 7.34224 30.0817 7.12067 29.713C7.03275 29.7497 6.72898 29.4301 6.45376 29.0874C6.31609 28.916 6.17838 28.7448 6.06293 28.6202C5.95377 28.491 5.86538 28.4093 5.81747 28.4243L5.67645 28.1568C5.72467 28.2278 5.7418 28.2325 5.78938 28.3026C5.52571 27.7784 5.42754 28.0265 5.03991 27.3767C4.91428 27.1451 4.85213 26.9696 4.9591 27.114L4.62669 26.6306C4.55542 26.4962 4.58638 26.4992 4.65149 26.6071C4.51155 26.3639 4.38567 26.1128 4.2511 25.8661L4.25918 25.8696C4.17274 25.7704 4.01706 25.5239 3.93907 25.4036C3.87027 25.1851 4.00456 25.4994 4.00222 25.4365C3.92147 25.2919 3.8351 25.1491 3.75837 25.0019C3.74428 24.8982 3.7854 24.938 3.84612 25.0425C3.91151 25.1451 3.99818 25.3119 4.06521 25.4688C4.04929 24.9734 3.84256 25.1173 3.59001 24.1481C3.64855 24.2916 3.71721 24.4312 3.78014 24.5726C3.7648 24.2582 3.6128 23.9302 3.51148 23.415C3.5168 23.5399 3.68639 24.4623 3.47063 23.9724C3.43687 23.8242 3.37639 23.6354 3.25169 23.3713C3.3157 23.3486 3.2231 23.0829 3.12292 22.7446L3.21618 22.7444C3.21267 22.7347 3.2093 22.7254 3.20594 22.7163H2.44185C2.44536 22.7882 2.45274 22.8541 2.46713 22.9101C2.47575 22.9815 2.41779 22.8159 2.3844 22.7163H2.38281C2.53554 23.5754 2.49714 22.797 2.69447 23.4208C2.68464 23.5507 2.53015 23.3064 2.65439 23.7333C2.67212 23.844 2.81041 24.1389 2.96176 24.4768C3.13197 24.808 3.29298 25.191 3.38289 25.4816C3.36153 25.3453 3.3412 25.2115 3.49174 25.4776C3.68555 25.8984 3.9084 26.6819 4.2203 26.9937C4.24116 27.05 4.24397 27.0742 4.23726 27.0808C4.34211 27.2267 4.48832 27.4776 4.65065 27.6969C4.81143 27.9172 4.96571 28.1196 5.04948 28.1922C5.04245 28.2956 5.13287 28.4517 5.25802 28.6368C5.38473 28.8207 5.54786 29.0321 5.72215 29.2208C6.05602 29.6099 6.38964 29.9392 6.30715 30.0058C6.54497 30.2846 6.7995 30.5478 7.0568 30.8082L7.02127 30.8027C7.50256 31.3153 7.72872 31.4396 7.9406 31.5707C8.05303 31.6874 7.95051 31.6251 7.93278 31.6246C8.30615 31.9752 8.51032 32.1717 8.72581 32.3204C8.93979 32.4705 9.13822 32.6083 9.52203 32.8077L9.5542 32.9159C9.7553 33.0275 10.7199 33.8483 11.6582 34.2379C11.6458 34.2404 11.621 34.2429 11.5452 34.2151C12.0649 34.4433 12.6557 34.7771 13.1948 35.0201C13.7299 35.2711 14.2087 35.4279 14.4433 35.3745C14.6835 35.44 14.9317 35.4768 15.1746 35.5276C14.2564 35.2464 15.3422 35.461 14.9746 35.3128C15.3367 35.406 15.8915 35.643 15.4411 35.5383L15.3747 35.5062C15.1724 35.6035 16.5226 35.8328 16.4816 35.9039C18.3436 36.2633 20.2114 36.3964 21.9896 36.2107C21.9178 36.1849 21.8467 36.1615 21.7752 36.1311C21.9809 36.1137 22.1854 36.0849 22.3906 36.0622C22.555 36.0654 22.6188 36.1142 22.1778 36.166C22.4176 36.196 22.9093 36.0232 22.9159 35.9917C23.7768 35.8803 22.6018 36.1694 22.8636 36.1251L23.2195 36.0538L23.1369 36.0564C23.4175 35.9571 23.4384 35.9298 23.9568 35.8105C24.2894 35.7549 24.1396 35.8333 24.27 35.8073C24.2709 35.8145 24.3155 35.8078 24.4694 35.7642C24.7232 35.7013 24.9747 35.6287 25.2275 35.5611L24.9036 35.5689C25.2265 35.4382 25.6096 35.3684 25.2381 35.3828C25.5098 35.3728 26.2093 35.1611 26.8591 34.8917C27.1862 34.7627 27.4949 34.6068 27.7491 34.4958C27.9993 34.3758 28.185 34.2776 28.2632 34.2518C28.4671 34.1177 28.6721 33.9919 28.8872 33.8563C29.1038 33.7236 29.3396 33.5974 29.5877 33.4359C29.4547 33.5011 29.3334 33.4706 29.7664 33.2062C29.7374 33.3325 29.9512 33.2328 30.2107 33.0645C30.4608 32.8991 30.7728 32.6995 30.9737 32.6141C30.8429 32.6659 31.1134 32.4465 31.3617 32.2387C31.6202 32.0211 31.838 31.7984 31.5803 31.9417C31.9119 31.6746 31.6453 31.9785 31.9193 31.7998C32.634 31.0779 33.5784 30.2824 34.3318 29.265C34.3242 29.2347 34.1647 29.3766 34.3018 29.1426C34.4746 28.997 34.6301 28.8366 34.7939 28.6805C34.9245 28.467 34.819 28.42 35.1324 28.0839C35.0803 28.1266 35.0028 28.1895 35.0859 28.0454C35.8086 27.0489 36.3701 25.9098 36.8152 24.731C37.0654 24.0692 37.2799 23.3955 37.4749 22.7163H37.0034C36.9589 22.8769 36.9116 23.0246 36.8715 23.1664ZM3.47365 23.9851C3.52589 24.1071 3.6578 24.3378 3.65904 24.4404C3.53007 24.3286 3.5221 24.2064 3.47365 23.9851ZM24.3324 35.7673L24.2085 35.7777C24.474 35.6963 24.4027 35.7309 24.3324 35.7673Z" fill="#146A36"/>
<path d="M4.65137 26.6072C4.65953 26.6214 4.66757 26.6357 4.67584 26.6498C4.66726 26.634 4.65912 26.62 4.65137 26.6072Z" fill="#146A36"/>
<path d="M26.5441 1.29078C26.4966 1.29089 26.3644 1.23869 26.2148 1.17651C26.2513 1.20804 26.3224 1.25061 26.5038 1.3053C26.5663 1.31981 26.5657 1.30945 26.5441 1.29078Z" fill="#146A36"/>
<path d="M12.6787 33.9863C12.6975 33.9931 12.7163 34 12.7352 34.0065C12.7152 33.9992 12.6965 33.9925 12.6787 33.9863Z" fill="#146A36"/>
<path d="M30.9736 32.6143C30.9792 32.6122 30.9852 32.6097 30.9922 32.6064C30.9862 32.6088 30.9798 32.6117 30.9736 32.6143Z" fill="#146A36"/>
<path d="M2.38086 22.7061C2.38149 22.7097 2.3821 22.713 2.38274 22.7166H2.38437C2.38317 22.713 2.38199 22.7095 2.38086 22.7061Z" fill="#146A36"/>
<path d="M10.1533 32.5721L10.1133 32.5576L10.1296 32.5701C10.1411 32.5734 10.1483 32.5735 10.1533 32.5721Z" fill="#146A36"/>
<path d="M16.9687 0.937744C16.8429 0.950307 16.7713 0.950484 16.7228 0.946134C16.7191 0.963621 16.7783 0.967309 16.9687 0.937744Z" fill="#146A36"/>
<path d="M29.5259 2.67114C29.5384 2.67848 29.5512 2.68548 29.5636 2.69303C29.5475 2.68295 29.5355 2.67604 29.5259 2.67114Z" fill="#146A36"/>
<path d="M29.5092 2.70523C29.5098 2.68964 29.4714 2.64305 29.5263 2.67116C29.4215 2.61 29.3125 2.55606 29.2051 2.49951C29.3773 2.59543 29.4321 2.64091 29.5092 2.70523Z" fill="#146A36"/>
<path d="M32.0914 5.14015C32.1392 5.17424 32.1814 5.22469 32.2287 5.25821L32.2388 5.22432C32.0574 5.05415 31.9148 4.95331 32.0914 5.14015Z" fill="#146A36"/>
<path d="M30.1754 3.39331C30.2895 3.37476 30.0289 3.22122 29.7599 3.08594C29.7535 3.15456 29.9836 3.26273 30.216 3.42219L30.1754 3.39331Z" fill="#146A36"/>
<path d="M30.4826 3.60802C30.5282 3.60124 30.4003 3.54132 30.2695 3.45825C30.3418 3.50639 30.415 3.55655 30.4826 3.60802Z" fill="#146A36"/>
<path d="M27.261 1.57483C27.3779 1.64376 27.3677 1.54308 27.428 1.59582C27.5953 1.58834 26.5702 1.31036 27.261 1.57483Z" fill="#146A36"/>
<path d="M29.8477 3.3655L29.8021 3.25269L29.6392 3.21558L29.8477 3.3655Z" fill="#146A36"/>
<path d="M27.9639 2.21679L28.353 2.43794C28.3525 2.42443 28.4063 2.44423 28.4709 2.47144C28.2267 2.34368 27.9638 2.19334 27.9639 2.21679Z" fill="#146A36"/>
<path d="M28.4712 2.47168C28.5975 2.53999 28.7149 2.60996 28.7904 2.6388C28.7221 2.60171 28.5776 2.5171 28.4712 2.47168Z" fill="#146A36"/>
<path d="M29.3233 3.05421L29.2196 2.97122L28.9492 2.80981C29.0739 2.89169 29.2033 2.96528 29.3233 3.05421Z" fill="#146A36"/>
<path d="M23.427 0.661233L22.9426 0.595215C22.8899 0.610273 23.0181 0.648162 23.1983 0.670595C23.3161 0.674569 23.4962 0.697289 23.427 0.661233Z" fill="#146A36"/>
<path d="M24.811 1.19021C24.6891 1.14042 24.6848 1.12289 24.6198 1.08032L24.583 1.16052L24.811 1.19021Z" fill="#146A36"/>
<path d="M23.338 0.926708C23.3909 0.908492 23.8688 0.98354 23.4374 0.879479C23.3848 0.89467 22.7366 0.824899 23.338 0.926708Z" fill="#146A36"/>
<path d="M16.3106 0.816786L16.2636 0.680908L16.1904 0.845666L16.3106 0.816786Z" fill="#146A36"/>
<path d="M10.4632 3.61641C10.9575 3.34167 10.5276 3.46728 10.9835 3.23194C11.0781 3.1309 10.6105 3.42434 10.7109 3.32752C10.4413 3.5428 10.2796 3.62239 10.4632 3.61641Z" fill="#146A36"/>
<path d="M10.7104 3.32765C10.7527 3.2925 10.7978 3.25507 10.8465 3.2146C10.7674 3.27591 10.7316 3.30698 10.7104 3.32765Z" fill="#146A36"/>
<path d="M3.31643 22.9492C3.30888 23.0095 3.33032 23.0915 3.37305 23.2558L3.34505 22.9697L3.31643 22.9492Z" fill="#146A36"/>
<path d="M5.24623 27.5624L5.27456 27.4574L5.23047 27.3853L5.24623 27.5624Z" fill="#146A36"/>
<path d="M7.62817 30.2922C7.60421 30.2659 7.57856 30.2388 7.55078 30.2112C7.57507 30.2381 7.60121 30.2651 7.62817 30.2922Z" fill="#146A36"/>
<path d="M7.62793 30.292C7.82676 30.5106 7.89966 30.6728 7.93311 30.5807C7.83797 30.4903 7.72627 30.3909 7.62793 30.292Z" fill="#146A36"/>
<path d="M28.6115 12.823C28.587 12.8236 28.5986 12.911 28.583 12.9379L28.6808 13.0518C28.6539 12.9792 28.5901 12.8485 28.6115 12.823Z" fill="#146A36"/>
<path d="M28.5833 12.9378L28.4375 12.7686C28.5362 12.939 28.5697 12.9607 28.5833 12.9378Z" fill="#146A36"/>
<path d="M28.2471 12.1922L28.0522 12.0562L28.1315 12.12L28.2471 12.1922Z" fill="#146A36"/>
<path d="M27.779 11.6786C27.8734 11.722 27.7454 11.5386 27.8313 11.596C27.7218 11.4859 27.6066 11.4113 27.5039 11.3452C27.6013 11.4262 27.6886 11.529 27.779 11.6786Z" fill="#146A36"/>
<path d="M27.5048 11.3451C27.4529 11.3021 27.3989 11.2628 27.3379 11.23C27.3871 11.2694 27.4435 11.3053 27.5048 11.3451Z" fill="#146A36"/>
<path d="M28.1836 12.2759L28.187 12.3806C28.2026 12.402 28.2203 12.4263 28.2382 12.4508C28.2386 12.4297 28.2466 12.384 28.1836 12.2759Z" fill="#146A36"/>
<path d="M28.1865 12.3843L28.1862 12.3808C28.1312 12.3043 28.093 12.2512 28.0767 12.2285C28.0905 12.2482 28.1235 12.2951 28.1865 12.3843Z" fill="#146A36"/>
<path d="M28.2511 12.4683C28.2464 12.4618 28.2429 12.4571 28.2383 12.4507C28.2385 12.4607 28.2398 12.4659 28.2511 12.4683Z" fill="#146A36"/>
<path d="M28.5088 13.2369C28.5918 13.2947 28.5401 13.1532 28.6842 13.2935C28.5879 13.1994 28.4193 12.9911 28.5088 13.2369Z" fill="#146A36"/>
<path d="M28.4216 12.7859C28.365 12.7229 28.3143 12.6564 28.2534 12.5972C28.2959 12.6619 28.3282 12.7336 28.3659 12.8013C28.3769 12.7889 28.3743 12.7403 28.4216 12.7859Z" fill="#146A36"/>
<path d="M28.1694 12.5166L28.2532 12.597L28.2058 12.5249L28.1694 12.5166Z" fill="#146A36"/>
<path d="M27.5673 11.5667C27.4796 11.5088 27.4036 11.4285 27.3164 11.3389C27.398 11.446 27.4861 11.5525 27.5745 11.6497C27.6011 11.651 27.6657 11.672 27.5673 11.5667Z" fill="#146A36"/>
<path d="M27.8764 11.9577C27.8713 11.9527 27.8652 11.9467 27.8604 11.9419C27.8647 11.9561 27.87 11.9659 27.8764 11.9577Z" fill="#146A36"/>
<path d="M26.4348 10.5112L26.4448 10.5064L26.4272 10.4897L26.4348 10.5112Z" fill="#146A36"/>
<path d="M27.5746 11.6495C27.5626 11.6489 27.5573 11.6514 27.5812 11.6734C27.6399 11.7553 27.6913 11.7901 27.7441 11.8208C27.6889 11.7689 27.6324 11.7124 27.5746 11.6495Z" fill="#146A36"/>
<path d="M27.0786 11C27.1096 11.0437 27.1455 11.0922 27.1793 11.1468C27.1604 11.0934 27.1042 11.0006 27.0786 11Z" fill="#146A36"/>
<path d="M27.8639 11.9145C27.8541 11.8801 27.8517 11.8874 27.8528 11.9042L27.8639 11.9145Z" fill="#146A36"/>
<path d="M27.8603 11.942C27.8562 11.9293 27.8537 11.9153 27.8529 11.9044C27.8149 11.8683 27.7792 11.8448 27.7441 11.8208C27.785 11.8664 27.8238 11.9081 27.8603 11.942Z" fill="#146A36"/>
<path d="M26.199 10.4256C26.2526 10.4888 26.539 10.8086 26.364 10.7178C26.1231 10.5388 26.1847 10.5496 26.0894 10.4338C26.1453 10.5621 25.7222 10.285 25.7148 10.4067L25.9443 10.5335C25.9384 10.5488 25.8478 10.5127 25.8965 10.5672C25.9397 10.5375 26.1915 10.6363 26.31 10.8389C26.4979 10.9535 26.5154 10.7221 26.435 10.5113C26.4127 10.5274 26.4049 10.5356 26.199 10.4256Z" fill="#146A36"/>
<path d="M26.4453 10.5064L26.7872 10.8273L26.7575 10.8115L26.8325 10.8704C26.7589 10.7903 26.7166 10.7218 26.6386 10.5923C26.5028 10.5057 26.4653 10.4996 26.4453 10.5064Z" fill="#146A36"/>
<path d="M27.1832 11.1571L27.1848 11.1585L27.1838 11.1589C27.1915 11.1785 27.1925 11.1865 27.1809 11.1672C27.1794 11.1666 27.1755 11.1627 27.1737 11.1611C27.1656 11.1647 27.1547 11.1637 27.1437 11.1621C27.0646 11.0568 27.141 11.1358 27.1737 11.1611C27.1768 11.1601 27.1812 11.1608 27.1838 11.1589L27.1832 11.1571C27.076 11.0509 26.9481 10.9662 26.832 10.8704C26.895 10.9428 26.9909 11.0153 27.1434 11.1623C27.0542 11.1454 26.8629 11.0185 26.9214 11.1563C27.1216 11.3445 27.0904 11.2599 27.2235 11.3614C26.9114 11.0409 27.3346 11.4335 27.1409 11.1697C27.2078 11.2279 27.2638 11.2847 27.3162 11.3386C27.2669 11.2735 27.2207 11.2093 27.1789 11.1468C27.1805 11.1507 27.1817 11.1536 27.1832 11.1571Z" fill="#146A36"/>
<path d="M28.276 13.103C28.2735 13.0887 28.2774 13.0869 28.2806 13.0837C28.2597 13.0636 28.2499 13.0571 28.276 13.103Z" fill="#146A36"/>
<path d="M28.2186 12.6825C28.22 12.6763 28.2214 12.6701 28.2229 12.6637C28.218 12.6591 28.2167 12.6665 28.2186 12.6825Z" fill="#146A36"/>
<path d="M28.3308 13.0426C28.2726 12.9154 28.2251 12.7413 28.2184 12.6826C28.2036 12.7497 28.1979 12.8108 28.2129 12.9294C28.2365 12.9522 28.2708 12.962 28.3196 13.0543C28.351 13.141 28.2947 13.0692 28.2803 13.0837C28.3262 13.1284 28.4313 13.2487 28.3541 13.0649L28.3308 13.0426Z" fill="#146A36"/>
<path d="M27.4468 11.7607L27.5329 11.9334L27.5507 11.9063C27.6754 12.0745 27.6721 12.0191 27.7086 12.0233C27.6307 11.9275 27.5365 11.8458 27.4468 11.7607Z" fill="#146A36"/>
<path d="M26.4925 10.4221C26.4212 10.3936 26.3396 10.3785 26.2642 10.3569L26.4145 10.4376L26.4925 10.4221Z" fill="#146A36"/>
<path d="M26.0653 10.1157L25.9414 10.0649L26.0175 10.1494L26.0653 10.1157Z" fill="#146A36"/>
<path d="M11.9365 22.9827L12.0036 23.0627C11.9741 23.0235 11.9533 22.9994 11.9365 22.9827Z" fill="#146A36"/>
<path d="M11.5851 22.3243L11.5527 22.3198C11.5812 22.3443 11.5972 22.3521 11.5851 22.3243Z" fill="#146A36"/>
<path d="M14.3959 9.7687L14.472 9.79358C14.5623 9.72577 14.6401 9.68638 14.7096 9.65942C14.5448 9.69886 14.3445 9.72688 14.3959 9.7687Z" fill="#146A36"/>
<path d="M14.7339 25.8899C14.7773 25.897 14.8204 25.9043 14.8667 25.9062C14.7125 25.8027 14.764 25.8719 14.7339 25.8899Z" fill="#146A36"/>
<path d="M21.4287 8.27455C21.2946 8.23008 21.1859 8.2035 21.0898 8.18604C21.2525 8.24589 21.3779 8.31811 21.4287 8.27455Z" fill="#146A36"/>
<path d="M11.2178 23.0438C11.2624 23.0962 11.2881 23.1147 11.2989 23.1063C11.254 23.0523 11.2234 23.0243 11.2178 23.0438Z" fill="#146A36"/>
<path d="M21.0895 8.18612C20.9697 8.14209 20.8271 8.12705 20.688 8.15966C20.7132 8.16594 20.7357 8.17154 20.7605 8.1777C20.8626 8.17536 20.9667 8.16408 21.0895 8.18612Z" fill="#146A36"/>
<path d="M27.7646 23.4464L27.7881 23.4221C27.7828 23.4147 27.7751 23.4272 27.7646 23.4464Z" fill="#146A36"/>
<path d="M24.3467 9.10693C24.4418 9.14834 24.3644 9.10801 24.3467 9.10693Z" fill="#146A36"/>
<path d="M24.688 9.53892C24.6654 9.53556 24.6466 9.53611 24.6377 9.54732C24.6521 9.53808 24.6692 9.53602 24.688 9.53892Z" fill="#146A36"/>
<path d="M19.6658 8.52124C19.6629 8.52133 19.6606 8.52139 19.6572 8.52148C19.6872 8.53184 19.682 8.52985 19.6658 8.52124Z" fill="#146A36"/>
<path d="M24.4756 9.19974C24.4439 9.1761 24.406 9.15095 24.3638 9.12573C24.3811 9.13931 24.415 9.16219 24.4756 9.19974Z" fill="#146A36"/>
<path d="M24.4697 9.16504C24.5011 9.18279 24.5257 9.19664 24.5491 9.20988C24.5656 9.20655 24.5579 9.19575 24.4697 9.16504Z" fill="#146A36"/>
<path d="M24.347 9.10684C24.3192 9.09419 24.2799 9.07637 24.2148 9.04688C24.2689 9.07182 24.3178 9.09854 24.3641 9.12572C24.3475 9.11311 24.3412 9.10629 24.347 9.10684Z" fill="#146A36"/>
<path d="M21.249 27.646C21.2558 27.6468 21.2627 27.6476 21.2706 27.6486C21.3652 27.6085 21.3228 27.6191 21.249 27.646Z" fill="#146A36"/>
<path d="M13.0949 11.8015L13.1004 11.791C13.0968 11.794 13.0922 11.7977 13.0889 11.8004L13.0949 11.8015Z" fill="#146A36"/>
<path d="M12.894 12.0896C12.9365 11.9303 13.0014 11.8727 13.0889 11.8003L12.8809 11.7681L12.894 12.0896Z" fill="#146A36"/>
<path d="M13.4756 10.792C13.4745 10.7928 13.4734 10.7936 13.4724 10.7945C13.4723 10.7947 13.4722 10.795 13.4722 10.7953C13.4733 10.7941 13.4743 10.7932 13.4756 10.792Z" fill="#146A36"/>
<path d="M23.5923 8.87249C23.6287 8.87578 23.6299 8.86619 23.6193 8.85224C23.5902 8.85979 23.516 8.83387 23.4336 8.79858C23.4509 8.82384 23.4889 8.8508 23.5923 8.87249Z" fill="#146A36"/>
<path d="M13.7114 11.1813C13.7151 11.1798 13.7188 11.1781 13.7227 11.1758C13.7188 11.1777 13.7152 11.1794 13.7114 11.1813Z" fill="#146A36"/>
<path d="M25.1714 9.67139C25.1742 9.67597 25.1773 9.68076 25.1809 9.68603C25.1778 9.68091 25.1745 9.6763 25.1714 9.67139Z" fill="#146A36"/>
<path d="M11.7579 22.7163H11.7578C11.7585 22.7173 11.7592 22.7185 11.7599 22.7195C11.7592 22.7185 11.7586 22.7174 11.7579 22.7163Z" fill="#146A36"/>
<path d="M26.0518 26.1648C26.0571 26.1645 26.0636 26.1636 26.0719 26.1616C26.0653 26.1624 26.0585 26.1636 26.0518 26.1648Z" fill="#146A36"/>
<path d="M11.7598 22.7197C11.764 22.7267 11.768 22.7337 11.7724 22.7406C11.7681 22.7329 11.7639 22.726 11.7598 22.7197Z" fill="#146A36"/>
<path d="M27.9904 23.1148C27.8602 23.3278 28.0939 23.0926 27.9631 23.3064L27.8937 23.3406L27.9057 23.4242C27.8148 23.562 27.7112 23.5909 27.6822 23.5778C27.7094 23.5485 27.7417 23.4821 27.7646 23.4466C27.6095 23.5772 27.4462 23.8848 27.3784 23.9674L27.5281 23.8063C27.4318 23.9465 27.3343 24.0989 27.2158 24.2396C27.0924 24.3764 26.966 24.5163 26.8402 24.6557L26.6536 24.8654C26.5866 24.9297 26.5201 24.9934 26.4546 25.0563C26.3253 25.1837 26.2035 25.3112 26.0948 25.4389L26.1523 25.4289C25.801 25.8013 25.8104 25.6513 25.3859 26.0111L25.3978 25.9929C25.3299 26.0902 25.2075 26.1763 25.0754 26.2534C25.1756 26.1496 24.8119 26.3299 24.9476 26.1999C24.5104 26.5339 24.7472 26.3892 24.4831 26.6659L24.3829 26.6563C24.2925 26.7521 24.2941 26.7788 24.0463 26.9132C24.2342 26.773 23.8524 26.9187 24.058 26.7539C23.9147 26.7914 23.7984 26.8397 23.6985 26.8912C23.5966 26.9375 23.5077 26.979 23.4293 27.0208C23.2717 27.102 23.1461 27.1646 22.9947 27.1315C22.7885 27.3604 23.4952 27.0332 23.3646 27.114C23.5008 27.1143 23.1924 27.2917 23.0126 27.3422C22.8353 27.4122 22.651 27.2572 22.2033 27.3793C22.2484 27.3684 22.2489 27.357 22.2938 27.3461C22.1157 27.3469 21.9763 27.4951 21.7509 27.4602C21.6477 27.5639 21.4757 27.4969 21.4586 27.6119L21.8805 27.5218C21.6466 27.5866 21.4361 27.7502 21.0254 27.7493C21.0544 27.7222 21.1701 27.6747 21.2494 27.6459C21.1286 27.628 21.028 27.7091 20.9021 27.6798C20.9266 27.5782 21.4174 27.5801 21.661 27.4608C21.5305 27.4331 21.188 27.6144 21.2998 27.4755C21.2182 27.5654 21.103 27.5782 20.973 27.5888C20.8412 27.5877 20.6946 27.5797 20.54 27.6465L20.557 27.579C20.508 27.5919 20.4061 27.6286 20.314 27.6315L20.476 27.5368C20.2244 27.6217 19.9869 27.507 19.7457 27.5238C19.9992 27.5373 20.0278 27.5558 20.0197 27.5814C20.0117 27.6082 19.9662 27.6433 20.075 27.662C19.4381 27.7328 19.7146 27.4761 19.0156 27.4707C19.11 27.4724 19.3681 27.5298 19.2169 27.5547C19.0831 27.541 18.9109 27.4881 18.8348 27.4394C18.3739 27.3827 18.8964 27.5181 18.6951 27.5287C18.5492 27.4243 18.4633 27.5267 18.2533 27.5211L18.2643 27.4543C17.7498 27.3112 18.0959 27.5659 17.6365 27.4012L17.8564 27.3608L17.6077 27.3218L17.677 27.2601C17.4019 27.2415 17.3156 27.2266 17.0737 27.1116C17.1171 27.1784 17.0029 27.2164 16.7775 27.1361C16.6388 27.0425 16.8847 27.1068 16.5653 27.0003C16.6524 26.987 16.7476 26.9652 16.8633 27.074C16.8847 27.0583 16.9473 27.0595 16.9686 27.0441C16.8222 26.9411 16.566 26.8855 16.4521 26.8447C16.4947 26.8629 16.5454 26.8853 16.5686 26.904C16.4876 26.8903 16.4048 26.8795 16.3241 26.8629L16.0862 26.8C16.0276 26.7436 16.0912 26.7515 16.1533 26.7593C16.062 26.7233 15.9875 26.722 15.8543 26.6643C15.9122 26.6311 15.9295 26.5763 16.1225 26.6406L15.6825 26.4966C15.6645 26.4639 15.5029 26.3342 15.5659 26.3429C15.3701 26.181 14.9757 26.1183 14.7181 25.8934C14.698 25.8916 14.664 25.8789 14.6019 25.8422C14.4782 25.7417 14.3703 25.636 14.2504 25.5353C14.1909 25.4843 14.1261 25.4371 14.0584 25.3872C13.9937 25.3337 13.9223 25.2821 13.8402 25.2329L13.7488 25.0164C13.5159 24.8351 13.8793 25.3028 13.489 24.9987C13.2087 24.7847 13.4503 24.8522 13.3845 24.746C13.2347 24.6547 12.9548 24.4969 12.7994 24.2073C12.8851 24.2737 12.9298 24.3445 13.0019 24.4129L12.8797 24.1974C13.1452 24.355 13.261 24.5288 13.1673 24.3113C13.0892 24.3593 12.9142 24.1996 12.7703 24.0143C12.6263 23.8292 12.482 23.6446 12.3944 23.6864L12.3307 23.5347C12.3568 23.5725 12.3704 23.5719 12.396 23.6093C12.2827 23.3102 12.1462 23.5001 11.9551 23.1386C11.894 23.0099 11.8669 22.9122 11.9362 22.9826L11.732 22.7377C11.7278 22.7297 11.7246 22.7228 11.7219 22.7164H11.0869C11.1379 22.8592 11.2012 22.988 11.2995 23.0523C11.3077 23.0852 11.3058 23.1005 11.2985 23.1061C11.4268 23.2604 11.6735 23.6281 11.7866 23.6933C11.701 23.9779 12.5942 24.6038 12.4457 24.7167L12.8617 25.1572L12.8353 25.1607C13.0925 25.452 13.2441 25.4931 13.374 25.55C13.43 25.6206 13.3687 25.5919 13.3556 25.5953C13.7384 26.0141 13.8127 26.022 14.2479 26.2227L14.2467 26.3086C14.3092 26.3313 14.4538 26.4789 14.6667 26.6252C14.8782 26.7715 15.127 26.9693 15.3986 27.0492C15.3901 27.0538 15.3735 27.0608 15.3291 27.0502C15.632 27.1441 15.9387 27.3683 16.235 27.5082C16.5312 27.6455 16.7927 27.7465 16.9386 27.6649C17.0717 27.6983 17.2137 27.7004 17.3499 27.7178C16.8452 27.5674 17.4561 27.6316 17.2585 27.5373C17.4594 27.5736 17.7527 27.7433 17.5045 27.6929L17.4693 27.6708C17.3453 27.7724 18.0905 27.8854 18.0612 27.9572C19.0879 28.1512 20.1136 28.2405 21.0989 28.1582C21.0577 28.1294 21.0172 28.1032 20.9762 28.0694C21.0894 28.0615 21.2014 28.0412 21.3141 28.0277C21.4056 28.038 21.4446 28.0891 21.2015 28.1217C21.3369 28.1601 21.6011 28.0116 21.6032 27.9887C22.0829 27.9573 21.438 28.1351 21.5829 28.1154L21.78 28.0774L21.7332 28.0725C21.8851 27.9997 21.8949 27.9766 22.1787 27.9038C22.363 27.8777 22.2854 27.9418 22.3574 27.9274C22.3587 27.9346 22.3836 27.9317 22.4673 27.9022L22.8898 27.8024L22.6997 27.7677C22.8743 27.6843 23.0907 27.6666 22.8738 27.6324C23.0333 27.6614 23.413 27.5278 23.7775 27.3972C24.1341 27.2468 24.4595 27.0622 24.5519 27.0465C24.7713 26.889 24.9823 26.7321 25.2681 26.5757C25.1898 26.6036 25.1013 26.5507 25.3444 26.416C25.35 26.5183 25.4773 26.4788 25.6213 26.3878C25.7584 26.3018 25.9217 26.1889 26.0517 26.1649C25.9869 26.1683 26.1315 26.0533 26.2631 25.9429C26.405 25.8222 26.5139 25.6873 26.3573 25.7483C26.5403 25.6027 26.4133 25.7926 26.5746 25.7059C26.947 25.286 27.5079 24.8863 27.913 24.3137C27.8998 24.2902 27.8008 24.3595 27.8604 24.2185L28.179 23.9984C28.2472 23.8773 28.148 23.8238 28.3462 23.6558C28.3104 23.6747 28.257 23.7022 28.2979 23.6198C28.5131 23.3403 28.7 23.0358 28.8629 22.7163H28.3253C28.2081 22.9235 28.0762 23.094 27.9904 23.1148ZM22.389 27.8936L22.3192 27.8931C22.4626 27.8362 22.4255 27.8639 22.389 27.8936Z" fill="#146A36"/>
<path d="M27.3786 23.9675L27.3647 23.9824C27.3687 23.9789 27.3734 23.9738 27.3786 23.9675Z" fill="#146A36"/>
<path d="M11.7352 13.4626C11.702 13.5195 11.6772 13.5463 11.6847 13.5802C11.7281 13.4282 11.9522 13.1232 11.941 13.2208L11.9079 13.2772C11.9679 13.1865 12.0408 13.0705 12.1153 12.9457C12.1976 12.826 12.2845 12.6996 12.3655 12.5818C12.5239 12.3451 12.6364 12.1281 12.6167 12.0684C12.631 12.0749 12.6885 12.2026 12.6932 12.2398C12.7565 11.9597 12.8375 11.6799 12.92 11.3874C12.9482 11.5089 13.2998 11.4848 13.1001 11.7909C13.1835 11.7278 13.2699 11.6355 13.4049 11.4636C13.3421 11.499 13.1713 11.4788 13.2351 11.405C13.509 11.3085 13.4186 11.3228 13.7118 11.1813C13.6286 11.2143 13.6145 11.0277 13.7388 10.9213C13.735 10.9573 13.8525 11.0324 13.8184 11.086C13.885 10.952 13.9544 10.8178 14.0375 10.6966C13.971 10.7817 14.1067 10.8117 14.208 10.7918C14.1547 10.7931 14.4962 10.5801 14.5751 10.5013L14.413 10.577C14.7972 10.3109 14.6679 10.1263 15.0784 9.88151C15.0451 9.93987 15.0621 10.1263 15.274 10.0207C15.3017 9.96063 15.3509 9.8036 15.4522 9.64957C15.553 9.49576 15.6959 9.32403 15.8775 9.20208L15.971 9.20837C16.0628 9.14503 16.1536 9.07775 16.2523 9.02763C16.0997 9.21054 15.7052 9.70143 15.4855 9.91492C15.659 9.86855 15.5548 9.94113 15.7877 9.82373C15.8897 9.82274 15.6898 9.94376 15.6225 9.97877L16.1771 9.74285C16.1455 9.70569 16.2397 9.63394 16.3362 9.56317C16.4363 9.50139 16.5401 9.44418 16.5145 9.41115C16.3145 9.50819 16.1346 9.6471 15.9498 9.76871C15.886 9.70541 16.1738 9.33542 16.6043 9.21504C16.7222 9.21193 16.5854 9.40082 16.6061 9.42674C16.6466 9.37744 16.9709 9.22719 17.0157 9.23522L16.8599 9.34606C16.9784 9.32155 17.0599 9.25832 17.1506 9.19895C17.2417 9.14172 17.3468 9.10292 17.4985 9.10851C17.5978 9.0893 17.8163 9.15231 17.8194 9.09378C17.6386 9.02918 17.5197 8.71571 17.6109 8.60878C17.6294 8.60783 17.7671 8.60063 17.918 8.59273C18.066 8.58149 18.2302 8.60874 18.292 8.62165C18.4721 8.67963 18.0791 8.85759 18.2337 8.90734C18.2348 8.88111 18.3196 8.83609 18.3558 8.82024C18.4641 8.826 18.3263 8.90553 18.5504 8.85956C18.5739 8.75921 19.0131 8.79699 18.6459 8.76314C18.8661 8.70754 18.8842 8.73386 19.1474 8.71472C19.0563 8.65747 19.3685 8.49302 19.6004 8.45396C19.5878 8.47895 19.6408 8.50799 19.6662 8.52119C19.7832 8.51962 19.8869 8.51823 19.9836 8.51695C20.0799 8.52386 20.1688 8.53698 20.2565 8.54671C20.432 8.56765 20.6027 8.58736 20.8202 8.59871C20.8589 8.62216 21.0644 8.66497 20.9716 8.69871C21.0347 8.6901 21.0948 8.66738 21.2275 8.68504C21.4718 8.80611 20.9321 8.65287 21.1146 8.78131C21.1372 8.72861 21.4635 8.75715 21.658 8.75159C21.6145 8.65808 21.223 8.66864 21.0322 8.67442C21.0426 8.55643 21.3891 8.48357 21.8621 8.50059C22.2326 8.53839 22.0033 8.60834 22.0703 8.60213C22.4029 8.69818 22.5582 8.68478 22.7001 8.67628C22.8414 8.66723 22.9712 8.65773 23.2293 8.80423C23.4206 8.95452 23.1894 8.94953 23.2196 9.01849C23.0749 8.98181 22.9727 8.92821 22.8796 8.88281C22.7849 8.8428 22.7021 8.80253 22.6035 8.7787L22.8348 8.87508C22.7356 8.87544 22.539 8.84457 22.4399 8.79648C22.6089 8.89054 23.5489 9.13326 23.9964 9.42471C24.0906 9.44209 24.2479 9.48878 24.192 9.42813L24.0368 9.36509C23.9225 9.24249 24.3577 9.42621 24.1776 9.30791C24.2889 9.33778 24.4098 9.36551 24.5377 9.40738C24.6016 9.42842 24.6674 9.45244 24.7338 9.48287C24.7972 9.51881 24.8616 9.56045 24.9261 9.60967L24.9345 9.71548C24.9414 9.69061 24.7813 9.56171 24.6911 9.5393C24.826 9.57481 25.0505 9.89322 25.2337 9.8724L25.0727 9.70479C25.2869 9.79105 25.5948 9.84623 25.804 10.0517C25.747 9.90417 25.7468 10.0189 25.6356 9.81653C25.7177 10.0081 25.0339 9.45028 25.1714 9.67116C25.1746 9.67611 25.1779 9.68072 25.181 9.68589C25.1774 9.68059 25.1743 9.67578 25.1714 9.67116C25.0496 9.48128 24.897 9.43831 24.6989 9.23725C24.6935 9.26613 24.7619 9.32793 24.5489 9.20957C24.5353 9.21217 24.5072 9.21032 24.4896 9.20868C24.4834 9.20464 24.4811 9.20316 24.4757 9.19965L24.4863 9.20848C24.4749 9.20771 24.4737 9.20809 24.4903 9.21171C24.5369 9.24796 24.5723 9.28161 24.5821 9.30391C24.444 9.30956 24.1007 9.142 23.9709 9.11701C23.8479 9.04293 24.0376 9.11301 23.9796 9.05152C23.9152 9.03752 23.8499 9.02688 23.7823 9.02229C23.7893 8.95775 23.4628 8.79352 23.7954 8.87627L23.5088 8.76815C23.3514 8.67447 23.1221 8.57047 22.9681 8.5502C22.8313 8.50063 22.5953 8.52596 22.7305 8.50986L22.2561 8.42826L22.2554 8.41179C22.0289 8.3389 21.7806 8.34049 21.5312 8.31263C21.2804 8.2903 21.0275 8.23694 20.7607 8.17763C20.6001 8.18534 20.4357 8.19644 20.1705 8.16542L20.1193 8.10832C19.9153 8.11391 19.5011 8.07761 19.4154 8.13378C19.358 8.09996 19.2663 8.08426 19.1555 8.07971C19.0444 8.07264 18.9147 8.0815 18.7828 8.10965C18.5177 8.15683 18.2393 8.22195 18.0575 8.23687L18.0576 8.30885C17.8126 8.34882 17.5882 8.44036 17.2979 8.54064L17.333 8.59657C17.0891 8.69644 16.6763 8.75819 16.2841 8.9069C16.3018 8.87477 16.4039 8.84402 16.4794 8.83185C16.3498 8.84148 16.2243 8.8755 16.1031 8.9216C15.9849 8.9747 15.874 9.04737 15.764 9.11619C15.5468 9.26064 15.3309 9.3853 15.1136 9.45922C15.0285 9.53758 14.9551 9.57293 14.8794 9.6004C14.8883 9.59481 14.8958 9.58896 14.9017 9.58304C14.8916 9.58894 14.8769 9.59755 14.8617 9.60642C14.8134 9.62327 14.7626 9.64098 14.7101 9.6593C14.7587 9.64767 14.8039 9.63495 14.8405 9.61952C14.7668 9.6658 14.6581 9.74102 14.5565 9.82133L14.4724 9.79344C14.4637 9.79953 14.4569 9.80428 14.4478 9.81066C14.325 9.85636 14.3785 9.89035 14.4644 9.89752C14.4137 9.93832 14.3762 9.98858 14.3481 10.0285C14.2028 10.0008 14.1003 10.2593 13.9184 10.2502C13.9007 10.2988 13.7776 10.4044 13.6619 10.5142C13.571 10.6171 13.4864 10.7233 13.4723 10.7941C13.4733 10.7933 13.4744 10.7925 13.4754 10.7917C13.4742 10.7929 13.4732 10.7938 13.4721 10.7949C13.4698 10.8069 13.4693 10.818 13.4714 10.8277C13.4582 10.8192 13.427 10.8376 13.4721 10.7949C13.4721 10.7946 13.4722 10.7944 13.4723 10.7941C13.3592 10.8786 13.2457 10.9641 13.1753 11.0733L13.0709 11.0521C13.0186 11.1479 12.9719 11.2478 12.9326 11.3532C12.7687 11.4556 12.6922 11.4944 12.7716 11.3089C12.5406 11.716 12.5476 11.6077 12.3707 11.9615L12.339 11.9112C12.2576 12.0235 12.1851 12.2446 12.0991 12.2829C11.868 12.4145 11.4668 13.1029 11.1123 13.7282H11.6097C11.6152 13.6386 11.6338 13.5499 11.7352 13.4626ZM23.6194 8.8523C23.63 8.86625 23.6288 8.87583 23.5924 8.87254C23.489 8.85084 23.451 8.8239 23.4337 8.79864C23.5161 8.83393 23.5903 8.85985 23.6194 8.8523ZM23.2737 8.72457L23.265 8.7249C23.1147 8.64197 23.1677 8.67239 23.2737 8.72457Z" fill="#146A36"/>
<path d="M14.71 25.8862L14.7183 25.8935C14.7254 25.8938 14.7303 25.8923 14.734 25.8901L14.71 25.8862Z" fill="#146A36"/>
<path d="M18.3692 8.9222C18.3005 8.92277 18.2608 8.91628 18.2334 8.90747C18.2329 8.92432 18.266 8.93346 18.3692 8.9222Z" fill="#146A36"/>
<path d="M25.2684 9.61925C25.2718 9.6056 25.2544 9.57334 25.2867 9.58599L25.106 9.49463C25.2012 9.5485 25.227 9.58149 25.2684 9.61925Z" fill="#146A36"/>
<path d="M25.2861 9.58594L25.3079 9.59691C25.2988 9.59158 25.2918 9.58813 25.2861 9.58594Z" fill="#146A36"/>
<path d="M26.5849 11.0914C26.6141 11.1067 26.6353 11.136 26.6643 11.151L26.6795 11.1222C26.5775 11.0323 26.4905 10.9876 26.5849 11.0914Z" fill="#146A36"/>
<path d="M25.365 9.89502C25.3465 9.95585 25.4834 9.99882 25.6098 10.088L25.5879 10.0717C25.6708 10.0322 25.5229 9.95391 25.365 9.89502Z" fill="#146A36"/>
<path d="M25.6401 10.1079C25.6799 10.1343 25.7198 10.1622 25.7555 10.1924C25.7888 10.1773 25.7128 10.1521 25.6401 10.1079Z" fill="#146A36"/>
<path d="M24.0192 9.00143C24.0805 9.04714 24.091 8.95511 24.1198 8.99472C24.2251 8.96105 23.6328 8.86449 24.0192 9.00143Z" fill="#146A36"/>
<path d="M25.2568 10.0323L25.369 10.1164L25.3609 10.0293L25.2568 10.0323Z" fill="#146A36"/>
<path d="M24.3496 9.475L24.5607 9.59833C24.5629 9.5863 24.5941 9.59368 24.631 9.6056C24.4964 9.53815 24.3537 9.45385 24.3496 9.475Z" fill="#146A36"/>
<path d="M24.8057 9.69531C24.7684 9.67498 24.6909 9.626 24.6304 9.60571C24.6995 9.64281 24.7621 9.68372 24.8057 9.69531Z" fill="#146A36"/>
<path d="M24.876 9.81836L25.0737 9.96172L25.02 9.91191L24.876 9.81836Z" fill="#146A36"/>
<path d="M21.8739 8.61373L21.6065 8.59326C21.5758 8.61296 21.6449 8.63844 21.7444 8.64391C21.8102 8.63696 21.9099 8.64279 21.8739 8.61373Z" fill="#146A36"/>
<path d="M22.5079 8.9104L22.4775 8.99262L22.6059 8.99077C22.5412 8.95909 22.5407 8.94275 22.5079 8.9104Z" fill="#146A36"/>
<path d="M21.8612 8.82715C21.8302 8.84689 21.4752 8.83867 21.8016 8.88274C21.8325 8.85961 22.093 8.88992 21.8612 8.82715Z" fill="#146A36"/>
<path d="M17.9268 8.76078L17.9917 8.74296L17.9526 8.60547L17.9268 8.76078Z" fill="#146A36"/>
<path d="M15.0042 10.2056C14.8655 10.3315 14.7726 10.3642 14.8961 10.3993C15.1728 10.2716 14.9103 10.2876 15.1674 10.1815C15.2112 10.1154 14.957 10.2685 15.0042 10.2056Z" fill="#146A36"/>
<path d="M15.0727 10.1382C15.0318 10.1734 15.014 10.1922 15.0039 10.2052C15.0261 10.1853 15.0491 10.1633 15.0727 10.1382Z" fill="#146A36"/>
<path d="M12.0918 23.2223L12.1394 23.1455L12.1176 23.106L12.0918 23.2223Z" fill="#146A36"/>
<path d="M13.4232 24.6308C13.4112 24.6164 13.3982 24.6019 13.3838 24.5874C13.3958 24.6021 13.4092 24.6166 13.4232 24.6308Z" fill="#146A36"/>
<path d="M13.4233 24.6311C13.5241 24.7525 13.543 24.8596 13.5897 24.7809C13.5376 24.7343 13.4753 24.6842 13.4233 24.6311Z" fill="#146A36"/>
<path d="M19.9992 1.39636C27.7186 1.39636 34.2393 6.62596 36.2052 13.7284H36.4237C34.4522 6.50847 27.8356 1.18579 19.9992 1.18579C12.1628 1.18579 5.54628 6.50847 3.57471 13.7284H3.79327C5.75911 6.62596 12.2798 1.39636 19.9992 1.39636Z" fill="#146A36"/>
<path d="M19.9994 35.0207C12.29 35.0207 5.77617 29.8045 3.80111 22.7163H3.58252C5.56337 29.9222 12.1729 35.2312 19.9994 35.2312C27.8259 35.2312 34.4354 29.9221 36.4163 22.7163H36.1977C34.2226 29.8045 27.7088 35.0207 19.9994 35.0207Z" fill="#146A36"/>
<path d="M19.9993 28.7007C15.8266 28.7007 12.2152 26.252 10.526 22.7163H10.293C11.9974 26.3717 15.7074 28.9113 19.9993 28.9113C24.2913 28.9113 28.0013 26.3717 29.7057 22.7163H29.4727C27.7835 26.252 24.172 28.7007 19.9993 28.7007Z" fill="#146A36"/>
<path d="M19.9993 7.71643C24.1828 7.71643 27.8021 10.1778 29.4857 13.7284H29.7183C28.0197 10.0582 24.302 7.50586 19.9993 7.50586C15.6966 7.50586 11.9789 10.0582 10.2803 13.7284H10.5128C12.1965 10.1778 15.8158 7.71643 19.9993 7.71643Z" fill="#146A36"/>
<path d="M19.9996 27.0018C23.2082 27.0018 26.0154 25.2832 27.5509 22.7163H12.4482C13.9838 25.2832 16.7909 27.0018 19.9996 27.0018Z" fill="#146A36"/>
<path d="M19.9995 9.41528C16.7794 9.41528 13.9636 11.1462 12.4316 13.7283H27.5673C26.0354 11.1462 23.2196 9.41528 19.9995 9.41528Z" fill="#146A36"/>
<path d="M22.7606 22.5713C22.7126 22.6325 22.6674 22.6962 22.6161 22.7546C21.6742 23.8272 20.8742 24.997 20.2126 26.2617C20.2086 26.2694 20.2039 26.2768 20.1905 26.2999C19.8264 25.5265 19.3248 24.8758 18.6289 24.3793C18.9226 24.3723 19.2185 24.336 19.4996 24.4486C19.7858 24.5633 19.9646 24.8069 20.1666 25.0352C20.2112 24.9648 20.2545 24.897 20.2973 24.8287C20.7276 24.1429 21.2322 23.5162 21.8004 22.94C21.9724 22.7656 22.1449 22.5943 22.4081 22.5713C22.5256 22.5713 22.6431 22.5713 22.7606 22.5713Z" fill="white"/>
<path d="M20.0001 10.7031L20.2782 11.3191L20.9499 11.3932L20.4501 11.848L20.5871 12.5098L20.0001 12.1749L19.4131 12.5098L19.5502 11.848L19.0503 11.3932L19.722 11.3191L20.0001 10.7031Z" fill="white"/>
<path d="M22.4907 11.7588L22.6621 12.1384L23.0761 12.1841L22.768 12.4645L22.8525 12.8723L22.4907 12.666L22.1289 12.8723L22.2134 12.4645L21.9053 12.1841L22.3193 12.1384L22.4907 11.7588Z" fill="white"/>
<path d="M17.5088 11.7588L17.6802 12.1384L18.0942 12.1841L17.7861 12.4645L17.8706 12.8723L17.5088 12.666L17.1469 12.8723L17.2314 12.4645L16.9233 12.1841L17.3374 12.1384L17.5088 11.7588Z" fill="white"/>
<path d="M10.8014 6.59149L11.2907 6.1665L12.3333 8.86092L11.8411 9.28809L9.31396 7.88291L9.80325 7.45765L11.5613 8.46609L10.8014 6.59149Z" fill="#146A36"/>
<path d="M13.4981 7.97324L12.2329 5.56756L14.0488 4.6123L14.2949 5.08035L13.0227 5.74936L13.2793 6.23741L14.4327 5.63064L14.6771 6.09539L13.5236 6.7019L13.7956 7.21929L15.1239 6.52093L15.37 6.98895L13.4981 7.97324Z" fill="#146A36"/>
<path d="M18.0094 5.90056C18.0285 5.97541 18.0514 6.03599 18.0788 6.08289C18.1059 6.12976 18.1456 6.16979 18.1974 6.20272L17.5655 6.36284C17.5233 6.3272 17.4888 6.28633 17.4614 6.23917C17.4342 6.19256 17.411 6.13169 17.3923 6.05712L17.3026 5.70314C17.2819 5.62171 17.2571 5.56139 17.228 5.52246C17.199 5.4838 17.1608 5.46022 17.114 5.45172C17.0669 5.44322 17.0061 5.44817 16.9315 5.46707L16.2566 5.63816L16.5083 6.63044L15.9162 6.78098L15.2485 4.1458L16.5694 3.81116C16.7692 3.76029 16.9472 3.7481 17.1035 3.77374C17.2599 3.79937 17.3868 3.85833 17.4844 3.94976C17.5819 4.04187 17.6486 4.15867 17.6847 4.30058C17.7181 4.43288 17.7202 4.55213 17.6907 4.65812C17.6612 4.76449 17.6116 4.85374 17.5417 4.92667C17.4718 4.99933 17.3947 5.05636 17.3105 5.09832L17.3125 5.10571C17.4177 5.09695 17.5101 5.10626 17.5902 5.13285C17.6701 5.15998 17.7381 5.20907 17.7942 5.27926C17.8504 5.34945 17.8929 5.44104 17.9217 5.55426L18.0094 5.90056ZM16.8306 4.96257C16.951 4.93186 17.0344 4.88224 17.0808 4.81258C17.1271 4.74321 17.1375 4.65809 17.112 4.55704C17.0852 4.45121 17.0354 4.3791 16.9631 4.34125C16.8908 4.30314 16.7944 4.2993 16.674 4.32988L15.9703 4.5085L16.1303 5.13996L16.8306 4.96257Z" fill="#146A36"/>
<path d="M19.4942 6.13642L18.8737 6.17864L18.6895 3.4664L19.3098 3.42432L19.4942 6.13642Z" fill="#146A36"/>
<path d="M22.5068 4.11961L21.11 3.97909L21.0521 4.55749L22.3153 4.68429L22.2625 5.21045L20.9992 5.08378L20.8912 6.15804L20.2725 6.0958L20.5443 3.39111L22.5597 3.59345L22.5068 4.11961Z" fill="#146A36"/>
<path d="M23.4833 6.64043L22.8838 6.47592L23.6045 3.85498L24.2043 4.0195L23.4833 6.64043Z" fill="#146A36"/>
<path d="M24.2246 6.85402L25.3811 4.39404L27.2379 5.26705L27.0128 5.74549L25.7121 5.1338L25.4777 5.63253L26.6572 6.18693L26.4337 6.66208L25.2542 6.10768L25.0055 6.63687L26.3635 7.27516L26.1384 7.75361L24.2246 6.85402Z" fill="#146A36"/>
<path d="M29.2441 6.6677C29.4566 6.83906 29.6096 7.03182 29.7034 7.24623C29.7969 7.4601 29.8265 7.6778 29.7919 7.8988C29.7577 8.11952 29.6614 8.32762 29.504 8.52257L29.4034 8.64732C29.2493 8.83841 29.0678 8.97524 28.8583 9.05667C28.6491 9.13865 28.4298 9.15592 28.2009 9.11015C27.9716 9.06409 27.7509 8.95524 27.5382 8.78414L26.6396 8.05976L28.3453 5.9436L29.2441 6.6677ZM29.0072 8.1365C29.1007 8.02052 29.1586 7.89824 29.1811 7.76965C29.2033 7.64106 29.1852 7.51302 29.1265 7.38606C29.0678 7.25913 28.973 7.14286 28.8413 7.03676L28.4906 6.75408L27.4624 8.02957L27.8131 8.31252C27.9448 8.41835 28.0786 8.48636 28.2151 8.51678C28.3516 8.54721 28.4805 8.53762 28.6014 8.48854C28.7223 8.43919 28.8295 8.35666 28.923 8.24068L29.0072 8.1365Z" fill="#146A36"/>
<path d="M9.52374 10.7057C9.81407 10.7057 10.0494 10.4703 10.0494 10.18C10.0494 9.88966 9.81407 9.6543 9.52374 9.6543C9.23341 9.6543 8.99805 9.88966 8.99805 10.18C8.99805 10.4703 9.23341 10.7057 9.52374 10.7057Z" fill="#146A36"/>
<path d="M30.598 10.7057C30.8883 10.7057 31.1237 10.4703 31.1237 10.18C31.1237 9.88966 30.8883 9.6543 30.598 9.6543C30.3076 9.6543 30.0723 9.88966 30.0723 10.18C30.0723 10.4703 30.3076 10.7057 30.598 10.7057Z" fill="#146A36"/>
<path d="M12.9639 28.2129L13.4735 28.613L11.0243 30.1457L10.5117 29.7432L11.4148 26.9958L11.9245 27.3964L11.2663 29.3133L12.9639 28.2129Z" fill="#146A36"/>
<path d="M12.6348 31.2329L13.8143 28.7839L15.6627 29.6742L15.4334 30.1507L14.1384 29.5267L13.8992 30.0235L15.0735 30.5889L14.8455 31.0621L13.6714 30.4968L13.4178 31.0232L14.7695 31.6741L14.5402 32.1507L12.6348 31.2329Z" fill="#146A36"/>
<path d="M17.8288 32.6796C17.8115 32.7545 17.8045 32.8192 17.8074 32.8732C17.8103 32.9275 17.8273 32.9809 17.8585 33.0338L17.2234 32.8885C17.2017 32.8384 17.1897 32.7857 17.1867 32.7314C17.1838 32.6771 17.1909 32.6127 17.2079 32.5379L17.2893 32.1819C17.3081 32.0997 17.3135 32.0347 17.3052 31.987C17.297 31.9393 17.274 31.9009 17.2361 31.8719C17.198 31.8428 17.1417 31.8198 17.0667 31.8028L16.3878 31.6473L16.1597 32.6459L15.5645 32.5096L16.17 29.8596L17.4985 30.1631C17.6994 30.2092 17.8636 30.2791 17.9911 30.3735C18.1186 30.4672 18.2048 30.5777 18.2498 30.7039C18.2948 30.83 18.3011 30.9643 18.2683 31.1072C18.238 31.2402 18.1854 31.3474 18.1109 31.4285C18.0363 31.5094 17.9515 31.5662 17.8561 31.5991C17.7608 31.6323 17.6658 31.6479 17.572 31.647L17.5704 31.6542C17.6681 31.6945 17.7464 31.7447 17.8052 31.805C17.8639 31.8659 17.9023 31.9402 17.9204 32.0282C17.9383 32.1165 17.9345 32.2171 17.9085 32.3311L17.8288 32.6796ZM17.2065 31.3073C17.3274 31.335 17.4245 31.3287 17.4974 31.2881C17.5702 31.2475 17.6185 31.1762 17.6417 31.0745C17.6661 30.9681 17.6546 30.8815 17.6075 30.8146C17.5604 30.748 17.4763 30.7008 17.3554 30.6729L16.6475 30.5111L16.5024 31.1464L17.2065 31.3073Z" fill="#146A36"/>
<path d="M19.5343 33.13L18.9131 33.099L19.0492 30.3843L19.6705 30.4155L19.5343 33.13Z" fill="#146A36"/>
<path d="M22.435 30.751L21.0396 30.9027L21.1022 31.4798L22.3644 31.343L22.4216 31.8686L21.1594 32.0057L21.2759 33.0791L20.6576 33.1463L20.3643 30.4439L22.378 30.2251L22.435 30.751Z" fill="#146A36"/>
<path d="M24.2185 32.525L23.6186 32.6881L22.9062 30.0647L23.5063 29.9019L24.2185 32.525Z" fill="#146A36"/>
<path d="M25.3049 32.1913L24.1758 29.7184L26.0419 28.866L26.2618 29.3472L24.9542 29.9443L25.1831 30.4455L26.3684 29.9043L26.5867 30.3817L25.4014 30.9232L25.6441 31.4548L27.0089 30.8316L27.2288 31.3128L25.3049 32.1913Z" fill="#146A36"/>
<path d="M27.4155 27.8983C27.6316 27.7316 27.8548 27.6274 28.0848 27.586C28.3146 27.5449 28.5334 27.5668 28.7401 27.6518C28.9468 27.7371 29.1267 27.8789 29.28 28.0768L29.3779 28.2038C29.5281 28.3981 29.6186 28.6068 29.6493 28.8292C29.68 29.0515 29.6463 29.269 29.5481 29.4809C29.4503 29.6934 29.2931 29.8829 29.0768 30.0499L28.1635 30.7553L26.502 28.6038L27.4155 27.8983ZM28.7889 28.4703C28.6979 28.3524 28.5923 28.2677 28.4725 28.2161C28.3524 28.1646 28.2239 28.1525 28.0868 28.1799C27.9497 28.2074 27.8142 28.2729 27.6807 28.376L27.324 28.6513L28.3256 29.9482L28.682 29.6726C28.8158 29.5695 28.9131 29.4549 28.9743 29.3293C29.0357 29.2035 29.0565 29.076 29.0368 28.9468C29.0171 28.818 28.9617 28.6943 28.8706 28.5767L28.7889 28.4703Z" fill="#146A36"/>
<path d="M9.52325 27.4112C9.81358 27.4112 10.0489 27.1759 10.0489 26.8856C10.0489 26.5952 9.81358 26.3599 9.52325 26.3599C9.23292 26.3599 8.99756 26.5952 8.99756 26.8856C8.99756 27.1759 9.23292 27.4112 9.52325 27.4112Z" fill="#146A36"/>
<path d="M30.598 27.4112C30.8883 27.4112 31.1237 27.1759 31.1237 26.8856C31.1237 26.5952 30.8883 26.3599 30.598 26.3599C30.3076 26.3599 30.0723 26.5952 30.0723 26.8856C30.0723 27.1759 30.3076 27.4112 30.598 27.4112Z" fill="#146A36"/>
</svg>
