<svg width="1440" height="449" viewBox="0 0 1440 449" fill="none" xmlns="http://www.w3.org/2000/svg">
<path d="M-16.6075 449L-25 22.498L66.6518 19.7384L127.752 11.4596L201.353 12.8394L276.342 30.7767L293.005 37.6757L383.27 32.1565L408.266 23.8777L504.086 5.94043L835.98 22.498L915.133 33.5363L1080.39 21.1182L1191.48 5.94043L1320.63 15.599L1447 5.94043L1444.71 449H-16.6075Z" fill="#146A36"/>
<path d="M1432.61 28.3636C1428.36 29.11 1414.18 28.5919 1417.88 28.3156C1417.79 27.5233 1409 28.0585 1399.65 27.4254C1390.3 26.163 1380.4 29.6606 1378.1 27.6154C1371.81 26.3222 1365.67 30.7868 1359.54 28.6092C1353.41 27.2681 1347.28 28.7147 1340.99 29.6069C1329.93 29.5224 1318.27 34.6066 1307.23 29.6625C1300.82 28.5977 1295.66 29.8908 1289.11 28.5382C1281.64 27.9799 1273.89 32.5979 1266.47 30.733C1262.94 33.797 1261.58 30.2112 1257.82 28.5363C1255.29 28.2907 1252.56 24.4727 1250.04 28.661C1246.08 25.9117 1242.8 26.2685 1238.67 26.5678C1234.24 27.7842 1229.15 24.7317 1224.65 26.6158C1220.71 25.0061 1216.26 26.3376 1212.43 26.6676C1211.61 26.282 1210.65 26.4354 1210.34 25.8599C1205.09 28.024 1199.8 22.4467 1194.68 23.6017C1186.27 23.2237 1177.72 22.8189 1169.3 23.6209C1161.54 25.3035 1153.68 22.8784 1145.93 23.6574C1139.56 26.2263 1133.74 21.3685 1127.54 21.8328C1122.99 21.0615 1119.64 20.2615 1116.26 22.7806C1113.33 26.2705 1111.04 23.124 1107.52 26.2493C1101.21 27.201 1096.18 31.1302 1089.01 29.628C1080.01 32.8972 1072.7 35.8384 1063.6 31.6156C1058.57 31.6866 1054.76 30.9479 1050.01 30.5892C1044.32 32.4387 1041.61 33.2099 1036.22 32.36C1026.52 34.4474 1018.19 36.0437 1008.15 35.5487C1002.43 38.2366 997.581 40.8478 991.671 37.638C989.653 38.5167 985.13 37.3176 983.453 37.4769C982.222 35.8806 982.26 35.1247 981.095 34.9942C977.421 33.1812 964.611 34.2383 960.657 34.8004C955.918 36.3257 951.911 36.0072 947.141 36.6212C942.137 38.1867 936.98 33.9563 931.976 36.5981C928.265 38.6971 920.631 36.8169 916.842 36.673C912.791 37.4116 911.079 31.3969 906.262 34.5549C902.511 35.1343 898.731 34.4263 894.983 34.6546C888.505 34.0944 882.648 30.3858 876.122 33.6052C870.359 32.5653 864.593 31.0688 858.83 33.6052C854.276 30.6199 851.215 33.9121 847.541 32.6555C845.07 32.1144 843.303 27.107 840.601 29.6165C837.355 27.7286 833.419 27.5041 830.133 28.3962C829.196 27.9626 828.303 31.2223 827.044 27.5789C824.889 27.8072 821.759 27.6633 819.541 27.6173C810.942 26.0134 802.346 29.6663 793.746 27.6173C788.589 27.5194 783.285 27.4676 778.131 27.5943C774.855 29.5934 772.999 30.3474 769.963 29.1445C768.073 30.0347 765.528 26.7923 763.794 29.7853C762.313 30.4606 761.623 30.3359 760.374 31.6636C756.825 30.7618 752.63 31.5504 748.32 32.6075C745.696 31.8516 743.575 31.5331 741.045 32.3888C740.935 31.5408 739.867 32.502 739.324 31.5619C734.082 29.7565 726.326 31.2606 720.644 31.6137C711.383 32.6766 701.837 31.4621 692.601 31.5619C689.086 31.0573 685.994 31.5005 682.536 32.6497C679.853 33.4709 677.001 35.3549 674.302 32.6133C669.973 29.367 665.384 33.8508 661.111 32.6881C655.061 33.3078 650.469 30.9959 644.109 30.616C638.175 31.0113 635.757 28.2466 630.528 28.5497C624.884 29.2385 619.136 29.8102 613.473 29.626C608.569 31.3547 603.621 31.2722 598.714 29.6165C593.257 28.1449 587.797 29.6203 582.343 29.5934C576.839 30.8194 571.894 33.1217 566.4 30.7004C564.788 31.9878 563.205 31.7499 561.646 30.4414C561.184 29.3344 560.568 29.9771 559.806 29.2039C557.104 29.7335 555.177 29.3843 552.038 28.5996C547.39 29.6778 543.947 28.3847 539.59 27.8437C531.793 26.0728 522.691 27.5636 514.679 27.7151C507.482 27.4427 509.944 28.4039 505.746 24.797C503.462 22.2817 503.996 25.2191 501.235 23.5729C497.256 24.6761 492.489 22.7019 488.428 23.6286C480.935 22.1839 473.444 23.8914 465.954 23.6286C457.226 21.639 448.718 27.5962 440.287 25.9021C433.106 26.9746 426.231 30.6352 419.021 30.4184C413.864 31.3988 411.337 28.6361 406.917 33.0641C403.085 34.7429 398.977 39.8386 394.008 37.7263C386.589 37.4999 378.196 37.6323 370.658 37.6035C362.387 37.5248 350.87 35.5813 343.517 38.5493C335.071 38.7834 326.512 39.6717 317.573 39.5988C309.957 36.673 302.132 40.9437 293.955 38.6011C290.559 40.4104 286.621 35.3875 283.269 38.6414C277.953 35.046 277.584 33.4191 275.828 33.6953C271.796 28.872 269.919 33.5342 266.448 31.0055C263.122 27.8264 260.754 28.4116 257.496 30.6544C255.269 27.8859 253.604 28.3559 251.414 29.5646C248.74 35.094 245.208 26.1745 242.446 29.6165C236.218 27.2604 229.989 29.7834 223.764 29.6165C219.272 30.2208 209.77 29.4016 205.819 29.5761C203.214 27.6288 203.592 24.018 201.977 26.5697C200.384 28.1717 198.809 21.8213 196.257 24.6166C190.985 22.4909 185.884 17.3203 181.008 22.5426C175.851 21.1689 169.672 23.2046 163.403 20.3958C157.134 23.5288 150.778 22.7518 145.264 21.0845C137.727 19.7454 133.151 28.0144 125.229 25.6412C115.646 27.1664 105.523 24.0123 96.0142 25.5702C89.1329 30.1345 81.8267 29.7104 74.9985 27.8437C72.1779 26.4719 70.4412 28.2063 68.061 29.6145C64.4657 32.8857 61.164 32.8089 56.8472 31.6597C50.197 31.1513 42.9408 33.7184 36.2813 31.5926C29.4718 32.9011 26.0483 30.8904 19.117 34.6546C16.5993 33.1466 11.7546 36.4101 9.54307 34.6815C6.4788 35.1496 5.33244 31.9667 1.71529 32.5346C-3.09821 31.8669 -8.97686 31.7365 -13.856 32.6094C-13.856 31.6099 -10.2982 17.1476 -10.2982 15.6396C-6.64352 14.0146 -4.80683 13.9474 0.431478 12.6294C3.87058 12.8078 7.31594 13.1205 10.755 12.6447C15.8684 12.6697 23.5681 12.0979 27.8069 13.2318C29.6498 15.7336 30.2433 14.5729 32.5485 15.1485C35.2473 19.047 37.6338 17.0267 40.5325 15.6454C45.246 15.0755 48.0511 14.1585 52.0743 14.1412C55.6727 13.1877 56.8659 10.1141 61.114 12.825C62.5977 9.36201 61.0828 9.01669 61.0141 8.71739C65.4496 9.37162 70.4443 6.4247 75.1766 7.92503C79.2904 8.2627 82.7576 6.64533 87.0651 6.62998C97.7291 2.97126 108.868 5.71481 119.182 7.43001C127.756 12.6946 138.068 7.84634 146.832 7.65256C155.738 7.60652 162.822 6.76621 171.662 10.6993C179.384 14.1662 189.176 9.87238 196.47 10.8182C198.816 12.8174 198.553 8.30106 200.09 12.4509C202.045 15.4151 204.541 12.5661 206.634 13.1416C208.599 15.1542 210.595 14.4443 212.553 13.8879C214.949 9.74381 218.816 13.1838 220.806 14.5902C224.054 15.772 224.62 19.6341 229.037 16.6852C233.066 13.9532 237.13 13.9551 241.163 16.6162C245.198 16.0828 245.479 19.0815 248.584 18.2604C251.83 20.4725 258.214 20.7776 262.094 21.4625C265.833 21.3781 268.991 20.603 272.68 22.6079C277.65 22.7614 282.978 23.1451 287.439 26.351C290.472 25.056 292.674 30.7829 295.76 30.4894C299.937 31.817 308.264 29.7162 312.5 30.6103C319.169 30.1556 323.351 32.7054 329.311 29.0812C331.245 23.6036 333.094 28.2619 334.984 28.049C337.042 26.6158 338.16 28.3924 340.072 25.8177C343.98 25.0809 350.483 25.2382 354.965 23.8243C360.413 21.0174 366.635 23.3178 372.183 23.6247C375.275 23.1777 379.455 21.9076 382.484 23.7667C388.875 22.7134 390.965 21.2917 393.973 16.7965C395.694 15.8929 398.512 11.743 401.351 11.8408C403.391 10.5707 407.614 12.7598 409.972 10.7031C414.876 10.3137 419.79 5.67837 424.644 7.80415C427.824 5.63616 433.321 8.97065 436.507 7.60654C440.549 8.7174 443.267 10.2388 447.752 9.72463C451.245 9.32365 456.043 10.0585 459.447 9.47907C461.265 7.2094 462.811 5.43278 464.779 7.81949C467.697 10.4134 470.539 9.36969 473.416 7.43385C476.883 2.90601 480.694 7.99985 484.436 5.74169C488.475 9.17018 493.223 2.93671 497.352 5.65726C501.151 3.20531 504.952 1.9851 508.751 5.66109C514.604 4.26245 519.574 4.9186 525.243 6.70671C531.041 8.0171 539.156 9.61143 544.953 6.45729C548.97 4.9819 552.918 3.10172 556.985 4.41403C562.089 3.79816 566.712 2.85037 571.632 2.10788C575.677 0.870396 588.837 1.11406 592.788 1.8105C592.126 7.93268 605.086 5.51721 610.309 4.65385C619.57 4.24711 627.835 5.27546 637.159 3.65618C645.393 3.50078 651.344 0.254555 659.3 0.866581C665.169 1.21384 674.368 -1.14794 680.29 0.739937C686.625 1.08528 692.357 0.878082 698.866 4.45815C706.416 2.83887 712.87 2.92329 720.313 3.64851C725.933 4.0706 731.555 2.8945 737.175 3.66002C739.805 3.99001 742.453 1.97742 745.034 3.82885C747.454 4.63081 749.607 5.25051 751.993 5.46539C753.48 6.36712 755.304 5.63039 756.741 5.82609C760.127 6.18102 762.62 7.0962 766.015 9.07425C768.92 10.9602 773.109 10.7357 776.357 10.6954C779.909 10.9333 782.395 9.94529 786.019 11.0753C791.141 12.3339 794.415 12.1171 798.838 15.1868C807.034 17.3951 818.395 16.3207 827.475 16.6354C836.477 18.8014 843.459 16.4972 851.743 18.669C856.244 20.9752 860.604 22.4103 865.43 23.4904C868.285 26.4335 872.43 23.9969 875.32 23.6017C881.473 22.0937 885.912 22.0304 891.806 25.033C895.164 23.5365 899.009 25.5241 902.598 25.6623C903.667 27.529 904.904 26.9093 905.944 25.4493C906.65 24.5226 907.109 25.361 908.221 23.7418C911.21 25.2286 914.584 23.9739 917.057 25.1557C925.694 25.4646 934.469 23.8511 943.255 24.5936C948.65 23.83 954.069 26.9938 959.467 24.6166C967.288 22.345 974.21 23.7724 980.461 22.8937C984.737 24.3787 990.837 16.4799 996.176 18.8264C1003.23 20.9291 1009.91 18.6 1016.63 17.6292C1022.18 15.2118 1028.06 13.9052 1033.86 14.9604C1039.93 12.5622 1049.04 9.33516 1056.61 10.6801C1058.78 9.68242 1059.12 12.9114 1061.29 12.7138C1063.85 13.8361 1068.9 10.7952 1071.84 12.6389C1077.41 12.4951 1085.1 7.3648 1089.59 13.5848C1093.54 14.6707 1093.06 15.1139 1098.81 15.7048C1102.62 14.8741 1106.1 14.5307 1109.88 14.5978C1112.38 15.5955 1114.99 15.5207 1117.5 14.6285C1122.36 13.0342 1124.53 16.9251 1128.75 13.134C1134.77 13.8438 1141.53 13.1685 1147.99 9.58842C1157.53 7.74658 1168.24 2.89067 1178.5 5.60353C1185.72 6.44579 1192.94 4.94162 1200.16 5.68027C1207.38 5.68027 1214.6 7.14224 1221.82 5.64959C1228.17 2.40335 1237.63 3.17461 1243.5 6.23474C1248.53 6.95612 1251.77 9.36586 1257.67 8.64256C1264.56 12.6505 1271.45 7.81565 1278.34 8.64256C1285.46 7.25351 1294.8 6.73549 1301.82 8.57157C1305.5 9.37737 1305.87 14.64 1308.82 11.4859C1311.97 15.9312 1317.39 10.6264 1320.57 10.9122C1330.46 13.0534 1340.4 5.37521 1350.18 6.61845C1356.8 3.48925 1362.08 3.14966 1369.15 2.6163C1378.61 2.70456 1387.27 2.31893 1396.15 4.89558C1404.47 10.4575 1411.65 7.4703 1420.66 6.66833C1424.4 10.045 1427.7 3.74828 1431.47 5.6093C1434.93 7.89625 1438.46 7.76386 1441.93 5.64575C1441.93 7.313 1439.6 11.0696 1437.26 17.0018C1434.93 21.1824 1432.59 29.0447 1432.59 28.3579L1432.61 28.3636Z" fill="#146A36"/>
</svg>
