<svg width="1440" height="758" viewBox="0 0 1440 758" fill="none" xmlns="http://www.w3.org/2000/svg">
<g clip-path="url(#clip0_275_4)">
<rect width="1440" height="758" fill="#EFEFE7"/>
<g clip-path="url(#clip1_275_4)">
<path d="M-23.859 0L-32.3848 709.942L60.7231 714.536L122.794 728.316L197.565 726.02L273.745 696.162L290.672 684.678L382.371 693.865L407.764 707.646L505.106 737.503L842.273 709.942L922.684 691.568L1090.56 712.239L1203.42 737.503L1334.62 721.426L1463 737.503L1460.67 0H-23.859Z" fill="#146A36"/>
<path d="M1448.51 700.185C1444.19 698.939 1429.78 699.804 1433.54 700.265C1433.46 701.588 1424.52 700.695 1415.02 701.752C1405.52 703.859 1395.46 698.02 1393.12 701.434C1386.73 703.593 1380.49 696.139 1374.26 699.775C1368.03 702.014 1361.8 699.599 1355.42 698.109C1344.17 698.25 1332.33 689.762 1321.11 698.017C1314.59 699.794 1309.35 697.635 1302.7 699.894C1295.1 700.826 1287.22 693.116 1279.69 696.229C1276.1 691.113 1274.72 697.1 1270.9 699.897C1268.32 700.307 1265.55 706.681 1263 699.689C1258.97 704.279 1255.63 703.683 1251.43 703.183C1246.94 701.153 1241.77 706.249 1237.19 703.103C1233.19 705.791 1228.67 703.568 1224.78 703.017C1223.93 703.661 1222.97 703.404 1222.65 704.365C1217.31 700.752 1211.94 710.064 1206.73 708.136C1198.19 708.767 1189.5 709.443 1180.94 708.104C1173.06 705.294 1165.07 709.343 1157.2 708.043C1150.72 703.754 1144.81 711.864 1138.51 711.089C1133.89 712.377 1130.48 713.713 1127.05 709.507C1124.07 703.68 1121.74 708.933 1118.16 703.715C1111.75 702.126 1106.64 695.566 1099.35 698.074C1090.21 692.616 1082.79 687.705 1073.53 694.756C1068.42 694.637 1064.55 695.87 1059.72 696.469C1053.94 693.381 1051.18 692.094 1045.71 693.513C1035.85 690.028 1027.39 687.362 1017.18 688.189C1011.37 683.701 1006.45 679.341 1000.44 684.7C998.391 683.233 993.794 685.235 992.09 684.969C990.839 687.635 990.877 688.897 989.693 689.115C985.961 692.142 972.943 690.377 968.925 689.438C964.11 686.891 960.037 687.423 955.19 686.398C950.105 683.784 944.865 690.848 939.78 686.437C936.009 682.932 928.251 686.071 924.401 686.312C920.284 685.078 918.544 695.121 913.65 689.848C909.838 688.881 905.997 690.063 902.188 689.682C895.605 690.617 889.653 696.809 883.022 691.434C877.166 693.17 871.307 695.669 865.45 691.434C860.822 696.418 857.712 690.921 853.979 693.019C851.468 693.923 849.671 702.283 846.926 698.093C843.628 701.245 839.628 701.62 836.289 700.131C835.337 700.855 834.429 695.412 833.15 701.495C830.96 701.114 827.779 701.354 825.526 701.431C816.787 704.109 808.052 698.01 799.313 701.431C794.073 701.595 788.683 701.681 783.446 701.47C780.116 698.132 778.231 696.873 775.145 698.881C773.225 697.395 770.638 702.809 768.876 697.812C767.372 696.684 766.67 696.892 765.401 694.676C761.795 696.181 757.532 694.864 753.151 693.099C750.485 694.362 748.33 694.893 745.759 693.465C745.648 694.881 744.562 693.276 744.01 694.845C738.684 697.86 730.802 695.348 725.028 694.759C715.617 692.984 705.917 695.012 696.531 694.845C692.96 695.688 689.817 694.948 686.303 693.029C683.577 691.658 680.679 688.512 677.936 693.09C673.537 698.51 668.874 691.024 664.532 692.965C658.383 691.93 653.717 695.79 647.255 696.424C641.224 695.765 638.767 700.381 633.454 699.874C627.718 698.724 621.877 697.77 616.123 698.077C611.139 695.191 606.111 695.329 601.125 698.093C595.579 700.55 590.031 698.087 584.489 698.132C578.896 696.085 573.871 692.241 568.288 696.284C566.65 694.134 565.041 694.531 563.457 696.716C562.987 698.564 562.362 697.491 561.587 698.782C558.842 697.898 556.883 698.481 553.693 699.791C548.97 697.991 545.472 700.15 541.044 701.053C533.121 704.01 523.872 701.521 515.73 701.268C508.417 701.723 510.918 700.118 506.652 706.14C504.332 710.34 504.874 705.435 502.068 708.184C498.025 706.342 493.181 709.638 489.054 708.091C481.44 710.503 473.828 707.652 466.216 708.091C457.348 711.413 448.701 701.466 440.134 704.295C432.837 702.504 425.85 696.392 418.524 696.754C413.284 695.118 410.716 699.73 406.225 692.337C402.33 689.534 398.156 681.026 393.106 684.553C385.567 684.931 377.038 684.71 369.379 684.758C360.974 684.889 349.27 688.134 341.798 683.179C333.216 682.788 324.518 681.305 315.434 681.427C307.695 686.312 299.744 679.181 291.434 683.092C287.984 680.072 283.981 688.458 280.575 683.025C275.173 689.028 274.798 691.744 273.014 691.283C268.916 699.336 267.009 691.552 263.482 695.774C260.102 701.082 257.696 700.105 254.385 696.36C252.122 700.983 250.43 700.198 248.205 698.18C245.488 688.948 241.898 703.84 239.092 698.093C232.763 702.027 226.433 697.815 220.107 698.093C215.543 697.084 205.887 698.452 201.872 698.161C199.224 701.412 199.609 707.441 197.967 703.18C196.349 700.506 194.749 711.108 192.156 706.441C186.798 709.99 181.614 718.623 176.659 709.904C171.419 712.198 165.14 708.799 158.77 713.488C152.399 708.257 145.94 709.555 140.337 712.338C132.678 714.574 128.028 700.768 119.978 704.731C110.24 702.184 99.9524 707.45 90.2902 704.849C83.2975 697.229 75.8732 697.936 68.9344 701.053C66.0682 703.344 64.3033 700.448 61.8846 698.097C58.2311 692.635 54.876 692.763 50.4893 694.682C43.7315 695.531 36.358 691.245 29.5906 694.794C22.671 692.609 19.1921 695.966 12.1486 689.682C9.59022 692.199 4.66708 686.751 2.41977 689.637C-0.694086 688.855 -1.859 694.169 -5.53469 693.221C-10.4261 694.336 -16.3999 694.554 -21.3579 693.096C-21.3579 694.765 -17.7425 718.912 -17.7425 721.429C-14.0288 724.143 -12.1623 724.255 -6.83927 726.455C-3.34451 726.157 0.156591 725.635 3.65135 726.43C8.84746 726.388 16.6718 727.343 20.9791 725.45C22.8519 721.272 23.455 723.21 25.7975 722.249C28.54 715.74 30.965 719.113 33.9107 721.42C38.7005 722.371 41.5509 723.902 45.6392 723.931C49.2959 725.523 50.5084 730.655 54.8253 726.129C56.333 731.911 54.7935 732.487 54.7237 732.987C59.231 731.895 64.3065 736.815 69.1154 734.31C73.2957 733.746 76.8191 736.446 81.1962 736.472C92.0328 742.581 103.352 738 113.833 735.136C122.546 726.346 133.024 734.441 141.931 734.765C150.98 734.842 158.179 736.245 167.162 729.678C175.009 723.889 184.96 731.058 192.371 729.479C194.755 726.141 194.489 733.682 196.05 726.753C198.037 721.804 200.573 726.561 202.7 725.6C204.697 722.24 206.725 723.425 208.715 724.354C211.15 731.273 215.079 725.53 217.101 723.182C220.402 721.208 220.977 714.76 225.465 719.684C229.56 724.245 233.69 724.242 237.787 719.799C241.888 720.689 242.174 715.683 245.329 717.054C248.627 713.36 255.115 712.851 259.057 711.707C262.857 711.848 266.066 713.142 269.815 709.795C274.865 709.539 280.28 708.898 284.813 703.545C287.895 705.708 290.133 696.146 293.269 696.636C297.513 694.419 305.975 697.927 310.279 696.434C317.056 697.193 321.306 692.936 327.362 698.987C329.327 708.133 331.206 700.355 333.127 700.71C335.218 703.103 336.355 700.137 338.297 704.436C342.268 705.666 348.877 705.403 353.432 707.764C358.968 712.451 365.29 708.61 370.928 708.097C374.07 708.844 378.317 710.964 381.396 707.86C387.891 709.619 390.014 711.992 393.071 719.498C394.82 721.007 397.683 727.935 400.568 727.772C402.641 729.893 406.932 726.238 409.329 729.671C414.312 730.322 419.305 738.061 424.238 734.512C427.469 738.131 433.056 732.564 436.293 734.842C440.401 732.987 443.162 730.447 447.72 731.305C451.269 731.975 456.145 730.748 459.604 731.715C461.452 735.505 463.023 738.471 465.023 734.486C467.987 730.155 470.876 731.898 473.799 735.13C477.323 742.69 481.195 734.185 484.998 737.955C489.102 732.231 493.927 742.638 498.123 738.096C501.983 742.19 505.846 744.227 509.706 738.09C515.654 740.425 520.704 739.329 526.465 736.344C532.356 734.156 540.603 731.494 546.494 736.76C550.576 739.224 554.588 742.363 558.721 740.172C563.908 741.2 568.605 742.783 573.605 744.022C577.715 746.088 591.088 745.682 595.103 744.519C594.43 734.297 607.6 738.33 612.907 739.771C622.319 740.451 630.717 738.734 640.192 741.437C648.559 741.697 654.606 747.117 662.691 746.095C668.655 745.515 678.003 749.458 684.021 746.306C690.458 745.73 696.283 746.076 702.898 740.098C710.57 742.802 717.128 742.661 724.692 741.45C730.402 740.745 736.116 742.709 741.826 741.431C744.499 740.88 747.19 744.24 749.812 741.149C752.272 739.81 754.459 738.775 756.884 738.416C758.395 736.911 760.249 738.141 761.709 737.814C765.15 737.222 767.683 735.694 771.133 732.391C774.085 729.242 778.342 729.617 781.643 729.684C785.252 729.287 787.778 730.937 791.46 729.05C796.666 726.949 799.993 727.311 804.487 722.185C812.816 718.498 824.361 720.292 833.588 719.767C842.736 716.15 849.83 719.998 858.248 716.371C862.822 712.521 867.253 710.125 872.157 708.322C875.058 703.408 879.271 707.476 882.207 708.136C888.46 710.654 892.97 710.759 898.96 705.746C902.372 708.245 906.279 704.926 909.927 704.695C911.012 701.579 912.269 702.613 913.326 705.051C914.044 706.598 914.51 705.198 915.64 707.902C918.678 705.419 922.106 707.514 924.62 705.541C933.396 705.025 942.313 707.719 951.242 706.48C956.723 707.755 962.231 702.472 967.715 706.441C975.664 710.234 982.698 707.851 989.049 709.318C993.395 706.838 999.594 720.026 1005.02 716.109C1012.19 712.598 1018.98 716.487 1025.8 718.108C1031.44 722.144 1037.42 724.325 1043.31 722.563C1049.48 726.567 1058.74 731.955 1066.43 729.71C1068.63 731.376 1068.98 725.984 1071.19 726.314C1073.79 724.44 1078.92 729.518 1081.91 726.439C1087.57 726.68 1095.38 735.245 1099.95 724.86C1103.95 723.047 1103.47 722.307 1109.31 721.32C1113.18 722.708 1116.72 723.281 1120.56 723.169C1123.11 721.503 1125.76 721.628 1128.31 723.118C1133.24 725.779 1135.45 719.283 1139.74 725.613C1145.85 724.428 1152.72 725.555 1159.29 731.533C1168.98 734.608 1179.87 742.715 1190.29 738.186C1197.63 736.78 1204.97 739.291 1212.3 738.058C1219.64 738.058 1226.98 735.617 1234.32 738.109C1240.77 743.529 1250.38 742.241 1256.34 737.132C1261.46 735.928 1264.74 731.904 1270.75 733.112C1277.74 726.42 1284.74 734.492 1291.74 733.112C1298.98 735.431 1308.48 736.296 1315.61 733.23C1319.35 731.885 1319.72 723.098 1322.72 728.365C1325.92 720.943 1331.43 729.8 1334.66 729.322C1344.71 725.747 1354.81 738.567 1364.76 736.491C1371.48 741.716 1376.84 742.283 1384.03 743.173C1393.64 743.026 1402.44 743.67 1411.46 739.368C1419.92 730.081 1427.21 735.069 1436.37 736.408C1440.17 730.77 1443.52 741.283 1447.36 738.176C1450.88 734.358 1454.46 734.579 1457.99 738.115C1457.99 735.332 1455.62 729.06 1453.24 719.155C1450.87 712.175 1448.49 699.048 1448.49 700.195L1448.51 700.185Z" fill="#146A36"/>
</g>
</g>
<defs>
<clipPath id="clip0_275_4">
<rect width="1440" height="758" fill="white"/>
</clipPath>
<clipPath id="clip1_275_4">
<rect width="1485" height="770" fill="white" transform="translate(-22)"/>
</clipPath>
</defs>
</svg>
