<svg width="1440" height="307" viewBox="0 0 1440 307" fill="none" xmlns="http://www.w3.org/2000/svg">
<path d="M-34.4935 0L-43 291.617L49.8971 293.504L111.827 299.165L186.429 298.221L262.436 285.957L279.326 281.24L370.817 285.014L396.153 290.674L493.275 302.939L829.678 291.617L909.907 284.07L1077.41 292.561L1190.01 302.939L1320.91 296.335L1449 302.939L1446.68 0H-34.4935Z" fill="#146A36"/>
<path d="M1431.33 287.607C1427.02 287.096 1412.65 287.451 1416.4 287.64C1416.31 288.181 1407.4 287.815 1397.92 288.248C1388.45 289.111 1378.41 286.72 1376.08 288.118C1369.7 289.003 1363.49 285.95 1357.27 287.439C1351.06 288.356 1344.84 287.367 1338.47 286.757C1327.26 286.814 1315.44 283.338 1304.25 286.719C1297.75 287.447 1292.52 286.563 1285.89 287.487C1278.31 287.869 1270.45 284.712 1262.94 285.987C1259.36 283.892 1257.98 286.343 1254.17 287.489C1251.6 287.657 1248.84 290.267 1246.29 287.403C1242.27 289.283 1238.94 289.039 1234.75 288.835C1230.27 288.003 1225.11 290.09 1220.55 288.802C1216.56 289.902 1212.05 288.992 1208.17 288.766C1207.33 289.03 1206.36 288.925 1206.04 289.319C1200.72 287.839 1195.36 291.652 1190.17 290.863C1181.65 291.121 1172.98 291.398 1164.44 290.85C1156.58 289.699 1148.61 291.357 1140.76 290.825C1134.3 289.068 1128.41 292.39 1122.12 292.072C1117.51 292.599 1114.11 293.147 1110.69 291.424C1107.72 289.038 1105.39 291.189 1101.82 289.052C1095.43 288.402 1090.33 285.715 1083.06 286.742C1073.94 284.507 1066.54 282.496 1057.31 285.383C1052.21 285.335 1048.35 285.84 1043.54 286.085C1037.77 284.82 1035.02 284.293 1029.55 284.874C1019.72 283.447 1011.28 282.356 1001.1 282.694C995.308 280.856 990.394 279.071 984.404 281.265C982.358 280.665 977.774 281.485 976.074 281.376C974.826 282.467 974.864 282.984 973.684 283.073C969.96 284.313 956.976 283.59 952.968 283.206C948.165 282.163 944.103 282.38 939.268 281.961C934.196 280.89 928.969 283.783 923.897 281.976C920.136 280.541 912.398 281.827 908.558 281.925C904.451 281.42 902.716 285.533 897.834 283.374C894.032 282.977 890.201 283.461 886.402 283.305C879.835 283.688 873.899 286.224 867.285 284.023C861.444 284.734 855.599 285.757 849.758 284.023C845.141 286.064 842.039 283.813 838.315 284.672C835.811 285.042 834.019 288.466 831.281 286.75C827.991 288.041 824.002 288.194 820.671 287.584C819.721 287.881 818.816 285.652 817.54 288.143C815.355 287.987 812.183 288.086 809.935 288.117C801.219 289.214 792.506 286.716 783.79 288.117C778.562 288.184 773.186 288.219 767.962 288.133C764.641 286.766 762.761 286.25 759.683 287.073C757.768 286.464 755.187 288.681 753.43 286.635C751.93 286.173 751.23 286.258 749.963 285.35C746.367 285.967 742.115 285.428 737.746 284.705C735.086 285.222 732.936 285.44 730.372 284.855C730.261 285.434 729.178 284.777 728.627 285.42C723.315 286.654 715.453 285.626 709.694 285.385C700.307 284.658 690.632 285.488 681.269 285.42C677.708 285.765 674.573 285.462 671.068 284.676C668.349 284.115 665.458 282.826 662.723 284.701C658.335 286.921 653.684 283.855 649.352 284.65C643.22 284.226 638.566 285.807 632.12 286.067C626.104 285.796 623.654 287.687 618.354 287.479C612.632 287.009 606.807 286.618 601.067 286.744C596.096 285.562 591.081 285.618 586.107 286.75C580.576 287.756 575.042 286.748 569.514 286.766C563.935 285.928 558.923 284.353 553.354 286.009C551.721 285.129 550.115 285.291 548.536 286.186C548.067 286.943 547.443 286.504 546.671 287.032C543.932 286.67 541.979 286.909 538.797 287.445C534.086 286.708 530.597 287.592 526.18 287.962C518.278 289.173 509.052 288.154 500.931 288.05C493.636 288.236 496.131 287.579 491.876 290.045C489.561 291.765 490.103 289.757 487.304 290.882C483.27 290.128 478.439 291.478 474.323 290.844C466.728 291.832 459.135 290.665 451.543 290.844C442.697 292.205 434.073 288.131 425.528 289.29C418.249 288.556 411.281 286.054 403.973 286.202C398.746 285.531 396.185 287.42 391.705 284.393C387.82 283.245 383.657 279.761 378.619 281.205C371.1 281.36 362.593 281.269 354.953 281.289C346.569 281.343 334.896 282.672 327.443 280.642C318.882 280.482 310.207 279.875 301.146 279.925C293.427 281.925 285.496 279.005 277.207 280.607C273.766 279.37 269.773 282.804 266.376 280.579C260.988 283.038 260.614 284.15 258.835 283.961C254.747 287.259 252.845 284.071 249.327 285.8C245.955 287.974 243.555 287.574 240.253 286.04C237.996 287.933 236.308 287.612 234.089 286.786C231.379 283.005 227.798 289.104 224.999 286.75C218.686 288.361 212.373 286.636 206.063 286.75C201.51 286.337 191.879 286.897 187.874 286.778C185.233 288.109 185.616 290.578 183.98 288.833C182.365 287.738 180.769 292.08 178.183 290.169C172.838 291.622 167.668 295.158 162.726 291.587C157.499 292.526 151.236 291.134 144.882 293.055C138.528 290.912 132.085 291.444 126.497 292.584C118.857 293.499 114.219 287.845 106.189 289.468C96.476 288.425 86.2148 290.582 76.5773 289.517C69.6025 286.396 62.1971 286.686 55.2761 287.962C52.4171 288.9 50.6568 287.714 48.2443 286.751C44.6001 284.515 41.2536 284.567 36.8781 285.353C30.1376 285.701 22.7828 283.945 16.0328 285.399C9.13077 284.504 5.66077 285.879 -1.36472 283.305C-3.91656 284.336 -8.82712 282.105 -11.0687 283.287C-14.1746 282.967 -15.3365 285.143 -19.0028 284.755C-23.8817 285.211 -29.8403 285.301 -34.7856 284.704C-34.7856 285.387 -31.1795 295.276 -31.1795 296.307C-27.4752 297.418 -25.6136 297.464 -20.3041 298.365C-16.8183 298.243 -13.3261 298.029 -9.84026 298.354C-4.65742 298.337 3.14692 298.728 7.44326 297.953C9.31124 296.242 9.91279 297.036 12.2493 296.642C14.9848 293.977 17.4037 295.358 20.3418 296.303C25.1194 296.692 27.9625 297.319 32.0404 297.331C35.6877 297.983 36.8971 300.085 41.203 298.231C42.7068 300.599 41.1713 300.835 41.1016 301.04C45.5974 300.592 50.66 302.607 55.4566 301.581C59.6263 301.351 63.1406 302.456 67.5066 302.467C78.3155 304.969 89.6057 303.093 100.06 301.92C108.751 298.32 119.202 301.635 128.086 301.768C137.112 301.799 144.293 302.374 153.253 299.685C161.079 297.314 171.005 300.25 178.398 299.603C180.776 298.236 180.51 301.324 182.067 298.487C184.049 296.46 186.579 298.408 188.7 298.015C190.692 296.639 192.715 297.124 194.7 297.504C197.128 300.338 201.048 297.986 203.065 297.024C206.357 296.216 206.93 293.575 211.407 295.592C215.491 297.46 219.61 297.458 223.698 295.639C227.788 296.004 228.073 293.953 231.22 294.515C234.51 293.002 240.981 292.794 244.914 292.325C248.703 292.383 251.904 292.913 255.643 291.542C260.681 291.437 266.082 291.175 270.603 288.983C273.677 289.868 275.909 285.953 279.037 286.153C283.27 285.245 291.711 286.682 296.004 286.071C302.764 286.382 307.003 284.638 313.044 287.116C315.004 290.861 316.878 287.676 318.794 287.822C320.88 288.802 322.013 287.587 323.951 289.348C327.912 289.851 334.504 289.744 339.047 290.71C344.568 292.63 350.875 291.057 356.498 290.847C359.633 291.153 363.869 292.021 366.94 290.75C373.418 291.47 375.536 292.442 378.585 295.516C380.329 296.134 383.185 298.971 386.063 298.904C388.13 299.772 392.411 298.276 394.801 299.682C399.772 299.948 404.752 303.118 409.672 301.664C412.895 303.146 418.467 300.867 421.697 301.799C425.794 301.04 428.548 299.999 433.095 300.351C436.634 300.625 441.497 300.123 444.948 300.519C446.791 302.071 448.358 303.286 450.353 301.654C453.31 299.88 456.191 300.594 459.107 301.917C462.621 305.013 466.484 301.53 470.277 303.074C474.371 300.73 479.183 304.992 483.369 303.132C487.218 304.809 491.072 305.643 494.922 303.129C500.855 304.086 505.892 303.637 511.638 302.414C517.515 301.519 525.74 300.428 531.616 302.585C535.688 303.594 539.69 304.879 543.812 303.982C548.985 304.403 553.671 305.051 558.657 305.559C562.757 306.405 576.096 306.238 580.101 305.762C579.43 301.576 592.566 303.228 597.86 303.818C607.247 304.096 615.624 303.393 625.075 304.5C633.421 304.607 639.452 306.826 647.516 306.408C653.465 306.17 662.789 307.785 668.792 306.494C675.213 306.258 681.022 306.4 687.621 303.952C695.273 305.059 701.814 305.001 709.359 304.505C715.054 304.217 720.753 305.021 726.449 304.498C729.115 304.272 731.8 305.648 734.415 304.382C736.869 303.834 739.05 303.41 741.469 303.263C742.976 302.647 744.825 303.15 746.281 303.017C749.713 302.774 752.24 302.148 755.681 300.796C758.626 299.506 762.871 299.66 766.164 299.687C769.764 299.525 772.284 300.2 775.957 299.427C781.149 298.567 784.467 298.715 788.95 296.616C797.258 295.106 808.773 295.841 817.977 295.626C827.101 294.145 834.177 295.72 842.574 294.235C847.136 292.659 851.556 291.677 856.448 290.939C859.341 288.926 863.543 290.592 866.471 290.863C872.708 291.894 877.207 291.937 883.182 289.884C886.585 290.907 890.483 289.548 894.12 289.454C895.203 288.177 896.457 288.601 897.511 289.599C898.227 290.233 898.692 289.66 899.819 290.767C902.849 289.75 906.269 290.608 908.776 289.8C917.53 289.589 926.424 290.692 935.33 290.184C940.798 290.707 946.291 288.543 951.762 290.169C959.69 291.722 966.706 290.746 973.041 291.347C977.375 290.331 983.558 295.732 988.969 294.128C996.121 292.69 1002.89 294.283 1009.7 294.946C1015.32 296.599 1021.29 297.493 1027.16 296.771C1033.32 298.411 1042.55 300.617 1050.22 299.698C1052.42 300.38 1052.77 298.172 1054.97 298.307C1057.56 297.54 1062.68 299.619 1065.66 298.358C1071.31 298.457 1079.1 301.965 1083.66 297.712C1087.65 296.969 1087.17 296.666 1092.99 296.262C1096.86 296.83 1100.38 297.065 1104.22 297.019C1106.76 296.337 1109.4 296.388 1111.94 296.998C1116.87 298.088 1119.07 295.428 1123.34 298.02C1129.44 297.535 1136.3 297.996 1142.84 300.444C1152.52 301.703 1163.37 305.024 1173.77 303.169C1181.09 302.593 1188.41 303.621 1195.73 303.116C1203.05 303.116 1210.37 302.117 1217.68 303.137C1224.12 305.357 1233.71 304.83 1239.65 302.737C1244.75 302.244 1248.03 300.596 1254.02 301.091C1261 298.35 1267.98 301.656 1274.96 301.091C1282.18 302.041 1291.65 302.395 1298.77 301.139C1302.49 300.588 1302.87 296.99 1305.86 299.147C1309.05 296.107 1314.55 299.734 1317.77 299.539C1327.79 298.075 1337.87 303.325 1347.79 302.475C1354.49 304.614 1359.84 304.847 1367.01 305.211C1376.6 305.151 1385.38 305.415 1394.38 303.653C1402.81 299.85 1410.09 301.892 1419.22 302.441C1423.01 300.132 1426.35 304.437 1430.18 303.165C1433.69 301.601 1437.27 301.692 1440.78 303.14C1440.78 302 1438.42 299.431 1436.05 295.375C1433.68 292.517 1431.31 287.141 1431.31 287.611L1431.33 287.607Z" fill="#146A36"/>
</svg>
