<svg width="1440" height="657" viewBox="0 0 1440 657" fill="none" xmlns="http://www.w3.org/2000/svg">
<g clip-path="url(#clip0_283_688)">
<path d="M-34.8439 -101L-43.3008 608.942L49.0547 613.536L110.624 627.316L184.79 625.02L260.355 595.162L277.146 583.678L368.103 592.865L393.291 606.646L489.847 636.503L824.289 608.942L904.05 590.568L1070.57 611.239L1182.52 636.503L1312.66 620.426L1440 636.503L1437.69 -101H-34.8439Z" fill="#F7D80D"/>
<path d="M1425.63 599.185C1421.34 597.939 1407.05 598.804 1410.78 599.265C1410.7 600.588 1401.83 599.695 1392.41 600.752C1382.98 602.859 1373 597.02 1370.69 600.434C1364.34 602.593 1358.16 595.139 1351.98 598.775C1345.8 601.014 1339.62 598.599 1333.29 597.109C1322.14 597.25 1310.38 588.762 1299.26 597.017C1292.79 598.794 1287.59 596.635 1280.99 598.894C1273.46 599.826 1265.64 592.116 1258.17 595.229C1254.61 590.113 1253.24 596.1 1249.45 598.897C1246.9 599.307 1244.15 605.681 1241.61 598.689C1237.62 603.279 1234.31 602.683 1230.14 602.183C1225.68 600.153 1220.55 605.249 1216.02 602.103C1212.05 604.791 1207.56 602.568 1203.7 602.017C1202.87 602.661 1201.91 602.404 1201.59 603.365C1196.3 599.752 1190.97 609.064 1185.8 607.136C1177.33 607.767 1168.71 608.443 1160.22 607.104C1152.4 604.294 1144.48 608.343 1136.67 607.043C1130.25 602.754 1124.38 610.864 1118.13 610.089C1113.55 611.377 1110.16 612.713 1106.76 608.507C1103.81 602.68 1101.5 607.933 1097.95 602.715C1091.59 601.126 1086.52 594.566 1079.29 597.074C1070.22 591.616 1062.86 586.705 1053.68 593.756C1048.61 593.637 1044.77 594.87 1039.98 595.469C1034.25 592.381 1031.51 591.094 1026.08 592.513C1016.3 589.028 1007.91 586.362 997.788 587.189C992.023 582.701 987.136 578.341 981.179 583.7C979.145 582.233 974.586 584.235 972.896 583.969C971.655 586.635 971.693 587.897 970.518 588.115C966.816 591.142 953.904 589.377 949.918 588.438C945.141 585.891 941.102 586.423 936.294 585.398C931.25 582.784 926.052 589.848 921.008 585.437C917.268 581.932 909.573 585.071 905.753 585.312C901.67 584.078 899.944 594.121 895.089 588.848C891.308 587.881 887.498 589.063 883.72 588.682C877.19 589.617 871.287 595.809 864.709 590.434C858.9 592.17 853.088 594.669 847.279 590.434C842.689 595.418 839.603 589.921 835.9 592.019C833.41 592.923 831.628 601.283 828.904 597.093C825.633 600.245 821.666 600.62 818.354 599.131C817.409 599.855 816.509 594.412 815.24 600.495C813.067 600.114 809.913 600.354 807.677 600.431C799.009 603.109 790.345 597.01 781.677 600.431C776.478 600.595 771.132 600.681 765.937 600.47C762.634 597.132 760.764 595.873 757.704 597.881C755.799 596.395 753.233 601.809 751.486 596.812C749.993 595.684 749.297 595.892 748.038 593.676C744.461 595.181 740.233 593.864 735.888 592.099C733.243 593.362 731.105 593.893 728.555 592.465C728.445 593.881 727.368 592.276 726.82 593.845C721.537 596.86 713.719 594.348 707.992 593.759C698.657 591.984 689.035 594.012 679.725 593.845C676.183 594.688 673.065 593.948 669.58 592.029C666.875 590.658 664.001 587.512 661.281 592.09C656.917 597.51 652.292 590.024 647.984 591.965C641.886 590.93 637.257 594.79 630.847 595.424C624.865 594.765 622.428 599.381 617.157 598.874C611.468 597.724 605.675 596.77 599.966 597.077C595.023 594.191 590.036 594.329 585.09 597.093C579.589 599.55 574.086 597.087 568.588 597.132C563.041 595.085 558.056 591.241 552.518 595.284C550.894 593.134 549.297 593.531 547.726 595.716C547.26 597.564 546.64 596.491 545.872 597.782C543.148 596.898 541.206 597.481 538.041 598.791C533.356 596.991 529.887 599.15 525.495 600.053C517.636 603.01 508.461 600.521 500.385 600.268C493.131 600.723 495.612 599.118 491.38 605.14C489.079 609.34 489.617 604.435 486.834 607.184C482.823 605.342 478.018 608.638 473.925 607.091C466.372 609.503 458.822 606.652 451.271 607.091C442.474 610.413 433.898 600.466 425.4 603.295C418.162 601.504 411.232 595.392 403.965 595.754C398.767 594.118 396.22 598.73 391.764 591.337C387.901 588.534 383.761 580.026 378.752 583.553C371.274 583.931 362.814 583.71 355.216 583.758C346.879 583.889 335.271 587.134 327.859 582.179C319.345 581.788 310.718 580.305 301.707 580.427C294.031 585.312 286.144 578.181 277.901 582.092C274.479 579.072 270.509 587.458 267.13 582.025C261.772 588.028 261.4 590.744 259.631 590.283C255.566 598.336 253.674 590.552 250.176 594.774C246.822 600.082 244.436 599.105 241.152 595.36C238.907 599.983 237.229 599.198 235.022 597.18C232.327 587.948 228.766 602.84 225.982 597.093C219.704 601.027 213.426 596.815 207.151 597.093C202.624 596.084 193.046 597.452 189.063 597.161C186.437 600.412 186.818 606.441 185.19 602.18C183.585 599.506 181.998 610.108 179.425 605.441C174.111 608.99 168.969 617.623 164.054 608.904C158.856 611.198 152.628 607.799 146.309 612.488C139.99 607.257 133.583 608.555 128.026 611.338C120.428 613.574 115.816 599.768 107.831 603.731C98.1716 601.184 87.9672 606.45 78.3831 603.849C71.4469 596.229 64.0826 596.936 57.1999 600.053C54.3568 602.344 52.6062 599.448 50.2071 597.097C46.5831 591.635 43.2551 591.763 38.9039 593.682C32.2007 594.531 24.8867 590.245 18.174 593.794C11.3103 591.609 7.85951 594.966 0.872948 588.682C-1.66475 591.199 -6.54811 585.751 -8.77726 588.637C-11.8659 587.855 -13.0215 593.169 -16.6674 592.221C-21.5193 593.336 -27.4448 593.554 -32.3628 592.096C-32.3628 593.765 -28.7766 617.912 -28.7766 620.429C-25.0929 623.143 -23.2415 623.255 -17.9615 625.455C-14.495 625.157 -11.0221 624.635 -7.55563 625.43C-2.40151 625.388 5.35958 626.343 9.63212 624.45C11.4897 620.272 12.088 622.21 14.4116 621.249C17.1319 614.74 19.5374 618.113 22.4592 620.42C27.2103 621.371 30.0377 622.902 34.0929 622.931C37.72 624.523 38.9228 629.655 43.2048 625.129C44.7003 630.911 43.1733 631.487 43.104 631.987C47.5749 630.895 52.6094 635.815 57.3794 633.31C61.526 632.746 65.0208 635.446 69.3626 635.472C80.1117 641.581 91.3393 637 101.736 634.136C110.378 625.346 120.772 633.441 129.606 633.765C138.583 633.842 145.724 635.245 154.634 628.678C162.417 622.889 172.288 630.058 179.639 628.479C182.004 625.141 181.739 632.682 183.289 625.753C185.26 620.804 187.775 625.561 189.885 624.6C191.865 621.24 193.877 622.425 195.851 623.354C198.266 630.273 202.164 624.53 204.17 622.182C207.444 620.208 208.014 613.76 212.466 618.684C216.527 623.245 220.624 623.242 224.688 618.799C228.756 619.689 229.04 614.683 232.169 616.054C235.441 612.36 241.876 611.851 245.787 610.707C249.555 610.848 252.739 612.142 256.457 608.795C261.466 608.539 266.838 607.898 271.334 602.545C274.391 604.708 276.611 595.146 279.721 595.636C283.931 593.419 292.325 596.927 296.594 595.434C303.316 596.193 307.532 591.936 313.54 597.987C315.488 607.133 317.352 599.355 319.257 599.71C321.332 602.103 322.459 599.137 324.386 603.436C328.325 604.666 334.88 604.403 339.398 606.764C344.889 611.451 351.161 607.61 356.753 607.097C359.87 607.844 364.083 609.964 367.137 606.86C373.579 608.619 375.685 610.992 378.717 618.498C380.452 620.007 383.292 626.935 386.154 626.772C388.21 628.893 392.467 625.238 394.844 628.671C399.787 629.322 404.739 637.061 409.632 633.512C412.837 637.131 418.379 631.564 421.59 633.842C425.664 631.987 428.404 629.447 432.925 630.305C436.445 630.975 441.281 629.748 444.713 630.715C446.545 634.505 448.104 637.471 450.087 633.486C453.028 629.155 455.893 630.898 458.793 634.13C462.288 641.69 466.129 633.185 469.901 636.955C473.972 631.231 478.758 641.638 482.92 637.096C486.749 641.19 490.581 643.227 494.409 637.09C500.31 639.425 505.319 638.329 511.033 635.344C516.877 633.156 525.057 630.494 530.901 635.76C534.95 638.224 538.929 641.363 543.029 639.172C548.173 640.2 552.833 641.783 557.792 643.022C561.869 645.088 575.134 644.682 579.117 643.519C578.449 633.297 591.513 637.33 596.777 638.771C606.112 639.451 614.443 637.734 623.842 640.437C632.141 640.697 638.139 646.117 646.158 645.095C652.074 644.515 661.347 648.458 667.316 645.306C673.701 644.73 679.479 645.076 686.04 639.098C693.65 641.802 700.155 641.661 707.658 640.45C713.322 639.745 718.99 641.709 724.654 640.431C727.305 639.88 729.975 643.24 732.576 640.149C735.016 638.81 737.185 637.775 739.59 637.416C741.089 635.911 742.928 637.141 744.376 636.814C747.789 636.222 750.302 634.694 753.724 631.391C756.652 628.242 760.874 628.617 764.149 628.684C767.729 628.287 770.235 629.937 773.887 628.05C779.051 625.949 782.35 626.311 786.809 621.185C795.07 617.498 806.522 619.292 815.674 618.767C824.748 615.15 831.785 618.998 840.135 615.371C844.672 611.521 849.068 609.125 853.932 607.322C856.81 602.408 860.988 606.476 863.9 607.136C870.103 609.654 874.577 609.759 880.518 604.746C883.903 607.245 887.779 603.926 891.396 603.695C892.473 600.579 893.72 601.613 894.768 604.051C895.48 605.598 895.943 604.198 897.064 606.902C900.077 604.419 903.477 606.514 905.971 604.541C914.676 604.025 923.52 606.719 932.377 605.48C937.815 606.755 943.277 601.472 948.718 605.441C956.602 609.234 963.579 606.851 969.879 608.318C974.19 605.838 980.339 619.026 985.719 615.109C992.832 611.598 999.567 615.487 1006.34 617.108C1011.93 621.144 1017.86 623.325 1023.7 621.563C1029.82 625.567 1039.01 630.955 1046.63 628.71C1048.82 630.376 1049.17 624.984 1051.36 625.314C1053.93 623.44 1059.02 628.518 1061.99 625.439C1067.6 625.68 1075.35 634.245 1079.88 623.86C1083.86 622.047 1083.38 621.307 1089.17 620.32C1093.01 621.708 1096.52 622.281 1100.33 622.169C1102.85 620.503 1105.48 620.628 1108.01 622.118C1112.91 624.779 1115.1 618.283 1119.35 624.613C1125.42 623.428 1132.23 624.555 1138.74 630.533C1148.36 633.608 1159.16 641.715 1169.5 637.186C1176.77 635.78 1184.05 638.291 1191.33 637.058C1198.61 637.058 1205.89 634.617 1213.17 637.109C1219.56 642.529 1229.1 641.241 1235.01 636.132C1240.08 634.928 1243.35 630.904 1249.3 632.112C1256.24 625.42 1263.19 633.492 1270.13 632.112C1277.31 634.431 1286.73 635.296 1293.8 632.23C1297.51 630.885 1297.88 622.098 1300.85 627.365C1304.03 619.943 1309.49 628.8 1312.7 628.322C1322.66 624.747 1332.69 637.567 1342.55 635.491C1349.22 640.716 1354.54 641.283 1361.66 642.173C1371.2 642.026 1379.93 642.67 1388.88 638.368C1397.27 629.081 1404.5 634.069 1413.58 635.408C1417.36 629.77 1420.68 640.283 1424.49 637.176C1427.98 633.358 1431.53 633.579 1435.03 637.115C1435.03 634.332 1432.68 628.06 1430.32 618.155C1427.97 611.175 1425.61 598.048 1425.61 599.195L1425.63 599.185Z" fill="#F7D80D"/>
</g>
<defs>
<clipPath id="clip0_283_688">
<rect width="1473" height="770" fill="white" transform="translate(-33 -101)"/>
</clipPath>
</defs>
</svg>
