<svg width="378" height="75" viewBox="0 0 378 75" fill="none" xmlns="http://www.w3.org/2000/svg">
<rect x="1.90479" y="7.479" width="374" height="60" rx="30" fill="#F70034"/>
<path d="M52.6798 45.479V28.979H58.7298L63.0298 42.054L67.1798 28.979H73.0798V45.479H69.7798V32.054H69.4048L64.9048 45.479H61.0548L56.3548 31.979H56.0048V45.479H52.6798ZM83.3595 43.679C82.5845 44.904 81.0845 45.804 78.6595 45.804C76.2095 45.804 74.4095 44.579 74.3595 42.254C74.3345 40.229 75.3845 38.929 78.6345 38.379L81.7595 37.879C83.0845 37.654 83.5095 37.354 83.5095 36.529C83.5095 35.479 82.8845 34.729 80.7595 34.729C78.5345 34.729 77.7345 35.729 77.7345 37.054H74.6345C74.6345 34.254 76.9095 32.579 80.7345 32.579C84.6345 32.579 86.3595 34.179 86.4095 36.754L86.5845 45.479H83.7845L83.7095 43.679H83.3595ZM77.5595 42.104C77.6595 43.329 78.5345 43.754 79.7345 43.729C82.1595 43.654 83.5345 41.929 83.5345 39.929V39.254L79.7845 39.979C78.2595 40.279 77.4845 40.929 77.5595 42.104ZM91.3604 34.579C92.2354 33.279 93.6854 32.479 95.5854 32.479C98.8104 32.479 100.635 34.304 100.635 37.679V45.479H97.4604V38.204C97.4604 36.079 96.3104 35.004 94.4354 35.004C92.4104 35.004 91.0604 36.254 91.0604 38.829V45.479H87.8604V32.804H91.0604V34.579H91.3604ZM106.949 45.729C103.749 45.729 101.899 43.929 101.899 40.529V32.804H105.074V40.004C105.074 42.129 106.249 43.229 108.099 43.229C110.149 43.229 111.474 41.954 111.474 39.379V32.804H114.674V45.479H111.499V43.654H111.174C110.299 44.954 108.874 45.729 106.949 45.729ZM119.662 36.729H115.987L115.937 34.354H118.587V32.429C118.587 30.054 119.387 28.979 122.312 28.979H126.287V31.429H121.762V34.354H125.837V36.704L121.787 36.729V45.479H118.487V38.154C118.487 37.604 118.662 37.229 119.187 37.104L119.662 37.004V36.729ZM136.192 43.679C135.417 44.904 133.917 45.804 131.492 45.804C129.042 45.804 127.242 44.579 127.192 42.254C127.167 40.229 128.217 38.929 131.467 38.379L134.592 37.879C135.917 37.654 136.342 37.354 136.342 36.529C136.342 35.479 135.717 34.729 133.592 34.729C131.367 34.729 130.567 35.729 130.567 37.054H127.467C127.467 34.254 129.742 32.579 133.567 32.579C137.467 32.579 139.192 34.179 139.242 36.754L139.417 45.479H136.617L136.542 43.679H136.192ZM130.392 42.104C130.492 43.329 131.367 43.754 132.567 43.729C134.992 43.654 136.367 41.929 136.367 39.929V39.254L132.617 39.979C131.092 40.279 130.317 40.929 130.392 42.104ZM140.692 39.129C140.692 35.529 142.892 32.504 147.717 32.504C152.017 32.504 154.167 34.829 154.367 37.829H151.242C150.992 35.854 149.717 34.929 147.767 34.929C145.392 34.929 143.917 36.104 143.917 39.129C143.917 42.104 145.342 43.329 147.667 43.329C149.892 43.329 151.067 42.204 151.267 40.279H154.392C154.242 43.279 152.092 45.754 147.717 45.754C142.867 45.754 140.692 42.729 140.692 39.129ZM158.211 35.154H155.561L155.611 32.804H159.286V32.504L158.336 32.129C157.886 31.954 157.636 31.554 157.636 31.104V28.829H161.411V32.779L165.461 32.804V35.154H161.386V43.029H165.686V45.479H161.936C159.011 45.479 158.211 44.404 158.211 42.029V35.154ZM171.695 45.729C168.495 45.729 166.645 43.929 166.645 40.529V32.804H169.82V40.004C169.82 42.129 170.995 43.229 172.845 43.229C174.895 43.229 176.22 41.954 176.22 39.379V32.804H179.42V45.479H176.245V43.654H175.92C175.045 44.954 173.62 45.729 171.695 45.729ZM184.108 34.779C184.858 33.454 186.158 32.704 188.033 32.704H188.733V35.654H187.658C185.308 35.654 183.883 37.054 183.883 39.954V45.479H180.683V32.804H183.783V34.779H184.108ZM190.184 32.829H192.159V32.554L190.734 32.129C190.284 32.004 190.009 31.604 190.009 31.079V28.979H193.359V45.629H190.184V32.829ZM198.123 34.579C198.998 33.279 200.448 32.479 202.348 32.479C205.573 32.479 207.398 34.304 207.398 37.679V45.479H204.223V38.204C204.223 36.079 203.073 35.004 201.198 35.004C199.173 35.004 197.823 36.254 197.823 38.829V45.479H194.623V32.804H197.823V34.579H198.123ZM211.911 39.079C211.911 41.829 213.036 43.254 215.711 43.254C218.161 43.254 219.386 41.929 219.386 38.979C219.386 36.204 218.161 34.904 215.711 34.904C213.136 34.904 211.911 36.304 211.911 39.079ZM208.661 39.029C208.661 35.204 210.561 32.479 214.661 32.479C216.711 32.479 218.161 33.154 219.061 34.329H219.386V32.804H222.611V45.454C222.611 49.179 220.636 51.129 215.611 51.129C211.286 51.129 209.136 49.029 209.011 46.379H212.111C212.236 47.654 213.236 48.954 215.736 48.954C218.211 48.954 219.386 48.004 219.386 45.904V43.754H219.036C218.136 44.929 216.686 45.554 214.661 45.554C210.461 45.554 208.661 42.804 208.661 39.029ZM240.729 28.979C244.529 28.979 246.079 31.204 246.079 34.104C246.079 37.079 244.529 39.354 240.654 39.354H235.279V45.479H231.879V28.979H240.729ZM235.279 36.904H239.679C241.779 36.904 242.654 35.779 242.654 34.129C242.654 32.379 241.779 31.429 239.804 31.429H235.279V36.904ZM250.783 34.779C251.533 33.454 252.833 32.704 254.708 32.704H255.408V35.654H254.333C251.983 35.654 250.558 37.054 250.558 39.954V45.479H247.358V32.804H250.458V34.779H250.783ZM262.905 45.729C257.905 45.729 255.805 42.704 255.805 39.179C255.805 35.554 257.905 32.504 262.905 32.504C267.88 32.504 269.98 35.579 269.98 39.179C269.98 42.679 267.88 45.729 262.905 45.729ZM259.03 39.179C259.03 41.879 260.38 43.304 262.905 43.304C265.43 43.304 266.78 41.879 266.78 39.179C266.78 36.404 265.43 34.929 262.905 34.929C260.38 34.929 259.03 36.404 259.03 39.179ZM271.259 39.129C271.259 35.529 273.459 32.504 278.284 32.504C282.584 32.504 284.734 34.829 284.934 37.829H281.809C281.559 35.854 280.284 34.929 278.334 34.929C275.959 34.929 274.484 36.104 274.484 39.129C274.484 42.104 275.909 43.329 278.234 43.329C280.459 43.329 281.634 42.204 281.834 40.279H284.959C284.809 43.279 282.659 45.754 278.284 45.754C273.434 45.754 271.259 42.729 271.259 39.129ZM293.05 45.729C288.2 45.729 286.225 42.679 286.225 39.129C286.225 35.404 288.4 32.504 293.05 32.504C297.65 32.504 299.575 35.304 299.575 38.904C299.575 39.254 299.575 39.554 299.525 39.804H289.375C289.525 42.479 290.875 43.604 293.125 43.604C295.075 43.604 296.1 42.729 296.475 41.479H299.55C299.175 43.654 297.4 45.729 293.05 45.729ZM289.4 37.929H296.525C296.4 35.754 295.15 34.604 293.1 34.604C290.975 34.604 289.7 35.729 289.4 37.929ZM303.529 41.229C303.679 42.604 304.404 43.754 306.929 43.754C308.654 43.754 309.604 43.179 309.604 42.029C309.604 41.054 309.104 40.479 307.329 40.229L304.629 39.829C302.204 39.454 300.879 38.529 300.854 36.304C300.854 33.629 303.154 32.479 306.504 32.479C310.029 32.479 312.229 33.904 312.454 36.604H309.554C309.429 35.479 308.579 34.529 306.504 34.529C304.679 34.529 303.929 35.229 303.929 36.254C303.929 37.054 304.354 37.629 305.779 37.804L308.454 38.154C311.304 38.504 312.704 39.454 312.654 41.879C312.629 44.279 310.929 45.729 306.879 45.729C302.329 45.729 300.754 43.729 300.629 41.229H303.529ZM316.835 41.229C316.985 42.604 317.71 43.754 320.235 43.754C321.96 43.754 322.91 43.179 322.91 42.029C322.91 41.054 322.41 40.479 320.635 40.229L317.935 39.829C315.51 39.454 314.185 38.529 314.16 36.304C314.16 33.629 316.46 32.479 319.81 32.479C323.335 32.479 325.535 33.904 325.76 36.604H322.86C322.735 35.479 321.885 34.529 319.81 34.529C317.985 34.529 317.235 35.229 317.235 36.254C317.235 37.054 317.66 37.629 319.085 37.804L321.76 38.154C324.61 38.504 326.01 39.454 325.96 41.879C325.935 44.279 324.235 45.729 320.185 45.729C315.635 45.729 314.06 43.729 313.935 41.229H316.835Z" fill="white"/>
<rect x="-0.0626106" y="13.0594" width="376" height="62" rx="31" transform="rotate(-2 -0.0626106 13.0594)" stroke="#146A36" stroke-width="2"/>
<path d="M52.6798 45.4795V28.9795H58.7298L63.0298 42.0545L67.1798 28.9795H73.0798V45.4795H69.7798V32.0545H69.4048L64.9048 45.4795H61.0548L56.3548 31.9795H56.0048V45.4795H52.6798ZM83.3595 43.6795C82.5845 44.9045 81.0845 45.8045 78.6595 45.8045C76.2095 45.8045 74.4095 44.5795 74.3595 42.2545C74.3345 40.2295 75.3845 38.9295 78.6345 38.3795L81.7595 37.8795C83.0845 37.6545 83.5095 37.3545 83.5095 36.5295C83.5095 35.4795 82.8845 34.7295 80.7595 34.7295C78.5345 34.7295 77.7345 35.7295 77.7345 37.0545H74.6345C74.6345 34.2545 76.9095 32.5795 80.7345 32.5795C84.6345 32.5795 86.3595 34.1795 86.4095 36.7545L86.5845 45.4795H83.7845L83.7095 43.6795H83.3595ZM77.5595 42.1045C77.6595 43.3295 78.5345 43.7545 79.7345 43.7295C82.1595 43.6545 83.5345 41.9295 83.5345 39.9295V39.2545L79.7845 39.9795C78.2595 40.2795 77.4845 40.9295 77.5595 42.1045ZM91.3604 34.5795C92.2354 33.2795 93.6854 32.4795 95.5854 32.4795C98.8104 32.4795 100.635 34.3045 100.635 37.6795V45.4795H97.4604V38.2045C97.4604 36.0795 96.3104 35.0045 94.4354 35.0045C92.4104 35.0045 91.0604 36.2545 91.0604 38.8295V45.4795H87.8604V32.8045H91.0604V34.5795H91.3604ZM106.949 45.7295C103.749 45.7295 101.899 43.9295 101.899 40.5295V32.8045H105.074V40.0045C105.074 42.1295 106.249 43.2295 108.099 43.2295C110.149 43.2295 111.474 41.9545 111.474 39.3795V32.8045H114.674V45.4795H111.499V43.6545H111.174C110.299 44.9545 108.874 45.7295 106.949 45.7295ZM119.662 36.7295H115.987L115.937 34.3545H118.587V32.4295C118.587 30.0545 119.387 28.9795 122.312 28.9795H126.287V31.4295H121.762V34.3545H125.837V36.7045L121.787 36.7295V45.4795H118.487V38.1545C118.487 37.6045 118.662 37.2295 119.187 37.1045L119.662 37.0045V36.7295ZM136.192 43.6795C135.417 44.9045 133.917 45.8045 131.492 45.8045C129.042 45.8045 127.242 44.5795 127.192 42.2545C127.167 40.2295 128.217 38.9295 131.467 38.3795L134.592 37.8795C135.917 37.6545 136.342 37.3545 136.342 36.5295C136.342 35.4795 135.717 34.7295 133.592 34.7295C131.367 34.7295 130.567 35.7295 130.567 37.0545H127.467C127.467 34.2545 129.742 32.5795 133.567 32.5795C137.467 32.5795 139.192 34.1795 139.242 36.7545L139.417 45.4795H136.617L136.542 43.6795H136.192ZM130.392 42.1045C130.492 43.3295 131.367 43.7545 132.567 43.7295C134.992 43.6545 136.367 41.9295 136.367 39.9295V39.2545L132.617 39.9795C131.092 40.2795 130.317 40.9295 130.392 42.1045ZM140.692 39.1295C140.692 35.5295 142.892 32.5045 147.717 32.5045C152.017 32.5045 154.167 34.8295 154.367 37.8295H151.242C150.992 35.8545 149.717 34.9295 147.767 34.9295C145.392 34.9295 143.917 36.1045 143.917 39.1295C143.917 42.1045 145.342 43.3295 147.667 43.3295C149.892 43.3295 151.067 42.2045 151.267 40.2795H154.392C154.242 43.2795 152.092 45.7545 147.717 45.7545C142.867 45.7545 140.692 42.7295 140.692 39.1295ZM158.211 35.1545H155.561L155.611 32.8045H159.286V32.5045L158.336 32.1295C157.886 31.9545 157.636 31.5545 157.636 31.1045V28.8295H161.411V32.7795L165.461 32.8045V35.1545H161.386V43.0295H165.686V45.4795H161.936C159.011 45.4795 158.211 44.4045 158.211 42.0295V35.1545ZM171.695 45.7295C168.495 45.7295 166.645 43.9295 166.645 40.5295V32.8045H169.82V40.0045C169.82 42.1295 170.995 43.2295 172.845 43.2295C174.895 43.2295 176.22 41.9545 176.22 39.3795V32.8045H179.42V45.4795H176.245V43.6545H175.92C175.045 44.9545 173.62 45.7295 171.695 45.7295ZM184.108 34.7795C184.858 33.4545 186.158 32.7045 188.033 32.7045H188.733V35.6545H187.658C185.308 35.6545 183.883 37.0545 183.883 39.9545V45.4795H180.683V32.8045H183.783V34.7795H184.108ZM190.184 32.8295H192.159V32.5545L190.734 32.1295C190.284 32.0045 190.009 31.6045 190.009 31.0795V28.9795H193.359V45.6295H190.184V32.8295ZM198.123 34.5795C198.998 33.2795 200.448 32.4795 202.348 32.4795C205.573 32.4795 207.398 34.3045 207.398 37.6795V45.4795H204.223V38.2045C204.223 36.0795 203.073 35.0045 201.198 35.0045C199.173 35.0045 197.823 36.2545 197.823 38.8295V45.4795H194.623V32.8045H197.823V34.5795H198.123ZM211.911 39.0795C211.911 41.8295 213.036 43.2545 215.711 43.2545C218.161 43.2545 219.386 41.9295 219.386 38.9795C219.386 36.2045 218.161 34.9045 215.711 34.9045C213.136 34.9045 211.911 36.3045 211.911 39.0795ZM208.661 39.0295C208.661 35.2045 210.561 32.4795 214.661 32.4795C216.711 32.4795 218.161 33.1545 219.061 34.3295H219.386V32.8045H222.611V45.4545C222.611 49.1795 220.636 51.1295 215.611 51.1295C211.286 51.1295 209.136 49.0295 209.011 46.3795H212.111C212.236 47.6545 213.236 48.9545 215.736 48.9545C218.211 48.9545 219.386 48.0045 219.386 45.9045V43.7545H219.036C218.136 44.9295 216.686 45.5545 214.661 45.5545C210.461 45.5545 208.661 42.8045 208.661 39.0295ZM240.729 28.9795C244.529 28.9795 246.079 31.2045 246.079 34.1045C246.079 37.0795 244.529 39.3545 240.654 39.3545H235.279V45.4795H231.879V28.9795H240.729ZM235.279 36.9045H239.679C241.779 36.9045 242.654 35.7795 242.654 34.1295C242.654 32.3795 241.779 31.4295 239.804 31.4295H235.279V36.9045ZM250.783 34.7795C251.533 33.4545 252.833 32.7045 254.708 32.7045H255.408V35.6545H254.333C251.983 35.6545 250.558 37.0545 250.558 39.9545V45.4795H247.358V32.8045H250.458V34.7795H250.783ZM262.905 45.7295C257.905 45.7295 255.805 42.7045 255.805 39.1795C255.805 35.5545 257.905 32.5045 262.905 32.5045C267.88 32.5045 269.98 35.5795 269.98 39.1795C269.98 42.6795 267.88 45.7295 262.905 45.7295ZM259.03 39.1795C259.03 41.8795 260.38 43.3045 262.905 43.3045C265.43 43.3045 266.78 41.8795 266.78 39.1795C266.78 36.4045 265.43 34.9295 262.905 34.9295C260.38 34.9295 259.03 36.4045 259.03 39.1795ZM271.259 39.1295C271.259 35.5295 273.459 32.5045 278.284 32.5045C282.584 32.5045 284.734 34.8295 284.934 37.8295H281.809C281.559 35.8545 280.284 34.9295 278.334 34.9295C275.959 34.9295 274.484 36.1045 274.484 39.1295C274.484 42.1045 275.909 43.3295 278.234 43.3295C280.459 43.3295 281.634 42.2045 281.834 40.2795H284.959C284.809 43.2795 282.659 45.7545 278.284 45.7545C273.434 45.7545 271.259 42.7295 271.259 39.1295ZM293.05 45.7295C288.2 45.7295 286.225 42.6795 286.225 39.1295C286.225 35.4045 288.4 32.5045 293.05 32.5045C297.65 32.5045 299.575 35.3045 299.575 38.9045C299.575 39.2545 299.575 39.5545 299.525 39.8045H289.375C289.525 42.4795 290.875 43.6045 293.125 43.6045C295.075 43.6045 296.1 42.7295 296.475 41.4795H299.55C299.175 43.6545 297.4 45.7295 293.05 45.7295ZM289.4 37.9295H296.525C296.4 35.7545 295.15 34.6045 293.1 34.6045C290.975 34.6045 289.7 35.7295 289.4 37.9295ZM303.529 41.2295C303.679 42.6045 304.404 43.7545 306.929 43.7545C308.654 43.7545 309.604 43.1795 309.604 42.0295C309.604 41.0545 309.104 40.4795 307.329 40.2295L304.629 39.8295C302.204 39.4545 300.879 38.5295 300.854 36.3045C300.854 33.6295 303.154 32.4795 306.504 32.4795C310.029 32.4795 312.229 33.9045 312.454 36.6045H309.554C309.429 35.4795 308.579 34.5295 306.504 34.5295C304.679 34.5295 303.929 35.2295 303.929 36.2545C303.929 37.0545 304.354 37.6295 305.779 37.8045L308.454 38.1545C311.304 38.5045 312.704 39.4545 312.654 41.8795C312.629 44.2795 310.929 45.7295 306.879 45.7295C302.329 45.7295 300.754 43.7295 300.629 41.2295H303.529ZM316.835 41.2295C316.985 42.6045 317.71 43.7545 320.235 43.7545C321.96 43.7545 322.91 43.1795 322.91 42.0295C322.91 41.0545 322.41 40.4795 320.635 40.2295L317.935 39.8295C315.51 39.4545 314.185 38.5295 314.16 36.3045C314.16 33.6295 316.46 32.4795 319.81 32.4795C323.335 32.4795 325.535 33.9045 325.76 36.6045H322.86C322.735 35.4795 321.885 34.5295 319.81 34.5295C317.985 34.5295 317.235 35.2295 317.235 36.2545C317.235 37.0545 317.66 37.6295 319.085 37.8045L321.76 38.1545C324.61 38.5045 326.01 39.4545 325.96 41.8795C325.935 44.2795 324.235 45.7295 320.185 45.7295C315.635 45.7295 314.06 43.7295 313.935 41.2295H316.835Z" fill="white"/>
</svg>
