<svg width="45" height="42" viewBox="0 0 45 42" fill="none" xmlns="http://www.w3.org/2000/svg">
<ellipse cx="22.5" cy="21" rx="22.5" ry="21" fill="#146A36" fill-opacity="0.15"/>
<path d="M19.4502 8.17276C19.1352 8.17276 18.8332 8.0583 18.6105 7.85455C18.3877 7.6508 18.2626 7.37446 18.2626 7.08632C18.2626 6.79818 18.3877 6.52184 18.6105 6.31809C18.8332 6.11434 19.1352 5.99988 19.4502 5.99988H25.0492C25.3641 5.99988 25.6662 6.11434 25.8889 6.31809C26.1116 6.52184 26.2367 6.79818 26.2367 7.08632C26.2367 7.37446 26.1116 7.6508 25.8889 7.85455C25.6662 8.0583 25.3641 8.17276 25.0492 8.17276H19.4502ZM13.9557 8.82753C14.1781 9.03124 14.303 9.30737 14.303 9.59528C14.303 9.88319 14.1781 10.1593 13.9557 10.363L9.99716 13.9845C9.77204 14.1764 9.47428 14.2809 9.16662 14.2759C8.85896 14.271 8.56541 14.1569 8.34783 13.9579C8.13025 13.7588 8.00561 13.4903 8.00019 13.2088C7.99476 12.9274 8.10896 12.655 8.31873 12.449L12.2773 8.82753C12.5 8.62407 12.8018 8.50979 13.1165 8.50979C13.4312 8.50979 13.733 8.62407 13.9557 8.82753Z" fill="#146A36"/>
<path fill-rule="evenodd" clip-rule="evenodd" d="M22.8174 10.1383C19.2907 10.1383 15.9083 11.4099 13.4146 13.6734C10.9208 15.9368 9.51978 19.0068 9.51978 22.2078C9.51978 25.4088 10.9208 28.4788 13.4146 30.7422C15.9083 33.0057 19.2907 34.2773 22.8174 34.2773C26.3441 34.2773 29.7265 33.0057 32.2202 30.7422C34.714 28.4788 36.115 25.4088 36.115 22.2078C36.115 19.0068 34.714 15.9368 32.2202 13.6734C29.7265 11.4099 26.3441 10.1383 22.8174 10.1383ZM30.6239 15.4077C30.7381 15.2711 30.7941 15.1015 30.7813 14.9304C30.7685 14.7593 30.6879 14.5981 30.5544 14.4768C30.4208 14.3554 30.2434 14.282 30.0549 14.2702C29.8663 14.2583 29.6795 14.3088 29.5288 14.4123L24.5617 17.9167L21.3155 20.0225C21.05 20.1942 20.8289 20.4164 20.6677 20.6736C20.5064 20.9308 20.4088 21.2168 20.3817 21.5117C20.3547 21.8066 20.3987 22.1033 20.5109 22.3812C20.623 22.659 20.8005 22.9114 21.0311 23.1206C21.2616 23.3299 21.5396 23.491 21.8458 23.5928C22.1519 23.6946 22.4788 23.7345 22.8037 23.71C23.1286 23.6854 23.4437 23.5968 23.7271 23.4504C24.0104 23.3041 24.2552 23.1034 24.4444 22.8624L26.7629 19.9146L30.6239 15.4077Z" fill="#146A36"/>
</svg>
