<svg width="26" height="31" viewBox="0 0 26 31" fill="none" xmlns="http://www.w3.org/2000/svg">
<mask id="path-1-outside-1_283_657" maskUnits="userSpaceOnUse" x="-0.799805" y="-0.799988" width="27" height="32" fill="black">
<rect fill="white" x="-0.799805" y="-0.799988" width="27" height="32"/>
<path d="M25.221 8.22408L21.8612 9.2841L23.9317 12.0625C23.9752 12.1174 24.0069 12.1802 24.025 12.2472C24.0431 12.3142 24.0471 12.3841 24.0369 12.4526C24.0268 12.5212 24.0026 12.5871 23.9657 12.6464C23.9289 12.7057 23.8802 12.7573 23.8225 12.798C23.7649 12.8387 23.6994 12.8678 23.63 12.8835C23.5606 12.8992 23.4886 12.9012 23.4184 12.8894C23.3481 12.8776 23.281 12.8523 23.2211 12.8148C23.1611 12.7774 23.1094 12.7287 23.0691 12.6715L20.9986 9.89446L18.9228 12.6715C18.8733 12.7378 18.8083 12.7917 18.7332 12.8289C18.6582 12.8661 18.5751 12.8854 18.4908 12.8853C18.3926 12.8852 18.2963 12.8586 18.2125 12.8086C18.1288 12.7586 18.0609 12.6871 18.0164 12.602C17.9719 12.5169 17.9524 12.4214 17.9601 12.3262C17.9678 12.231 18.0025 12.1397 18.0602 12.0625L20.136 9.2841L16.7763 8.22408C16.7097 8.20306 16.648 8.1695 16.5947 8.1253C16.5414 8.0811 16.4976 8.02714 16.4658 7.96649C16.434 7.90584 16.4148 7.8397 16.4092 7.77183C16.4037 7.70397 16.412 7.63571 16.4336 7.57096C16.4553 7.5062 16.4898 7.44623 16.5353 7.39444C16.5807 7.34266 16.6363 7.3001 16.6987 7.26917C16.761 7.23824 16.8291 7.21957 16.8989 7.2142C16.9687 7.20884 17.039 7.2169 17.1056 7.23792L20.4653 8.29794V4.86517C20.4653 4.72769 20.5215 4.59585 20.6215 4.49864C20.7215 4.40143 20.8572 4.34682 20.9986 4.34682C21.1401 4.34682 21.2757 4.40143 21.3757 4.49864C21.4757 4.59585 21.5319 4.72769 21.5319 4.86517V8.29794L24.8917 7.23792C24.9583 7.2169 25.0285 7.20884 25.0983 7.2142C25.1682 7.21957 25.2362 7.23824 25.2986 7.26917C25.361 7.3001 25.4165 7.34266 25.462 7.39444C25.5075 7.44623 25.542 7.5062 25.5636 7.57096C25.5852 7.63571 25.5935 7.70397 25.588 7.77183C25.5825 7.8397 25.5633 7.90584 25.5315 7.96649C25.4996 8.02714 25.4558 8.0811 25.4026 8.1253C25.3493 8.1695 25.2876 8.20306 25.221 8.22408ZM11.9326 22.4891C11.9327 23.1846 11.7271 23.8655 11.3404 24.4507C10.9536 25.0358 10.4019 25.5006 9.75108 25.7897C9.10024 26.0787 8.37763 26.1799 7.66932 26.0811C6.961 25.9823 6.29682 25.6877 5.75588 25.2324C5.21494 24.7771 4.82002 24.1803 4.61816 23.513C4.4163 22.8458 4.416 22.1361 4.6173 21.4687C4.8186 20.8013 5.21301 20.2041 5.75358 19.7484C6.29414 19.2927 6.95807 18.9976 7.6663 18.8982V14.1955C7.6663 14.058 7.72249 13.9262 7.8225 13.8289C7.92251 13.7317 8.05816 13.6771 8.19959 13.6771C8.34103 13.6771 8.47668 13.7317 8.57669 13.8289C8.6767 13.9262 8.73289 14.058 8.73289 14.1955V18.8982C9.62129 19.0228 10.4337 19.4544 11.0214 20.1139C11.609 20.7734 11.9326 21.6166 11.9326 22.4891ZM10.8661 22.4891C10.8661 21.9765 10.7097 21.4754 10.4167 21.0492C10.1237 20.623 9.70724 20.2908 9.22001 20.0946C8.73277 19.8985 8.19664 19.8471 7.67939 19.9471C7.16215 20.0471 6.68703 20.294 6.31412 20.6564C5.94121 21.0189 5.68725 21.4807 5.58436 21.9835C5.48148 22.4862 5.53428 23.0073 5.7361 23.4809C5.93792 23.9545 6.27969 24.3593 6.71818 24.644C7.15668 24.9288 7.67222 25.0808 8.19959 25.0808C8.90679 25.0808 9.58501 24.8078 10.0851 24.3217C10.5851 23.8357 10.8661 23.1765 10.8661 22.4891ZM16.199 22.4891C16.199 23.8144 15.8504 25.1178 15.1864 26.2754C14.5224 27.4329 13.565 28.4063 12.4051 29.1031C11.2452 29.7999 9.92132 30.1969 8.55915 30.2565C7.19698 30.3161 5.84175 30.0362 4.62216 29.4435C3.40256 28.8508 2.35908 27.9649 1.59081 26.8699C0.822538 25.775 0.354975 24.5073 0.232521 23.1873C0.110066 21.8674 0.336785 20.5389 0.891148 19.328C1.44551 18.1171 2.30912 17.0641 3.39996 16.2689V4.86517C3.39996 3.62789 3.90563 2.44129 4.80574 1.5664C5.70584 0.691518 6.92665 0.200012 8.19959 0.200012C9.47254 0.200012 10.6933 0.691518 11.5935 1.5664C12.4936 2.44129 12.9992 3.62789 12.9992 4.86517V16.2689C13.9923 16.9935 14.7983 17.9327 15.3536 19.0123C15.909 20.0918 16.1984 21.2821 16.199 22.4891ZM15.1324 22.4891C15.1318 21.4027 14.8613 20.3326 14.3439 19.3697C13.8265 18.4067 13.0775 17.5795 12.1606 16.9583C12.0895 16.91 12.0315 16.8456 11.9918 16.7706C11.9521 16.6956 11.9318 16.6124 11.9326 16.5281V4.86517C11.9326 3.90284 11.5393 2.97993 10.8393 2.29946C10.1392 1.619 9.18966 1.23671 8.19959 1.23671C7.20953 1.23671 6.26001 1.619 5.55993 2.29946C4.85985 2.97993 4.46654 3.90284 4.46654 4.86517V16.5281C4.46655 16.6115 4.44583 16.6937 4.40614 16.7677C4.36644 16.8417 4.30896 16.9053 4.23856 16.9531C3.26037 17.615 2.47427 18.5108 1.95614 19.5541C1.438 20.5974 1.20535 21.7529 1.28063 22.9091C1.35591 24.0653 1.73658 25.1831 2.3859 26.1545C3.03521 27.126 3.93124 27.9184 4.98747 28.4551C6.04371 28.9919 7.22447 29.2549 8.41577 29.2188C9.60707 29.1826 10.7687 28.8486 11.7884 28.2489C12.8082 27.6492 13.6517 26.8041 14.2374 25.7952C14.8232 24.7862 15.1314 23.6476 15.1324 22.4891Z"/>
</mask>
<path d="M25.221 8.22408L21.8612 9.2841L23.9317 12.0625C23.9752 12.1174 24.0069 12.1802 24.025 12.2472C24.0431 12.3142 24.0471 12.3841 24.0369 12.4526C24.0268 12.5212 24.0026 12.5871 23.9657 12.6464C23.9289 12.7057 23.8802 12.7573 23.8225 12.798C23.7649 12.8387 23.6994 12.8678 23.63 12.8835C23.5606 12.8992 23.4886 12.9012 23.4184 12.8894C23.3481 12.8776 23.281 12.8523 23.2211 12.8148C23.1611 12.7774 23.1094 12.7287 23.0691 12.6715L20.9986 9.89446L18.9228 12.6715C18.8733 12.7378 18.8083 12.7917 18.7332 12.8289C18.6582 12.8661 18.5751 12.8854 18.4908 12.8853C18.3926 12.8852 18.2963 12.8586 18.2125 12.8086C18.1288 12.7586 18.0609 12.6871 18.0164 12.602C17.9719 12.5169 17.9524 12.4214 17.9601 12.3262C17.9678 12.231 18.0025 12.1397 18.0602 12.0625L20.136 9.2841L16.7763 8.22408C16.7097 8.20306 16.648 8.1695 16.5947 8.1253C16.5414 8.0811 16.4976 8.02714 16.4658 7.96649C16.434 7.90584 16.4148 7.8397 16.4092 7.77183C16.4037 7.70397 16.412 7.63571 16.4336 7.57096C16.4553 7.5062 16.4898 7.44623 16.5353 7.39444C16.5807 7.34266 16.6363 7.3001 16.6987 7.26917C16.761 7.23824 16.8291 7.21957 16.8989 7.2142C16.9687 7.20884 17.039 7.2169 17.1056 7.23792L20.4653 8.29794V4.86517C20.4653 4.72769 20.5215 4.59585 20.6215 4.49864C20.7215 4.40143 20.8572 4.34682 20.9986 4.34682C21.1401 4.34682 21.2757 4.40143 21.3757 4.49864C21.4757 4.59585 21.5319 4.72769 21.5319 4.86517V8.29794L24.8917 7.23792C24.9583 7.2169 25.0285 7.20884 25.0983 7.2142C25.1682 7.21957 25.2362 7.23824 25.2986 7.26917C25.361 7.3001 25.4165 7.34266 25.462 7.39444C25.5075 7.44623 25.542 7.5062 25.5636 7.57096C25.5852 7.63571 25.5935 7.70397 25.588 7.77183C25.5825 7.8397 25.5633 7.90584 25.5315 7.96649C25.4996 8.02714 25.4558 8.0811 25.4026 8.1253C25.3493 8.1695 25.2876 8.20306 25.221 8.22408ZM11.9326 22.4891C11.9327 23.1846 11.7271 23.8655 11.3404 24.4507C10.9536 25.0358 10.4019 25.5006 9.75108 25.7897C9.10024 26.0787 8.37763 26.1799 7.66932 26.0811C6.961 25.9823 6.29682 25.6877 5.75588 25.2324C5.21494 24.7771 4.82002 24.1803 4.61816 23.513C4.4163 22.8458 4.416 22.1361 4.6173 21.4687C4.8186 20.8013 5.21301 20.2041 5.75358 19.7484C6.29414 19.2927 6.95807 18.9976 7.6663 18.8982V14.1955C7.6663 14.058 7.72249 13.9262 7.8225 13.8289C7.92251 13.7317 8.05816 13.6771 8.19959 13.6771C8.34103 13.6771 8.47668 13.7317 8.57669 13.8289C8.6767 13.9262 8.73289 14.058 8.73289 14.1955V18.8982C9.62129 19.0228 10.4337 19.4544 11.0214 20.1139C11.609 20.7734 11.9326 21.6166 11.9326 22.4891ZM10.8661 22.4891C10.8661 21.9765 10.7097 21.4754 10.4167 21.0492C10.1237 20.623 9.70724 20.2908 9.22001 20.0946C8.73277 19.8985 8.19664 19.8471 7.67939 19.9471C7.16215 20.0471 6.68703 20.294 6.31412 20.6564C5.94121 21.0189 5.68725 21.4807 5.58436 21.9835C5.48148 22.4862 5.53428 23.0073 5.7361 23.4809C5.93792 23.9545 6.27969 24.3593 6.71818 24.644C7.15668 24.9288 7.67222 25.0808 8.19959 25.0808C8.90679 25.0808 9.58501 24.8078 10.0851 24.3217C10.5851 23.8357 10.8661 23.1765 10.8661 22.4891ZM16.199 22.4891C16.199 23.8144 15.8504 25.1178 15.1864 26.2754C14.5224 27.4329 13.565 28.4063 12.4051 29.1031C11.2452 29.7999 9.92132 30.1969 8.55915 30.2565C7.19698 30.3161 5.84175 30.0362 4.62216 29.4435C3.40256 28.8508 2.35908 27.9649 1.59081 26.8699C0.822538 25.775 0.354975 24.5073 0.232521 23.1873C0.110066 21.8674 0.336785 20.5389 0.891148 19.328C1.44551 18.1171 2.30912 17.0641 3.39996 16.2689V4.86517C3.39996 3.62789 3.90563 2.44129 4.80574 1.5664C5.70584 0.691518 6.92665 0.200012 8.19959 0.200012C9.47254 0.200012 10.6933 0.691518 11.5935 1.5664C12.4936 2.44129 12.9992 3.62789 12.9992 4.86517V16.2689C13.9923 16.9935 14.7983 17.9327 15.3536 19.0123C15.909 20.0918 16.1984 21.2821 16.199 22.4891ZM15.1324 22.4891C15.1318 21.4027 14.8613 20.3326 14.3439 19.3697C13.8265 18.4067 13.0775 17.5795 12.1606 16.9583C12.0895 16.91 12.0315 16.8456 11.9918 16.7706C11.9521 16.6956 11.9318 16.6124 11.9326 16.5281V4.86517C11.9326 3.90284 11.5393 2.97993 10.8393 2.29946C10.1392 1.619 9.18966 1.23671 8.19959 1.23671C7.20953 1.23671 6.26001 1.619 5.55993 2.29946C4.85985 2.97993 4.46654 3.90284 4.46654 4.86517V16.5281C4.46655 16.6115 4.44583 16.6937 4.40614 16.7677C4.36644 16.8417 4.30896 16.9053 4.23856 16.9531C3.26037 17.615 2.47427 18.5108 1.95614 19.5541C1.438 20.5974 1.20535 21.7529 1.28063 22.9091C1.35591 24.0653 1.73658 25.1831 2.3859 26.1545C3.03521 27.126 3.93124 27.9184 4.98747 28.4551C6.04371 28.9919 7.22447 29.2549 8.41577 29.2188C9.60707 29.1826 10.7687 28.8486 11.7884 28.2489C12.8082 27.6492 13.6517 26.8041 14.2374 25.7952C14.8232 24.7862 15.1314 23.6476 15.1324 22.4891Z" fill="#146A36"/>
<path d="M25.221 8.22408L21.8612 9.2841L23.9317 12.0625C23.9752 12.1174 24.0069 12.1802 24.025 12.2472C24.0431 12.3142 24.0471 12.3841 24.0369 12.4526C24.0268 12.5212 24.0026 12.5871 23.9657 12.6464C23.9289 12.7057 23.8802 12.7573 23.8225 12.798C23.7649 12.8387 23.6994 12.8678 23.63 12.8835C23.5606 12.8992 23.4886 12.9012 23.4184 12.8894C23.3481 12.8776 23.281 12.8523 23.2211 12.8148C23.1611 12.7774 23.1094 12.7287 23.0691 12.6715L20.9986 9.89446L18.9228 12.6715C18.8733 12.7378 18.8083 12.7917 18.7332 12.8289C18.6582 12.8661 18.5751 12.8854 18.4908 12.8853C18.3926 12.8852 18.2963 12.8586 18.2125 12.8086C18.1288 12.7586 18.0609 12.6871 18.0164 12.602C17.9719 12.5169 17.9524 12.4214 17.9601 12.3262C17.9678 12.231 18.0025 12.1397 18.0602 12.0625L20.136 9.2841L16.7763 8.22408C16.7097 8.20306 16.648 8.1695 16.5947 8.1253C16.5414 8.0811 16.4976 8.02714 16.4658 7.96649C16.434 7.90584 16.4148 7.8397 16.4092 7.77183C16.4037 7.70397 16.412 7.63571 16.4336 7.57096C16.4553 7.5062 16.4898 7.44623 16.5353 7.39444C16.5807 7.34266 16.6363 7.3001 16.6987 7.26917C16.761 7.23824 16.8291 7.21957 16.8989 7.2142C16.9687 7.20884 17.039 7.2169 17.1056 7.23792L20.4653 8.29794V4.86517C20.4653 4.72769 20.5215 4.59585 20.6215 4.49864C20.7215 4.40143 20.8572 4.34682 20.9986 4.34682C21.1401 4.34682 21.2757 4.40143 21.3757 4.49864C21.4757 4.59585 21.5319 4.72769 21.5319 4.86517V8.29794L24.8917 7.23792C24.9583 7.2169 25.0285 7.20884 25.0983 7.2142C25.1682 7.21957 25.2362 7.23824 25.2986 7.26917C25.361 7.3001 25.4165 7.34266 25.462 7.39444C25.5075 7.44623 25.542 7.5062 25.5636 7.57096C25.5852 7.63571 25.5935 7.70397 25.588 7.77183C25.5825 7.8397 25.5633 7.90584 25.5315 7.96649C25.4996 8.02714 25.4558 8.0811 25.4026 8.1253C25.3493 8.1695 25.2876 8.20306 25.221 8.22408ZM11.9326 22.4891C11.9327 23.1846 11.7271 23.8655 11.3404 24.4507C10.9536 25.0358 10.4019 25.5006 9.75108 25.7897C9.10024 26.0787 8.37763 26.1799 7.66932 26.0811C6.961 25.9823 6.29682 25.6877 5.75588 25.2324C5.21494 24.7771 4.82002 24.1803 4.61816 23.513C4.4163 22.8458 4.416 22.1361 4.6173 21.4687C4.8186 20.8013 5.21301 20.2041 5.75358 19.7484C6.29414 19.2927 6.95807 18.9976 7.6663 18.8982V14.1955C7.6663 14.058 7.72249 13.9262 7.8225 13.8289C7.92251 13.7317 8.05816 13.6771 8.19959 13.6771C8.34103 13.6771 8.47668 13.7317 8.57669 13.8289C8.6767 13.9262 8.73289 14.058 8.73289 14.1955V18.8982C9.62129 19.0228 10.4337 19.4544 11.0214 20.1139C11.609 20.7734 11.9326 21.6166 11.9326 22.4891ZM10.8661 22.4891C10.8661 21.9765 10.7097 21.4754 10.4167 21.0492C10.1237 20.623 9.70724 20.2908 9.22001 20.0946C8.73277 19.8985 8.19664 19.8471 7.67939 19.9471C7.16215 20.0471 6.68703 20.294 6.31412 20.6564C5.94121 21.0189 5.68725 21.4807 5.58436 21.9835C5.48148 22.4862 5.53428 23.0073 5.7361 23.4809C5.93792 23.9545 6.27969 24.3593 6.71818 24.644C7.15668 24.9288 7.67222 25.0808 8.19959 25.0808C8.90679 25.0808 9.58501 24.8078 10.0851 24.3217C10.5851 23.8357 10.8661 23.1765 10.8661 22.4891ZM16.199 22.4891C16.199 23.8144 15.8504 25.1178 15.1864 26.2754C14.5224 27.4329 13.565 28.4063 12.4051 29.1031C11.2452 29.7999 9.92132 30.1969 8.55915 30.2565C7.19698 30.3161 5.84175 30.0362 4.62216 29.4435C3.40256 28.8508 2.35908 27.9649 1.59081 26.8699C0.822538 25.775 0.354975 24.5073 0.232521 23.1873C0.110066 21.8674 0.336785 20.5389 0.891148 19.328C1.44551 18.1171 2.30912 17.0641 3.39996 16.2689V4.86517C3.39996 3.62789 3.90563 2.44129 4.80574 1.5664C5.70584 0.691518 6.92665 0.200012 8.19959 0.200012C9.47254 0.200012 10.6933 0.691518 11.5935 1.5664C12.4936 2.44129 12.9992 3.62789 12.9992 4.86517V16.2689C13.9923 16.9935 14.7983 17.9327 15.3536 19.0123C15.909 20.0918 16.1984 21.2821 16.199 22.4891ZM15.1324 22.4891C15.1318 21.4027 14.8613 20.3326 14.3439 19.3697C13.8265 18.4067 13.0775 17.5795 12.1606 16.9583C12.0895 16.91 12.0315 16.8456 11.9918 16.7706C11.9521 16.6956 11.9318 16.6124 11.9326 16.5281V4.86517C11.9326 3.90284 11.5393 2.97993 10.8393 2.29946C10.1392 1.619 9.18966 1.23671 8.19959 1.23671C7.20953 1.23671 6.26001 1.619 5.55993 2.29946C4.85985 2.97993 4.46654 3.90284 4.46654 4.86517V16.5281C4.46655 16.6115 4.44583 16.6937 4.40614 16.7677C4.36644 16.8417 4.30896 16.9053 4.23856 16.9531C3.26037 17.615 2.47427 18.5108 1.95614 19.5541C1.438 20.5974 1.20535 21.7529 1.28063 22.9091C1.35591 24.0653 1.73658 25.1831 2.3859 26.1545C3.03521 27.126 3.93124 27.9184 4.98747 28.4551C6.04371 28.9919 7.22447 29.2549 8.41577 29.2188C9.60707 29.1826 10.7687 28.8486 11.7884 28.2489C12.8082 27.6492 13.6517 26.8041 14.2374 25.7952C14.8232 24.7862 15.1314 23.6476 15.1324 22.4891Z" stroke="#146A36" stroke-width="0.4" mask="url(#path-1-outside-1_283_657)"/>
</svg>
