<svg width="27" height="39" viewBox="0 0 27 39" fill="none" xmlns="http://www.w3.org/2000/svg">
<path fill-rule="evenodd" clip-rule="evenodd" d="M19.2876 0C16.6249 0 14.4673 2.31188 14.4673 5.16462V24.8301C13.22 25.8288 12.3137 27.1903 11.8735 28.7264C11.4334 30.2625 11.4813 31.8974 12.0105 33.4052C12.5397 34.913 13.5241 36.2191 14.8277 37.1432C16.1313 38.0672 17.6897 38.5635 19.2876 38.5635C20.8855 38.5635 22.4439 38.0672 23.7475 37.1432C25.0511 36.2191 26.0355 34.913 26.5647 33.4052C27.0939 31.8974 27.1418 30.2625 26.7017 28.7264C26.2615 27.1903 25.3552 25.8288 24.1079 24.8301V5.16462C24.1079 2.31188 21.9484 0 19.2876 0ZM22.1798 17.4124C20.7751 17.4355 19.4592 17.0942 18.3062 16.7954C17.6024 16.6122 16.9604 16.4464 16.3954 16.3885V5.16462C16.3954 3.45336 17.6902 2.06604 19.2876 2.06604C20.885 2.06604 22.1798 3.45336 22.1798 5.16462V5.76139H20.2516C19.996 5.76139 19.7508 5.86296 19.57 6.04377C19.3892 6.22457 19.2876 6.46979 19.2876 6.72548C19.2876 6.98117 19.3892 7.22639 19.57 7.40719C19.7508 7.58799 19.996 7.68957 20.2516 7.68957H22.1798V9.61774H20.2516C19.996 9.61774 19.7508 9.71932 19.57 9.90012C19.3892 10.0809 19.2876 10.3261 19.2876 10.5818C19.2876 10.8375 19.3892 11.0827 19.57 11.2635C19.7508 11.4443 19.996 11.5459 20.2516 11.5459H22.1798V13.4741H20.2516C19.996 13.4741 19.7508 13.5757 19.57 13.7565C19.3892 13.9373 19.2876 14.1825 19.2876 14.4382C19.2876 14.6939 19.3892 14.9391 19.57 15.1199C19.7508 15.3007 19.996 15.4023 20.2516 15.4023H22.1798V17.4124Z" fill="#146A36"/>
<path d="M6.10798 7.71336C6.10798 7.45766 6.00641 7.21244 5.82561 7.03164C5.64482 6.85084 5.39961 6.74927 5.14393 6.74927C4.88825 6.74927 4.64304 6.85084 4.46224 7.03164C4.28145 7.21244 4.17988 7.45766 4.17988 7.71336V10.864L1.45161 9.28867C1.34193 9.22437 1.22062 9.1824 1.09465 9.16518C0.968684 9.14795 0.840554 9.15582 0.717638 9.18831C0.594722 9.22081 0.479448 9.2773 0.378453 9.35453C0.277458 9.43177 0.192736 9.52821 0.129165 9.63832C0.0655941 9.74843 0.0244293 9.87003 0.00804177 9.99611C-0.00834575 10.1222 0.000367397 10.2503 0.033679 10.373C0.0669905 10.4957 0.124243 10.6106 0.20214 10.7111C0.280037 10.8115 0.377039 10.8956 0.487564 10.9585L3.21583 12.5338L0.487564 14.1091C0.377039 14.172 0.280037 14.256 0.20214 14.3565C0.124243 14.457 0.0669905 14.5719 0.033679 14.6946C0.000367397 14.8173 -0.00834575 14.9454 0.00804177 15.0715C0.0244293 15.1976 0.0655941 15.3192 0.129165 15.4293C0.192736 15.5394 0.277458 15.6358 0.378453 15.7131C0.479448 15.7903 0.594722 15.8468 0.717638 15.8793C0.840554 15.9118 0.968684 15.9196 1.09465 15.9024C1.22062 15.8852 1.34193 15.8432 1.45161 15.7789L4.17988 14.2036V17.3542C4.17988 17.4808 4.20481 17.6062 4.25326 17.7232C4.30171 17.8401 4.37272 17.9464 4.46224 18.0359C4.55176 18.1255 4.65804 18.1965 4.775 18.2449C4.89197 18.2934 5.01733 18.3183 5.14393 18.3183C5.27053 18.3183 5.39589 18.2934 5.51285 18.2449C5.62982 18.1965 5.73609 18.1255 5.82561 18.0359C5.91514 17.9464 5.98615 17.8401 6.03459 17.7232C6.08304 17.6062 6.10798 17.4808 6.10798 17.3542V14.2036L8.83624 15.7789C8.94592 15.8432 9.06724 15.8852 9.19321 15.9024C9.31917 15.9196 9.4473 15.9118 9.57022 15.8793C9.69313 15.8468 9.80841 15.7903 9.9094 15.7131C10.0104 15.6358 10.0951 15.5394 10.1587 15.4293C10.2223 15.3192 10.2634 15.1976 10.2798 15.0715C10.2962 14.9454 10.2875 14.8173 10.2542 14.6946C10.2209 14.5719 10.1636 14.457 10.0857 14.3565C10.0078 14.256 9.91082 14.172 9.80029 14.1091L7.07203 12.5338L9.80029 10.9585C10.0199 10.8297 10.1797 10.6193 10.2448 10.3732C10.3098 10.1271 10.2749 9.86519 10.1476 9.64472C10.0203 9.42424 9.811 9.26307 9.56532 9.19636C9.31964 9.12966 9.05755 9.16284 8.83624 9.28867L6.10798 10.864V7.71336Z" fill="#146A36"/>
</svg>
