<svg width="27" height="27" viewBox="0 0 27 27" fill="none" xmlns="http://www.w3.org/2000/svg">
<path d="M24.246 8.802C24.273 8.5725 24.3 8.3295 24.3 8.1C24.3 4.887 21.411 2.3085 18.198 2.754C17.2665 1.0935 15.4845 0 13.5 0C11.5155 0 9.7335 1.08 8.802 2.754C5.589 2.322 2.7 4.9005 2.7 8.1C2.7 8.3295 2.7135 8.5725 2.754 8.802C1.0935 9.7335 0 11.5155 0 13.5C0 15.4845 1.08 17.2665 2.754 18.198C2.727 18.4275 2.7 18.6705 2.7 18.9C2.7 22.113 5.589 24.6915 8.802 24.246C9.7335 25.9065 11.5155 27 13.5 27C15.4845 27 17.2665 25.92 18.198 24.246C21.411 24.678 24.3 22.0995 24.3 18.9C24.3 18.6705 24.2865 18.4275 24.246 18.198C25.9065 17.2665 27 15.4845 27 13.5C27 11.5155 25.92 9.7335 24.246 8.802ZM12.1365 18.1035L8.4915 14.4585L10.395 12.555L12.15 14.31L16.6455 9.855L18.549 11.772L12.1365 18.117V18.1035Z" fill="#146A36"/>
</svg>
