<svg width="29" height="28" viewBox="0 0 29 28" fill="none" xmlns="http://www.w3.org/2000/svg">
<path d="M20.8242 10.4638C20.9263 10.3431 21.0024 10.2038 21.048 10.0541C21.0937 9.90439 21.1078 9.74736 21.0897 9.59227C21.0716 9.43718 21.0216 9.28718 20.9427 9.15113C20.8637 9.01508 20.7574 8.89575 20.6301 8.80018C20.371 8.60381 20.043 8.51322 19.716 8.54771C19.389 8.5822 19.0888 8.73905 18.8794 8.98484L13.038 15.9265L9.91431 13.6012C9.65914 13.4 9.33296 13.3033 9.00528 13.3318C8.6776 13.3602 8.37433 13.5115 8.16012 13.7534C8.05546 13.872 7.97642 14.0098 7.92765 14.1585C7.87889 14.3073 7.86139 14.464 7.8762 14.6194C7.891 14.7748 7.93781 14.9258 8.01386 15.0633C8.0899 15.2009 8.19364 15.3223 8.31895 15.4204L12.4132 18.5151C12.6718 18.7189 13.003 18.8152 13.3347 18.7832C13.6663 18.7512 13.9714 18.5933 14.1833 18.3441L20.8189 10.445L20.8242 10.4638Z" fill="#146A36"/>
<path fill-rule="evenodd" clip-rule="evenodd" d="M11.4872 1.21931C12.4296 0.549081 12.9008 0.213966 13.4108 0.0840232C13.8666 -0.0280077 14.344 -0.0280077 14.7997 0.0840232C15.315 0.213966 15.788 0.549081 16.7233 1.21931L17.9181 2.06907C18.2446 2.3016 18.4087 2.41786 18.5852 2.50848C18.7428 2.58827 18.9069 2.65438 19.0775 2.70681C19.2699 2.76324 19.4693 2.7923 19.8699 2.85215L21.3347 3.06929C22.4906 3.24026 23.0677 3.32746 23.523 3.58906C23.9289 3.81988 24.2678 4.14815 24.506 4.5414C24.776 4.98594 24.8642 5.54675 25.0425 6.66152L25.2666 8.08063C25.3284 8.46875 25.3584 8.66366 25.4166 8.85003C25.4696 9.01531 25.5378 9.17375 25.6213 9.32535C25.7166 9.49632 25.8349 9.65533 26.0749 9.97164L26.952 11.1292C27.6438 12.0422 27.9897 12.4987 28.1238 12.9928C28.2394 13.4343 28.2394 13.8969 28.1238 14.3384C27.9914 14.8377 27.6438 15.2959 26.952 16.2021L26.0749 17.3596C25.907 17.5635 25.7553 17.7796 25.6213 18.0059C25.5376 18.1588 25.4691 18.3191 25.4166 18.4846C25.3584 18.6693 25.3284 18.8625 25.2666 19.2506L25.0425 20.6697C24.866 21.7896 24.776 22.3487 24.506 22.7898C24.2678 23.1831 23.9289 23.5113 23.523 23.7422C23.0642 24.0037 22.4853 24.0892 21.3347 24.2619L19.8699 24.4791C19.6023 24.5085 19.3374 24.5576 19.0775 24.6261C18.9069 24.6763 18.7428 24.7424 18.5852 24.8244C18.4087 24.9151 18.2446 25.0296 17.9181 25.2638L16.7233 26.1136C15.7809 26.7838 15.3097 27.119 14.7997 27.2489C14.344 27.3609 13.8666 27.3609 13.4108 27.2489C12.8955 27.119 12.4225 26.7838 11.4872 26.1136L10.2925 25.2638C10.0819 25.1012 9.85894 24.9543 9.62537 24.8244C9.46807 24.7434 9.30321 24.677 9.13299 24.6261C8.87311 24.5576 8.60821 24.5085 8.34061 24.4791L6.87584 24.2619C5.71991 24.0909 5.14106 24.0055 4.68751 23.7422C4.28305 23.509 3.94515 23.1817 3.70453 22.7898C3.43452 22.3453 3.34628 21.7845 3.16803 20.6697L2.94391 19.2506C2.88214 18.8625 2.85214 18.6693 2.7939 18.4829C2.74241 18.3176 2.67382 18.1578 2.58919 18.0059C2.45519 17.7796 2.30356 17.5635 2.13564 17.3596L1.25854 16.2021C0.566747 15.289 0.22085 14.8342 0.0867264 14.3384C-0.0289088 13.8969 -0.0289088 13.4343 0.0867264 12.9928C0.219085 12.4936 0.566747 12.0353 1.25854 11.1292L2.13564 9.97164C2.37565 9.65533 2.49565 9.49632 2.58919 9.32535C2.67154 9.17375 2.73978 9.01474 2.7939 8.84832C2.85214 8.66195 2.88214 8.46875 2.94391 8.08063L3.16803 6.66152C3.34451 5.54162 3.43452 4.98081 3.70453 4.5414C3.94277 4.14815 4.28161 3.8233 4.68751 3.58906C5.14635 3.32746 5.7252 3.24197 6.87584 3.06929L8.34061 2.85215C8.74121 2.79401 8.9424 2.76324 9.13299 2.70681C9.30359 2.65552 9.46771 2.58941 9.62537 2.50848C9.80184 2.41786 9.96597 2.3016 10.2925 2.06907L11.4872 1.21931ZM15.6874 2.59739L16.9421 3.48989C17.2086 3.67968 17.4716 3.86775 17.7645 4.01821C18.0234 4.15157 18.2916 4.25929 18.5693 4.34136C18.8867 4.4264 19.2098 4.48981 19.5364 4.53114L21.0753 4.76025C22.383 4.95517 22.5453 5.00817 22.6406 5.06288C22.79 5.14951 22.9089 5.26464 22.9971 5.40826C23.0536 5.50058 23.1101 5.65788 23.3095 6.92483L23.546 8.41575C23.5886 8.73211 23.6541 9.04519 23.7418 9.3527C23.8277 9.62399 23.9389 9.88387 24.0754 10.1324C24.2307 10.4162 24.4248 10.6709 24.6207 10.9291L25.5419 12.1448C26.3255 13.1775 26.3996 13.3262 26.4278 13.4322C26.4685 13.5928 26.4685 13.7606 26.4278 13.9212C26.3996 14.0255 26.3255 14.1743 25.5419 15.2087L24.6207 16.4243C24.4248 16.6825 24.2307 16.9373 24.0754 17.2211C23.9389 17.4701 23.8273 17.7312 23.7418 18.0007C23.6541 18.3082 23.5886 18.6213 23.546 18.9377L23.3095 20.4286C23.1083 21.6956 23.0536 21.8529 22.9971 21.9452C22.9087 22.0864 22.7864 22.2049 22.6406 22.2906C22.5453 22.3453 22.383 22.4 21.0753 22.5932L19.5364 22.8223C19.2098 22.8636 18.8867 22.927 18.5693 23.0121C18.2911 23.0948 18.0216 23.203 17.7645 23.3352C17.4716 23.4857 17.2086 23.6738 16.9421 23.8635L15.6874 24.756C14.6215 25.5152 14.4679 25.587 14.3585 25.6144C14.1927 25.6538 14.0196 25.6538 13.8538 25.6144C13.7461 25.587 13.5926 25.5152 12.5249 24.756L11.2701 23.8635C11.0091 23.6691 10.7343 23.4925 10.4478 23.3352C10.1907 23.203 9.92123 23.0948 9.64301 23.0121C9.32561 22.927 9.00246 22.8636 8.67591 22.8223L7.13703 22.5932C5.82932 22.3983 5.66696 22.3453 5.57166 22.2906C5.42587 22.2049 5.30357 22.0864 5.21518 21.9452C5.15871 21.8529 5.10223 21.6956 4.90281 20.4286L4.66633 18.9377C4.62367 18.6213 4.55822 18.3082 4.47044 18.0007C4.38503 17.7312 4.27335 17.4701 4.1369 17.2211C3.9816 16.9373 3.78747 16.6825 3.59158 16.4243L2.67037 15.2087C1.8868 14.176 1.81268 14.0272 1.78445 13.9212C1.74376 13.7606 1.74376 13.5928 1.78445 13.4322C1.81268 13.3279 1.8868 13.1792 2.67037 12.1448L3.59158 10.9291C3.78747 10.6709 3.9816 10.4162 4.1369 10.1324C4.27337 9.88159 4.38456 9.62171 4.47044 9.3527C4.55822 9.04519 4.62367 8.73211 4.66633 8.41575L4.90281 6.92483C5.104 5.65788 5.15871 5.50058 5.21518 5.40826C5.30357 5.267 5.42587 5.14852 5.57166 5.06288C5.66696 5.00817 5.82932 4.95346 7.13703 4.76025L8.67591 4.53114C9.00246 4.48981 9.32561 4.4264 9.64301 4.34136C9.92303 4.25815 10.1913 4.15043 10.4478 4.01821C10.7407 3.86775 11.0037 3.67968 11.2701 3.48989L12.5249 2.59739C13.5908 1.83825 13.7444 1.76644 13.8538 1.73908C14.0196 1.69967 14.1927 1.69967 14.3585 1.73908C14.4662 1.76644 14.6197 1.83825 15.6874 2.59739Z" fill="#146A36"/>
</svg>
