<svg width="40" height="40" viewBox="0 0 40 40" fill="none" xmlns="http://www.w3.org/2000/svg">
<path d="M19.9998 40.0004C8.97184 40.0004 0 31.0285 0 20.0002C0 8.97184 8.9722 0 19.9998 0C31.0274 0 40 8.97184 40 20.0002C40 31.0285 31.0282 40.0004 19.9998 40.0004Z" fill="#146A36"/>
<path d="M19.999 1.94458C10.0272 1.94458 1.94336 10.0284 1.94336 20.0002C1.94336 29.972 10.0272 38.0558 19.999 38.0558C29.9708 38.0558 38.0546 29.972 38.0546 20.0002C38.0546 10.0284 29.9708 1.94458 19.999 1.94458ZM19.999 35.8316C16.0041 35.8316 12.355 34.3513 9.56947 31.91L12.6271 28.8521C12.1336 28.3586 11.6402 27.8652 11.1468 27.3718L8.08882 30.4297C5.64756 27.6442 4.16726 23.9954 4.16726 20.0002C4.16726 11.2567 11.2551 4.16885 19.9986 4.16885C23.9935 4.16885 27.6426 5.64914 30.4281 8.0904L26.2816 12.237L27.7619 13.7173L31.9084 9.57069C34.3497 12.3562 35.83 16.005 35.83 20.0002C35.83 28.7438 28.7425 35.8316 19.999 35.8316Z" fill="white"/>
<path d="M27.0429 32.6307C27.0203 32.6209 26.998 32.6099 26.9754 32.6001L27.0305 32.545C26.0079 30.5239 25.1661 28.3955 24.5203 26.1844C25.0921 25.9845 25.5877 25.6155 25.9178 25.0874C26.3044 24.4689 26.3974 23.7417 26.2394 23.0426C25.5418 23.2074 24.9295 23.61 24.5429 24.2285C24.3802 24.4893 24.2723 24.7694 24.2103 25.0582C24.1038 24.6458 24.0039 24.2307 23.9112 23.8128C24.8303 23.5765 25.6381 23.0418 26.1614 22.226C26.7095 21.3719 26.8514 20.3617 26.6435 19.3865C25.6702 19.6042 24.8113 20.1538 24.2632 21.0083C23.9145 21.5517 23.7318 22.1582 23.6972 22.7789C23.532 21.9189 23.3923 21.0502 23.2872 20.1702C24.191 20.1141 25.0436 19.7559 25.6767 19.0827C26.3343 18.3832 26.6413 17.4686 26.6169 16.5255C25.6742 16.5594 24.7799 16.9219 24.1224 17.6214C23.6162 18.1597 23.3201 18.826 23.2205 19.5338C23.1476 18.822 23.0947 18.1039 23.0622 17.3807C23.9306 17.2873 24.7347 16.9007 25.3073 16.2184C25.8919 15.5218 26.133 14.6404 26.0593 13.7498C25.1698 13.8322 24.3438 14.2228 23.7592 14.9197C23.3547 15.4019 23.1184 15.973 23.0334 16.5736C23.0265 16.276 23.0199 15.9784 23.0199 15.6794C23.0199 15.2013 23.032 14.7261 23.0502 14.2527C23.8412 14.1954 24.5819 13.8665 25.1176 13.2618C25.6589 12.651 25.8966 11.8665 25.8521 11.066C25.052 11.1185 24.3018 11.4489 23.7606 12.0594C23.4178 12.4464 23.1975 12.9033 23.0929 13.3898C23.1271 12.8282 23.1727 12.2691 23.2318 11.7144C23.9419 11.5839 24.5797 11.213 25.005 10.6127C25.4349 10.0058 25.5728 9.27098 25.4535 8.54998C24.7336 8.67653 24.0863 9.04998 23.6563 9.65683C23.5775 9.76842 23.5115 9.88513 23.4521 10.0044C23.5017 9.6798 23.5553 9.35669 23.6133 9.03503C24.2136 8.93109 24.7602 8.63569 25.1395 8.14189C25.5389 7.62184 25.6847 6.97925 25.6041 6.3403C24.9659 6.42746 24.3832 6.7349 23.9838 7.25495C23.9554 7.29179 23.9313 7.33045 23.9058 7.36874C23.9207 7.16998 23.9131 6.96758 23.8748 6.76481C23.753 6.12039 23.3715 5.5832 22.8409 5.21777C22.4805 5.75169 22.3212 6.39099 22.443 7.03541C22.5633 7.6718 22.9375 8.20279 23.4576 8.56785C23.3883 8.8917 23.3234 9.21701 23.2628 9.54377C23.2384 9.39863 23.2045 9.25348 23.1541 9.11088C22.9076 8.40885 22.3883 7.87165 21.7311 7.55218C21.4178 8.21264 21.3482 8.95662 21.5947 9.65865C21.8376 10.3505 22.3467 10.8815 22.9904 11.2024C22.943 11.5419 22.9003 11.8829 22.862 12.2254C22.8193 11.9952 22.7522 11.7677 22.6512 11.5474C22.3113 10.8056 21.6895 10.271 20.9397 9.98797C20.664 10.7411 20.6633 11.5609 21.0032 12.3027C21.3431 13.0445 21.9649 13.5791 22.7147 13.8621C22.7169 13.8559 22.7183 13.8493 22.7205 13.8432C22.6844 14.3745 22.6574 14.9084 22.6439 15.446C22.5586 15.051 22.4043 14.6703 22.1695 14.3213C21.6614 13.5671 20.881 13.0919 20.005 12.9165C19.8383 13.7943 19.9857 14.6962 20.4937 15.4504C20.9977 16.1983 21.7698 16.6714 22.6374 16.8501C22.645 17.5091 22.6684 18.164 22.7096 18.8143C22.5597 18.1064 22.2129 17.4551 21.6611 16.9507C20.9525 16.303 20.0334 16.0091 19.0907 16.0466C19.1378 16.989 19.513 17.8778 20.2216 18.5255C20.9211 19.1648 21.8252 19.458 22.7548 19.4295C22.8117 20.137 22.8883 20.8387 22.9838 21.5345C22.7832 20.978 22.4568 20.4711 21.9999 20.0597C21.2453 19.3807 20.2716 19.0772 19.2756 19.1246C19.3329 20.1203 19.7366 21.0568 20.4911 21.7359C21.2311 22.4018 22.1819 22.7041 23.1574 22.6709C23.2398 23.1582 23.3296 23.6428 23.4302 24.1231C23.2814 23.9047 23.1089 23.6997 22.9069 23.5156C22.1855 22.8577 21.2508 22.5597 20.2924 22.5991C20.3412 23.5571 20.7238 24.4605 21.4452 25.1188C22.1224 25.7366 22.9882 26.033 23.885 26.0349C24.455 28.1785 25.211 30.246 26.1337 32.2204C24.378 31.4028 22.6775 30.4407 21.0473 29.3416C21.3595 28.8226 21.505 28.2219 21.4211 27.6049C21.323 26.8821 20.9302 26.2632 20.362 25.8263C19.931 26.3988 19.7169 27.0998 19.815 27.8226C19.8562 28.1271 19.9525 28.4116 20.0896 28.6734C19.7439 28.4243 19.4022 28.1687 19.0637 27.9065C19.6195 27.1373 19.8996 26.2099 19.7807 25.2482C19.6564 24.2409 19.1203 23.3733 18.3369 22.7559C17.7275 23.5451 17.4179 24.517 17.5422 25.5243C17.6214 26.1651 17.8683 26.7486 18.2381 27.2478C17.5616 26.6921 16.8989 26.1129 16.2559 25.5035C16.9153 24.8828 17.3424 24.0626 17.3989 23.1399C17.458 22.1815 17.1093 21.2818 16.4879 20.5721C15.7844 21.2005 15.3282 22.0506 15.2694 23.009C15.2242 23.7464 15.4219 24.4481 15.7979 25.0564C15.287 24.5553 14.7877 24.0367 14.3005 23.5013C14.9088 22.8748 15.2804 22.0634 15.2848 21.1728C15.2891 20.2636 14.9117 19.4314 14.2859 18.7935C13.6542 19.4255 13.2684 20.2537 13.264 21.1629C13.2611 21.792 13.4442 22.3825 13.7625 22.8989C13.5671 22.6746 13.3719 22.4496 13.1808 22.2194C12.8752 21.8518 12.5813 21.4784 12.2925 21.1027C12.8643 20.5532 13.2239 19.8267 13.2494 19.0196C13.2753 18.2042 12.9569 17.4485 12.411 16.861C11.8289 17.4124 11.4631 18.1462 11.4369 18.9616C11.4205 19.4784 11.543 19.9707 11.7735 20.4117C11.4409 19.9576 11.1189 19.4988 10.8096 19.0342C11.2724 18.4802 11.5259 17.787 11.4697 17.0536C11.4128 16.3118 11.0492 15.659 10.4967 15.1805C10.0237 15.7377 9.76476 16.4387 9.82165 17.1805C9.83223 17.3169 9.8563 17.4485 9.88657 17.5783C9.71808 17.2983 9.5536 17.0167 9.3935 16.7337C9.78992 16.2698 10.0186 15.6903 9.99451 15.0674C9.96935 14.4121 9.67103 13.8246 9.20058 13.3847C8.76513 13.8596 8.51349 14.4686 8.53866 15.1236C8.54048 15.1699 8.54668 15.2155 8.55106 15.2611C8.43545 15.0984 8.30051 14.9478 8.14114 14.8162C7.63567 14.3982 6.99892 14.229 6.35742 14.2866C6.42161 14.9278 6.70753 15.5211 7.21299 15.939C7.71226 16.3515 8.33917 16.5207 8.97301 16.4697C9.12691 16.7629 9.28482 17.0546 9.44711 17.3449C9.33551 17.249 9.21699 17.1589 9.08716 17.0813C8.44931 16.6991 7.70606 16.6177 6.99637 16.7917C7.17762 17.4996 7.59957 18.1166 8.23742 18.4988C8.86652 18.8759 9.597 18.9587 10.2976 18.7946C10.4781 19.086 10.663 19.3756 10.8526 19.6633C10.6728 19.5134 10.4755 19.3814 10.2571 19.2764C9.52151 18.923 8.70167 18.9088 7.94384 19.1706C8.21298 19.9259 8.73596 20.5572 9.47154 20.9106C10.2071 21.2639 11.027 21.2778 11.7848 21.0163C11.7826 21.0101 11.7797 21.0043 11.7775 20.9981C12.0893 21.4299 12.4099 21.8577 12.7425 22.2796C12.4245 22.0305 12.0623 21.8361 11.659 21.718C10.7863 21.4627 9.88219 21.5955 9.09627 22.0203C9.52916 22.8019 10.2184 23.4014 11.0911 23.6571C11.9569 23.9105 12.853 23.7807 13.6345 23.3639C14.0616 23.8657 14.4981 24.3547 14.9452 24.8285C14.3774 24.3799 13.6947 24.1005 12.9478 24.0652C11.9887 24.0199 11.0941 24.381 10.3931 25.0123C11.0313 25.707 11.888 26.1508 12.8472 26.1964C13.7935 26.2413 14.6765 25.889 15.3734 25.273C15.869 25.781 16.3767 26.2716 16.8945 26.746C16.3847 26.4462 15.8099 26.2646 15.1951 26.2402C14.1808 26.2001 13.2381 26.5888 12.5022 27.2617C13.1823 27.9907 14.0915 28.4532 15.1057 28.4936C16.1002 28.533 17.0247 28.1581 17.7541 27.509C18.1286 27.831 18.5072 28.1464 18.892 28.4517C18.6378 28.3788 18.3741 28.3313 18.1013 28.3189C17.1257 28.2737 16.2166 28.6421 15.5043 29.2847C16.1542 29.9903 17.0255 30.4411 18.001 30.486C18.9168 30.5283 19.772 30.203 20.4631 29.6315C22.5247 31.0961 24.7081 32.332 26.9769 33.3339C26.9987 33.099 27.0203 32.8641 27.0421 32.6293L27.0429 32.6307ZM24.8518 24.4218C25.1042 24.0174 25.4834 23.7056 25.9411 23.5192C25.959 23.7836 25.9313 24.0422 25.8656 24.2887C25.8704 24.1939 25.874 24.0987 25.8678 24.0024C25.4101 24.1888 25.0308 24.5006 24.7785 24.905C24.6614 25.0929 24.5772 25.2971 24.5206 25.5104C24.54 25.1206 24.6487 24.7471 24.8518 24.4218ZM24.5702 21.2056C24.978 20.5703 25.6005 20.0969 26.3485 19.8467C26.3915 20.245 26.3678 20.6381 26.2814 21.0116C26.3 20.7877 26.3 20.5597 26.2752 20.3296C25.5272 20.5798 24.9047 21.0528 24.4969 21.6884C24.2964 22.001 24.1538 22.3445 24.0702 22.7063C24.1155 22.1677 24.2821 21.6545 24.5702 21.2056ZM24.3879 17.8716C24.8686 17.3603 25.5163 17.0317 26.2409 16.9255C26.227 17.0904 26.2001 17.2516 26.1632 17.4091C25.4404 17.516 24.7942 17.8442 24.3142 18.3544C23.9422 18.7501 23.6873 19.2395 23.5619 19.7785C23.5604 19.7785 23.5589 19.7793 23.5575 19.7793C23.6188 19.0495 23.9072 18.3829 24.3879 17.8716ZM24.0385 15.1546C24.4579 14.6546 25.04 14.3136 25.7052 14.1725C25.6979 14.3818 25.664 14.5838 25.6173 14.7815C25.6206 14.7388 25.63 14.6984 25.6315 14.6553C24.9663 14.7968 24.3842 15.1378 23.9648 15.6374C23.6746 15.9835 23.4794 16.3956 23.3751 16.8402C23.4222 16.2093 23.6454 15.6229 24.0382 15.1542L24.0385 15.1546ZM24.0334 12.3016C24.4058 11.8815 24.9112 11.5977 25.4834 11.4821C25.4703 11.6492 25.4386 11.8107 25.3974 11.9686C24.8303 12.0857 24.3295 12.3676 23.9601 12.7844C23.6946 13.0842 23.5101 13.4442 23.4072 13.8359C23.4029 13.8366 23.3988 13.8384 23.3945 13.8395C23.4404 13.2575 23.6611 12.7221 24.0334 12.3016ZM23.9535 9.86872C24.2373 9.46828 24.6461 9.17069 25.129 9.0084C25.1319 9.23415 25.1001 9.45296 25.0447 9.66376C25.048 9.60614 25.056 9.54961 25.0553 9.49126C24.5724 9.65391 24.1636 9.95114 23.8799 10.3516C23.7216 10.5748 23.6115 10.826 23.5418 11.0912C23.5666 10.6459 23.7023 10.2236 23.9535 9.86872ZM22.0349 8.64444C21.9441 8.94641 21.9189 9.25457 21.9463 9.55581C21.9441 9.54997 21.9408 9.5445 21.9386 9.53867C21.776 9.07551 21.7701 8.57004 21.9167 8.08208C22.3361 8.37092 22.6472 8.76953 22.8102 9.23269C22.8722 9.4092 22.904 9.59264 22.9207 9.77791C22.7563 9.32204 22.4488 8.92963 22.0349 8.64444ZM22.4382 12.2626C22.2041 11.752 21.8033 11.3337 21.2895 11.0565C21.2289 11.3315 21.2125 11.6076 21.2358 11.8771C21.094 11.4384 21.0674 10.965 21.1713 10.4942C21.6851 10.7713 22.0859 11.1896 22.3201 11.7002C22.4412 11.9646 22.5119 12.2469 22.5371 12.5368C22.5072 12.4445 22.4787 12.3512 22.4382 12.2626ZM22.3627 19.0579C22.1928 18.5659 21.912 18.129 21.5334 17.7829C21.0159 17.3096 20.365 17.0364 19.6388 16.9821C19.5761 16.8005 19.5273 16.6119 19.4959 16.4172C20.2322 16.4671 20.8919 16.7421 21.4153 17.2209C21.9335 17.6947 22.2712 18.3376 22.3875 19.0608C22.3792 19.0601 22.3711 19.0583 22.3627 19.0579ZM22.7891 22.3044C22.6067 21.757 22.2953 21.2731 21.8741 20.8938C21.3121 20.3883 20.6057 20.1013 19.8197 20.055C19.7592 19.8734 19.7129 19.6848 19.6815 19.4908C20.4755 19.5331 21.1892 19.8216 21.7559 20.3314C22.3168 20.8365 22.6833 21.5276 22.8091 22.3062C22.8026 22.3059 22.796 22.3048 22.7891 22.3044ZM23.6326 25.6647C23.4597 25.156 23.1702 24.7045 22.7796 24.3482C22.2493 23.8646 21.5819 23.5859 20.838 23.5334C20.7763 23.3518 20.7286 23.1633 20.6972 22.9689C21.4503 23.0174 22.1257 23.2975 22.6614 23.7862C23.1917 24.2698 23.5371 24.9277 23.6552 25.6673C23.6476 25.6669 23.6403 25.6654 23.633 25.6651L23.6326 25.6647ZM24.2726 7.47778C24.5185 7.15722 24.8598 6.92162 25.257 6.79252C25.2482 6.96137 25.215 7.12439 25.1683 7.28158C24.7778 7.41177 24.4419 7.64445 24.1993 7.96064C24.0531 8.15137 23.9492 8.36873 23.8806 8.59958C23.8751 8.6014 23.8704 8.60396 23.8653 8.60578C23.8872 8.18857 24.0265 7.79835 24.2726 7.47778ZM23.0644 6.33994C22.9298 6.64482 22.8733 6.9683 22.8926 7.28814C22.8536 7.1842 22.8215 7.07808 22.8007 6.9683C22.7256 6.57152 22.7774 6.15978 22.9459 5.77758C23.242 6.07189 23.4408 6.43622 23.5155 6.833C23.5309 6.91324 23.5371 6.99456 23.5418 7.07552C23.4397 6.8031 23.2785 6.55255 23.0637 6.33957L23.0644 6.33994ZM21.9853 15.0882C21.621 14.5474 21.0776 14.1469 20.431 13.9365C20.4178 14.1225 20.4244 14.3056 20.443 14.4861C20.335 14.1331 20.2855 13.7589 20.3128 13.3742C20.9594 13.5849 21.5024 13.985 21.8671 14.5259C22.1319 14.9186 22.2891 15.3716 22.3387 15.8497C22.2563 15.5806 22.1432 15.322 21.9853 15.0882ZM20.4375 26.3835C20.7785 26.742 20.9955 27.1818 21.0597 27.6541C21.0856 27.8463 21.0794 28.0392 21.055 28.2307C20.9696 27.8131 20.7701 27.424 20.4641 27.1023C20.3259 27.3613 20.2439 27.637 20.2078 27.9163C20.1979 27.8686 20.183 27.8219 20.1764 27.7734C20.1126 27.3011 20.2049 26.819 20.4375 26.3828V26.3835ZM17.9047 25.4802C17.8121 24.7307 17.989 23.9689 18.4044 23.2989C18.9704 23.8482 19.3267 24.544 19.4189 25.2931C19.4452 25.505 19.4474 25.7176 19.4313 25.9287C19.3234 25.2118 18.9755 24.5466 18.4306 24.0177C18.1327 24.4984 17.9598 25.0265 17.919 25.5633C17.9146 25.5352 17.9084 25.5083 17.9047 25.4802ZM15.6338 23.032C15.6768 22.3314 15.9653 21.6651 16.4547 21.1203C16.8737 21.7205 17.0783 22.4178 17.0353 23.118C17.0338 23.141 17.0298 23.1636 17.028 23.1866C16.9536 22.7121 16.7694 22.253 16.4813 21.8394C16.008 22.3664 15.725 23.0075 15.6677 23.6826C15.6341 23.4678 15.6203 23.2501 15.6338 23.032ZM13.6294 21.1655C13.6323 20.513 13.8625 19.8788 14.2837 19.3449C14.6998 19.8828 14.9234 20.5196 14.9204 21.1717C14.9201 21.2537 14.9161 21.3354 14.9084 21.4164C14.8285 20.9332 14.6243 20.4704 14.3099 20.0637C13.9416 20.5305 13.7195 21.0739 13.6673 21.6396C13.6415 21.4831 13.6283 21.3248 13.6291 21.1651L13.6294 21.1655ZM12.3938 17.4172C12.7304 17.8945 12.9033 18.4474 12.8854 19.0087C12.8836 19.0707 12.8705 19.1312 12.8639 19.1925C12.7946 18.8201 12.6488 18.4602 12.4205 18.1363C12.0948 18.5408 11.903 19.0149 11.8501 19.5094C11.8173 19.3329 11.7965 19.1546 11.8023 18.974C11.8202 18.4131 12.0277 17.8719 12.3942 17.4172H12.3938ZM10.5405 15.7403C10.8712 16.128 11.0693 16.5929 11.1068 17.0824C11.1185 17.2337 11.1094 17.3843 11.0904 17.5342C11.012 17.144 10.8366 16.7753 10.5667 16.4595C10.3818 16.7589 10.2706 17.086 10.2286 17.4208C10.2111 17.3322 10.1929 17.2439 10.186 17.1535C10.1484 16.6641 10.2728 16.1739 10.5405 15.7403ZM9.81436 18.5028C9.61669 18.1717 9.34901 17.8956 9.02334 17.7005C8.66338 17.485 8.26222 17.3752 7.83042 17.3752C7.76551 17.3752 7.69986 17.3792 7.63422 17.3843C7.57623 17.2873 7.52262 17.1867 7.4774 17.0802C7.55435 17.0729 7.63093 17.0696 7.70715 17.0696C8.13859 17.0696 8.54012 17.179 8.8997 17.3949C9.32093 17.6473 9.64879 18.0324 9.84754 18.5014C9.83624 18.5025 9.82566 18.5021 9.81436 18.5028ZM11.225 20.7862C10.9668 20.4091 10.6269 20.106 10.2232 19.912C9.87854 19.7461 9.50655 19.6622 9.11816 19.6622C8.95514 19.6622 8.79175 19.6793 8.62874 19.7089C8.56346 19.6137 8.49963 19.5171 8.44566 19.4124C8.62837 19.3756 8.81218 19.3566 8.99489 19.3566C9.38329 19.3566 9.75528 19.4405 10.0999 19.6064C10.6061 19.8497 11.0171 20.2585 11.2852 20.7774C11.2651 20.7815 11.2454 20.7829 11.2254 20.7866L11.225 20.7862ZM14.7045 25.3179C14.2107 24.9681 13.6436 24.7643 13.0543 24.7366C13.0062 24.7344 12.9577 24.7333 12.9102 24.7333C12.3081 24.7333 11.733 24.9164 11.2148 25.2522C11.1211 25.1859 11.0292 25.1162 10.9413 25.0393C11.496 24.6377 12.1272 24.4277 12.787 24.4277C12.8348 24.4277 12.8829 24.4288 12.9314 24.4309C13.6327 24.4641 14.3034 24.7431 14.8552 25.2252C14.8067 25.2603 14.7541 25.2858 14.7045 25.3179ZM9.22319 13.9544C9.473 14.2892 9.61523 14.6787 9.63091 15.0827C9.63566 15.2049 9.62472 15.3264 9.60648 15.4467C9.54375 15.1717 9.42486 14.9088 9.24945 14.6739C9.09372 14.9201 8.99598 15.1892 8.95441 15.4664C8.92778 15.3497 8.90846 15.2312 8.90371 15.1108C8.8884 14.7071 8.99999 14.3074 9.22319 13.9544ZM8.03283 15.404C7.71992 15.1451 7.33808 14.9919 6.92014 14.9555C6.92525 14.9737 6.93364 14.9901 6.93947 15.0083C6.88295 14.8938 6.83298 14.7757 6.79688 14.6499C7.21482 14.6863 7.59665 14.8395 7.90956 15.0984C8.20715 15.3442 8.42123 15.6757 8.53975 16.0547C8.41576 15.8037 8.2469 15.5809 8.03283 15.404ZM13.0215 23.2373C12.6528 22.8285 12.1965 22.5262 11.6801 22.3748C11.4194 22.2986 11.1495 22.2599 10.8782 22.2599C10.5361 22.2599 10.1885 22.3256 9.85301 22.4459C9.7746 22.3588 9.6951 22.2734 9.62544 22.1764C9.99306 22.0305 10.3774 21.9543 10.7553 21.9543C11.027 21.9543 11.2965 21.993 11.5572 22.0692C12.1834 22.2526 12.7294 22.6487 13.1261 23.2012C13.0915 23.2151 13.0561 23.2249 13.0215 23.2373ZM17.1112 27.5487C16.5725 27.1603 15.9503 26.9371 15.3045 26.9116C15.2614 26.9101 15.2184 26.909 15.1757 26.909C14.5229 26.909 13.8789 27.1155 13.3143 27.4936C13.2239 27.4284 13.1349 27.3594 13.0492 27.285C13.6462 26.8434 14.3449 26.6034 15.0528 26.6034C15.0955 26.6034 15.1385 26.6042 15.1816 26.606C15.9357 26.6359 16.6589 26.9335 17.2534 27.4517C17.2071 27.486 17.1586 27.517 17.1112 27.5487ZM19.9025 29.5892C19.3963 29.2281 18.8139 29.0181 18.2082 28.99C18.1604 28.9878 18.1122 28.9867 18.0648 28.9867C17.4459 28.9867 16.8555 29.1763 16.3241 29.5239C16.2308 29.4575 16.1392 29.3875 16.0517 29.3109C16.6192 28.8977 17.2654 28.6811 17.9416 28.6811C17.989 28.6811 18.0371 28.6822 18.0849 28.6844C18.8022 28.7176 19.4882 29.0031 20.0517 29.4965C20.0035 29.5316 19.9518 29.5567 19.9025 29.5892Z" fill="white"/>
</svg>
