<svg width="412" height="46" viewBox="0 0 412 46" fill="none" xmlns="http://www.w3.org/2000/svg">
<path d="M426.698 3.97952C425.413 4.08423 421.126 4.01155 422.245 3.97279C422.22 3.86162 419.56 3.93672 416.734 3.84789C413.908 3.67076 410.914 4.16149 410.219 3.87454C408.318 3.69311 406.463 4.3195 404.609 4.01397C402.756 3.82582 400.902 4.02878 399.003 4.15395C395.658 4.14211 392.133 4.85544 388.796 4.16176C386.856 4.01236 385.298 4.19379 383.319 4.00401C381.059 3.92568 378.716 4.57361 376.474 4.31196C375.407 4.74185 374.996 4.23875 373.859 4.00375C373.093 3.96929 372.268 3.43362 371.508 4.02125C370.309 3.6355 369.317 3.68557 368.068 3.72756C366.73 3.89823 365.192 3.46995 363.831 3.73429C362.641 3.50845 361.295 3.69526 360.137 3.74156C359.887 3.68746 359.599 3.70899 359.505 3.62823C357.917 3.93187 356.32 3.14935 354.769 3.3114C352.229 3.25837 349.643 3.20158 347.098 3.3141C344.752 3.55017 342.375 3.20992 340.033 3.31921C338.107 3.67965 336.349 2.99807 334.473 3.06322C333.098 2.955 332.084 2.84276 331.063 3.19619C330.178 3.68584 329.484 3.24438 328.42 3.68288C326.513 3.81639 324.991 4.36768 322.825 4.15691C320.105 4.6156 317.896 5.02826 315.142 4.43579C313.622 4.44575 312.471 4.34211 311.036 4.29177C309.315 4.55127 308.495 4.65948 306.866 4.54023C303.934 4.8331 301.416 5.05707 298.38 4.98762C296.651 5.36474 295.186 5.7311 293.399 5.28076C292.789 5.40405 291.422 5.23581 290.914 5.25815C290.542 5.03419 290.554 4.92813 290.202 4.90982C289.091 4.65544 285.218 4.80376 284.023 4.88263C282.59 5.09664 281.379 5.05195 279.937 5.13809C278.424 5.35774 276.865 4.76419 275.352 5.13486C274.231 5.42935 271.923 5.16555 270.777 5.14536C269.553 5.24899 269.035 4.4051 267.579 4.84818C266.445 4.92947 265.302 4.83014 264.169 4.86218C262.211 4.78357 260.44 4.26324 258.467 4.71493C256.725 4.56903 254.982 4.35907 253.24 4.71493C251.863 4.29608 250.938 4.758 249.827 4.58169C249.08 4.50578 248.546 3.80321 247.729 4.1553C246.748 3.89042 245.558 3.85893 244.564 3.9841C244.281 3.92326 244.011 4.3806 243.631 3.86942C242.979 3.90146 242.033 3.88127 241.362 3.87481C238.763 3.64977 236.164 4.1623 233.564 3.87481C232.005 3.86108 230.402 3.85381 228.844 3.87158C227.853 4.15207 227.292 4.25786 226.374 4.08908C225.803 4.21398 225.033 3.75906 224.509 4.17899C224.062 4.27374 223.853 4.25624 223.475 4.44252C222.403 4.316 221.134 4.42663 219.831 4.57496C219.038 4.4689 218.397 4.42421 217.632 4.54427C217.599 4.42529 217.276 4.56015 217.112 4.42825C215.527 4.17495 213.183 4.38599 211.465 4.43552C208.665 4.58464 205.779 4.41425 202.987 4.42825C201.925 4.35745 200.99 4.41964 199.944 4.58088C199.133 4.69609 198.271 4.96043 197.455 4.57576C196.146 4.1203 194.759 4.74939 193.467 4.58626C191.638 4.67321 190.25 4.34884 188.328 4.29554C186.533 4.351 185.803 3.9631 184.222 4.00563C182.515 4.10227 180.778 4.18248 179.066 4.15664C177.583 4.39918 176.088 4.38761 174.604 4.1553C172.954 3.94883 171.304 4.15584 169.655 4.15207C167.991 4.32408 166.496 4.6471 164.835 4.30738C164.348 4.48801 163.869 4.45463 163.398 4.27105C163.258 4.11573 163.072 4.2059 162.842 4.09742C162.025 4.17172 161.442 4.12272 160.493 4.01263C159.088 4.16391 158.048 3.98248 156.73 3.90657C154.373 3.65811 151.622 3.86727 149.2 3.88853C147.024 3.85031 147.768 3.98517 146.499 3.47911C145.809 3.1262 145.97 3.53833 145.135 3.30737C143.932 3.46215 142.491 3.18516 141.264 3.31517C138.998 3.11248 136.734 3.35205 134.469 3.31517C131.831 3.03603 129.259 3.87185 126.71 3.63416C124.539 3.78463 122.461 4.29824 120.281 4.26782C118.722 4.40537 117.958 4.01775 116.622 4.63902C115.463 4.87456 114.222 5.58951 112.719 5.29314C110.477 5.26138 107.939 5.27995 105.661 5.27591C103.16 5.26488 99.6785 4.99219 97.4557 5.40862C94.9023 5.44146 92.3149 5.56609 89.6123 5.55586C87.3101 5.14536 84.9446 5.74456 82.4724 5.41589C81.446 5.66973 80.2552 4.965 79.242 5.42154C77.6348 4.91709 77.5233 4.68882 76.9926 4.72758C75.7736 4.05085 75.206 4.70497 74.1569 4.35019C73.1512 3.90415 72.4355 3.98625 71.4506 4.30092C70.7773 3.91249 70.274 3.97844 69.612 4.14803C68.8037 4.92382 67.7357 3.67238 66.9009 4.1553C65.018 3.82474 63.135 4.17872 61.2531 4.1553C59.8951 4.24009 57.0226 4.12515 55.828 4.14964C55.0405 3.87642 55.1548 3.36982 54.6665 3.72783C54.185 3.9526 53.709 3.0616 52.9375 3.4538C51.3436 3.15555 49.8015 2.43009 48.3275 3.16281C46.7684 2.97008 44.9006 3.25569 43.0054 2.8616C41.1102 3.30118 39.1885 3.19216 37.5218 2.95823C35.2432 2.77034 33.8598 3.93053 31.4651 3.59755C28.568 3.81155 25.5075 3.36901 22.633 3.58759C20.5527 4.22798 18.344 4.16849 16.2798 3.90657C15.4271 3.7141 14.9021 3.95745 14.1825 4.15503C13.0956 4.61399 12.0975 4.60322 10.7925 4.44198C8.78204 4.37064 6.58843 4.73082 4.57518 4.43256C2.51661 4.61614 1.48165 4.33404 -0.61375 4.86218C-1.37486 4.6506 -2.83947 5.10848 -3.50803 4.86595C-4.43439 4.93163 -4.78095 4.48505 -5.87445 4.56473C-7.32962 4.47105 -9.10679 4.45275 -10.5818 4.57523C-10.5818 4.43498 -9.50623 2.40587 -9.50623 2.19429C-8.4014 1.96629 -7.84615 1.95687 -6.26256 1.77194C-5.22288 1.79697 -4.18132 1.84085 -3.14164 1.77409C-1.59582 1.77759 0.731879 1.69737 2.0133 1.85646C2.57043 2.20748 2.74985 2.04462 3.44674 2.12538C4.26262 2.67236 4.98406 2.38891 5.86038 2.19509C7.28532 2.11515 8.13331 1.98648 9.34957 1.98406C10.4374 1.85027 10.7981 1.41904 12.0824 1.79939C12.5309 1.31352 12.0729 1.26506 12.0522 1.22307C13.3931 1.31486 14.903 0.901398 16.3336 1.1119C17.5773 1.15928 18.6254 0.932353 19.9276 0.9302C23.1515 0.416865 26.5188 0.801796 29.6369 1.04245C32.229 1.78109 35.3462 1.10086 37.9959 1.07367C40.6881 1.06721 42.8297 0.949313 45.5021 1.50114C47.8364 1.98756 50.7968 1.38512 53.0017 1.51783C53.7109 1.79832 53.6316 1.16466 54.0962 1.7469C54.6873 2.16279 55.4418 1.76306 56.0745 1.84381C56.6685 2.12619 57.2719 2.02659 57.864 1.94852C58.5882 1.36708 59.7573 1.84973 60.3588 2.04705C61.3409 2.21286 61.5118 2.75473 62.847 2.34099C64.0652 1.95768 65.2937 1.95795 66.5128 2.33131C67.7328 2.25647 67.8178 2.67721 68.7565 2.562C69.7376 2.87236 71.6677 2.91517 72.8406 3.01127C73.9709 2.99942 74.9256 2.89067 76.0408 3.17197C77.5432 3.1935 79.1542 3.24734 80.5026 3.69714C81.4195 3.51544 82.0853 4.31896 83.0182 4.27777C84.2808 4.46405 86.7983 4.16929 88.0787 4.29473C90.0948 4.23094 91.3592 4.58868 93.161 4.08019C93.7455 3.31167 94.3045 3.96525 94.8758 3.93538C95.4981 3.73429 95.8362 3.98356 96.4141 3.62231C97.5954 3.51894 99.5614 3.54102 100.917 3.34263C102.563 2.94881 104.444 3.27157 106.121 3.31464C107.056 3.25192 108.32 3.07371 109.236 3.33455C111.168 3.18677 111.8 2.98731 112.709 2.35661C113.229 2.22982 114.081 1.64757 114.939 1.6613C115.556 1.4831 116.833 1.79024 117.546 1.50168C119.028 1.44703 120.514 0.796684 121.981 1.09494C122.942 0.790762 124.604 1.25861 125.567 1.06721C126.789 1.22307 127.611 1.43653 128.967 1.36439C130.023 1.30813 131.473 1.41123 132.502 1.32994C133.052 1.01149 133.519 0.762227 134.114 1.09709C134.996 1.46103 135.856 1.31459 136.725 1.04299C137.773 0.40771 138.926 1.1224 140.057 0.805568C141.278 1.2866 142.713 0.412018 143.962 0.793722C145.11 0.449704 146.259 0.278503 147.407 0.79426C149.177 0.598025 150.679 0.690085 152.393 0.940965C154.146 1.12482 156.599 1.34851 158.352 0.90597C159.566 0.698967 160.76 0.43517 161.989 0.619292C163.532 0.532884 164.93 0.399904 166.417 0.295729C167.64 0.122105 171.618 0.156292 172.813 0.254006C172.613 1.11297 176.53 0.774073 178.109 0.65294C180.909 0.595873 183.408 0.740155 186.227 0.512963C188.716 0.491159 190.515 0.0357003 192.92 0.12157C194.694 0.170292 197.475 -0.161076 199.265 0.103801C201.18 0.152255 202.913 0.123184 204.881 0.625482C207.164 0.39829 209.114 0.410135 211.365 0.511887C213.064 0.571107 214.763 0.406096 216.462 0.513501C217.257 0.559801 218.058 0.277425 218.838 0.537189C219.57 0.649708 220.22 0.736653 220.942 0.766802C221.391 0.893319 221.943 0.789953 222.377 0.81741C223.401 0.867209 224.154 0.995612 225.181 1.27314C226.059 1.53775 227.325 1.50625 228.307 1.5006C229.381 1.53398 230.133 1.39535 231.228 1.5539C232.777 1.73049 233.766 1.70007 235.104 2.13076C237.581 2.44059 241.016 2.28985 243.761 2.334C246.482 2.6379 248.593 2.31461 251.097 2.61933C252.458 2.94289 253.776 3.14424 255.235 3.29579C256.098 3.70872 257.351 3.36686 258.225 3.3114C260.085 3.09982 261.427 3.09094 263.209 3.51222C264.224 3.30225 265.386 3.58113 266.471 3.60051C266.794 3.86243 267.168 3.77548 267.483 3.57063C267.696 3.44061 267.835 3.55825 268.171 3.33105C269.075 3.53967 270.095 3.36362 270.842 3.52944C273.453 3.57278 276.106 3.3464 278.762 3.45057C280.393 3.34344 282.031 3.78732 283.663 3.4538C286.028 3.13509 288.12 3.33536 290.01 3.21207C291.303 3.42042 293.147 2.31219 294.761 2.6414C296.894 2.93643 298.914 2.60964 300.944 2.47343C302.621 2.13426 304.399 1.95095 306.153 2.099C307.988 1.76252 310.743 1.30975 313.03 1.49845C313.686 1.35847 313.79 1.81151 314.446 1.78378C315.219 1.94125 316.746 1.5146 317.635 1.77328C319.319 1.75309 321.644 1.0333 323.002 1.90599C324.194 2.05835 324.05 2.12053 325.787 2.20344C326.94 2.08688 327.991 2.0387 329.135 2.04812C329.891 2.1881 330.68 2.1776 331.438 2.05243C332.907 1.82874 333.564 2.37464 334.839 1.84274C336.658 1.94233 338.702 1.84758 340.655 1.34528C343.539 1.08686 346.777 0.405558 349.879 0.786185C352.061 0.904357 354.244 0.693315 356.427 0.79695C358.61 0.79695 360.794 1.00207 362.976 0.792646C364.895 0.337186 367.756 0.445396 369.528 0.874745C371.05 0.975958 372.028 1.31406 373.814 1.21257C375.895 1.7749 377.978 1.09655 380.06 1.21257C382.213 1.01768 385.039 0.945003 387.16 1.20261C388.272 1.31567 388.384 2.05404 389.276 1.6115C390.228 2.2352 391.867 1.49091 392.827 1.53102C395.817 1.83143 398.824 0.75415 401.781 0.928581C403.78 0.489542 405.376 0.441896 407.514 0.367063C410.375 0.379446 412.992 0.32534 415.676 0.686855C418.192 1.46722 420.362 1.0481 423.085 0.93558C424.218 1.40935 425.214 0.525885 426.356 0.786994C427.402 1.10786 428.469 1.08929 429.518 0.792108C429.518 1.02603 428.812 1.55309 428.105 2.38541C427.399 2.97196 426.693 4.07508 426.693 3.97871L426.698 3.97952Z" fill="#146A36"/>
<path d="M-10.4629 46L-13 2.46959L14.7072 2.18793L33.1784 1.34298L55.4288 1.4838L78.0987 3.31455L83.1361 4.01868L110.424 3.45538L117.981 2.61042L146.948 0.779667L247.283 2.46959L271.211 3.5962L321.169 2.32877L354.754 0.779667L393.797 1.76546L432 0.779667L431.308 46H-10.4629Z" fill="#146A36"/>
</svg>
