<svg width="412" height="139" viewBox="0 0 412 139" fill="none" xmlns="http://www.w3.org/2000/svg">
<path d="M-5.60541 139L-8 6.96472L18.1507 6.11043L35.5841 3.5475L56.5845 3.97467L77.9808 9.52765L82.7352 11.6634L108.49 9.95479L115.622 7.39188L142.962 1.8389L237.66 6.96472L260.245 10.3819L307.396 6.53758L339.094 1.8389L375.943 4.82896L412 1.8389L411.347 139H-5.60541Z" fill="#146A36"/>
<path d="M407.893 8.78079C406.68 9.01184 402.634 8.85147 403.69 8.76594C403.666 8.52064 401.157 8.68635 398.489 8.49034C395.822 8.09953 392.996 9.18229 392.34 8.54914C390.545 8.14882 388.795 9.53094 387.045 8.85681C385.296 8.44164 383.546 8.88948 381.754 9.16567C378.597 9.13953 375.27 10.7135 372.12 9.18289C370.29 8.85325 368.819 9.25357 366.951 8.83483C364.818 8.662 362.606 10.0916 360.491 9.51431C359.483 10.4628 359.096 9.35276 358.023 8.83425C357.3 8.75822 356.521 7.57627 355.803 8.87285C354.672 8.02173 353.736 8.1322 352.557 8.22485C351.295 8.60142 349.843 7.65644 348.559 8.2397C347.435 7.74138 346.165 8.15358 345.072 8.25574C344.836 8.13636 344.564 8.18387 344.475 8.00569C342.977 8.67566 341.469 6.94905 340.005 7.30661C337.608 7.1896 335.167 7.06428 332.765 7.31255C330.551 7.83345 328.308 7.0827 326.097 7.32384C324.279 8.11913 322.62 6.61526 320.85 6.75899C319.552 6.52022 318.595 6.27255 317.631 7.0524C316.795 8.13279 316.141 7.15872 315.137 8.12626C313.336 8.42086 311.901 9.63726 309.856 9.1722C307.288 10.1843 305.204 11.0948 302.605 9.78753C301.17 9.8095 300.083 9.58083 298.729 9.46976C297.105 10.0423 296.33 10.2811 294.793 10.018C292.026 10.6642 289.65 11.1584 286.784 11.0051C285.152 11.8372 283.769 12.6456 282.083 11.6519C281.507 11.924 280.217 11.5527 279.738 11.602C279.387 11.1079 279.398 10.8739 279.065 10.8335C278.017 10.2722 274.362 10.5995 273.234 10.7735C271.882 11.2457 270.738 11.1471 269.377 11.3371C267.949 11.8218 266.478 10.5121 265.05 11.33C263.991 11.9798 261.813 11.3977 260.732 11.3532C259.576 11.5818 259.088 9.71982 257.713 10.6975C256.643 10.8768 255.565 10.6577 254.495 10.7283C252.647 10.5549 250.976 9.40681 249.114 10.4035C247.469 10.0815 245.824 9.61826 244.18 10.4035C242.88 9.47927 242.007 10.4985 240.959 10.1095C240.254 9.94196 239.749 8.39176 238.978 9.16864C238.052 8.5842 236.929 8.5147 235.992 8.79089C235.725 8.65666 235.47 9.66577 235.11 8.53786C234.495 8.60854 233.602 8.564 232.97 8.54974C230.516 8.0532 228.063 9.18408 225.61 8.54974C224.138 8.51945 222.625 8.50342 221.154 8.54262C220.219 9.16151 219.69 9.39493 218.824 9.02253C218.285 9.29812 217.558 8.29435 217.064 9.22091C216.641 9.42998 216.444 9.39136 216.088 9.80237C215.075 9.52322 213.878 9.76733 212.648 10.0946C211.9 9.86058 211.294 9.76199 210.573 10.0269C210.541 9.76436 210.237 10.0619 210.081 9.7709C208.586 9.21199 206.373 9.67764 204.752 9.78693C202.109 10.116 199.386 9.74001 196.75 9.7709C195.747 9.61469 194.865 9.75189 193.879 10.1077C193.113 10.3619 192.299 10.9451 191.529 10.0964C190.294 9.09142 188.985 10.4795 187.765 10.1195C186.039 10.3114 184.729 9.59569 182.914 9.47808C181.221 9.60044 180.531 8.74456 179.039 8.83841C177.429 9.05163 175.789 9.22862 174.173 9.1716C172.774 9.70675 171.362 9.68122 169.962 9.16864C168.405 8.71308 166.847 9.16982 165.291 9.16151C163.72 9.54104 162.31 10.2538 160.742 9.50421C160.282 9.90275 159.83 9.82911 159.385 9.42403C159.253 9.08133 159.078 9.2803 158.86 9.04093C158.089 9.20486 157.54 9.09676 156.644 8.85384C155.318 9.18764 154.336 8.78732 153.092 8.61983C150.868 8.07161 148.271 8.53311 145.985 8.58003C143.931 8.49569 144.633 8.79326 143.436 7.67664C142.784 6.89797 142.936 7.80731 142.149 7.2977C141.013 7.63922 139.653 7.02805 138.494 7.31493C136.356 6.86769 134.219 7.3963 132.082 7.31493C129.592 6.69901 127.164 8.54321 124.759 8.01875C122.71 8.35077 120.748 9.48403 118.691 9.41691C117.219 9.72042 116.498 8.86513 115.237 10.236C114.144 10.7557 112.972 12.3332 111.554 11.6792C109.437 11.6092 107.042 11.6501 104.892 11.6412C102.532 11.6169 99.2456 11.0152 97.1476 11.9341C94.7377 12.0065 92.2956 12.2815 89.7449 12.2589C87.572 11.3532 85.3394 12.6753 83.0061 11.9501C82.0373 12.5102 80.9135 10.9552 79.9572 11.9626C78.4403 10.8495 78.3351 10.3458 77.8342 10.4314C76.6836 8.93818 76.148 10.3815 75.1578 9.59866C74.2086 8.61449 73.533 8.79563 72.6035 9.48996C71.968 8.63289 71.493 8.77841 70.8682 9.1526C70.1053 10.8644 69.0973 8.1031 68.3094 9.16864C66.5323 8.43927 64.7551 9.22031 62.9789 9.16864C61.6972 9.35573 58.986 9.10211 57.8586 9.15616C57.1153 8.5533 57.2232 7.43549 56.7624 8.22544C56.3078 8.72139 55.8587 6.75543 55.1305 7.62081C53.6261 6.96272 52.1707 5.36202 50.7794 6.97875C49.308 6.55348 47.5451 7.18367 45.7563 6.31413C43.9676 7.28404 42.1539 7.04349 40.5809 6.52735C38.4303 6.11278 37.1246 8.67269 34.8644 7.93798C32.13 8.41017 29.2415 7.43371 26.5285 7.916C24.5651 9.329 22.4805 9.19774 20.5322 8.61983C19.7274 8.19515 19.2318 8.73208 18.5527 9.16804C17.5269 10.1807 16.5848 10.157 15.3531 9.80119C13.4557 9.64379 11.3853 10.4385 9.48514 9.78041C7.54222 10.1855 6.56541 9.56302 4.58772 10.7283C3.86938 10.2615 2.48705 11.2718 1.85604 10.7367C0.981725 10.8816 0.654636 9.89622 -0.377431 10.072C-1.75085 9.86534 -3.42818 9.82495 -4.82031 10.0952C-4.82031 9.78575 -3.80518 5.30857 -3.80518 4.84173C-2.76242 4.33866 -2.23836 4.31787 -0.743735 3.90983C0.237531 3.96506 1.22058 4.06187 2.20185 3.91458C3.66082 3.9223 5.85775 3.7453 7.06718 4.09632C7.59302 4.87083 7.76235 4.5115 8.4201 4.68968C9.19014 5.89658 9.87105 5.27115 10.6981 4.84351C12.043 4.6671 12.8434 4.3832 13.9913 4.37785C15.018 4.08266 15.3585 3.13116 16.5706 3.9704C16.9939 2.89833 16.5617 2.79142 16.5421 2.69877C17.8076 2.9013 19.2327 1.989 20.583 2.45347C21.7568 2.558 22.746 2.0573 23.9751 2.05255C27.0178 0.919895 30.196 1.76924 33.1389 2.30022C35.5854 3.93002 38.5274 2.42911 41.0283 2.36912C43.5692 2.35487 45.5906 2.09473 48.1128 3.31232C50.316 4.38558 53.11 3.05632 55.1911 3.34914C55.8604 3.96803 55.7856 2.56988 56.2241 3.85459C56.782 4.77224 57.4941 3.89023 58.0912 4.06841C58.6518 4.69146 59.2213 4.4717 59.7802 4.29945C60.4637 3.01652 61.5671 4.08148 62.1348 4.51684C63.0617 4.88271 63.2231 6.07833 64.4833 5.16543C65.633 4.31965 66.7925 4.32025 67.9431 5.14405C69.0946 4.97893 69.1748 5.90727 70.0607 5.65306C70.9867 6.33788 72.8084 6.43232 73.9154 6.64436C74.9822 6.61823 75.8833 6.37827 76.9358 6.99895C78.3538 7.04647 79.8743 7.16525 81.147 8.15773C82.0124 7.75682 82.6407 9.52975 83.5213 9.43888C84.7129 9.84989 87.089 9.19952 88.2975 9.4763C90.2003 9.33553 91.3937 10.1249 93.0942 9.00292C93.6459 7.3072 94.1735 8.74931 94.7127 8.68338C95.3 8.23971 95.6191 8.78969 96.1645 7.99262C97.2795 7.76454 99.1351 7.81324 100.414 7.37551C101.968 6.50656 103.744 7.21871 105.327 7.31374C106.209 7.17535 107.401 6.78215 108.266 7.35769C110.089 7.03161 110.686 6.5915 111.544 5.19988C112.035 4.92013 112.839 3.63542 113.649 3.66571C114.231 3.27252 115.436 3.95022 116.109 3.31351C117.508 3.19293 118.91 1.75795 120.295 2.41605C121.202 1.74489 122.771 2.77717 123.68 2.35487C124.833 2.69877 125.609 3.16976 126.889 3.01059C127.885 2.88645 129.254 3.11394 130.225 2.93457C130.744 2.23193 131.185 1.68193 131.747 2.4208C132.579 3.22381 133.39 2.90071 134.211 2.30141C135.2 0.899696 136.288 2.47663 137.355 1.77756C138.508 2.83894 139.863 0.909203 141.041 1.75142C142.125 0.992354 143.209 0.614603 144.293 1.75261C145.963 1.31962 147.381 1.52275 148.999 2.07631C150.653 2.48197 152.968 2.97554 154.623 1.99909C155.769 1.54235 156.895 0.960284 158.056 1.36654C159.512 1.17589 160.831 0.882471 162.235 0.652614C163.389 0.269517 167.144 0.344949 168.271 0.560552C168.082 2.45584 171.78 1.70806 173.27 1.44079C175.913 1.31487 178.271 1.63322 180.931 1.13193C183.281 1.08382 184.979 0.078867 187.249 0.268336C188.923 0.375841 191.548 -0.355314 193.238 0.22913C195.045 0.33604 196.681 0.271896 198.538 1.3802C200.692 0.878911 202.533 0.905046 204.657 1.12956C206.261 1.26023 207.865 0.896135 209.468 1.13312C210.219 1.23528 210.974 0.612226 211.711 1.18539C212.401 1.43366 213.015 1.6255 213.696 1.69202C214.121 1.97118 214.641 1.7431 215.051 1.80369C216.017 1.91357 216.728 2.19688 217.697 2.80924C218.526 3.39309 219.721 3.32359 220.648 3.31112C221.661 3.38477 222.371 3.0789 223.405 3.42873C224.866 3.81836 225.8 3.75124 227.062 4.70155C229.401 5.38519 232.643 5.05258 235.233 5.14999C237.802 5.82055 239.794 5.10722 242.158 5.77957C243.442 6.4935 244.686 6.93777 246.063 7.27216C246.878 8.18328 248.06 7.42896 248.885 7.30661C250.64 6.83977 251.907 6.82017 253.589 7.74969C254.547 7.28642 255.644 7.90175 256.668 7.94451C256.973 8.52242 257.326 8.33057 257.622 7.87858C257.824 7.5917 257.955 7.85126 258.272 7.34997C259.125 7.81028 260.088 7.42183 260.794 7.7877C263.258 7.88333 265.761 7.38382 268.268 7.61368C269.808 7.37729 271.354 8.35671 272.894 7.62081C275.126 6.91758 277.101 7.35947 278.884 7.08744C280.104 7.54716 281.845 5.10188 283.368 5.82827C285.381 6.47924 287.288 5.75819 289.204 5.45766C290.787 4.70928 292.465 4.3048 294.12 4.63147C295.853 3.88904 298.452 2.89002 300.611 3.30637C301.23 2.99752 301.328 3.99713 301.948 3.93596C302.677 4.28341 304.118 3.34201 304.958 3.91279C306.547 3.86824 308.741 2.28004 310.023 4.20561C311.147 4.54179 311.012 4.67899 312.651 4.86192C313.739 4.60474 314.731 4.49843 315.811 4.51922C316.525 4.82807 317.269 4.8049 317.985 4.52872C319.371 4.03514 319.991 5.23968 321.194 4.06604C322.912 4.2858 324.841 4.07672 326.684 2.96842C329.406 2.39823 332.463 0.894947 335.39 1.73479C337.449 1.99553 339.51 1.52987 341.57 1.75854C343.631 1.75854 345.691 2.21114 347.751 1.74905C349.562 0.744086 352.263 0.982848 353.935 1.93019C355.371 2.15352 356.295 2.89952 357.98 2.6756C359.944 3.91636 361.91 2.41961 363.876 2.6756C365.908 2.24558 368.574 2.08522 370.577 2.65362C371.626 2.90308 371.732 4.53228 372.573 3.55583C373.472 4.93201 375.019 3.28974 375.925 3.37824C378.747 4.04109 381.585 1.6641 384.376 2.04898C386.263 1.08025 387.769 0.975126 389.787 0.810009C392.487 0.837331 394.957 0.717949 397.491 1.51562C399.865 3.23747 401.913 2.3127 404.484 2.06443C405.552 3.10977 406.492 1.16045 407.57 1.73657C408.557 2.44456 409.565 2.40358 410.555 1.74786C410.555 2.264 409.888 3.42694 409.221 5.26343C408.555 6.55764 407.888 8.99164 407.888 8.77901L407.893 8.78079Z" fill="#146A36"/>
</svg>
