<svg width="412" height="259" viewBox="0 0 412 259" fill="none" xmlns="http://www.w3.org/2000/svg">
<path d="M-125.397 0L-129 246.214L-89.6495 247.807L-63.4163 252.586L-31.8157 251.79L0.380554 241.435L7.53484 237.452L46.2897 240.638L57.0218 245.418L98.1619 255.773L240.66 246.214L274.644 239.842L345.595 247.011L393.294 255.773L448.743 250.197L503 255.773L502.017 0H-125.397Z" fill="#146A36"/>
<path d="M496.562 242.82C494.738 242.394 488.653 242.689 490.241 242.847C490.205 243.299 486.43 242.994 482.419 243.355C478.407 244.075 474.158 242.08 473.171 243.247C470.472 243.984 467.839 241.437 465.208 242.68C462.577 243.445 459.946 242.619 457.25 242.111C452.503 242.159 447.499 239.258 442.762 242.079C440.009 242.686 437.797 241.949 434.988 242.72C431.781 243.039 428.454 240.404 425.272 241.468C423.757 239.72 423.174 241.766 421.56 242.721C420.473 242.861 419.302 245.039 418.223 242.65C416.522 244.218 415.113 244.015 413.34 243.844C411.442 243.15 409.258 244.892 407.327 243.817C405.637 244.735 403.727 243.975 402.083 243.787C401.728 244.007 401.319 243.92 401.185 244.248C398.932 243.013 396.664 246.195 394.463 245.536C390.858 245.752 387.188 245.983 383.574 245.525C380.244 244.565 376.871 245.949 373.547 245.504C370.812 244.039 368.316 246.81 365.654 246.545C363.703 246.985 362.263 247.442 360.814 246.005C359.557 244.014 358.573 245.809 357.063 244.026C354.355 243.483 352.196 241.242 349.121 242.098C345.259 240.233 342.124 238.556 338.216 240.965C336.058 240.924 334.424 241.345 332.386 241.55C329.944 240.495 328.779 240.055 326.467 240.54C322.305 239.349 318.732 238.439 314.423 238.721C311.968 237.188 309.888 235.698 307.352 237.529C306.486 237.028 304.545 237.712 303.826 237.621C303.298 238.532 303.314 238.963 302.814 239.037C301.237 240.072 295.741 239.468 294.044 239.148C292.01 238.278 290.291 238.459 288.244 238.109C286.097 237.216 283.884 239.629 281.736 238.122C280.144 236.925 276.868 237.998 275.242 238.08C273.504 237.658 272.769 241.089 270.702 239.288C269.093 238.957 267.471 239.361 265.862 239.231C263.082 239.551 260.569 241.666 257.769 239.83C255.296 240.423 252.822 241.277 250.349 239.83C248.394 241.533 247.081 239.655 245.505 240.371C244.444 240.68 243.686 243.537 242.526 242.105C241.134 243.182 239.445 243.31 238.035 242.801C237.633 243.048 237.249 241.189 236.709 243.267C235.784 243.137 234.441 243.219 233.49 243.245C229.799 244.16 226.111 242.077 222.421 243.245C220.208 243.301 217.932 243.331 215.72 243.259C214.314 242.118 213.518 241.688 212.215 242.374C211.404 241.866 210.312 243.716 209.568 242.009C208.933 241.623 208.636 241.695 208.1 240.937C206.577 241.452 204.777 241.002 202.928 240.399C201.802 240.83 200.892 241.012 199.806 240.524C199.759 241.007 199.301 240.459 199.067 240.995C196.818 242.025 193.49 241.167 191.052 240.966C187.078 240.359 182.982 241.052 179.018 240.995C177.51 241.283 176.183 241.03 174.699 240.375C173.548 239.906 172.324 238.831 171.166 240.395C169.308 242.247 167.339 239.69 165.506 240.353C162.909 239.999 160.939 241.318 158.21 241.535C155.663 241.309 154.626 242.886 152.382 242.714C149.96 242.321 147.494 241.995 145.064 242.1C142.959 241.113 140.836 241.161 138.73 242.105C136.389 242.944 134.046 242.103 131.706 242.118C129.344 241.419 127.222 240.105 124.864 241.487C124.173 240.752 123.493 240.888 122.824 241.634C122.626 242.266 122.362 241.899 122.035 242.34C120.875 242.038 120.048 242.237 118.701 242.685C116.707 242.07 115.23 242.808 113.36 243.116C110.014 244.127 106.108 243.276 102.67 243.19C99.5821 243.345 100.638 242.797 98.8368 244.854C97.857 246.289 98.0862 244.614 96.9013 245.553C95.1937 244.923 93.1483 246.049 91.4058 245.521C88.1902 246.345 84.976 245.371 81.7618 245.521C78.0168 246.656 74.3656 243.258 70.7479 244.224C67.6664 243.612 64.7162 241.524 61.6227 241.648C59.4097 241.088 58.3253 242.664 56.4287 240.138C54.7841 239.181 53.0215 236.274 50.8889 237.479C47.7056 237.608 44.104 237.532 40.8696 237.549C37.3203 237.594 32.3784 238.702 29.2231 237.009C25.5988 236.876 21.9261 236.369 18.09 236.411C14.8221 238.08 11.4645 235.643 7.9554 236.98C6.49841 235.948 4.8082 238.813 3.36997 236.957C1.08865 239.008 0.930489 239.936 0.1772 239.778C-1.55323 242.53 -2.35879 239.87 -3.84795 241.313C-5.27544 243.126 -6.29144 242.792 -7.68945 241.513C-8.64514 243.092 -9.35956 242.824 -10.2992 242.135C-11.4465 238.98 -12.9625 244.069 -14.1474 242.105C-16.8201 243.449 -19.4928 242.01 -22.1642 242.105C-24.0916 241.76 -28.1691 242.228 -29.8646 242.128C-30.9825 243.239 -30.8203 245.299 -31.5133 243.843C-32.1969 242.929 -32.8724 246.552 -33.9675 244.957C-36.2301 246.17 -38.4189 249.119 -40.5112 246.14C-42.7242 246.924 -45.3754 245.763 -48.0656 247.365C-50.7557 245.578 -53.4834 246.021 -55.8491 246.972C-59.0834 247.736 -61.0471 243.019 -64.4463 244.373C-68.5586 243.503 -72.9027 245.302 -76.9828 244.413C-79.9357 241.81 -83.0708 242.051 -86.0009 243.116C-87.2112 243.899 -87.9565 242.909 -88.9778 242.106C-90.5206 240.24 -91.9374 240.284 -93.7898 240.939C-96.6434 241.229 -99.7571 239.765 -102.615 240.978C-105.537 240.231 -107.006 241.378 -109.98 239.231C-111.06 240.091 -113.139 238.23 -114.088 239.216C-115.403 238.949 -115.895 240.764 -117.447 240.44C-119.513 240.821 -122.035 240.896 -124.129 240.398C-124.129 240.968 -122.602 249.218 -122.602 250.078C-121.034 251.005 -120.246 251.044 -117.998 251.795C-116.523 251.694 -115.044 251.515 -113.568 251.787C-111.374 251.772 -108.07 252.099 -106.251 251.452C-105.46 250.025 -105.206 250.687 -104.217 250.358C-103.058 248.134 -102.034 249.287 -100.791 250.075C-98.7679 250.4 -97.5643 250.923 -95.8379 250.933C-94.2937 251.477 -93.7817 253.23 -91.9588 251.684C-91.3221 253.659 -91.9722 253.856 -92.0017 254.027C-90.0984 253.654 -87.9551 255.335 -85.9244 254.479C-84.1592 254.286 -82.6714 255.209 -80.823 255.218C-76.2469 257.305 -71.4672 255.74 -67.0413 254.761C-63.3619 251.758 -58.9373 254.524 -55.1763 254.635C-51.3548 254.661 -48.3149 255.14 -44.5216 252.896C-41.2082 250.919 -37.0061 253.368 -33.8764 252.829C-32.8697 251.688 -32.9823 254.265 -32.3229 251.897C-31.4838 250.206 -30.4128 251.832 -29.5148 251.503C-28.6717 250.355 -27.8152 250.76 -26.9748 251.077C-25.9467 253.442 -24.2873 251.479 -23.4335 250.677C-22.0395 250.003 -21.7969 247.8 -19.9016 249.482C-18.1725 251.04 -16.4287 251.039 -14.6983 249.521C-12.9665 249.825 -12.8459 248.115 -11.5135 248.583C-10.1209 247.321 -7.38117 247.147 -5.71642 246.757C-4.112 246.805 -2.75687 247.247 -1.1739 246.103C0.958641 246.016 3.24532 245.797 5.15938 243.968C6.46088 244.707 7.40584 241.44 8.73013 241.607C10.5222 240.85 14.0957 242.048 15.9132 241.538C18.7749 241.797 20.5697 240.343 23.1271 242.41C23.9568 245.535 24.7503 242.878 25.5612 242.999C26.4445 243.817 26.9244 242.803 27.7447 244.272C29.4215 244.692 32.2122 244.603 34.1356 245.409C36.4732 247.01 39.1432 245.698 41.5237 245.523C42.8507 245.778 44.6441 246.503 45.9443 245.442C48.6867 246.043 49.5834 246.854 50.8742 249.418C51.6127 249.934 52.8218 252.301 54.0402 252.245C54.9154 252.97 56.7276 251.721 57.7396 252.894C59.844 253.116 61.9524 255.761 64.0353 254.548C65.3998 255.785 67.7589 253.883 69.1261 254.661C70.8605 254.027 72.0266 253.159 73.9514 253.452C75.45 253.681 77.5088 253.262 78.9698 253.593C79.7499 254.887 80.4134 255.901 81.2578 254.539C82.5097 253.06 83.7295 253.655 84.9639 254.759C86.4518 257.342 88.087 254.436 89.6928 255.725C91.4259 253.769 93.4633 257.325 95.2352 255.773C96.8651 257.171 98.4964 257.868 100.126 255.771C102.638 256.568 104.771 256.194 107.203 255.174C109.691 254.427 113.173 253.517 115.661 255.316C117.385 256.158 119.079 257.231 120.824 256.482C123.014 256.833 124.998 257.374 127.109 257.798C128.845 258.503 134.492 258.364 136.188 257.967C135.904 254.475 141.465 255.853 143.706 256.345C147.68 256.577 151.227 255.991 155.228 256.914C158.761 257.003 161.314 258.855 164.728 258.506C167.247 258.308 171.194 259.655 173.736 258.578C176.454 258.381 178.913 258.499 181.707 256.457C184.947 257.381 187.716 257.332 190.91 256.919C193.321 256.678 195.734 257.349 198.145 256.912C199.274 256.724 200.41 257.872 201.518 256.816C202.556 256.358 203.48 256.005 204.504 255.882C205.142 255.368 205.925 255.788 206.541 255.676C207.994 255.474 209.064 254.952 210.521 253.823C211.767 252.748 213.565 252.876 214.959 252.899C216.483 252.763 217.55 253.327 219.105 252.682C221.303 251.964 222.708 252.088 224.606 250.337C228.123 249.077 232.998 249.69 236.894 249.51C240.757 248.275 243.753 249.589 247.307 248.35C249.239 247.035 251.11 246.216 253.181 245.6C254.406 243.921 256.185 245.311 257.425 245.536C260.065 246.396 261.97 246.433 264.499 244.72C265.94 245.573 267.59 244.44 269.13 244.361C269.588 243.296 270.119 243.649 270.566 244.482C270.869 245.011 271.066 244.533 271.543 245.456C272.826 244.608 274.273 245.324 275.335 244.65C279.041 244.473 282.806 245.394 286.576 244.97C288.891 245.406 291.217 243.601 293.533 244.957C296.889 246.253 299.859 245.439 302.542 245.94C304.377 245.093 306.994 249.599 309.285 248.26C312.313 247.061 315.18 248.389 318.062 248.943C320.442 250.322 322.966 251.068 325.455 250.466C328.061 251.834 331.971 253.675 335.217 252.907C336.149 253.477 336.296 251.635 337.228 251.747C338.324 251.107 340.492 252.842 341.754 251.79C344.144 251.872 347.444 254.799 349.372 251.25C351.063 250.631 350.859 250.378 353.324 250.041C354.961 250.515 356.453 250.711 358.077 250.673C359.151 250.103 360.27 250.146 361.347 250.655C363.431 251.565 364.364 249.345 366.173 251.508C368.756 251.103 371.657 251.488 374.429 253.53C378.523 254.581 383.12 257.351 387.523 255.803C390.619 255.323 393.718 256.181 396.817 255.76C399.916 255.76 403.015 254.926 406.112 255.777C408.836 257.629 412.897 257.189 415.413 255.443C417.573 255.032 418.961 253.657 421.496 254.07C424.45 251.783 427.407 254.541 430.362 254.07C433.418 254.862 437.429 255.158 440.441 254.11C442.018 253.651 442.178 250.648 443.443 252.448C444.794 249.912 447.121 252.938 448.484 252.775C452.728 251.554 456.996 255.934 461.194 255.224C464.031 257.01 466.297 257.203 469.331 257.507C473.392 257.457 477.107 257.677 480.917 256.207C484.488 253.034 487.568 254.738 491.434 255.196C493.041 253.27 494.455 256.862 496.076 255.8C497.561 254.495 499.075 254.571 500.565 255.779C500.565 254.828 499.562 252.685 498.559 249.301C497.557 246.916 496.554 242.431 496.554 242.823L496.562 242.82Z" fill="#146A36"/>
</svg>
