<svg width="38" height="38" viewBox="0 0 38 38" fill="none" xmlns="http://www.w3.org/2000/svg">
<circle cx="19" cy="19" r="19" fill="white"/>
<path d="M20.2489 6C21.7338 6.00395 22.4875 6.01184 23.1382 6.03025L23.3942 6.03946C23.6899 6.04998 23.9816 6.06314 24.334 6.07892C25.7384 6.14469 26.6966 6.36567 27.5374 6.69056C28.4086 7.02466 29.1424 7.47714 29.8763 8.20716C30.5477 8.86449 31.0671 9.65993 31.3982 10.538C31.7242 11.3758 31.9459 12.3308 32.0119 13.7316C32.0277 14.0815 32.0409 14.3722 32.0515 14.6682L32.0594 14.9234C32.0792 15.5705 32.0871 16.3216 32.0898 17.8013L32.0911 18.7826V20.5057C32.0943 21.4651 32.0842 22.4246 32.0607 23.3837L32.0528 23.6389C32.0423 23.9348 32.0291 24.2255 32.0132 24.5754C31.9472 25.9763 31.7228 26.9299 31.3982 27.7691C31.0671 28.6471 30.5477 29.4426 29.8763 30.0999C29.2167 30.769 28.4185 31.2866 27.5374 31.6165C26.6966 31.9414 25.7384 32.1624 24.334 32.2281L23.3942 32.2676L23.1382 32.2755C22.4875 32.2939 21.7338 32.3031 20.2489 32.3057L19.2643 32.3071H17.5365C16.5733 32.3104 15.6101 32.3004 14.6472 32.2768L14.3912 32.2689C14.0779 32.2571 13.7646 32.2435 13.4514 32.2281C12.047 32.1624 11.0888 31.9414 10.2467 31.6165C9.36608 31.2864 8.56835 30.7688 7.90913 30.0999C7.23723 29.4427 6.7174 28.6472 6.38596 27.7691C6.05995 26.9312 5.8382 25.9763 5.77221 24.5754L5.73261 23.6389L5.72601 23.3837C5.70168 22.4246 5.69068 21.4651 5.69301 20.5057V17.8013C5.68936 16.8419 5.69904 15.8825 5.72205 14.9234L5.73129 14.6682C5.74185 14.3722 5.75505 14.0815 5.77089 13.7316C5.83688 12.3308 6.05862 11.3772 6.38464 10.538C6.71685 9.65957 7.23759 8.8641 7.91045 8.20716C8.56929 7.53837 9.36655 7.02081 10.2467 6.69056C11.0888 6.36567 12.0457 6.14469 13.4514 6.07892C13.8025 6.06314 14.0955 6.04998 14.3912 6.03946L14.6472 6.03157C15.6097 6.0082 16.5724 5.99811 17.5352 6.00132L20.2489 6ZM18.8921 12.5768C17.1418 12.5768 15.4631 13.2697 14.2255 14.5031C12.9878 15.7364 12.2925 17.4093 12.2925 19.1535C12.2925 20.8978 12.9878 22.5706 14.2255 23.804C15.4631 25.0374 17.1418 25.7303 18.8921 25.7303C20.6424 25.7303 22.321 25.0374 23.5586 23.804C24.7963 22.5706 25.4916 20.8978 25.4916 19.1535C25.4916 17.4093 24.7963 15.7364 23.5586 14.5031C22.321 13.2697 20.6424 12.5768 18.8921 12.5768ZM18.8921 15.2075C19.4121 15.2074 19.927 15.3094 20.4074 15.5076C20.8879 15.7058 21.3244 15.9964 21.6922 16.3628C22.0599 16.7291 22.3517 17.1641 22.5508 17.6428C22.7498 18.1216 22.8523 18.6347 22.8524 19.1529C22.8525 19.6711 22.7502 20.1842 22.5513 20.663C22.3524 21.1418 22.0608 21.5769 21.6931 21.9433C21.3255 22.3098 20.889 22.6006 20.4086 22.799C19.9283 22.9973 19.4134 23.0995 18.8934 23.0996C17.8432 23.0996 16.836 22.6838 16.0934 21.9438C15.3508 21.2038 14.9337 20.2001 14.9337 19.1535C14.9337 18.107 15.3508 17.1033 16.0934 16.3632C16.836 15.6232 17.8432 15.2075 18.8934 15.2075M25.8229 10.6037C25.3853 10.6037 24.9656 10.777 24.6562 11.0853C24.3468 11.3937 24.173 11.8119 24.173 12.2479C24.173 12.684 24.3468 13.1022 24.6562 13.4105C24.9656 13.7189 25.3853 13.8921 25.8229 13.8921C26.2604 13.8921 26.6801 13.7189 26.9895 13.4105C27.2989 13.1022 27.4728 12.684 27.4728 12.2479C27.4728 11.8119 27.2989 11.3937 26.9895 11.0853C26.6801 10.777 26.2604 10.6037 25.8229 10.6037Z" fill="#146A36"/>
</svg>
