<svg width="27" height="24" viewBox="0 0 27 24" fill="none" xmlns="http://www.w3.org/2000/svg">
<path d="M2.21212 8.63413e-06C0.990253 8.63413e-06 2.51031e-08 0.994737 2.51031e-08 2.22213V8.42991C-0.000160516 10.516 0.769711 12.5281 2.16075 14.0771C3.55179 15.6261 5.46518 16.6019 7.53095 16.816C6.99007 15.4925 6.71239 14.0755 6.71358 12.6449C6.71358 11.2455 6.97541 9.90683 7.45207 8.67606L5.27855 6.49778C5.20052 6.4194 5.13863 6.32635 5.09641 6.22394C5.05418 6.12154 5.03244 6.01178 5.03244 5.90094C5.03244 5.7901 5.05418 5.68034 5.09641 5.57793C5.13863 5.47553 5.20052 5.38248 5.27855 5.3041C5.35657 5.22572 5.4492 5.16355 5.55115 5.12113C5.65309 5.07872 5.76236 5.05688 5.8727 5.05688C5.98305 5.05688 6.09231 5.07872 6.19425 5.12113C6.2962 5.16355 6.38883 5.22572 6.46685 5.3041L8.22581 7.0727C9.55469 4.81579 11.6429 3.11039 14.1136 2.26428C12.5622 0.806556 10.5163 -0.00304985 8.39197 8.63413e-06H2.21212ZM10.5286 18.5795L6.94184 22.1824C6.86169 22.2602 6.79775 22.3532 6.75377 22.4561C6.70979 22.5589 6.68664 22.6695 6.68567 22.7815C6.6847 22.8934 6.70594 23.0044 6.74813 23.108C6.79033 23.2116 6.85264 23.3057 6.93144 23.3849C7.01023 23.464 7.10393 23.5266 7.20706 23.569C7.3102 23.6114 7.4207 23.6327 7.53213 23.6318C7.64356 23.6308 7.75368 23.6075 7.85606 23.5634C7.95845 23.5192 8.05105 23.4549 8.12846 23.3744L11.7152 19.7715C13.0633 20.8994 14.7035 21.6181 16.4436 21.8433C18.1837 22.0685 19.9516 21.7909 21.5403 21.0431C23.129 20.2952 24.4726 19.108 25.4138 17.6207C26.3549 16.1333 26.8546 14.4073 26.8543 12.6449V5.7492C26.8543 4.43414 25.7969 3.37197 24.4878 3.37197H17.6231C15.8687 3.37167 14.1504 3.87362 12.6697 4.81902C11.189 5.76443 10.0072 7.11412 9.26272 8.70999C8.51822 10.3059 8.24188 12.0818 8.46607 13.8298C8.69026 15.5777 9.4057 17.2253 10.5286 18.5795ZM18.2156 13.2417L12.9085 18.5728C12.4701 18.2209 12.0721 17.8211 11.7219 17.3808L17.029 12.048C17.1863 11.8897 17.3999 11.8007 17.6225 11.8006C17.8452 11.8004 18.0589 11.8891 18.2165 12.0472C18.374 12.2052 18.4626 12.4197 18.4628 12.6434C18.463 12.8671 18.3746 13.0817 18.2173 13.24" fill="#F7D80D"/>
</svg>
