<svg width="40" height="42" viewBox="0 0 40 42" fill="none" xmlns="http://www.w3.org/2000/svg">
<path d="M38.4278 13.857C37.4205 11.4753 35.9786 9.33656 34.1422 7.50012C32.3057 5.66374 30.167 4.22182 27.7852 3.21443C27.4774 3.08422 27.1672 2.96209 26.8548 2.848C26.1367 2.58575 25.3763 3.11772 25.3763 3.88221C25.3763 4.34727 25.6697 4.75927 26.1067 4.9185C28.5127 5.79525 30.7187 7.19414 32.5835 9.05882C35.9446 12.42 37.7957 16.8889 37.7957 21.6423C37.7957 26.3957 35.9447 30.8645 32.5835 34.2258C29.2223 37.5869 24.7534 39.438 20 39.438C15.2466 39.438 10.7777 37.5869 7.41655 34.2258C4.05541 30.8645 2.2043 26.3957 2.2043 21.6423C2.2043 16.8889 4.05537 12.42 7.41655 9.05882C9.28124 7.19414 11.4872 5.79522 13.8933 4.9185C14.3303 4.75927 14.6237 4.3473 14.6237 3.88221C14.6237 3.11772 13.8633 2.58575 13.1452 2.848C12.8328 2.96209 12.5226 3.08422 12.2148 3.21443C9.83304 4.22182 7.69429 5.66374 5.85785 7.50012C4.02147 9.33656 2.57955 11.4753 1.57216 13.857C0.528941 16.3234 0 18.9428 0 21.6423C0 24.3418 0.528941 26.9611 1.57216 29.4275C2.57955 31.8092 4.02147 33.948 5.85785 35.7844C7.69429 37.6208 9.83304 39.0627 12.2148 40.0701C14.6812 41.1133 17.3005 41.6423 20 41.6423C22.6995 41.6423 25.3188 41.1133 27.7852 40.0701C30.167 39.0627 32.3057 37.6208 34.1422 35.7844C35.9786 33.948 37.4205 31.8092 38.4278 29.4275C39.471 26.9611 40 24.3418 40 21.6423C40 18.9428 39.471 16.3234 38.4278 13.857Z" fill="#146A36"/>
<path d="M14.8067 18.9789C14.8067 17.6597 14.8278 16.1807 14.8614 15.3068H14.8081C14.4447 16.8843 13.6717 19.46 12.9303 21.8792H11.5066C10.9428 19.764 10.1433 16.8299 9.80415 15.2857H9.75212C9.81808 16.1928 9.85037 17.7838 9.85037 19.1099V21.8792H8.32666V14.1475H10.8146C11.4173 16.1676 12.0931 18.7018 12.3254 19.8543H12.338C12.5273 18.8381 13.3766 16.1287 14.0215 14.1475H16.4193V21.8792H14.8067V18.979V18.9789Z" fill="#146A36"/>
<path d="M19.283 19.613C19.4593 20.3894 20.0163 20.7298 20.9111 20.7298C21.8059 20.7298 22.1853 20.3774 22.1853 19.8113C22.1853 19.182 21.8125 18.909 20.4902 18.6012C18.3862 18.1073 17.8659 17.3419 17.8659 16.2981C17.8659 14.9505 18.874 14.0354 20.7043 14.0354C22.7571 14.0354 23.5749 15.139 23.6857 16.2699H22.0013C21.9206 15.7941 21.6574 15.2773 20.6608 15.2773C19.9823 15.2773 19.5728 15.5576 19.5728 16.1066C19.5728 16.6442 19.9011 16.8623 21.1503 17.152C23.3991 17.6818 23.8921 18.5184 23.8921 19.6084C23.8921 21.0202 22.8239 21.9887 20.7801 21.9887C18.8176 21.9887 17.7839 21.0225 17.5986 19.6129H19.283V19.613Z" fill="#146A36"/>
<path d="M31.9546 21.8795H30.7292C30.6646 21.6417 30.6224 21.3762 30.6013 21.1171C30.1729 21.6949 29.4178 22.0087 28.3432 22.0087C26.099 22.0087 24.8452 20.3127 24.8452 18.1106C24.8452 15.7865 26.1973 14.0356 28.6344 14.0356C30.6241 14.0356 31.7949 15.1586 31.9824 16.4769H30.3105C30.1518 15.959 29.7432 15.3467 28.612 15.3467C27.0246 15.3467 26.5718 16.6744 26.5718 18.0374C26.5718 19.3677 27.0897 20.678 28.6224 20.678C30.0518 20.678 30.315 19.6858 30.315 18.994V18.924H28.6197V17.5538H31.9546V21.8795Z" fill="#146A36"/>
<path d="M8.32666 23.0518H13.1048V24.265H9.77189V25.9423H12.8939V27.1555H9.77189V29.8974H8.32666V23.0518Z" fill="#146A36"/>
<path d="M15.6515 27.1575V29.8974H14.2051V23.0518H17.2131C18.7057 23.0518 19.5092 23.8739 19.5092 24.9312C19.5092 25.8499 19.0091 26.3471 18.5144 26.5509C18.8534 26.6759 19.365 27.029 19.365 28.2543V28.5923C19.365 29.0527 19.369 29.5769 19.4631 29.8974H18.0604C17.94 29.5995 17.9174 29.0871 17.9174 28.3603V28.2602C17.9174 27.5117 17.7284 27.1574 16.6251 27.1574H15.6515L15.6515 27.1575ZM15.6515 25.9792H16.8925C17.703 25.9792 18.0155 25.6711 18.0155 25.0984C18.0155 24.5417 17.6518 24.23 16.9278 24.23H15.6515V25.9792Z" fill="#146A36"/>
<path d="M25.5384 26.9448H22.2646V28.6839H25.876L25.7004 29.8971H20.8281V23.0515H25.6821V24.2648H22.2646V25.7315H25.5384V26.9447V26.9448Z" fill="#146A36"/>
<path d="M31.6449 26.9448H28.3711V28.6839H31.9824L31.8069 29.8971H26.9346V23.0515H31.7886V24.2648H28.3711V25.7315H31.6449V26.9447V26.9448Z" fill="#146A36"/>
<path d="M16.6061 1.04906e-07C16.2314 1.04906e-07 15.9272 0.303682 15.9272 0.678608V2.38806C15.9272 2.95265 16.1273 3.49899 16.4919 3.93011C16.8566 4.36124 17.3622 4.64928 17.9192 4.74309C17.9244 4.11059 18.119 3.49415 18.4778 2.97314L17.6066 2.1015C17.5539 2.04491 17.5252 1.97006 17.5265 1.89273C17.5279 1.8154 17.5592 1.74161 17.6139 1.68692C17.6686 1.63223 17.7425 1.6009 17.8198 1.59953C17.8972 1.59817 17.972 1.62688 18.0286 1.6796L18.8624 2.51264C19.331 2.04835 19.9323 1.741 20.5831 1.63304C20.4246 1.1574 20.1203 0.743707 19.7134 0.450604C19.3065 0.157501 18.8176 -0.00014846 18.3161 1.04906e-07H16.6061ZM18.934 6.5222L18.0048 7.45036C17.9762 7.47788 17.9535 7.51081 17.9378 7.54722C17.9221 7.58363 17.9139 7.6228 17.9135 7.66243C17.9131 7.70207 17.9207 7.74138 17.9357 7.77807C17.9507 7.81476 17.9728 7.8481 18.0009 7.87614C18.0289 7.90418 18.0622 7.92637 18.0989 7.94139C18.1356 7.95642 18.1749 7.96399 18.2146 7.96366C18.2542 7.96334 18.2934 7.95512 18.3298 7.9395C18.3663 7.92387 18.3992 7.90114 18.4268 7.87265L19.3565 6.94409C19.7659 7.2737 20.2602 7.48082 20.7823 7.54153C21.3045 7.60225 21.8332 7.51408 22.3073 7.28722C22.7815 7.06035 23.1818 6.70404 23.462 6.25942C23.7422 5.81481 23.8909 5.30003 23.8909 4.77453V2.68577C23.8909 2.50105 23.8175 2.32388 23.6868 2.19326C23.5562 2.06264 23.379 1.98926 23.1942 1.98926H21.1039C20.5783 1.98933 20.0634 2.13803 19.6187 2.41818C19.174 2.69832 18.8176 3.09849 18.5907 3.57248C18.3638 4.04647 18.2756 4.57495 18.3364 5.09689C18.3971 5.61883 18.6043 6.11295 18.934 6.5222ZM21.4129 4.88956L19.7825 6.51941C19.6231 6.39872 19.4809 6.25677 19.36 6.09752L20.9904 4.46727C21.0465 4.41127 21.1224 4.37981 21.2017 4.37981C21.2809 4.37981 21.3569 4.41127 21.4129 4.46727C21.4689 4.52327 21.5004 4.59922 21.5004 4.67841C21.5004 4.75761 21.4689 4.83356 21.4129 4.88956Z" fill="#146A36"/>
</svg>
