<svg width="40" height="40" viewBox="0 0 40 40" fill="none" xmlns="http://www.w3.org/2000/svg">
<path d="M19.9998 40.0004C8.97183 40.0004 0 31.0285 0 20.0002C0 8.97184 8.97183 0 19.9998 0C31.0278 0 40 8.97184 40 20.0002C40 31.0285 31.0282 40.0004 19.9998 40.0004Z" fill="#146A36"/>
<path d="M19.9321 1.94458C9.96027 1.94458 1.87646 10.0284 1.87646 20.0002C1.87646 29.972 9.96027 38.0558 19.9321 38.0558C29.9039 38.0558 37.9877 29.972 37.9877 20.0002C37.9877 10.0284 29.9039 1.94458 19.9321 1.94458ZM19.9321 35.8316C15.9372 35.8316 12.2881 34.3513 9.50257 31.91L12.868 28.5446L11.3877 27.0643L8.02228 30.4297C5.58102 27.6442 4.10073 23.9954 4.10073 20.0002C4.10073 11.2567 11.1886 4.16885 19.9321 4.16885C23.927 4.16885 27.5761 5.64914 30.3616 8.0904L25.839 12.613L27.3193 14.0933L31.8419 9.57069C34.2832 12.3562 35.7635 16.005 35.7635 20.0002C35.7635 28.7438 28.6756 35.8316 19.9321 35.8316Z" fill="white"/>
<path d="M25.1295 28.1173C25.1295 28.2139 25.0511 28.2442 24.9545 28.1847L20.7532 25.5994C20.6565 25.54 20.5781 25.4134 20.5781 25.3168V21.1155C20.5781 21.0189 20.6565 20.9886 20.7532 21.048L24.9545 23.6333C25.0511 23.6928 25.1295 23.8193 25.1295 23.916V28.1173Z" fill="white"/>
<path d="M15.3805 27.8109C15.3805 27.9075 15.3021 27.9378 15.2054 27.8783L11.0041 25.293C10.9075 25.2336 10.8291 25.107 10.8291 25.0104V20.8091C10.8291 20.7125 10.9075 20.6822 11.0041 20.7416L15.2054 23.3269C15.3021 23.3864 15.3805 23.5129 15.3805 23.6096V27.8109Z" fill="white"/>
<path d="M20.0416 19.6153C20.0416 19.7119 19.9632 19.7422 19.8666 19.6828L15.6653 17.0975C15.5686 17.038 15.4902 16.9115 15.4902 16.8148V12.6135C15.4902 12.5169 15.5686 12.4866 15.6653 12.5461L19.8666 15.1314C19.9632 15.1908 20.0416 15.3174 20.0416 15.414V19.6153Z" fill="white"/>
<path d="M19.8326 20.2172L15.5223 17.6374C15.4231 17.578 15.2112 17.6082 15.0489 17.7045L11.3454 19.955C11.1831 20.0517 11.1321 20.1779 11.2313 20.2373L15.5416 22.8171C15.6408 22.8766 15.8527 22.8463 16.015 22.75L19.7184 20.4995C19.8807 20.4029 19.9318 20.2767 19.8326 20.2172ZM15.4829 19.0338L12.6354 20.1082L12.5413 20.0517L15.4165 18.3044L18.5215 20.1629L15.4829 19.0338Z" fill="white"/>
<path d="M29.4351 20.5236L25.1248 17.9438C25.0256 17.8844 24.8137 17.9146 24.6514 18.0109L20.948 20.2614C20.7857 20.3581 20.7346 20.4843 20.8338 20.5437L25.1441 23.1235C25.2433 23.183 25.4552 23.1527 25.6175 23.0564L29.321 20.8059C29.4833 20.7093 29.5343 20.5831 29.4351 20.5236ZM25.0869 19.338L22.2394 20.4124L22.1449 20.3559L25.0201 18.6086L28.1251 20.4671L25.0865 19.338H25.0869Z" fill="white"/>
<path d="M24.7022 12.7888L20.8948 15.1319C20.7981 15.1914 20.7197 15.3179 20.7197 15.4145V19.6158C20.7197 19.7125 20.7981 19.7427 20.8948 19.6833L24.7022 17.3401C24.7988 17.2807 24.8772 17.1541 24.8772 17.0575V12.8562C24.8772 12.7596 24.7988 12.7293 24.7022 12.7888ZM24.3922 16.9065L21.6202 18.6654L23.8291 16.6348L24.3411 13.7752L24.4254 13.722L24.3926 16.9069L24.3922 16.9065Z" fill="white"/>
<path d="M19.8584 20.9841L16.051 23.3272C15.9544 23.3867 15.876 23.5132 15.876 23.6099V27.8111C15.876 27.9078 15.9544 27.938 16.051 27.8786L19.8584 25.5354C19.9551 25.476 20.0335 25.3495 20.0335 25.2528V21.0515C20.0335 20.9549 19.9551 20.9246 19.8584 20.9841ZM19.5554 25.0664L16.7833 26.8254L18.9923 24.7948L19.5043 21.9352L19.5886 21.8819L19.5557 25.0668L19.5554 25.0664Z" fill="white"/>
</svg>
