<svg width="40" height="40" viewBox="0 0 40 40" fill="none" xmlns="http://www.w3.org/2000/svg">
<path d="M20.0001 40.0003C8.97205 40.0003 0 31.0282 0 20.0001C0 8.97205 8.97205 0 20.0001 0C31.0282 0 40 8.97205 40 20.0001C40 31.0282 31.0282 40.0003 20.0001 40.0003ZM20.0001 0.546696C9.27342 0.546696 0.546696 9.27342 0.546696 20.0001C0.546696 30.7268 9.27342 39.4536 20.0001 39.4536C30.7266 39.4536 39.4533 30.7268 39.4533 20.0001C39.4533 9.27342 30.7266 0.546696 20.0001 0.546696Z" fill="#146A36"/>
<path d="M5.71795 14.6047L5.55855 15.1423L3.53189 15.6795L5.24813 16.1883L5.08873 16.7259L2.48047 15.9523L2.63987 15.4147L4.67053 14.8771L2.95068 14.3667L3.10949 13.8311L5.71795 14.6047Z" fill="#146A36"/>
<path d="M5.78134 11.503C6.02035 11.6242 6.20814 11.7726 6.34537 11.9482C6.48256 12.1242 6.56016 12.3154 6.57796 12.5222C6.59596 12.729 6.55357 12.9338 6.45036 13.1374C6.34835 13.3382 6.20897 13.4934 6.03216 13.6018C5.85556 13.7106 5.65556 13.7627 5.43214 13.7583C5.20874 13.7542 4.98012 13.6931 4.74631 13.5759L4.62632 13.5151C4.3875 13.3939 4.19911 13.2443 4.0611 13.0659C3.92311 12.8879 3.84548 12.6954 3.82808 12.4886C3.81048 12.2822 3.85309 12.0778 3.95568 11.8758C4.05829 11.6734 4.1981 11.5186 4.3751 11.4106C4.5521 11.3026 4.75309 11.2518 4.9785 11.2578C5.20372 11.2638 5.43532 11.3274 5.67314 11.4478L5.78134 11.503ZM5.41433 11.9538C5.15993 11.8246 4.94352 11.7722 4.76513 11.7962C4.58673 11.8202 4.45471 11.9166 4.36891 12.0854C4.2839 12.253 4.2835 12.4158 4.36771 12.573C4.45212 12.7302 4.62013 12.8734 4.87172 13.0026L4.98992 13.0626C5.23773 13.1882 5.45292 13.2402 5.63594 13.2186C5.81874 13.1966 5.95354 13.1002 6.04034 12.9294C6.12555 12.7614 6.12515 12.5994 6.03915 12.4426C5.95315 12.2858 5.78435 12.1426 5.53273 12.0138L5.41433 11.9538Z" fill="#146A36"/>
<path d="M8.50065 9.1779L7.84943 9.91432L8.14543 10.4255L7.75043 10.872L6.38379 8.31069L6.728 7.92188L9.44046 8.96151L9.04566 9.40793L8.50065 9.1779ZM7.60963 9.4999L8.06025 8.99067L7.07101 8.57188L7.60963 9.4999Z" fill="#146A36"/>
<path d="M9.86664 7.33557L9.51863 7.61558L10.1429 8.39159L9.70603 8.74321L8.00098 6.62274L8.78879 5.98952C9.03919 5.78791 9.27721 5.6883 9.50302 5.69072C9.72863 5.6931 9.92343 5.79631 10.0874 5.99992C10.2038 6.14472 10.2694 6.29032 10.2844 6.43754C10.2996 6.58433 10.2664 6.73754 10.1854 6.89716L11.3409 7.39477L11.3573 7.41516L10.8883 7.79236L9.86664 7.33557ZM9.23402 7.26198L9.58643 6.97836C9.69623 6.89037 9.75864 6.79395 9.77405 6.68955C9.78925 6.58555 9.75764 6.48435 9.67865 6.38634C9.59824 6.28634 9.50665 6.23075 9.40384 6.21874C9.30103 6.20713 9.19083 6.24875 9.07323 6.34313L8.72243 6.62553L9.23402 7.26198Z" fill="#146A36"/>
<path d="M12.301 4.25283L11.5774 4.66603L12.7012 6.63449L12.2144 6.91248L11.0906 4.94403L10.3766 5.35164L10.1514 4.95763L12.076 3.8584L12.301 4.25283Z" fill="#146A36"/>
<path d="M14.4315 5.82436L13.9137 6.03958L12.8711 3.52632L13.3889 3.31152L14.4315 5.82436Z" fill="#146A36"/>
<path d="M16.3533 4.05188L15.3174 4.3443L15.6194 5.41431L15.08 5.56673L14.3408 2.94825L16.0457 2.46704L16.1691 2.90384L15.0036 3.23306L15.1946 3.90906L16.2305 3.61665L16.3533 4.05188Z" fill="#146A36"/>
<path d="M17.8769 4.92116L17.3233 5.00876L16.8975 2.32188L17.4513 2.23389L17.8769 4.92116Z" fill="#146A36"/>
<path d="M20.6592 3.84522C20.6464 4.13843 20.545 4.37163 20.355 4.54525C20.1647 4.71924 19.9103 4.81047 19.5915 4.81967C19.2429 4.82966 18.9653 4.72006 18.7587 4.49085C18.5521 4.26203 18.4431 3.94244 18.4313 3.53281L18.4267 3.3664C18.4191 3.10519 18.4587 2.87359 18.5451 2.67157C18.6317 2.46956 18.7589 2.31317 18.9271 2.20156C19.0953 2.09034 19.2927 2.03154 19.5193 2.02515C19.8331 2.01595 20.0884 2.09276 20.285 2.25556C20.4816 2.41797 20.599 2.65076 20.6376 2.95397L20.0772 2.96998C20.0586 2.79477 20.0059 2.66876 19.9197 2.59196C19.8333 2.51556 19.7043 2.47955 19.5325 2.48435C19.3457 2.48995 19.2077 2.56076 19.1189 2.69716C19.0299 2.83356 18.9881 3.04276 18.9937 3.32438L18.9995 3.52958C19.0079 3.82359 19.0585 4.03719 19.1515 4.17041C19.2443 4.3036 19.3867 4.3672 19.5785 4.36201C19.7515 4.35681 19.8797 4.3136 19.9627 4.23199C20.0457 4.15079 20.0911 4.0268 20.0989 3.86079L20.6592 3.84522Z" fill="#146A36"/>
<path d="M21.802 4.87965L21.2441 4.82445L21.5127 2.11719L22.0705 2.17238L21.802 4.87965Z" fill="#146A36"/>
<path d="M24.1277 4.75318L23.1711 4.52677L22.8603 5.02919L22.2803 4.89199L23.8921 2.47754L24.3977 2.59713L24.7624 5.47921L24.1823 5.34202L24.1277 4.75318ZM23.4231 4.11996L24.0849 4.27638L23.9867 3.20675L23.4231 4.11996Z" fill="#146A36"/>
<path d="M25.7767 5.42312L26.8765 5.87835L26.7043 6.29436L25.0864 5.62474L26.1271 3.11108L26.6451 3.32548L25.7767 5.42312Z" fill="#146A36"/>
<path d="M30.3961 7.61594C30.2065 7.83993 29.9835 7.96276 29.7271 7.98394C29.4702 8.00515 29.2132 7.92193 28.9554 7.73394C28.6734 7.52874 28.5206 7.27233 28.4972 6.96472C28.4738 6.65751 28.5828 6.33789 28.824 6.00668L28.9221 5.87227C29.0761 5.66066 29.2489 5.50146 29.4409 5.39465C29.6327 5.28784 29.8291 5.24184 30.0303 5.25624C30.2315 5.27103 30.4237 5.34505 30.6071 5.47864C30.8607 5.66345 31.0157 5.88025 31.0717 6.12906C31.1279 6.37827 31.0785 6.63428 30.9237 6.89749L30.4707 6.56748C30.5629 6.41748 30.5983 6.28587 30.5769 6.17227C30.5555 6.05867 30.4753 5.95146 30.3365 5.85027C30.1853 5.74027 30.0329 5.71228 29.8791 5.76586C29.7251 5.81946 29.5643 5.95907 29.3966 6.18548L29.2756 6.35149C29.1026 6.58911 29.012 6.78911 29.004 6.95152C28.9962 7.11353 29.0698 7.25112 29.2248 7.36392C29.3648 7.46594 29.4926 7.50992 29.6081 7.49632C29.7237 7.48272 29.8353 7.41231 29.9429 7.28593L30.3961 7.61594Z" fill="#146A36"/>
<path d="M32.6872 9.35207C32.4946 9.53847 32.2928 9.66728 32.082 9.73969C31.871 9.81169 31.6648 9.82248 31.4636 9.77208C31.2622 9.72129 31.0824 9.61408 30.924 9.45008C30.7674 9.28807 30.6664 9.10567 30.6216 8.90326C30.5766 8.70045 30.5926 8.49446 30.6698 8.28483C30.747 8.07521 30.8792 7.87882 31.0664 7.69642L31.1632 7.60281C31.3558 7.4168 31.5588 7.28759 31.7724 7.21559C31.986 7.14318 32.1932 7.13279 32.394 7.18399C32.595 7.23478 32.7742 7.34199 32.9316 7.5048C33.0892 7.668 33.19 7.85079 33.2343 8.05321C33.2783 8.25562 33.2607 8.46241 33.1812 8.67362C33.1018 8.88444 32.9662 9.08242 32.7746 9.26763L32.6872 9.35207ZM32.3812 8.85806C32.5864 8.65965 32.7067 8.47245 32.7425 8.29605C32.7781 8.11964 32.73 7.96323 32.5984 7.82683C32.4678 7.69162 32.3142 7.63801 32.138 7.66643C31.9618 7.69483 31.7716 7.80644 31.5674 8.00204L31.4718 8.09443C31.2722 8.28764 31.1526 8.47404 31.1134 8.65405C31.0742 8.83367 31.1212 8.99287 31.2546 9.13086C31.3852 9.26606 31.5388 9.31845 31.715 9.28847C31.8912 9.25846 32.0816 9.14565 32.2858 8.95005L32.3812 8.85806Z" fill="#146A36"/>
<path d="M32.7455 10.8712L33.4251 11.8484L33.0555 12.1056L32.0557 10.668L34.2895 9.11475L34.6095 9.57516L32.7455 10.8712Z" fill="#146A36"/>
<path d="M35.3725 13.8207C35.1315 13.9379 34.8997 13.9979 34.6769 14.0011C34.4539 14.0043 34.2547 13.9507 34.0789 13.8399C33.9033 13.7295 33.7655 13.5719 33.6659 13.3667C33.5673 13.1639 33.5279 12.9595 33.5481 12.7531C33.5681 12.5463 33.6473 12.3555 33.7857 12.1802C33.9241 12.0046 34.1107 11.859 34.3453 11.7434L34.4664 11.6846C34.7072 11.5674 34.9404 11.5078 35.1658 11.5054C35.3912 11.5034 35.5914 11.5574 35.7666 11.6682C35.9416 11.779 36.0788 11.9366 36.178 12.1402C36.2772 12.3442 36.3164 12.5494 36.2954 12.7555C36.2746 12.9619 36.1936 13.1527 36.0528 13.3287C35.9118 13.5047 35.7214 13.6511 35.4818 13.7675L35.3725 13.8207ZM35.2349 13.2559C35.4913 13.1311 35.6639 12.9903 35.7525 12.8335C35.8411 12.6771 35.8441 12.5135 35.7613 12.3431C35.6789 12.1739 35.5495 12.0755 35.3733 12.0479C35.1969 12.0199 34.9815 12.0675 34.7265 12.1899L34.6073 12.2479C34.3575 12.3695 34.1861 12.5095 34.0929 12.6687C33.9999 12.8275 33.9953 12.9931 34.0793 13.1655C34.1615 13.3347 34.2911 13.4324 34.4679 13.4588C34.6449 13.4848 34.8607 13.4368 35.1155 13.314L35.2349 13.2559Z" fill="#146A36"/>
<path d="M35.5997 15.5397L35.4765 15.1104L34.5193 15.3852L34.3643 14.8464L36.9793 14.0952L37.2583 15.0669C37.3472 15.3757 37.3467 15.6337 37.2573 15.8409C37.1677 16.0481 36.9973 16.1877 36.7459 16.2601C36.5675 16.3113 36.4075 16.3157 36.2663 16.2725C36.1249 16.2297 35.9965 16.1397 35.8807 16.0033L34.9747 16.8761L34.9495 16.8833L34.7835 16.3049L35.5997 15.5397ZM35.9129 14.9848L36.0377 15.4197C36.0765 15.5549 36.1411 15.6497 36.2313 15.7041C36.3215 15.7585 36.4269 15.7685 36.5479 15.7337C36.6713 15.6985 36.7581 15.6353 36.8087 15.5449C36.8591 15.4549 36.8637 15.3373 36.8219 15.1921L36.6978 14.7592L35.9129 14.9848Z" fill="#146A36"/>
<path d="M3.1349 26.2774L2.97209 25.741L4.36834 24.1769L2.65528 24.6966L2.49268 24.1601L5.09614 23.3701L5.25894 23.9065L3.85971 25.4734L5.57615 24.9526L5.73836 25.4874L3.1349 26.2774Z" fill="#146A36"/>
<path d="M5.7512 28.7108C5.51358 28.8348 5.28339 28.9012 5.06077 28.9104C4.83797 28.9196 4.63734 28.8716 4.45875 28.7656C4.27993 28.66 4.13814 28.506 4.03274 28.304C3.92854 28.104 3.88374 27.9004 3.89813 27.6935C3.91253 27.4863 3.98655 27.2935 4.11994 27.1143C4.25355 26.9351 4.43615 26.7847 4.66755 26.6627L4.78675 26.6007C5.02437 26.4767 5.25577 26.4107 5.48096 26.4023C5.70617 26.3939 5.90796 26.4427 6.08598 26.5487C6.26418 26.6547 6.4056 26.8079 6.5104 27.0091C6.615 27.2103 6.6598 27.4143 6.64461 27.6207C6.62922 27.8275 6.55361 28.0207 6.41761 28.2003C6.28161 28.3799 6.0954 28.5315 5.85878 28.6547L5.7512 28.7108ZM5.59819 28.15C5.8512 28.0184 6.01979 27.8728 6.10401 27.714C6.18842 27.5548 6.1868 27.3912 6.09941 27.2232C6.01241 27.0563 5.88041 26.9615 5.70341 26.9387C5.52641 26.9155 5.31221 26.9688 5.06079 27.0983L4.94319 27.1596C4.69679 27.2879 4.52939 27.4328 4.44057 27.5944C4.35176 27.7556 4.35176 27.9212 4.44038 28.0916C4.52737 28.2584 4.65957 28.3524 4.8372 28.3736C5.01459 28.3952 5.22902 28.3408 5.48041 28.2116L5.59819 28.15Z" fill="#146A36"/>
<path d="M7.33641 31.9386L6.6826 31.2046L6.13978 31.4382L5.74316 30.9934L8.44805 29.939L8.79364 30.327L7.44021 32.8975L7.04359 32.4522L7.33641 31.9386ZM7.12221 31.0158L7.57482 31.5234L8.10744 30.5906L7.12221 31.0158Z" fill="#146A36"/>
<path d="M9.5013 33.3224L9.1511 33.0448L8.53267 33.8256L8.09326 33.4776L9.7823 31.3447L10.5749 31.9724C10.8269 32.172 10.9767 32.3819 11.0245 32.6028C11.0723 32.8232 11.0149 33.036 10.8525 33.2412C10.7373 33.3868 10.6097 33.4832 10.4697 33.5304C10.3299 33.5776 10.1731 33.5792 9.99948 33.5356L9.77067 34.7728L9.75446 34.7932L9.28265 34.4196L9.5013 33.3224ZM9.4329 32.6887L9.7875 32.9695C9.89789 33.0571 10.0055 33.0967 10.1105 33.0883C10.2155 33.0803 10.3071 33.0267 10.3853 32.9283C10.4649 32.8275 10.4989 32.7259 10.4875 32.6231C10.4759 32.5203 10.4111 32.4219 10.2929 32.3283L9.93991 32.0487L9.4329 32.6887Z" fill="#146A36"/>
<path d="M13.3219 34.2459L12.5945 33.8391L11.4884 35.8176L10.999 35.544L12.105 33.5655L11.3874 33.1643L11.609 32.7683L13.5435 33.8495L13.3219 34.2459Z" fill="#146A36"/>
<path d="M13.4719 36.7358L12.9531 36.5238L13.9821 34.0054L14.501 34.2174L13.4719 36.7358Z" fill="#146A36"/>
<path d="M16.2267 36.4423L15.1904 36.1507L14.8892 37.2211L14.3496 37.0691L15.0868 34.4502L16.7921 34.9298L16.6689 35.367L15.5034 35.039L15.313 35.7154L16.3491 36.0071L16.2267 36.4423Z" fill="#146A36"/>
<path d="M17.3786 37.7693L16.8252 37.6793L17.2616 34.9937L17.8148 35.0837L17.3786 37.7693Z" fill="#146A36"/>
<path d="M20.5085 37.0801C20.4769 37.3721 20.3607 37.5985 20.1599 37.7597C19.9591 37.9209 19.6993 37.9957 19.3807 37.9841C19.0321 37.9717 18.7621 37.8449 18.5707 37.6029C18.3791 37.3613 18.2907 37.0353 18.3053 36.6257L18.3113 36.4597C18.3205 36.198 18.3749 35.9696 18.4741 35.7736C18.5733 35.5776 18.7103 35.4296 18.8853 35.3292C19.0603 35.2288 19.2611 35.1828 19.4877 35.1908C19.8015 35.202 20.0511 35.2952 20.2369 35.47C20.4225 35.6449 20.5249 35.8849 20.5441 36.1897L19.9839 36.1697C19.9763 35.9937 19.9321 35.8645 19.8509 35.7825C19.7697 35.7005 19.6431 35.6565 19.4713 35.6505C19.2845 35.6437 19.1425 35.7057 19.0449 35.8361C18.9475 35.9665 18.8923 36.1725 18.8799 36.4537L18.8725 36.6593C18.8621 36.9529 18.8989 37.1693 18.9831 37.3081C19.0673 37.4469 19.2053 37.5201 19.3969 37.5269C19.5699 37.5329 19.7005 37.4981 19.7887 37.4221C19.8767 37.3461 19.9299 37.2253 19.9483 37.0601L20.5085 37.0801Z" fill="#146A36"/>
<path d="M21.8732 37.8631L21.3148 37.9123L21.0762 35.2018L21.6346 35.1526L21.8732 37.8631Z" fill="#146A36"/>
<path d="M24.2762 36.8743L23.3167 37.0879L23.2561 37.6755L22.6743 37.8051L23.0717 34.9295L23.5787 34.8167L25.164 37.2511L24.5822 37.3803L24.2762 36.8743ZM23.3657 36.6119L24.0298 36.4638L23.4745 35.5442L23.3657 36.6119Z" fill="#146A36"/>
<path d="M26.3031 36.3397L27.4077 35.8961L27.5755 36.3141L25.9506 36.9665L24.937 34.4416L25.4574 34.2324L26.3031 36.3397Z" fill="#146A36"/>
<path d="M30.6596 33.3568C30.8096 33.6092 30.8526 33.86 30.7888 34.1096C30.725 34.3588 30.5622 34.5748 30.3006 34.7572C30.0142 34.9564 29.7219 35.0168 29.4237 34.9384C29.1255 34.86 28.8591 34.6528 28.6249 34.3164L28.5299 34.18C28.3803 33.9652 28.2865 33.75 28.2481 33.5336C28.2099 33.3176 28.2305 33.1168 28.3103 32.9312C28.3899 32.746 28.5227 32.5884 28.7087 32.4588C28.9663 32.2796 29.2219 32.204 29.4755 32.2324C29.7291 32.2608 29.9549 32.3912 30.1531 32.6232L29.6933 32.9436C29.5815 32.8076 29.4687 32.7308 29.3545 32.714C29.2403 32.6972 29.1125 32.738 28.9715 32.836C28.8183 32.9428 28.7417 33.078 28.7421 33.2408C28.7425 33.4036 28.8221 33.6016 28.9811 33.834L29.0985 34.0024C29.2665 34.2436 29.4259 34.3948 29.5765 34.4552C29.7273 34.5156 29.8813 34.4912 30.0387 34.3812C30.1809 34.2824 30.2643 34.176 30.2891 34.0624C30.3139 33.9488 30.2841 33.8204 30.1995 33.6772L30.6596 33.3568Z" fill="#146A36"/>
<path d="M32.6051 30.952C32.7947 31.1416 32.9275 31.3408 33.0033 31.5504C33.0793 31.76 33.0937 31.966 33.0467 32.168C32.9997 32.3704 32.8957 32.552 32.7347 32.7132C32.5753 32.8728 32.3949 32.9768 32.1933 33.0256C31.9914 33.074 31.785 33.0616 31.574 32.9884C31.363 32.9152 31.1646 32.7864 30.9786 32.6024L30.8834 32.5072C30.6938 32.318 30.561 32.1172 30.4852 31.9052C30.4092 31.6928 30.395 31.486 30.4424 31.284C30.4898 31.0824 30.5936 30.9012 30.7538 30.7408C30.914 30.5804 31.095 30.4764 31.2966 30.4288C31.4984 30.3808 31.7054 30.3948 31.9176 30.4704C32.13 30.546 32.3306 30.678 32.5192 30.8664L32.6051 30.952ZM32.1165 31.2668C31.9147 31.0656 31.7253 30.9484 31.548 30.916C31.371 30.8836 31.2156 30.9344 31.0818 31.0684C30.9488 31.2012 30.898 31.356 30.9294 31.5316C30.961 31.7072 31.0762 31.8956 31.2754 32.096L31.3695 32.19C31.566 32.386 31.7545 32.5025 31.9351 32.5385C32.1157 32.5741 32.2739 32.5245 32.4095 32.3885C32.5423 32.2557 32.5921 32.1012 32.5591 31.9253C32.5259 31.7496 32.4097 31.5617 32.2105 31.3608L32.1165 31.2668Z" fill="#146A36"/>
<path d="M34.0946 30.3885L34.7888 29.4217L35.1546 29.6845L34.1334 31.1065L31.9233 29.5201L32.2503 29.0645L34.0946 30.3885Z" fill="#146A36"/>
<path d="M35.4023 26.4614C35.6415 26.5822 35.8299 26.7302 35.9673 26.9054C36.1049 27.081 36.183 27.2722 36.2014 27.4786C36.22 27.6854 36.1778 27.8906 36.0752 28.0942C35.9736 28.2954 35.8346 28.4506 35.6579 28.5598C35.4815 28.669 35.2817 28.7214 35.0583 28.7178C34.8349 28.7138 34.6061 28.6534 34.3719 28.5366L34.2519 28.4762C34.0127 28.3554 33.8241 28.2062 33.6857 28.0282C33.5473 27.8502 33.4693 27.6582 33.4513 27.4518C33.4333 27.2454 33.4755 27.0406 33.5777 26.8382C33.6797 26.6358 33.8191 26.4806 33.9959 26.3722C34.1727 26.2642 34.3737 26.2126 34.5989 26.2182C34.8243 26.2238 35.0559 26.2866 35.294 26.4066L35.4023 26.4614ZM35.0365 26.913C34.7817 26.7846 34.5653 26.7326 34.3869 26.757C34.2085 26.7814 34.0767 26.8782 33.9913 27.047C33.9067 27.215 33.9065 27.3774 33.9913 27.5346C34.0759 27.6918 34.2441 27.8346 34.4961 27.963L34.6145 28.023C34.8625 28.1482 35.0779 28.1994 35.2607 28.1774C35.4435 28.155 35.5781 28.0586 35.6648 27.887C35.7494 27.7194 35.7485 27.557 35.6623 27.4002C35.5759 27.2438 35.4067 27.1014 35.1549 26.9726L35.0365 26.913Z" fill="#146A36"/>
<path d="M36.2674 24.8164L36.1402 25.2444L37.0948 25.5284L36.9348 26.0661L34.3271 25.2901L34.6154 24.3212C34.707 24.0132 34.8464 23.796 35.0334 23.6696C35.2206 23.5432 35.4394 23.5176 35.6902 23.592C35.868 23.6448 36.005 23.7276 36.1008 23.84C36.1968 23.9524 36.2566 24.0972 36.2806 24.2744L37.514 24.0276L37.539 24.0348L37.3676 24.6116L36.2674 24.8164ZM35.7047 25.1152L35.8337 24.6816C35.8739 24.5468 35.8707 24.432 35.8241 24.3376C35.7774 24.2432 35.6937 24.178 35.5731 24.142C35.4503 24.1056 35.3431 24.1116 35.2519 24.1604C35.1607 24.2096 35.0935 24.306 35.0505 24.4508L34.9221 24.8824L35.7047 25.1152Z" fill="#146A36"/>
<path d="M3.73588 21.5348C4.58348 21.5348 5.2706 20.8476 5.2706 20C5.2706 19.1524 4.58348 18.4653 3.73588 18.4653C2.88829 18.4653 2.20117 19.1524 2.20117 20C2.20117 20.8476 2.88829 21.5348 3.73588 21.5348Z" fill="#146A36"/>
<path d="M36.0699 21.5348C36.9175 21.5348 37.6046 20.8476 37.6046 20C37.6046 19.1524 36.9175 18.4653 36.0699 18.4653C35.2223 18.4653 34.5352 19.1524 34.5352 20C34.5352 20.8476 35.2223 21.5348 36.0699 21.5348Z" fill="#146A36"/>
<path d="M20.029 6.34229C12.401 6.34495 6.36862 12.3985 6.32623 20.0106C6.30502 27.4795 12.4143 33.6339 19.8779 33.6577C27.4582 33.6842 33.6072 27.6385 33.6735 20.1723C33.7397 12.5231 27.6384 6.33965 20.029 6.34229ZM24.7759 30.7104C22.7086 31.654 20.5379 31.9403 18.2956 31.6116C15.8811 31.2564 13.7793 30.2307 11.9319 28.5132C12.4461 28.1024 12.9285 27.6863 13.44 27.3126C13.6971 27.1244 13.7687 26.9707 13.5911 26.6818C13.1352 25.937 12.9232 25.1048 12.7933 24.2487C12.78 24.1612 12.7482 24.0764 12.7085 23.9333C11.7994 24.6807 10.93 25.3937 10.005 26.1543C8.14973 22.9394 7.67265 19.5865 8.95015 16.1118C10.5537 11.7439 13.7315 9.12526 18.3194 8.39639C22.4992 7.73113 26.2283 9.57847 28.02 11.5292C26.6206 12.6636 25.2238 13.798 23.8032 14.9483C24.3174 15.7858 24.8104 16.5969 25.3272 17.3947C25.359 17.4424 25.624 17.4132 25.7168 17.339C26.6127 16.6234 27.4953 15.8892 28.3831 15.1603C28.839 14.7892 29.3002 14.4261 29.7481 14.0471C29.9681 13.8589 30.0794 13.965 30.1881 14.1611C30.97 15.5579 31.4842 17.0474 31.6697 18.6377C31.9189 20.7766 31.5928 22.8333 30.7049 24.7947C29.4725 27.5087 27.4847 29.4727 24.7759 30.7104Z" fill="#146A36"/>
<path d="M25.7809 22.3326C25.5237 20.7477 24.779 19.3721 23.9627 18.0283C22.5818 15.7595 21.0154 13.5994 20.0294 11.0232C19.9578 11.1372 19.9234 11.1796 19.9048 11.2273C19.2608 12.8467 18.3729 14.3336 17.4479 15.8019C16.4381 17.4054 15.3514 18.9665 14.649 20.7476C13.5915 23.4299 14.1931 26.0035 16.3373 27.6335C17.4611 28.4869 18.7334 29.0223 20.1699 28.9666C21.3202 28.9189 22.4016 28.5399 23.3425 27.8747C25.2508 26.5256 26.1705 24.7154 25.7809 22.3326ZM17.7977 24.1455C18.2775 24.5696 18.3411 25.2163 17.9912 25.696C17.6678 26.1413 16.9522 26.2818 16.4327 25.9929C15.7277 25.6006 15.4521 24.9221 15.2613 24.1959C15.0068 23.2205 15.1234 22.2637 15.4441 21.3334C16.1783 19.1998 17.4717 17.4028 18.9454 15.7198C18.6088 16.3506 18.2589 16.9735 17.9382 17.6096C17.3445 18.7864 16.8807 20.0055 16.7746 21.3334C16.6845 22.4254 16.9443 23.3875 17.7977 24.1455Z" fill="#146A36"/>
</svg>
