<svg width="40" height="40" viewBox="0 0 40 40" fill="none" xmlns="http://www.w3.org/2000/svg">
<path d="M19.9998 40.0004C8.97184 40.0004 0 31.0285 0 20.0002C0 8.97183 8.97184 0 19.9998 0C31.0278 0 40 8.97183 40 20.0002C40 31.0285 31.0282 40.0004 19.9998 40.0004Z" fill="#146A36"/>
<path d="M19.955 2.06641C9.98322 2.06641 1.89941 10.1502 1.89941 20.122C1.89941 30.0939 9.98322 38.1777 19.955 38.1777C29.9269 38.1777 38.0107 30.0939 38.0107 20.122C38.0107 10.1502 29.9269 2.06641 19.955 2.06641ZM19.955 35.9534C15.9602 35.9534 12.3111 34.4731 9.52553 32.0319L12.6386 28.9185L11.1583 27.4382L8.04523 30.5512C5.60397 27.7657 4.12368 24.1169 4.12368 20.1217C4.12368 11.3781 11.2115 4.29031 19.955 4.29031C23.9499 4.29031 27.599 5.7706 30.3846 8.21223L26.2449 12.3519L27.7252 13.8322L31.8649 9.69253C34.3061 12.4781 35.7864 16.1268 35.7864 20.122C35.7864 28.8656 28.6986 35.9534 19.955 35.9534Z" fill="white"/>
<path d="M20.2971 8.60645C18.8868 13.5801 13.1338 17.3934 13.1338 22.0735C13.1338 26.0297 16.3409 29.2368 20.2971 29.2368C24.2533 29.2368 27.4604 26.0297 27.4604 22.0735C27.4604 16.8204 21.9207 13.3821 20.2971 8.60645ZM20.3438 10.5276C21.0987 11.9518 22.1118 13.265 23.1001 14.5466C24.7967 16.7468 26.4163 19.2621 26.4163 21.7693L24.5473 23.0458C24.5473 20.6979 24.0688 18.3047 22.3821 14.8402C21.7665 13.5758 20.8875 12.0178 20.2391 10.7359C20.2738 10.6662 20.311 10.5977 20.3442 10.5273L20.3438 10.5276ZM20.3285 28.1989C16.9963 28.1989 14.2946 25.4976 14.2946 22.165C14.2946 20.7836 14.764 19.5148 15.5448 18.4977C15.5047 18.7792 15.4766 19.0648 15.4766 19.3576C15.4766 22.6902 18.1779 25.3915 21.5104 25.3915C23.4616 25.3915 25.1909 24.4615 26.2941 23.025C25.8758 25.9487 23.3682 28.1989 20.3285 28.1989Z" fill="white"/>
</svg>
