<svg width="27" height="21" viewBox="0 0 27 21" fill="none" xmlns="http://www.w3.org/2000/svg">
<path d="M26.1395 1.61401C25.3785 1.06906 24.4572 0.774981 23.511 0.774981C22.5647 0.774981 21.6434 1.06906 20.8824 1.61401C20.4119 1.94452 19.8444 2.12044 19.2632 2.11601C18.682 2.11159 18.1175 1.92705 17.6523 1.58941C16.05 0.470197 13.9991 0.470197 12.4193 1.58941C11.4291 2.27542 10.1794 2.27542 9.21316 1.58941M0.75 6.73178C1.53888 7.2768 2.48365 7.56974 3.45257 7.56974C4.42149 7.56974 5.36626 7.2768 6.15514 6.73178C6.63508 6.39725 7.21139 6.21728 7.80263 6.21728C8.39388 6.21728 8.97018 6.39725 9.45013 6.73178C11.099 7.84962 13.2303 7.87559 14.8553 6.75638M26.1395 13.9008C25.3785 13.3558 24.4572 13.0617 23.511 13.0617C22.5647 13.0617 21.6434 13.3558 20.8824 13.9008C20.4194 14.2356 19.8571 14.4165 19.2794 14.4165C18.7016 14.4165 18.1393 14.2356 17.6763 13.9008C16.074 12.7829 13.9991 12.7569 12.4193 13.8762C11.4291 14.5622 10.1794 14.5622 9.21316 13.8762M0.75 19.0308C1.53888 19.5758 2.48365 19.8688 3.45257 19.8688C4.42149 19.8688 5.36626 19.5758 6.15514 19.0308C6.63508 18.6963 7.21139 18.5163 7.80263 18.5163C8.39388 18.5163 8.97018 18.6963 9.45013 19.0308C11.099 20.1487 13.2303 20.1746 14.8553 19.0554" stroke="#146A36" stroke-width="1.5" stroke-linecap="round"/>
</svg>
