<svg width="27" height="31" viewBox="0 0 27 31" fill="none" xmlns="http://www.w3.org/2000/svg">
<path d="M15.6155 30.6828C20.5804 29.6849 27 26.0997 27 16.8299C27 8.39538 20.8488 2.7777 16.4255 0.196816C15.4424 -0.377067 14.2941 0.376952 14.2941 1.51675V4.4308C14.2941 6.72952 13.3316 10.9252 10.6571 12.6708C9.29118 13.5619 7.81412 12.2276 7.64894 10.6016L7.51235 9.26577C7.35353 7.71309 5.778 6.77097 4.54235 7.71788C2.32041 9.41561 0 12.3966 0 16.8283C0 28.1641 8.40018 31 12.5995 31C12.8451 31 13.1014 30.992 13.3682 30.9761C11.2939 30.7991 7.94118 29.5079 7.94118 25.3313C7.94118 22.0634 10.3156 19.8555 12.1198 18.7795C12.6058 18.4925 13.1728 18.8672 13.1728 19.4331V20.3736C13.1728 21.0909 13.4508 22.2148 14.1099 22.9832C14.8564 23.8536 15.9506 22.9417 16.038 21.7971C16.0666 21.4369 16.4287 21.2073 16.74 21.389C17.7581 21.9868 19.0588 23.2621 19.0588 25.3313C19.0588 28.5961 17.2657 30.0977 15.6155 30.6828Z" fill="#146A36"/>
</svg>
