<svg width="42" height="42" viewBox="0 0 42 42" fill="none" xmlns="http://www.w3.org/2000/svg">
<path fill-rule="evenodd" clip-rule="evenodd" d="M20.625 41.25C23.3335 41.25 26.0155 40.7165 28.5178 39.68C31.0202 38.6435 33.2939 37.1243 35.2091 35.2091C37.1243 33.2939 38.6435 31.0202 39.68 28.5178C40.7165 26.0155 41.25 23.3335 41.25 20.625C41.25 17.9165 40.7165 15.2345 39.68 12.7322C38.6435 10.2298 37.1243 7.95613 35.2091 6.04092C33.2939 4.12571 31.0202 2.60649 28.5178 1.56998C26.0155 0.533481 23.3335 -4.036e-08 20.625 0C15.1549 8.15107e-08 9.90886 2.17298 6.04092 6.04092C2.17299 9.90886 0 15.1549 0 20.625C0 26.0951 2.17299 31.3411 6.04092 35.2091C9.90886 39.077 15.1549 41.25 20.625 41.25ZM20.0933 28.9667L31.5517 15.2167L28.0317 12.2833L18.1775 24.106L13.0785 19.0048L9.83813 22.2452L16.7131 29.1202L18.4869 30.894L20.0933 28.9667Z" fill="#146A36"/>
</svg>
