<svg width="95" height="95" viewBox="0 0 95 95" fill="none" xmlns="http://www.w3.org/2000/svg">
<g filter="url(#filter0_d_40_79)">
<circle cx="47.3" cy="43.3" r="39" fill="#EFEFE7"/>
</g>
<path d="M42.4427 63.3C41.2042 63.3 40.0312 62.7199 39.2795 61.7198L29.1066 48.23C28.7914 47.8137 28.5611 47.339 28.4291 46.8332C28.2971 46.3273 28.2659 45.8003 28.3373 45.2824C28.4088 44.7644 28.5814 44.2657 28.8453 43.8149C29.1093 43.3641 29.4593 42.97 29.8753 42.6552C30.2903 42.3379 30.7637 42.1062 31.2683 41.9732C31.7729 41.8402 32.2987 41.8086 32.8155 41.8803C33.3322 41.952 33.8298 42.1256 34.2795 42.391C34.7292 42.6563 35.1222 43.0083 35.4358 43.4267L42.1295 52.2961L58.9591 25.1736C59.5172 24.2781 60.4065 23.6413 61.4318 23.4029C62.4572 23.1645 63.5348 23.344 64.4285 23.902C66.2877 25.0621 66.86 27.5195 65.6983 29.3883L45.8137 61.4198C45.4743 61.9691 45.0064 62.4269 44.4507 62.7535C43.895 63.0802 43.2683 63.2658 42.6249 63.2943L42.4427 63.3Z" fill="#146A36"/>
<defs>
<filter id="filter0_d_40_79" x="-1.23978e-05" y="-1.23978e-05" width="94.6" height="94.6" filterUnits="userSpaceOnUse" color-interpolation-filters="sRGB">
<feFlood flood-opacity="0" result="BackgroundImageFix"/>
<feColorMatrix in="SourceAlpha" type="matrix" values="0 0 0 0 0 0 0 0 0 0 0 0 0 0 0 0 0 0 127 0" result="hardAlpha"/>
<feMorphology radius="2" operator="dilate" in="SourceAlpha" result="effect1_dropShadow_40_79"/>
<feOffset dy="4"/>
<feGaussianBlur stdDeviation="3.15"/>
<feComposite in2="hardAlpha" operator="out"/>
<feColorMatrix type="matrix" values="0 0 0 0 0.0784314 0 0 0 0 0.415686 0 0 0 0 0.211765 0 0 0 0.24 0"/>
<feBlend mode="normal" in2="BackgroundImageFix" result="effect1_dropShadow_40_79"/>
<feBlend mode="normal" in="SourceGraphic" in2="effect1_dropShadow_40_79" result="shape"/>
</filter>
</defs>
</svg>
