<svg width="28" height="27" viewBox="0 0 28 27" fill="none" xmlns="http://www.w3.org/2000/svg">
<path d="M20.7812 7.75742L21.8936 8.83456L21.9307 8.8707L21.8936 8.90683L11.8076 18.6773L11.7734 18.7115L11.7383 18.6773L4.8291 11.984L4.79199 11.9478L4.8291 11.9127L5.94141 10.8355L5.97559 10.8014L6.01074 10.8355L11.7725 16.4176L20.7119 7.75742L20.7471 7.72421L20.7812 7.75742Z" fill="#146A36" stroke="#146A36" stroke-width="0.1"/>
<path d="M13.5996 0.0502014C21.0904 0.0502019 27.1494 5.91803 27.1494 13.1791C27.1494 20.4402 21.0904 26.308 13.5996 26.308C6.10879 26.308 0.0498047 20.4402 0.0498047 13.1791C0.049863 5.91803 6.10883 0.0502014 13.5996 0.0502014ZM13.5996 1.68887C7.03458 1.68887 1.73834 6.82252 1.73828 13.1791C1.73828 19.5357 7.03454 24.6693 13.5996 24.6693C20.1647 24.6693 25.4609 19.5357 25.4609 13.1791C25.4609 6.82252 20.1646 1.68887 13.5996 1.68887Z" fill="#146A36" stroke="#146A36" stroke-width="0.1"/>
</svg>
