<svg width="29" height="28" viewBox="0 0 29 28" fill="none" xmlns="http://www.w3.org/2000/svg">
<path d="M14.1055 0.25C21.7652 0.250108 27.9609 6.26404 27.9609 13.666C27.9607 21.0678 21.765 27.0809 14.1055 27.0811C6.44582 27.0811 0.250229 21.0679 0.25 13.666C0.25 6.26398 6.44568 0.25 14.1055 0.25ZM14.1055 1.38965C10.7497 1.38965 7.52956 2.68125 5.1543 4.98242C2.77876 7.28391 1.44238 10.4077 1.44238 13.666C1.4425 16.9242 2.77886 20.0472 5.1543 22.3486C7.52956 24.6498 10.7497 25.9414 14.1055 25.9414C17.4612 25.9414 20.6814 24.6498 23.0566 22.3486C25.432 20.0473 26.7675 16.9241 26.7676 13.666C26.7676 10.4077 25.4321 7.2839 23.0566 4.98242C20.6814 2.68124 17.4612 1.3897 14.1055 1.38965ZM14.7012 5.71582V13.0928L14.7773 13.166L20.0801 18.3037L19.2432 19.1143L13.5088 13.5596V5.71582H14.7012Z" fill="#146A36" stroke="#146A36" stroke-width="0.5"/>
</svg>
