<svg width="27" height="27" viewBox="0 0 27 27" fill="none" xmlns="http://www.w3.org/2000/svg">
<path d="M13.5 0C6.0445 0 0 6.0445 0 13.5C0 20.9555 6.0445 27 13.5 27C20.9555 27 27 20.9555 27 13.5C27 6.0445 20.9555 0 13.5 0ZM19.7308 15.5769H13.5C13.2246 15.5769 12.9604 15.4675 12.7657 15.2728C12.5709 15.078 12.4615 14.8139 12.4615 14.5385V5.19231C12.4615 4.91689 12.5709 4.65275 12.7657 4.458C12.9604 4.26326 13.2246 4.15385 13.5 4.15385C13.7754 4.15385 14.0396 4.26326 14.2343 4.458C14.4291 4.65275 14.5385 4.91689 14.5385 5.19231V13.5H19.7308C20.0062 13.5 20.2703 13.6094 20.4651 13.8042C20.6598 13.9989 20.7692 14.263 20.7692 14.5385C20.7692 14.8139 20.6598 15.078 20.4651 15.2728C20.2703 15.4675 20.0062 15.5769 19.7308 15.5769Z" fill="#146A36"/>
</svg>
