<svg width="22" height="22" viewBox="0 0 22 22" fill="none" xmlns="http://www.w3.org/2000/svg">
<path d="M4.85162 5.5001C3.51753 6.9901 2.77061 8.91429 2.75002 10.9142C2.69932 15.4839 6.4303 19.2415 11 19.2501C15.5633 19.2587 19.25 15.5621 19.25 11.0001C19.25 6.50814 15.66 2.85279 11.1934 2.7501C11.1682 2.74929 11.1432 2.75355 11.1197 2.76263C11.0963 2.77171 11.0749 2.78542 11.0568 2.80294C11.0388 2.82047 11.0245 2.84145 11.0147 2.86463C11.0049 2.88781 11 2.91272 11 2.93787V6.53135" stroke="white" stroke-linecap="round" stroke-linejoin="round"/>
<path d="M10.028 11.9721L6.63351 7.11668C6.58655 7.0494 6.56476 6.96775 6.57197 6.88602C6.57918 6.8043 6.61492 6.72772 6.67294 6.6697C6.73095 6.61169 6.80753 6.57594 6.88926 6.56873C6.97098 6.56153 7.05264 6.58331 7.11991 6.63027L11.9754 10.0248C12.2732 10.2393 12.4746 10.5624 12.536 10.9243C12.5975 11.2861 12.514 11.6576 12.3036 11.9584C12.0933 12.2591 11.773 12.465 11.412 12.5314C11.051 12.5978 10.6784 12.5195 10.3748 12.3133C10.2405 12.2203 10.1232 12.1049 10.028 11.9721Z" fill="white"/>
</svg>
