<svg width="50" height="47" viewBox="0 0 50 47" fill="none" xmlns="http://www.w3.org/2000/svg">
<path fill-rule="evenodd" clip-rule="evenodd" d="M24.5833 0C11.006 0 0 10.4496 0 23.3406C0 27.752 1.29062 31.8833 3.53508 35.403L1.34225 42.4799C1.21635 42.8862 1.20806 43.3172 1.31827 43.7276C1.42847 44.138 1.6531 44.5127 1.96853 44.8122C2.28397 45.1117 2.67855 45.3249 3.11082 45.4296C3.54308 45.5342 3.99705 45.5263 4.425 45.4068L11.8787 43.3248C15.7106 45.5257 20.1048 46.6866 24.5833 46.6812C38.1607 46.6812 49.1667 36.2316 49.1667 23.3406C49.1667 10.4496 38.1607 0 24.5833 0ZM19.0226 28.6226C23.9958 33.342 28.7428 33.9652 30.4194 34.0236C32.9687 34.1123 35.4516 32.2637 36.4177 30.1187C36.5387 29.8517 36.5824 29.5588 36.5444 29.2704C36.5063 28.9819 36.388 28.7084 36.2014 28.4779C34.8542 26.844 33.0326 25.67 31.2528 24.503C30.8814 24.2584 30.4245 24.1602 29.9784 24.229C29.5323 24.2978 29.1317 24.5282 28.8608 24.8717L27.3858 27.0074C27.3079 27.1218 27.1871 27.2037 27.0478 27.2367C26.9086 27.2696 26.7614 27.2511 26.636 27.1848C25.6355 26.641 24.1777 25.7167 23.1305 24.7224C22.0832 23.728 21.1687 22.407 20.6549 21.5177C20.5928 21.4044 20.5752 21.2738 20.6054 21.1493C20.6356 21.0248 20.7115 20.9146 20.8196 20.8385L23.0911 19.2373C23.4162 18.9703 23.6261 18.5987 23.6806 18.1939C23.735 17.789 23.6301 17.3793 23.3861 17.0433C22.2848 15.5122 21.0015 13.5656 19.1406 12.2748C18.8999 12.1106 18.6186 12.0083 18.3241 11.9776C18.0295 11.9469 17.7315 11.989 17.4591 12.0998C15.1974 13.0194 13.2406 15.3768 13.334 17.8019C13.3955 19.3937 14.0518 23.9008 19.0226 28.6226Z" fill="#146A36"/>
</svg>
