<svg width="38" height="38" viewBox="0 0 38 38" fill="none" xmlns="http://www.w3.org/2000/svg">
<circle cx="19" cy="19" r="19" fill="white"/>
<circle cx="19" cy="19" r="19" fill="white"/>
<path d="M18.9126 5C26.4053 5 32.4789 11.0526 32.4789 18.5192C32.4789 25.9859 26.4053 32.0384 18.9126 32.0384C16.5151 32.0426 14.1597 31.4103 12.0887 30.2066L5.35164 32.0384L7.18581 25.3221C5.97699 23.2576 5.34201 20.9094 5.34621 18.5192C5.34621 11.0526 11.4199 5 18.9126 5ZM14.2892 12.1652L14.0178 12.176C13.8424 12.188 13.671 12.234 13.5132 12.3112C13.3661 12.3944 13.2317 12.4982 13.1143 12.6194C12.9515 12.7722 12.8593 12.9047 12.7602 13.0331C12.2584 13.6833 11.9883 14.4815 11.9924 15.3016C11.9951 15.9641 12.1687 16.609 12.4401 17.2119C12.9949 18.4313 13.9079 19.7224 15.1126 20.9189C15.403 21.2068 15.6878 21.4962 15.9944 21.7652C17.4914 23.0784 19.2752 24.0256 21.2039 24.5312L21.9745 24.6488C22.2255 24.6624 22.4765 24.6434 22.7288 24.6313C23.1238 24.6105 23.5095 24.5039 23.8589 24.319C24.0364 24.2275 24.2097 24.1283 24.3785 24.0215C24.3785 24.0215 24.4359 23.9828 24.548 23.8999C24.7312 23.7647 24.8438 23.6687 24.9957 23.5105C25.1097 23.3934 25.2046 23.2573 25.2806 23.1022C25.3864 22.8819 25.4923 22.4614 25.5357 22.1113C25.5682 21.8436 25.5587 21.6976 25.5547 21.607C25.5492 21.4624 25.4285 21.3123 25.2969 21.2488L24.5073 20.8959C24.5073 20.8959 23.3271 20.3835 22.6053 20.0564C22.5298 20.0236 22.4489 20.0048 22.3666 20.0009C22.2737 19.9913 22.1799 20.0016 22.0914 20.0312C22.0029 20.0608 21.9219 20.1091 21.8538 20.1726C21.847 20.1699 21.7561 20.247 20.7752 21.4313C20.7189 21.5066 20.6414 21.5636 20.5525 21.5949C20.4636 21.6262 20.3673 21.6304 20.276 21.607C20.1876 21.5835 20.101 21.5537 20.0169 21.5178C19.8486 21.4475 19.7903 21.4204 19.675 21.3718C18.8961 21.0337 18.1752 20.5761 17.5383 20.0158C17.3674 19.8671 17.2086 19.7049 17.0458 19.548C16.5122 19.0386 16.047 18.4624 15.6621 17.8338L15.582 17.7054C15.5254 17.6186 15.479 17.5256 15.4437 17.4282C15.3921 17.2295 15.5264 17.07 15.5264 17.07C15.5264 17.07 15.8561 16.7104 16.0094 16.5157C16.1586 16.3264 16.2848 16.1425 16.3662 16.0114C16.5262 15.7545 16.5764 15.4909 16.4923 15.2868C16.1125 14.3621 15.72 13.4423 15.3148 12.5275C15.2347 12.3463 14.9973 12.2166 14.7816 12.1909C14.7084 12.1819 14.6351 12.1747 14.5618 12.1692C14.3797 12.1588 14.197 12.1606 14.0151 12.1747L14.2892 12.1652Z" fill="#146A36"/>
</svg>
