<svg width="412" height="495" viewBox="0 0 412 495" fill="none" xmlns="http://www.w3.org/2000/svg">
<path d="M-430.43 495L-436 26.1996L-375.169 23.1663L-334.615 14.0665L-285.764 15.5832L-235.992 35.2994L-224.933 42.8826L-165.022 36.816L-148.431 27.7162L-84.8336 8L135.452 26.1996L187.988 38.3326L297.67 24.683L371.407 8L457.124 18.6164L541 8L539.48 495H-430.43Z" fill="#F7D80D"/>
<path d="M541.755 39.3867C538.909 40.423 529.414 39.7037 531.892 39.32C531.836 38.2197 525.946 38.963 519.687 38.0838C513.427 36.3308 506.797 41.1876 505.258 38.3476C501.046 36.5519 496.939 42.7515 492.833 39.7276C488.728 37.8654 484.622 39.8742 480.416 41.113C473.009 40.9958 465.201 48.0559 457.81 41.1903C453.515 39.7116 450.064 41.5073 445.68 39.6291C440.676 38.8538 435.485 45.2665 430.52 42.6769C428.156 46.9316 427.247 41.9523 424.729 39.6264C423.033 39.2854 421.205 33.9837 419.521 39.7996C416.867 35.9818 414.669 36.4773 411.902 36.893C408.941 38.5821 405.534 34.3433 402.52 36.9595C399.883 34.7243 396.903 36.5733 394.338 37.0315C393.784 36.496 393.146 36.7091 392.937 35.9099C389.422 38.9151 385.883 31.1703 382.449 32.7741C376.823 32.2493 371.097 31.6871 365.458 32.8008C360.263 35.1373 354.999 31.7697 349.812 32.8514C345.546 36.4187 341.652 29.673 337.498 30.3177C334.453 29.2467 332.207 28.1358 329.946 31.6338C327.984 36.48 326.449 32.1107 324.092 36.4507C319.868 37.7721 316.498 43.2284 311.701 41.1423C305.675 45.6821 300.784 49.7663 294.685 43.9024C291.318 44.001 288.769 42.9753 285.59 42.4771C281.779 45.0454 279.962 46.1164 276.354 44.9361C269.86 47.8348 264.285 50.0514 257.561 49.364C253.731 53.0966 250.485 56.7226 246.528 52.2654C245.177 53.4856 242.149 51.8204 241.026 52.0416C240.202 49.825 240.227 48.7752 239.447 48.5941C236.987 46.0764 228.411 47.5444 225.763 48.325C222.59 50.443 219.907 50.0008 216.713 50.8533C213.363 53.0273 209.91 47.1528 206.56 50.8213C204.075 53.736 198.964 51.1251 196.427 50.9253C193.714 51.951 192.568 43.5987 189.343 47.984C186.831 48.7886 184.301 47.8055 181.791 48.1225C177.454 47.3446 173.532 42.1947 169.163 46.6652C165.305 45.2212 161.444 43.1431 157.585 46.6652C154.536 42.5197 152.486 47.0915 150.027 45.3464C148.373 44.5951 147.189 37.6416 145.38 41.1264C143.207 38.5048 140.572 38.1931 138.372 39.4319C137.744 38.8298 137.146 43.3563 136.303 38.297C134.86 38.614 132.765 38.4142 131.28 38.3503C125.522 36.123 119.766 41.1956 114.009 38.3503C110.556 38.2144 107.005 38.1425 103.554 38.3183C101.36 41.0944 100.118 42.1414 98.0849 40.471C96.8196 41.7072 95.1151 37.2047 93.9543 41.3608C92.963 42.2986 92.5009 42.1254 91.6642 43.969C89.2885 42.7169 86.4797 43.8119 83.5935 45.2798C81.8368 44.2301 80.4167 43.7879 78.7226 44.9761C78.6494 43.7985 77.9342 45.1333 77.5703 43.8278C74.0609 41.3208 68.868 43.4095 65.0637 43.8998C58.8627 45.3757 52.4714 43.6893 46.2871 43.8278C43.9343 43.1272 41.8638 43.7426 39.5486 45.3384C37.752 46.4787 35.8426 49.095 34.0357 45.2878C31.137 40.78 28.0647 47.0062 25.2036 45.3917C21.1526 46.2523 18.0782 43.0419 13.8201 42.5144C9.84647 43.0632 8.22772 39.2241 4.72672 39.6451C0.94754 40.6015 -2.9006 41.3954 -6.69232 41.1397C-9.97583 43.5401 -13.2886 43.4256 -16.5742 41.1264C-20.2279 39.0829 -23.8837 41.1317 -27.5352 41.0944C-31.2203 42.7968 -34.531 45.9938 -38.2098 42.6316C-39.289 44.4193 -40.3493 44.0889 -41.3929 42.272C-41.7025 40.7347 -42.1144 41.6272 -42.6247 40.5535C-44.4338 41.2889 -45.7242 40.804 -47.826 39.7143C-50.938 41.2116 -53.2428 39.4159 -56.1603 38.6646C-61.3805 36.2056 -67.4748 38.2756 -72.8393 38.4861C-77.6579 38.1078 -76.0098 39.4426 -78.8207 34.4339C-80.3495 30.9411 -79.9919 35.02 -81.8406 32.7341C-84.5051 34.266 -87.6966 31.5246 -90.4154 32.8114C-95.4327 30.8053 -100.448 33.1764 -105.463 32.8114C-111.306 30.0487 -117.003 38.321 -122.648 35.9685C-127.456 37.4578 -132.059 42.5411 -136.886 42.24C-140.339 43.6014 -142.031 39.765 -144.991 45.9139C-147.557 48.2451 -150.307 55.3212 -153.634 52.3879C-158.601 52.0735 -164.221 52.2574 -169.268 52.2174C-174.806 52.1082 -182.517 49.4093 -187.44 53.5308C-193.095 53.8559 -198.825 55.0894 -204.811 54.9881C-209.91 50.9252 -215.149 56.8558 -220.624 53.6028C-222.897 56.1151 -225.535 49.1402 -227.779 53.6587C-231.338 48.666 -231.585 46.4068 -232.761 46.7904C-235.461 40.0926 -236.717 46.5666 -239.041 43.0552C-241.268 38.6407 -242.854 39.4532 -245.035 42.5677C-246.526 38.7232 -247.641 39.376 -249.107 41.0544C-250.897 48.7326 -253.263 36.3468 -255.111 41.1264C-259.282 37.8547 -263.452 41.3582 -267.62 41.1264C-270.627 41.9656 -276.99 40.8279 -279.635 41.0704C-281.379 38.3662 -281.126 33.3522 -282.208 36.8956C-283.274 39.1202 -284.328 30.3017 -286.037 34.1835C-289.567 31.2316 -292.982 24.0515 -296.247 31.3035C-299.7 29.3959 -303.837 32.2226 -308.034 28.3223C-312.232 32.6729 -316.488 31.5939 -320.179 29.2787C-325.226 27.4191 -328.29 38.9018 -333.593 35.6061C-340.01 37.7242 -346.788 33.3442 -353.154 35.5076C-357.762 41.8457 -362.653 41.2569 -367.225 38.6646C-369.114 36.7597 -370.277 39.1682 -371.87 41.1237C-374.277 45.6661 -376.488 45.5596 -379.378 43.9637C-383.831 43.2577 -388.689 46.8224 -393.148 43.8705C-397.707 45.6875 -400 42.8954 -404.64 48.1225C-406.326 46.0285 -409.57 50.5603 -411.051 48.1598C-413.102 48.8099 -413.87 44.39 -416.292 45.1786C-419.514 44.2515 -423.451 44.0703 -426.717 45.2825C-426.717 43.8945 -424.335 23.8118 -424.335 21.7177C-421.888 19.4611 -420.658 19.3679 -417.151 17.5376C-414.849 17.7854 -412.542 18.2196 -410.239 17.5589C-406.815 17.5935 -401.66 16.7996 -398.822 18.3741C-397.588 21.8482 -397.191 20.2364 -395.647 21.0357C-393.84 26.4493 -392.243 23.6439 -390.302 21.7257C-387.146 20.9344 -385.268 19.6609 -382.574 19.637C-380.165 18.3129 -379.366 14.0448 -376.522 17.8093C-375.528 13.0005 -376.542 12.5209 -376.588 12.1053C-373.619 13.0138 -370.274 8.92161 -367.106 11.005C-364.352 11.4739 -362.03 9.22798 -359.146 9.20667C-352.006 4.12605 -344.548 7.93583 -337.642 10.3176C-331.901 17.6282 -324.998 10.8957 -319.129 10.6267C-313.167 10.5627 -308.423 9.39583 -302.505 14.8574C-297.335 19.6716 -290.778 13.7092 -285.895 15.0226C-284.324 17.7987 -284.5 11.5272 -283.471 17.2898C-282.162 21.406 -280.491 17.4497 -279.089 18.2489C-277.774 21.0437 -276.437 20.0579 -275.126 19.2853C-273.522 13.5306 -270.933 18.3076 -269.601 20.2604C-267.426 21.9016 -267.047 27.2646 -264.09 23.1697C-261.392 19.3759 -258.671 19.3786 -255.971 23.0738C-253.269 22.3332 -253.081 26.4973 -251.002 25.357C-248.829 28.4288 -244.554 28.8524 -241.956 29.8036C-239.453 29.6863 -237.339 28.61 -234.869 31.3941C-231.541 31.6072 -227.973 32.14 -224.987 36.5919C-222.956 34.7936 -221.482 42.7462 -219.415 42.3385C-216.619 44.1822 -211.043 41.2649 -208.207 42.5064C-203.742 41.875 -200.942 45.4157 -196.952 40.383C-195.657 32.7768 -194.419 39.2454 -193.154 38.9497C-191.775 36.9596 -191.027 39.4266 -189.747 35.8512C-187.13 34.8282 -182.776 35.0466 -179.775 33.0831C-176.127 29.1854 -171.961 32.3798 -168.247 32.8061C-166.177 32.1853 -163.378 30.4216 -161.35 33.0032C-157.071 31.5406 -155.671 29.5664 -153.657 23.3242C-152.505 22.0694 -150.619 16.3067 -148.717 16.4426C-147.352 14.6789 -144.524 17.7188 -142.945 14.8628C-139.662 14.3219 -136.372 7.88523 -133.122 10.8372C-130.993 7.82661 -127.312 12.457 -125.179 10.5627C-122.472 12.1053 -120.653 14.218 -117.65 13.504C-115.311 12.9472 -112.099 13.9676 -109.819 13.163C-108.602 10.0113 -107.567 7.5442 -106.249 10.8585C-104.296 14.4604 -102.393 13.0111 -100.467 10.3229C-98.1452 4.03545 -95.5938 11.1089 -93.0883 7.97315C-90.3841 12.7341 -87.2051 4.07809 -84.4403 7.85591C-81.8972 4.45107 -79.3519 2.75665 -76.8087 7.86124C-72.8894 5.91904 -69.562 6.83019 -65.7661 9.31322C-61.8845 11.1329 -56.451 13.3468 -52.5694 8.96686C-49.8798 6.91809 -47.2363 4.30722 -44.5133 6.12953C-41.0959 5.27432 -38.0007 3.95818 -34.7067 2.92714C-31.9984 1.20874 -23.1873 1.54709 -20.5416 2.51419C-20.985 11.0156 -12.3077 7.66144 -8.81091 6.46255C-2.60989 5.89774 2.92389 7.32574 9.16675 5.07716C14.6797 4.86136 18.6638 0.353561 23.9906 1.20344C27.9204 1.68566 34.0796 -1.59399 38.0449 1.02758C42.2862 1.50713 46.1239 1.21941 50.4824 6.19079C55.5374 3.94221 59.8582 4.05944 64.842 5.06651C68.6044 5.65263 72.369 4.01947 76.1314 5.08249C77.8924 5.54073 79.6659 2.74598 81.3934 5.31693C83.0142 6.43056 84.4552 7.29109 86.053 7.58948C87.0485 8.84165 88.27 7.81861 89.232 8.09035C91.4991 8.58323 93.168 9.85407 95.4413 12.6009C97.3864 15.2198 100.191 14.908 102.366 14.8521C104.744 15.1824 106.409 13.8104 108.835 15.3796C112.265 17.1273 114.456 16.8262 117.418 21.0889C122.906 24.1554 130.512 22.6635 136.592 23.1004C142.619 26.1083 147.293 22.9086 152.84 25.9245C155.854 29.1268 158.773 31.1196 162.004 32.6196C163.916 36.7065 166.691 33.3229 168.626 32.7741C172.746 30.68 175.718 30.5921 179.664 34.7616C181.912 32.6835 184.487 35.4436 186.89 35.6355C187.605 38.2277 188.434 37.3672 189.13 35.3397C189.603 34.0529 189.91 35.2172 190.655 32.9686C192.656 35.0333 194.915 33.2909 196.571 34.9321C202.354 35.361 208.229 33.1204 214.112 34.1515C217.724 33.0911 221.352 37.4844 224.966 34.1835C230.203 31.0291 234.838 33.0112 239.022 31.791C241.886 33.8531 245.97 22.8846 249.544 26.1429C254.269 29.0629 258.742 25.8286 263.239 24.4805C266.953 21.1236 270.891 19.3093 274.775 20.7746C278.841 17.4443 284.941 12.9632 290.007 14.8308C291.46 13.4454 291.69 17.9292 293.144 17.6548C294.855 19.2134 298.236 14.9906 300.206 17.5509C303.935 17.3511 309.084 10.2271 312.092 18.8644C314.731 20.3723 314.413 20.9877 318.259 21.8083C320.813 20.6547 323.141 20.1778 325.676 20.2711C327.351 21.6564 329.097 21.5525 330.776 20.3137C334.029 18.0997 335.484 23.5027 338.308 18.2383C342.338 19.224 346.864 18.2862 351.189 13.3148C357.578 10.7572 364.749 4.01414 371.62 7.78131C376.451 8.95089 381.286 6.86215 386.121 7.88786C390.957 7.88786 395.792 9.918 400.625 7.84526C404.875 3.33745 411.212 4.40843 415.137 8.65782C418.507 9.65956 420.673 13.0058 424.628 12.0014C429.238 17.5669 433.851 10.8531 438.463 12.0014C443.231 10.0725 449.489 9.35318 454.188 11.9028C456.65 13.0218 456.899 20.3297 458.873 15.9497C460.981 22.1227 464.612 14.7562 466.739 15.1531C473.36 18.1264 480.019 7.46425 486.569 9.19065C490.997 4.84535 494.531 4.37379 499.266 3.63315C505.603 3.7557 511.398 3.22021 517.344 6.79822C522.916 14.5217 527.722 10.3736 533.753 9.25992C536.261 13.9489 538.467 5.20506 540.996 7.78932C543.313 10.965 545.677 10.7812 548 7.83994C548 10.1551 546.436 15.3716 544.871 23.6093C543.307 29.4145 541.743 40.3324 541.743 39.3786L541.755 39.3867Z" fill="#F7D80D"/>
</svg>
