<svg width="412" height="315" viewBox="0 0 412 315" fill="none" xmlns="http://www.w3.org/2000/svg">
<path d="M-120.397 0L-124 299.45L-84.6495 301.387L-58.4163 307.2L-26.8157 306.231L5.38055 293.637L12.5348 288.793L51.2897 292.668L62.0218 298.481L103.162 311.075L245.66 299.45L279.644 291.7L350.595 300.418L398.294 311.075L453.743 304.293L508 311.075L507.017 0H-120.397Z" fill="#F7D80D"/>
<path d="M501.562 295.321C499.738 294.803 493.653 295.163 495.241 295.355C495.205 295.904 491.43 295.533 487.419 295.972C483.407 296.848 479.158 294.421 478.171 295.84C475.472 296.738 472.839 293.64 470.208 295.151C467.577 296.081 464.946 295.078 462.25 294.459C457.503 294.517 452.499 290.99 447.762 294.42C445.009 295.159 442.797 294.262 439.988 295.2C436.781 295.588 433.454 292.384 430.272 293.677C428.757 291.552 428.174 294.039 426.56 295.201C425.473 295.372 424.302 298.021 423.223 295.115C421.522 297.022 420.113 296.775 418.34 296.567C416.442 295.723 414.258 297.841 412.327 296.534C410.637 297.651 408.727 296.727 407.083 296.498C406.728 296.766 406.319 296.659 406.185 297.058C403.932 295.557 401.664 299.426 399.463 298.625C395.858 298.887 392.188 299.168 388.574 298.612C385.244 297.444 381.871 299.127 378.547 298.586C375.812 296.804 373.316 300.175 370.654 299.852C368.703 300.387 367.263 300.943 365.814 299.195C364.557 296.774 363.573 298.957 362.063 296.788C359.355 296.128 357.196 293.402 354.121 294.444C350.259 292.176 347.124 290.135 343.216 293.065C341.058 293.016 339.424 293.528 337.386 293.777C334.944 292.494 333.779 291.959 331.467 292.549C327.305 291.1 323.732 289.993 319.423 290.336C316.968 288.471 314.888 286.66 312.352 288.887C311.486 288.277 309.545 289.109 308.826 288.999C308.298 290.106 308.314 290.63 307.814 290.721C306.237 291.979 300.741 291.245 299.044 290.855C297.01 289.797 295.291 290.018 293.244 289.592C291.097 288.506 288.884 291.441 286.736 289.608C285.144 288.152 281.868 289.456 280.242 289.556C278.504 289.044 277.769 293.217 275.702 291.026C274.093 290.624 272.471 291.115 270.862 290.957C268.082 291.345 265.569 293.918 262.769 291.685C260.296 292.406 257.822 293.444 255.349 291.685C253.394 293.756 252.081 291.472 250.505 292.344C249.444 292.719 248.686 296.193 247.526 294.452C246.134 295.762 244.445 295.918 243.035 295.299C242.633 295.599 242.249 293.338 241.709 295.866C240.784 295.707 239.441 295.807 238.49 295.839C234.799 296.952 231.111 294.417 227.421 295.839C225.208 295.907 222.932 295.943 220.72 295.855C219.314 294.468 218.518 293.945 217.215 294.78C216.404 294.162 215.312 296.411 214.568 294.335C213.933 293.866 213.636 293.953 213.1 293.032C211.577 293.657 209.777 293.11 207.928 292.377C206.802 292.901 205.892 293.122 204.806 292.529C204.759 293.117 204.301 292.45 204.067 293.102C201.818 294.355 198.49 293.311 196.052 293.066C192.078 292.329 187.982 293.172 184.018 293.102C182.51 293.452 181.183 293.145 179.699 292.348C178.548 291.778 177.324 290.471 176.166 292.373C174.308 294.625 172.339 291.514 170.506 292.321C167.909 291.891 165.939 293.495 163.21 293.759C160.663 293.484 159.626 295.402 157.382 295.192C154.96 294.714 152.494 294.318 150.064 294.445C147.959 293.246 145.836 293.303 143.73 294.452C141.389 295.473 139.046 294.449 136.706 294.468C134.344 293.617 132.222 292.02 129.864 293.7C129.173 292.807 128.493 292.972 127.824 293.88C127.626 294.648 127.362 294.202 127.035 294.738C125.875 294.371 125.048 294.613 123.701 295.158C121.707 294.409 120.23 295.307 118.36 295.682C115.014 296.911 111.108 295.876 107.67 295.771C104.582 295.96 105.638 295.293 103.837 297.796C102.857 299.541 103.086 297.503 101.901 298.645C100.194 297.88 98.1483 299.249 96.4058 298.606C93.1902 299.609 89.976 298.424 86.7618 298.606C83.0168 299.987 79.3656 295.854 75.7479 297.029C72.6664 296.285 69.7162 293.745 66.6227 293.896C64.4097 293.215 63.3253 295.132 61.4287 292.06C59.7841 290.895 58.0215 287.36 55.8889 288.825C52.7056 288.983 49.104 288.891 45.8696 288.911C42.3203 288.965 37.3784 290.314 34.2231 288.254C30.5988 288.092 26.9261 287.476 23.09 287.526C19.8221 289.556 16.4645 286.593 12.9554 288.218C11.4984 286.963 9.8082 290.448 8.36997 288.191C6.08865 290.685 5.93049 291.814 5.1772 291.622C3.44677 294.969 2.64121 291.734 1.15205 293.488C-0.275444 295.694 -1.29144 295.288 -2.68945 293.732C-3.64514 295.653 -4.35956 295.327 -5.29916 294.488C-6.44653 290.652 -7.96249 296.84 -9.14738 294.452C-11.8201 296.087 -14.4928 294.336 -17.1642 294.452C-19.0916 294.033 -23.1691 294.601 -24.8646 294.48C-25.9825 295.831 -25.8203 298.336 -26.5133 296.566C-27.1969 295.454 -27.8724 299.86 -28.9675 297.921C-31.2301 299.396 -33.4189 302.983 -35.5112 299.36C-37.7242 300.313 -40.3754 298.901 -43.0656 300.849C-45.7557 298.676 -48.4834 299.215 -50.8491 300.372C-54.0834 301.301 -56.0471 295.564 -59.4463 297.21C-63.5586 296.152 -67.9027 298.34 -71.9828 297.259C-74.9357 294.093 -78.0708 294.387 -81.0009 295.682C-82.2112 296.634 -82.9565 295.43 -83.9778 294.453C-85.5206 292.184 -86.9374 292.237 -88.7898 293.034C-91.6434 293.387 -94.7571 291.606 -97.6148 293.081C-100.537 292.173 -102.006 293.568 -104.98 290.957C-106.06 292.003 -108.139 289.739 -109.088 290.938C-110.403 290.613 -110.895 292.821 -112.447 292.427C-114.513 292.891 -117.035 292.981 -119.129 292.376C-119.129 293.069 -117.602 303.103 -117.602 304.149C-116.034 305.277 -115.246 305.323 -112.998 306.238C-111.523 306.114 -110.044 305.897 -108.568 306.227C-106.374 306.21 -103.07 306.606 -101.251 305.82C-100.46 304.084 -100.206 304.889 -99.2165 304.49C-98.0585 301.785 -97.0344 303.187 -95.7905 304.145C-93.7679 304.541 -92.5643 305.177 -90.8379 305.189C-89.2937 305.85 -88.7817 307.983 -86.9588 306.102C-86.3221 308.505 -86.9722 308.744 -87.0017 308.952C-85.0984 308.498 -82.9551 310.543 -80.9244 309.502C-79.1592 309.267 -77.6714 310.389 -75.823 310.4C-71.2469 312.939 -66.4672 311.035 -62.0413 309.845C-58.3619 306.192 -53.9373 309.556 -50.1763 309.691C-46.3548 309.723 -43.3149 310.306 -39.5216 307.577C-36.2082 305.171 -32.0061 308.151 -28.8764 307.494C-27.8697 306.107 -27.9823 309.241 -27.3229 306.362C-26.4838 304.305 -25.4128 306.282 -24.5148 305.882C-23.6717 304.486 -22.8152 304.978 -21.9748 305.365C-20.9467 308.24 -19.2873 305.853 -18.4335 304.877C-17.0395 304.057 -16.7969 301.378 -14.9016 303.424C-13.1725 305.319 -11.4287 305.318 -9.69828 303.472C-7.96651 303.842 -7.84589 301.761 -6.51355 302.331C-5.1209 300.796 -2.38117 300.584 -0.716423 300.109C0.888 300.168 2.24313 300.706 3.8261 299.315C5.95864 299.208 8.24532 298.942 10.1594 296.718C11.4609 297.616 12.4058 293.643 13.7301 293.846C15.5222 292.925 19.0957 294.383 20.9132 293.763C23.7749 294.078 25.5697 292.309 28.1271 294.823C28.9568 298.624 29.7503 295.392 30.5612 295.54C31.4445 296.534 31.9244 295.301 32.7447 297.088C34.4215 297.599 37.2122 297.49 39.1356 298.471C41.4732 300.418 44.1432 298.822 46.5237 298.609C47.8507 298.919 49.6441 299.8 50.9443 298.511C53.6867 299.241 54.5834 300.228 55.8742 303.347C56.6127 303.973 57.8218 306.853 59.0402 306.785C59.9154 307.666 61.7276 306.147 62.7396 307.574C64.844 307.844 66.9524 311.06 69.0353 309.585C70.3998 311.09 72.7589 308.776 74.1261 309.723C75.8605 308.952 77.0266 307.896 78.9514 308.253C80.45 308.531 82.5088 308.021 83.9698 308.423C84.7499 309.998 85.4134 311.231 86.2578 309.575C87.5097 307.775 88.7295 308.499 89.9639 309.842C91.4518 312.984 93.087 309.45 94.6928 311.016C96.4259 308.638 98.4633 312.962 100.235 311.075C101.865 312.776 103.496 313.623 105.126 311.072C107.638 312.043 109.771 311.587 112.203 310.347C114.691 309.438 118.173 308.332 120.661 310.52C122.385 311.544 124.079 312.848 125.824 311.938C128.014 312.365 129.998 313.022 132.109 313.538C133.845 314.396 139.492 314.227 141.188 313.744C140.904 309.496 146.465 311.172 148.706 311.771C152.68 312.053 156.227 311.34 160.228 312.463C163.761 312.571 166.314 314.823 169.728 314.399C172.247 314.158 176.194 315.796 178.736 314.487C181.454 314.247 183.913 314.391 186.707 311.907C189.947 313.03 192.716 312.972 195.91 312.469C198.321 312.176 200.734 312.992 203.145 312.461C204.274 312.232 205.41 313.628 206.518 312.344C207.556 311.787 208.48 311.357 209.504 311.208C210.142 310.582 210.925 311.094 211.541 310.958C212.994 310.712 214.064 310.077 215.521 308.704C216.767 307.396 218.565 307.552 219.959 307.579C221.483 307.414 222.55 308.1 224.105 307.316C226.303 306.443 227.708 306.593 229.606 304.463C233.123 302.931 237.998 303.677 241.894 303.458C245.757 301.956 248.753 303.554 252.307 302.047C254.239 300.447 256.11 299.452 258.181 298.702C259.406 296.66 261.185 298.351 262.425 298.625C265.065 299.671 266.97 299.715 269.499 297.632C270.94 298.67 272.59 297.291 274.13 297.195C274.588 295.9 275.119 296.33 275.566 297.343C275.869 297.986 276.066 297.404 276.543 298.528C277.826 297.496 279.273 298.367 280.335 297.547C284.041 297.333 287.806 298.452 291.576 297.937C293.891 298.467 296.217 296.272 298.533 297.921C301.889 299.497 304.859 298.507 307.542 299.116C309.377 298.086 311.994 303.566 314.285 301.938C317.313 300.479 320.18 302.095 323.062 302.769C325.442 304.446 327.966 305.353 330.455 304.62C333.061 306.284 336.971 308.523 340.217 307.59C341.149 308.282 341.296 306.042 342.228 306.179C343.324 305.4 345.492 307.51 346.754 306.231C349.144 306.331 352.444 309.89 354.372 305.575C356.063 304.821 355.859 304.514 358.324 304.104C359.961 304.68 361.453 304.919 363.077 304.872C364.151 304.18 365.27 304.232 366.347 304.851C368.431 305.957 369.364 303.257 371.173 305.888C373.756 305.395 376.657 305.864 379.429 308.348C383.523 309.625 388.12 312.994 392.523 311.112C395.619 310.528 398.718 311.571 401.817 311.059C404.916 311.059 408.015 310.045 411.112 311.08C413.836 313.333 417.897 312.797 420.413 310.674C422.573 310.174 423.961 308.502 426.496 309.004C429.45 306.223 432.407 309.577 435.362 309.004C438.418 309.967 442.429 310.327 445.441 309.053C447.018 308.494 447.178 304.843 448.443 307.031C449.794 303.947 452.121 307.627 453.484 307.429C457.728 305.944 461.996 311.271 466.194 310.408C469.031 312.579 471.297 312.815 474.331 313.185C478.392 313.124 482.107 313.391 485.917 311.603C489.488 307.745 492.568 309.817 496.434 310.373C498.041 308.031 499.455 312.399 501.076 311.108C502.561 309.522 504.075 309.613 505.565 311.083C505.565 309.926 504.562 307.32 503.559 303.204C502.557 300.304 501.554 294.849 501.554 295.325L501.562 295.321Z" fill="#F7D80D"/>
</svg>
