<svg width="40" height="40" viewBox="0 0 40 40" fill="none" xmlns="http://www.w3.org/2000/svg">
<path d="M20.0001 40.0003C8.97205 40.0003 0 31.0282 0 20.0001C0 8.97205 8.97205 0 20.0001 0C31.0282 0 40 8.97205 40 20.0001C40 31.0282 31.0282 40.0003 20.0001 40.0003ZM20.0001 0.546715C9.27344 0.546715 0.546715 9.27344 0.546715 20.0001C0.546715 30.7268 9.27344 39.4536 20.0001 39.4536C30.7266 39.4536 39.4533 30.7268 39.4533 20.0001C39.4533 9.27346 30.7266 0.546715 20.0001 0.546715Z" fill="#146A36"/>
<path d="M19.9992 33.674C12.4594 33.674 6.3252 27.5398 6.3252 20.0002C6.3252 12.4606 12.4593 6.32642 19.9992 6.32642C27.5389 6.32642 33.673 12.4606 33.673 20.0002C33.673 27.5398 27.5389 33.674 19.9992 33.674ZM19.9992 6.87313C12.7607 6.87313 6.87191 12.762 6.87191 20.0002C6.87191 27.2384 12.7608 33.1273 19.9992 33.1273C27.2375 33.1273 33.1263 27.2384 33.1263 20.0002C33.1263 12.762 27.2375 6.87313 19.9992 6.87313Z" fill="#146A36"/>
<path d="M6.30799 13.2445L6.09678 13.7639L4.02732 14.1001L5.68557 14.7747L5.47436 15.2939L2.9541 14.2687L3.16531 13.7495L5.23898 13.4129L3.57734 12.7369L3.78795 12.2192L6.30799 13.2445Z" fill="#146A36"/>
<path d="M6.74197 10.0708C6.96698 10.2163 7.13838 10.3835 7.25638 10.5725C7.37458 10.7617 7.43178 10.9599 7.42817 11.1675C7.42437 11.3751 7.36078 11.5745 7.23696 11.7659C7.11455 11.9553 6.95974 12.0949 6.77275 12.1845C6.58574 12.2743 6.38134 12.3053 6.15954 12.2777C5.93793 12.2501 5.71692 12.1659 5.49651 12.0249L5.38351 11.9517C5.15849 11.8063 4.9869 11.6379 4.8681 11.4461C4.7495 11.2545 4.6923 11.0551 4.6965 10.8479C4.70071 10.6406 4.7643 10.4418 4.8873 10.2514C5.0105 10.061 5.16551 9.92141 5.35292 9.83261C5.54013 9.7436 5.74552 9.71401 5.96894 9.7434C6.19234 9.773 6.41616 9.86021 6.63995 10.0048L6.74197 10.0708ZM6.32994 10.4808C6.09033 10.326 5.88054 10.2512 5.70073 10.2566C5.52073 10.2618 5.37933 10.344 5.27652 10.503C5.17431 10.661 5.15713 10.8226 5.22452 10.9878C5.29211 11.153 5.44414 11.313 5.68094 11.4677L5.79235 11.5397C6.02574 11.6905 6.23437 11.7645 6.41857 11.7619C6.60258 11.7594 6.74679 11.6775 6.85099 11.5164C6.9532 11.3584 6.96959 11.197 6.90038 11.032C6.83117 10.8672 6.67818 10.7074 6.44138 10.5528L6.32994 10.4808Z" fill="#146A36"/>
<path d="M8.85316 8.26158L9.49457 8.9738L9.07817 9.34902L7.25732 7.32736L8.04594 6.61713C8.19774 6.48032 8.35635 6.38791 8.52155 6.33952C8.68676 6.29132 8.84657 6.29053 9.00078 6.33691C9.15479 6.38331 9.29077 6.47172 9.40818 6.60231C9.58659 6.80031 9.65958 7.01772 9.62678 7.25412C9.59417 7.49052 9.45797 7.71673 9.21836 7.93274L8.85316 8.26158ZM8.54916 7.92416L8.92137 7.58895C9.03157 7.48975 9.09217 7.38834 9.10339 7.28433C9.11458 7.18033 9.07678 7.08034 8.98999 6.98392C8.90078 6.88492 8.79959 6.83113 8.68619 6.82252C8.57298 6.81392 8.46398 6.85512 8.35959 6.94572L7.97777 7.28953L8.54916 7.92416Z" fill="#146A36"/>
<path d="M11.4263 6.22944L11.0479 6.46644L11.5765 7.31066L11.1013 7.60807L9.65723 5.30221L10.5141 4.76579C10.7865 4.59519 11.0347 4.52419 11.2585 4.55318C11.4823 4.58198 11.6637 4.7072 11.8025 4.929C11.9011 5.0862 11.9491 5.23882 11.9469 5.38641C11.9445 5.53421 11.8937 5.68243 11.7945 5.83142L12.8833 6.46124L12.8973 6.48345L12.3873 6.80287L11.4263 6.22944ZM10.8069 6.08165L11.1901 5.84164C11.3093 5.76703 11.3827 5.67882 11.4103 5.57703C11.4377 5.47542 11.4179 5.37122 11.3513 5.26443C11.2831 5.15583 11.1987 5.08963 11.0979 5.06603C10.9971 5.04243 10.8829 5.07063 10.7551 5.15063L10.3734 5.38965L10.8069 6.08165Z" fill="#146A36"/>
<path d="M14.449 4.53954L13.4551 4.95277L13.7347 5.62579L14.9011 5.14077L15.0742 5.55678L13.3901 6.25679L12.3457 3.74451L14.0263 3.0459L14.2005 3.46511L13.0377 3.94851L13.2865 4.54733L14.2803 4.13411L14.449 4.53954Z" fill="#146A36"/>
<path d="M16.8047 4.37651C16.7805 4.2733 16.7255 4.2027 16.6399 4.1647C16.5541 4.1267 16.4095 4.0991 16.2059 4.08231C16.0023 4.0655 15.8383 4.04051 15.7141 4.00691C15.3751 3.91512 15.1732 3.73151 15.1087 3.45629C15.0751 3.31309 15.0853 3.17609 15.1397 3.04488C15.1939 2.91367 15.2891 2.79888 15.4253 2.70047C15.5615 2.60187 15.7235 2.53047 15.9115 2.48628C16.1007 2.44189 16.2773 2.43666 16.4413 2.47029C16.6055 2.50408 16.7431 2.57389 16.8543 2.67948C16.9655 2.78528 17.0397 2.91748 17.0771 3.07629L16.5313 3.20449C16.5029 3.08328 16.4425 2.99788 16.3503 2.94849C16.2581 2.8993 16.1429 2.89069 16.0045 2.9233C15.8711 2.95471 15.7741 3.00711 15.7133 3.08089C15.6527 3.1547 15.6331 3.23769 15.6547 3.3299C15.6751 3.4159 15.7353 3.4779 15.8357 3.5157C15.9361 3.5535 16.0765 3.57809 16.2571 3.58951C16.5895 3.6099 16.8429 3.67272 17.0171 3.77752C17.1915 3.88251 17.3029 4.03812 17.3513 4.24413C17.4053 4.47335 17.3607 4.67354 17.2179 4.84474C17.0751 5.01574 16.8571 5.13575 16.5635 5.20474C16.3599 5.25254 16.1655 5.25895 15.9807 5.22354C15.7957 5.18835 15.6441 5.11613 15.5256 5.00713C15.4072 4.89793 15.328 4.75792 15.2878 4.58692L15.8355 4.45833C15.9041 4.75054 16.1131 4.85573 16.4623 4.77354C16.5921 4.74315 16.6871 4.69294 16.7475 4.62313C16.8079 4.5533 16.8269 4.47111 16.8047 4.37651Z" fill="#146A36"/>
<path d="M19.6566 3.58216L18.5829 3.65617L18.6329 4.38318L19.8932 4.29639L19.9241 4.7456L18.1047 4.87101L17.9175 2.15673L19.7333 2.03174L19.7645 2.48475L18.5081 2.57134L18.5527 3.21815L19.6263 3.14414L19.6566 3.58216Z" fill="#146A36"/>
<path d="M21.5585 3.85499L21.1139 3.81339L21.0211 4.80501L20.4629 4.75281L20.7165 2.04395L21.7229 2.13815C22.0429 2.16814 22.2831 2.26254 22.4435 2.42136C22.6038 2.58037 22.6717 2.78996 22.6473 3.05036C22.6299 3.23536 22.5755 3.38557 22.4841 3.50158C22.3925 3.6176 22.2621 3.70439 22.0927 3.76238L22.5751 4.9242L22.5727 4.95019L21.9737 4.89419L21.5585 3.85499ZM21.1563 3.3614L21.6065 3.4036C21.7465 3.41661 21.8585 3.39119 21.9421 3.327C22.0255 3.26279 22.0733 3.16819 22.0849 3.043C22.0969 2.9152 22.0701 2.8114 22.0043 2.73139C21.9387 2.65139 21.8307 2.60439 21.6807 2.59039L21.2323 2.54838L21.1563 3.3614Z" fill="#146A36"/>
<path d="M24.2077 4.66559L25.3432 2.85494L25.945 3.01995L24.3126 5.3936L23.7485 5.23919L23.5571 2.36572L24.1571 2.53013L24.2077 4.66559Z" fill="#146A36"/>
<path d="M27.1472 5.91463L26.2576 5.49681L25.8502 5.92483L25.3105 5.67142L27.3838 3.63916L27.854 3.86017L27.6194 6.75565L27.0798 6.50223L27.1472 5.91463ZM26.5876 5.15022L27.2032 5.43922L27.3266 4.37219L26.5876 5.15022Z" fill="#146A36"/>
<path d="M30.7906 6.19043L30.1032 5.71921L28.8218 7.58885L28.3594 7.27185L29.6408 5.40221L28.9626 4.93739L29.2194 4.56299L31.0474 5.81583L30.7906 6.19043Z" fill="#146A36"/>
<path d="M30.3856 8.86563L29.9688 8.49083L31.788 6.46777L32.2048 6.84257L30.3856 8.86563Z" fill="#146A36"/>
<path d="M32.1283 9.72075L34.0875 8.86733L34.4914 9.34334L31.8037 10.3808L31.4253 9.93475L32.8897 7.45508L33.2923 7.9297L32.1283 9.72075Z" fill="#146A36"/>
<path d="M34.5093 12.3014L33.958 11.377L33.3322 11.7502L33.979 12.8352L33.5924 13.0658L32.6582 11.4994L34.9949 10.106L35.9271 11.669L35.5373 11.9016L34.892 10.82L34.3352 11.152L34.8865 12.0764L34.5093 12.3014Z" fill="#146A36"/>
<path d="M35.0107 14.6117C35.1093 14.5729 35.1713 14.5083 35.1967 14.4181C35.222 14.3277 35.2285 14.1807 35.2158 13.9767C35.203 13.7729 35.2045 13.6071 35.2199 13.4791C35.2621 13.1305 35.4146 12.9044 35.6779 12.8008C35.8147 12.747 35.9519 12.7376 36.0895 12.7726C36.2269 12.8074 36.3543 12.8852 36.4713 13.0058C36.5883 13.1264 36.6823 13.2764 36.7529 13.4562C36.8241 13.637 36.8547 13.811 36.8449 13.9783C36.8351 14.1454 36.7859 14.2917 36.6973 14.4169C36.6087 14.5421 36.4883 14.6347 36.3365 14.6945L36.1313 14.1727C36.2471 14.127 36.3229 14.0551 36.3585 13.9568C36.3941 13.8584 36.3859 13.7432 36.3339 13.611C36.2839 13.4834 36.2179 13.395 36.1361 13.3454C36.0545 13.296 35.9695 13.2886 35.8813 13.3232C35.7991 13.3556 35.7465 13.4242 35.7232 13.529C35.7002 13.6338 35.696 13.7762 35.7108 13.9567C35.7382 14.2885 35.7126 14.5483 35.6338 14.7359C35.5551 14.9235 35.4172 15.0561 35.22 15.1337C35.001 15.2199 34.7966 15.2045 34.6068 15.0879C34.4168 14.9711 34.2668 14.7725 34.1564 14.4919C34.0798 14.2971 34.0456 14.1057 34.054 13.9177C34.0624 13.7296 34.112 13.5692 34.203 13.4364C34.294 13.3036 34.4212 13.205 34.5846 13.1406L34.7906 13.664C34.5112 13.774 34.4372 13.9958 34.5684 14.3297C34.6172 14.4538 34.6806 14.5407 34.7584 14.5905C34.8363 14.6401 34.9203 14.6471 35.0107 14.6117Z" fill="#146A36"/>
<path d="M3.60679 27.2051L3.41319 26.6791L4.71642 25.0369L3.03638 25.6549L2.84277 25.1289L5.39623 24.1895L5.58984 24.7155L4.2836 26.3609L5.96724 25.7415L6.16025 26.2657L3.60679 27.2051Z" fill="#146A36"/>
<path d="M6.45867 29.6204C6.23027 29.7602 6.00526 29.8424 5.78366 29.867C5.56205 29.8914 5.35865 29.8572 5.17305 29.764C4.98765 29.6708 4.83543 29.527 4.71643 29.3326C4.59863 29.1402 4.53984 28.9404 4.54004 28.733C4.54024 28.5254 4.60064 28.3278 4.72166 28.14C4.84247 27.952 5.01426 27.7894 5.23666 27.6518L5.35146 27.5816C5.58008 27.4418 5.80626 27.3598 6.03048 27.336C6.2545 27.312 6.45909 27.3468 6.64409 27.4402C6.82909 27.5338 6.98069 27.6772 7.09912 27.8706C7.21732 28.064 7.27591 28.2642 7.27511 28.4716C7.27392 28.6788 7.21192 28.8768 7.0885 29.0654C6.96507 29.254 6.7897 29.418 6.56227 29.557L6.45867 29.6204ZM6.26745 29.0716C6.51087 28.9226 6.66906 28.766 6.74227 28.6014C6.81526 28.437 6.80248 28.274 6.70368 28.1123C6.60547 27.9519 6.46727 27.8663 6.28926 27.8555C6.11105 27.8448 5.90106 27.9127 5.65904 28.0591L5.54583 28.1284C5.30903 28.2734 5.15181 28.4294 5.07442 28.5966C4.99703 28.7636 5.00842 28.929 5.10842 29.0928C5.20662 29.2532 5.34502 29.338 5.52363 29.347C5.70223 29.356 5.91243 29.2872 6.15425 29.1408L6.26745 29.0716Z" fill="#146A36"/>
<path d="M8.07462 31.9954L7.41619 32.6923L7.00879 32.3072L8.87723 30.3296L9.64886 31.0586C9.79726 31.199 9.90228 31.3494 9.96368 31.5104C10.0251 31.6712 10.0387 31.8302 10.0049 31.9876C9.97109 32.145 9.89387 32.2877 9.77308 32.4153C9.59007 32.6091 9.37929 32.6993 9.14107 32.6857C8.90265 32.6723 8.66625 32.5547 8.43186 32.333L8.07462 31.9954ZM8.38645 31.6654L8.75045 32.0094C8.85826 32.1112 8.96425 32.1634 9.06885 32.1662C9.17325 32.169 9.27006 32.1232 9.35907 32.029C9.45066 31.9322 9.49607 31.827 9.49547 31.7132C9.49488 31.5996 9.44526 31.4944 9.34646 31.3976L8.97285 31.0448L8.38645 31.6654Z" fill="#146A36"/>
<path d="M10.8225 34.1594L10.4485 33.9156L9.90468 34.75L9.43506 34.4438L10.9205 32.1646L11.7675 32.7166C12.0367 32.892 12.2053 33.0874 12.2731 33.3028C12.3411 33.518 12.3036 33.7352 12.1607 33.9544C12.0593 34.1098 11.9411 34.2176 11.8063 34.2774C11.6713 34.3374 11.5153 34.3536 11.3385 34.3262L11.2245 35.579L11.2101 35.6008L10.7061 35.2724L10.8225 34.1594ZM10.6963 33.5352L11.0753 33.782C11.1931 33.859 11.3039 33.8884 11.4079 33.8706C11.5117 33.8528 11.5979 33.7912 11.6667 33.6858C11.7367 33.5784 11.7613 33.4738 11.7403 33.3724C11.7195 33.2712 11.6457 33.1792 11.5195 33.097L11.1423 32.851L10.6963 33.5352Z" fill="#146A36"/>
<path d="M14.1361 35.6496L13.1476 35.2236L12.8592 35.8928L14.0191 36.3928L13.8409 36.8064L12.166 36.0844L13.2432 33.5859L14.9145 34.3066L14.7347 34.7236L13.5782 34.225L13.3214 34.8204L14.3099 35.2464L14.1361 35.6496Z" fill="#146A36"/>
<path d="M16.396 36.7806C16.421 36.6778 16.4038 36.59 16.3446 36.5172C16.2853 36.4444 16.1688 36.3546 15.9948 36.2474C15.8207 36.1404 15.686 36.0438 15.5901 35.9578C15.3295 35.7226 15.2325 35.4676 15.2993 35.1928C15.3341 35.05 15.4053 34.9324 15.5131 34.8399C15.6207 34.7475 15.7575 34.6881 15.9237 34.6619C16.0897 34.6355 16.2665 34.6453 16.4541 34.6909C16.6429 34.7367 16.8027 34.8119 16.934 34.9163C17.065 35.0205 17.1562 35.145 17.2076 35.2895C17.259 35.4341 17.2654 35.5856 17.2268 35.7441L16.6821 35.6117C16.7115 35.4907 16.6963 35.3873 16.6363 35.3015C16.5763 35.2157 16.4775 35.1561 16.3395 35.1225C16.2063 35.0903 16.0959 35.0931 16.0085 35.1315C15.9209 35.1699 15.8659 35.2351 15.8435 35.3269C15.8227 35.4129 15.8485 35.4955 15.9209 35.5747C15.9933 35.6537 16.1075 35.7393 16.2633 35.8309C16.5505 35.9995 16.7481 36.1701 16.8561 36.3426C16.9643 36.515 16.9933 36.7042 16.9433 36.9098C16.8875 37.1386 16.7573 37.297 16.5527 37.385C16.3479 37.4732 16.0991 37.4816 15.8061 37.4102C15.6029 37.3608 15.4267 37.2786 15.2777 37.1634C15.1287 37.0484 15.0261 36.9154 14.9699 36.7646C14.9137 36.6138 14.9063 36.453 14.9479 36.2824L15.4943 36.4152C15.4233 36.707 15.5623 36.8952 15.9109 36.98C16.0403 37.0114 16.1479 37.0098 16.2333 36.9748C16.3187 36.9398 16.373 36.875 16.396 36.7806Z" fill="#146A36"/>
<path d="M19.5834 36.7018L18.5098 36.6244L18.4574 37.3513L19.7172 37.4422L19.6848 37.8913L17.8657 37.76L18.0615 35.0464L19.8768 35.1774L19.8442 35.6302L18.588 35.5396L18.5414 36.1864L19.615 36.2638L19.5834 36.7018Z" fill="#146A36"/>
<path d="M21.646 36.792L21.2014 36.8344L21.2958 37.8258L20.7378 37.879L20.48 35.1706L21.4864 35.0748C21.8062 35.0444 22.0598 35.0922 22.247 35.2182C22.4342 35.3444 22.5402 35.5376 22.565 35.798C22.5826 35.9828 22.5572 36.1406 22.489 36.2716C22.4208 36.4026 22.309 36.5124 22.1534 36.6012L22.8448 37.6523L22.8472 37.6783L22.2482 37.7353L21.646 36.792ZM21.1584 36.3824L21.6086 36.3396C21.7488 36.3262 21.8538 36.2802 21.924 36.2016C21.994 36.123 22.0232 36.021 22.0112 35.8958C21.999 35.768 21.9532 35.671 21.8738 35.6048C21.7942 35.5386 21.6794 35.5126 21.5294 35.5268L21.081 35.5694L21.1584 36.3824Z" fill="#146A36"/>
<path d="M24.6772 36.548L24.7146 34.4113L25.3152 34.2417L25.1429 37.1176L24.5801 37.2764L22.9326 34.9145L23.5314 34.7453L24.6772 36.548Z" fill="#146A36"/>
<path d="M28.0046 35.3554L27.1208 35.7854L27.1979 36.3712L26.6619 36.632L26.3823 33.7425L26.8493 33.5151L28.9554 35.5162L28.4194 35.777L28.0046 35.3554ZM27.0581 35.311L27.6698 35.0134L26.9167 34.2471L27.0581 35.311Z" fill="#146A36"/>
<path d="M29.9507 32.0656L29.2723 32.5497L30.5885 34.3949L30.1323 34.7205L28.8158 32.8753L28.1466 33.3527L27.8828 32.9831L29.6869 31.696L29.9507 32.0656Z" fill="#146A36"/>
<path d="M32.3964 32.87L31.9867 33.2526L30.1299 31.264L30.5397 30.8813L32.3964 32.87Z" fill="#146A36"/>
<path d="M33.3298 30.8587L32.1336 29.0876L32.528 28.604L34.0381 31.0575L33.6685 31.5109L30.9634 30.5229L31.3566 30.0407L33.3298 30.8587Z" fill="#146A36"/>
<path d="M34.9458 27.4748L34.4178 28.4127L35.0528 28.7703L35.6726 27.6695L36.065 27.8905L35.1702 29.4797L32.7993 28.1449L33.6923 26.5588L34.0879 26.7816L33.4701 27.8791L34.0352 28.1973L34.5632 27.2593L34.9458 27.4748Z" fill="#146A36"/>
<path d="M36.3097 25.3497C36.2101 25.3138 36.1211 25.3215 36.0423 25.3727C35.9637 25.4239 35.8621 25.5303 35.737 25.6919C35.6123 25.8535 35.5018 25.9775 35.406 26.0635C35.1444 26.2979 34.8806 26.3671 34.6146 26.2715C34.4762 26.2219 34.3668 26.1385 34.2864 26.0217C34.206 25.9047 34.1614 25.7623 34.1528 25.5945C34.1444 25.4267 34.1728 25.2518 34.238 25.0701C34.3036 24.8872 34.3954 24.736 34.513 24.6168C34.6306 24.4977 34.764 24.42 34.9132 24.3844C35.0624 24.3486 35.2138 24.3582 35.3672 24.4134L35.1778 24.9411C35.0606 24.8991 34.9562 24.9031 34.8646 24.9537C34.773 25.0041 34.7032 25.0963 34.6552 25.2299C34.6088 25.3589 34.6 25.4689 34.6288 25.5599C34.6578 25.6511 34.7166 25.7127 34.8058 25.7447C34.889 25.7745 34.9739 25.7577 35.0602 25.6941C35.1466 25.6305 35.2437 25.5261 35.3515 25.3807C35.5497 25.1131 35.7401 24.9345 35.9231 24.8455C36.1059 24.7563 36.2971 24.7475 36.4963 24.8191C36.7179 24.8987 36.8617 25.0449 36.9275 25.2579C36.9933 25.4707 36.9753 25.7191 36.8733 26.0029C36.8025 26.1997 36.7021 26.3661 36.5719 26.5021C36.4417 26.6379 36.2985 26.7259 36.1425 26.7659C35.9867 26.8057 35.8259 26.7961 35.6607 26.7367L35.8509 26.2073C36.1333 26.3089 36.3353 26.1907 36.4565 25.8531C36.5015 25.7277 36.5113 25.6205 36.4855 25.5319C36.4599 25.4433 36.4013 25.3825 36.3097 25.3497Z" fill="#146A36"/>
<path d="M3.73588 21.5347C4.58347 21.5347 5.27058 20.8476 5.27058 20C5.27058 19.1524 4.58347 18.4653 3.73588 18.4653C2.88828 18.4653 2.20117 19.1524 2.20117 20C2.20117 20.8476 2.88828 21.5347 3.73588 21.5347Z" fill="#146A36"/>
<path d="M36.0699 21.5347C36.9175 21.5347 37.6046 20.8476 37.6046 20C37.6046 19.1524 36.9175 18.4653 36.0699 18.4653C35.2223 18.4653 34.5352 19.1524 34.5352 20C34.5352 20.8476 35.2223 21.5347 36.0699 21.5347Z" fill="#146A36"/>
<path d="M19.9987 29.7483C18.6395 29.7483 17.2803 29.753 15.9211 29.747C14.6938 29.7415 13.7146 29.2415 13.1223 28.1588C12.5325 27.0806 12.6132 25.9863 13.2685 24.9422C14.6595 22.7262 16.0557 20.5133 17.4369 18.2912C17.5497 18.1097 17.615 17.868 17.6172 17.6533C17.6325 16.1655 17.62 14.6774 17.6303 13.1895C17.632 12.9309 17.5724 12.7913 17.3123 12.6737C16.7596 12.4239 16.5478 11.8235 16.7027 11.1274C16.8179 10.6097 17.2806 10.2565 17.8784 10.2541C19.2948 10.2486 20.7113 10.2485 22.1278 10.2543C22.7256 10.2567 23.187 10.6115 23.3004 11.1309C23.4525 11.8272 23.2398 12.4267 22.6864 12.6747C22.4226 12.793 22.3709 12.9375 22.3725 13.1931C22.382 14.681 22.3698 16.1692 22.3853 17.657C22.3875 17.8715 22.4549 18.1128 22.5679 18.2946C23.9341 20.4924 25.31 22.6843 26.6934 24.8713C27.3696 25.9403 27.4869 27.0531 26.8767 28.1629C26.2646 29.2764 25.253 29.7588 23.9906 29.7504C22.66 29.7414 21.3294 29.7483 19.9987 29.7483ZM20.0016 28.8085C21.3754 28.8085 22.7493 28.8067 24.1232 28.8092C24.9834 28.8108 25.6606 28.4626 26.0711 27.7064C26.4794 26.9544 26.4203 26.1917 25.9661 25.4644C25.4206 24.591 24.8679 23.7221 24.331 22.8434C24.1825 22.6002 24.0125 22.4965 23.714 22.4981C21.2382 22.5113 18.7623 22.5116 16.2866 22.4984C15.9871 22.4968 15.819 22.6018 15.6705 22.8448C15.1335 23.7234 14.58 24.5918 14.0346 25.4653C13.5805 26.1926 13.5215 26.9556 13.9312 27.707C14.3428 28.4617 15.0194 28.8111 15.8799 28.8094C17.2538 28.8065 18.6277 28.8086 20.0016 28.8085ZM18.5391 12.834C18.5391 13.0345 18.5391 13.1896 18.5391 13.3447C18.5395 14.7325 18.5248 16.1206 18.5477 17.508C18.5569 18.0627 18.4142 18.5357 18.1054 18.9943C17.6185 19.7174 17.1719 20.4676 16.7111 21.2082C16.6475 21.3104 16.6002 21.4227 16.5402 21.5405C18.8698 21.5405 21.1575 21.5405 23.5032 21.5405C22.9368 20.6392 22.4181 19.7842 21.8676 18.9501C21.5801 18.5145 21.4473 18.065 21.455 17.5412C21.4755 16.1394 21.4634 14.7371 21.4616 13.3349C21.4614 13.1711 21.4448 13.0072 21.4352 12.834C20.4595 12.834 19.5324 12.834 18.5391 12.834ZM20.0048 11.1921C19.3329 11.1921 18.661 11.1965 17.9893 11.1897C17.76 11.1874 17.5985 11.2256 17.5956 11.5072C17.5927 11.7818 17.7061 11.8866 17.9818 11.885C19.3254 11.8772 20.6692 11.8777 22.0128 11.8854C22.2819 11.8869 22.4091 11.7956 22.4067 11.515C22.4044 11.2394 22.2565 11.1864 22.0203 11.1893C21.3486 11.1974 20.6766 11.1921 20.0048 11.1921Z" fill="#146A36"/>
<path d="M17.5484 25.2661C18.2746 25.2633 18.8358 25.8104 18.8392 26.5245C18.8427 27.2335 18.2794 27.7966 17.5617 27.8016C16.8508 27.8065 16.2743 27.2421 16.2705 26.5374C16.2667 25.8259 16.8266 25.2689 17.5484 25.2661ZM17.5548 27.0394C17.7161 26.8025 17.8891 26.6598 17.8767 26.5355C17.8641 26.4092 17.6687 26.3012 17.5533 26.1852C17.4378 26.3016 17.2422 26.4101 17.2295 26.5368C17.2172 26.6605 17.3917 26.8029 17.5548 27.0394Z" fill="#146A36"/>
<path d="M22.4525 27.8008C21.7356 27.8044 21.1666 27.2468 21.1631 26.5373C21.1596 25.8233 21.7179 25.2679 22.4408 25.2661C23.1626 25.2644 23.7293 25.8169 23.7318 26.5249C23.7342 27.2306 23.1661 27.7973 22.4525 27.8008ZM22.4683 27.0399C22.6222 26.7946 22.7908 26.6444 22.773 26.5211C22.7548 26.3949 22.554 26.295 22.4331 26.1836C22.3232 26.3054 22.1338 26.4223 22.1261 26.5502C22.1187 26.6745 22.2975 26.81 22.4683 27.0399Z" fill="#146A36"/>
<path d="M20.0046 23.0195C20.7224 23.0213 21.2842 23.5806 21.2815 24.2906C21.2788 25.0016 20.7165 25.5552 19.9974 25.5547C19.2841 25.5543 18.7184 24.9914 18.7202 24.2839C18.7221 23.5729 19.286 23.0178 20.0046 23.0195ZM20.0112 23.7862C19.8427 24.0139 19.6597 24.1536 19.67 24.2772C19.6807 24.406 19.8764 24.612 19.9937 24.6138C20.113 24.6155 20.3164 24.4196 20.3329 24.2911C20.3487 24.1685 20.1708 24.0211 20.0112 23.7862Z" fill="#146A36"/>
</svg>
